<?xml version="1.0" encoding="utf-8" standalone="no"?>
<!DOCTYPE svg PUBLIC "-//W3C//DTD SVG 1.1//EN"
  "http://www.w3.org/Graphics/SVG/1.1/DTD/svg11.dtd">
<svg height="216pt" version="1.1" viewBox="0 0 576 216" width="576pt" xmlns="http://www.w3.org/2000/svg" xmlns:xlink="http://www.w3.org/1999/xlink">
 <metadata>
  <rdf:RDF xmlns:cc="http://creativecommons.org/ns#" xmlns:dc="http://purl.org/dc/elements/1.1/" xmlns:rdf="http://www.w3.org/1999/02/22-rdf-syntax-ns#">
   <cc:Work>
    <dc:type rdf:resource="http://purl.org/dc/dcmitype/StillImage"/>
    <dc:date>2023-07-25T00:06:27.709511</dc:date>
    <dc:format>image/svg+xml</dc:format>
    <dc:creator>
     <cc:Agent>
      <dc:title>Matplotlib v3.4.3, https://matplotlib.org/</dc:title>
     </cc:Agent>
    </dc:creator>
   </cc:Work>
  </rdf:RDF>
 </metadata>
 <defs>
  <style type="text/css">*{stroke-linecap:butt;stroke-linejoin:round;}</style>
 </defs>
 <g id="figure_1">
  <g id="patch_1">
   <path d="M 0 216 
L 576 216 
L 576 0 
L 0 0 
z
" style="fill:#ffffff;"/>
  </g>
  <g id="axes_1">
   <g id="patch_2">
    <path d="M 48.060391 59.733333 
L 565.2 59.733333 
L 565.2 10.8 
L 48.060391 10.8 
z
" style="fill:#ffffff;"/>
   </g>
   <g id="patch_3">
    <path clip-path="url(#p47f5a0d178)" d="M 80.350872 59.733333 
L 80.350872 10.8 
L 90.847913 10.8 
L 90.847913 59.733333 
z
" style="fill:#008000;opacity:0.3;stroke:#008000;stroke-linejoin:miter;"/>
   </g>
   <g id="patch_4">
    <path clip-path="url(#p47f5a0d178)" d="M 119.703798 59.733333 
L 119.703798 10.8 
L 129.673791 10.8 
L 129.673791 59.733333 
z
" style="fill:#008000;opacity:0.3;stroke:#008000;stroke-linejoin:miter;"/>
   </g>
   <g id="patch_5">
    <path clip-path="url(#p47f5a0d178)" d="M 173.638388 59.733333 
L 173.638388 10.8 
L 188.791021 10.8 
L 188.791021 59.733333 
z
" style="fill:#008000;opacity:0.3;stroke:#008000;stroke-linejoin:miter;"/>
   </g>
   <g id="patch_6">
    <path clip-path="url(#p47f5a0d178)" d="M 284.054968 59.733333 
L 284.054968 10.8 
L 309.660722 10.8 
L 309.660722 59.733333 
z
" style="fill:#008000;opacity:0.3;stroke:#008000;stroke-linejoin:miter;"/>
   </g>
   <g id="patch_7">
    <path clip-path="url(#p47f5a0d178)" d="M 509.280195 59.733333 
L 509.280195 10.8 
L 532.95344 10.8 
L 532.95344 59.733333 
z
" style="fill:#008000;opacity:0.3;stroke:#008000;stroke-linejoin:miter;"/>
   </g>
   <g id="matplotlib.axis_1"/>
   <g id="matplotlib.axis_2">
    <g id="text_1">
     <!-- $v$ -->
     <g transform="translate(23.260391 31.939167)scale(0.16 -0.16)">
      <defs>
       <path d="M 459 3500 
L 1069 3500 
L 1581 525 
L 3256 3500 
L 3866 3500 
L 1875 0 
L 1100 0 
L 459 3500 
z
" id="DejaVuSans-Oblique-76" transform="scale(0.015625)"/>
      </defs>
      <use transform="translate(0 0.3125)" xlink:href="#DejaVuSans-Oblique-76"/>
     </g>
    </g>
   </g>
   <g id="line2d_1">
    <path clip-path="url(#p47f5a0d178)" d="M 71.566737 21.260078 
L 71.962023 21.18452 
L 72.269467 21.033404 
L 72.44515 20.957846 
L 72.576912 20.901177 
L 72.708674 20.995625 
L 72.752595 21.090073 
L 72.796515 21.052294 
L 72.972198 20.995625 
L 73.71885 20.78784 
L 74.158056 20.712282 
L 74.245898 20.655613 
L 74.333739 21.222299 
L 74.37766 20.901177 
L 74.42158 20.580055 
L 74.509422 20.636724 
L 74.772946 20.674503 
L 75.03647 20.580055 
L 75.168232 20.447829 
L 75.212153 20.334491 
L 75.299994 20.731172 
L 75.343915 20.466718 
L 75.475677 20.126707 
L 75.607439 20.164486 
L 75.651359 20.107817 
L 75.69528 20.183375 
L 75.739201 20.240044 
L 75.783121 20.126707 
L 75.827042 20.013369 
L 75.870963 20.070038 
L 76.002725 20.183375 
L 76.178408 19.918922 
L 76.222328 19.99448 
L 76.35409 20.107817 
L 76.529773 19.881143 
L 76.573694 20.032259 
L 76.617614 20.183375 
L 76.661535 20.107817 
L 76.705456 20.013369 
L 76.749376 20.107817 
L 76.881138 20.183375 
L 76.96898 19.824474 
L 77.0129 19.97559 
L 77.056821 20.126707 
L 77.100742 20.032259 
L 77.232504 19.786695 
L 77.276424 19.862253 
L 77.320345 19.918922 
L 77.364266 19.805585 
L 77.408186 19.692247 
L 77.452107 19.786695 
L 77.539948 19.843364 
L 77.583869 19.805585 
L 77.803473 19.730026 
L 78.023076 19.522242 
L 78.154838 19.446683 
L 78.2866 19.276678 
L 78.330521 19.314457 
L 78.769727 19.390015 
L 78.989331 19.352236 
L 79.077172 18.804439 
L 79.121093 18.993335 
L 79.165013 19.201119 
L 79.252855 19.16334 
L 79.340696 19.106672 
L 79.384617 19.16334 
L 79.5603 19.220009 
L 79.911665 18.955556 
L 79.955586 18.879997 
L 80.043427 19.408904 
L 80.087348 19.106672 
L 80.21911 18.76666 
L 80.87792 18.672213 
L 81.141444 18.577765 
L 81.668492 18.898887 
L 81.800254 18.898887 
L 81.888095 18.36998 
L 81.932016 18.577765 
L 82.063778 18.842218 
L 82.19554 18.974445 
L 82.371223 19.106672 
L 82.459064 19.16334 
L 82.678668 19.295567 
L 82.81043 19.257788 
L 82.942192 19.257788 
L 83.117874 19.333346 
L 83.337478 19.522242 
L 83.644922 19.654468 
L 83.776684 19.730026 
L 83.864526 19.767805 
L 83.908447 19.730026 
L 84.611177 20.202265 
L 84.78686 20.126707 
L 84.918622 20.145596 
L 84.962543 20.107817 
L 85.006463 20.183375 
L 85.313908 20.580055 
L 85.533512 20.523387 
L 85.928798 20.598945 
L 86.587608 21.297858 
L 86.895052 21.373416 
L 87.422101 21.694538 
L 87.641704 21.694538 
L 87.685625 21.770096 
L 87.729545 21.694538 
L 87.817387 21.656759 
L 87.861307 21.694538 
L 88.300514 22.110107 
L 88.564038 22.204555 
L 88.65188 22.563456 
L 88.6958 22.39345 
L 88.739721 22.204555 
L 88.827562 22.299003 
L 89.266769 22.601235 
L 89.486372 22.695683 
L 89.530293 22.676793 
L 89.618134 22.147887 
L 89.662055 22.41234 
L 89.793817 22.733462 
L 90.452627 23.167921 
L 90.540469 23.243479 
L 90.584389 23.337927 
L 90.62831 23.262369 
L 90.672231 23.186811 
L 90.716151 23.22459 
L 91.155358 23.62127 
L 91.506723 23.696828 
L 91.550644 23.64016 
L 91.638486 23.999061 
L 91.682406 23.829055 
L 91.814168 23.583491 
L 92.077692 23.791276 
L 92.253375 23.791276 
L 92.341216 23.904613 
L 92.385137 23.847944 
L 92.736502 23.659049 
L 93.21963 23.791276 
L 93.395313 23.659049 
L 93.570995 23.507933 
L 93.658837 23.866834 
L 93.702757 23.659049 
L 93.834519 23.394596 
L 94.229805 23.451264 
L 94.273726 23.507933 
L 94.317647 23.470154 
L 94.581171 23.054584 
L 94.625091 22.82791 
L 94.669012 22.997915 
L 94.712933 23.149032 
L 94.800774 23.092363 
L 95.283902 23.22459 
L 95.679188 23.016805 
L 96.074474 23.111253 
L 96.250157 23.092363 
L 96.513681 22.903468 
L 96.557601 22.82791 
L 96.645443 23.281258 
L 96.689363 23.035695 
L 96.821125 22.752352 
L 97.040729 22.846799 
L 97.260332 22.82791 
L 97.348173 22.922357 
L 97.392094 22.865689 
L 97.567777 22.563456 
L 97.611697 22.299003 
L 97.655618 22.469009 
L 97.78738 22.657904 
L 98.44619 22.563456 
L 99.148921 22.374561 
L 99.675969 22.355671 
L 99.807731 22.166776 
L 99.851652 22.185666 
L 100.203017 22.223445 
L 100.466541 22.128997 
L 100.510462 22.034549 
L 100.554383 22.072328 
L 100.598303 22.110107 
L 100.642224 22.01566 
L 100.817907 21.883433 
L 101.432796 21.788985 
L 101.476717 21.713427 
L 101.564558 20.844509 
L 101.608479 21.260078 
L 101.69632 21.656759 
L 101.740241 21.637869 
L 101.872003 21.694538 
L 102.003765 21.713427 
L 102.223368 21.732317 
L 102.399051 21.694538 
L 102.750417 21.354526 
L 103.013941 21.354526 
L 103.277465 21.260078 
L 103.760592 20.957846 
L 103.936275 20.995625 
L 104.331561 20.712282 
L 104.639006 20.39116 
L 104.90253 20.315602 
L 106.000547 19.503352 
L 106.264071 19.314457 
L 106.307991 19.220009 
L 106.395833 18.502207 
L 106.439753 18.76666 
L 106.483674 19.031114 
L 106.571515 18.974445 
L 106.835039 18.879997 
L 107.186405 18.634434 
L 107.274246 18.483317 
L 107.318167 18.521096 
L 107.362088 18.558875 
L 107.406008 18.464428 
L 107.625612 18.218864 
L 107.889136 18.124416 
L 108.504025 17.57662 
L 108.547946 17.652178 
L 108.591867 17.727736 
L 108.635787 17.633288 
L 108.679708 17.519951 
L 108.767549 17.55773 
L 109.118915 17.009934 
L 109.162835 17.16105 
L 109.206756 17.331056 
L 109.250677 17.066602 
L 109.382439 16.74548 
L 109.558121 16.669922 
L 109.733804 16.594364 
L 109.909487 16.613254 
L 110.041249 16.197684 
L 110.085169 15.93323 
L 110.12909 16.103236 
L 110.173011 16.273242 
L 110.216932 16.197684 
L 110.260852 16.122126 
L 110.304773 16.235463 
L 110.436535 16.3488 
L 110.568297 16.197684 
L 110.612218 16.084347 
L 110.656138 16.141015 
L 110.7879 16.141015 
L 110.875742 16.122126 
L 111.051424 15.801004 
L 111.095345 15.876562 
L 111.139266 15.95212 
L 111.183186 15.857672 
L 111.227107 15.744335 
L 111.271028 15.819893 
L 111.44671 15.93323 
L 111.754155 15.857672 
L 111.841997 15.763225 
L 111.885917 15.819893 
L 111.929838 15.857672 
L 111.973759 15.782114 
L 112.105521 15.668777 
L 112.852172 15.593219 
L 113.027855 15.404323 
L 113.37922 15.442103 
L 113.598824 15.366544 
L 113.686665 14.686521 
L 113.730586 14.950975 
L 113.862348 15.234318 
L 114.081951 15.215428 
L 114.125872 15.272097 
L 114.169792 15.215428 
L 114.301554 15.215428 
L 114.433316 15.15876 
L 114.65292 14.969864 
L 115.092127 15.045422 
L 115.355651 14.950975 
L 115.794857 14.837638 
L 115.926619 14.875417 
L 116.102302 14.837638 
L 116.234064 14.780969 
L 116.497588 14.592074 
L 116.717192 14.667632 
L 116.805033 14.667632 
L 117.419922 14.270952 
L 117.771288 14.440957 
L 117.859129 14.459847 
L 117.990891 14.497626 
L 118.254415 14.157614 
L 118.298336 14.233172 
L 118.386177 14.270952 
L 118.430098 14.233172 
L 118.517939 14.32762 
L 118.56186 14.270952 
L 118.693622 14.176504 
L 118.869305 14.157614 
L 119.440274 14.025388 
L 119.703798 14.025388 
L 119.83556 13.874271 
L 119.923401 14.157614 
L 119.967322 13.987609 
L 120.099084 13.798713 
L 120.582211 14.119835 
L 120.713973 14.006498 
L 120.801814 14.422068 
L 120.845735 14.195393 
L 120.977497 13.968719 
L 121.592387 14.233172 
L 121.680228 14.648742 
L 121.724149 14.440957 
L 121.768069 14.252062 
L 121.855911 14.308731 
L 122.075514 14.516515 
L 122.339038 14.648742 
L 122.4708 14.554295 
L 122.558642 14.7243 
L 122.602562 14.592074 
L 122.646483 14.459847 
L 122.690404 14.516515 
L 123.217452 14.837638 
L 123.349214 14.837638 
L 123.437055 14.289841 
L 123.480976 14.573184 
L 123.656658 14.988754 
L 123.78842 15.15876 
L 124.051945 15.366544 
L 124.227627 15.423213 
L 124.315469 14.969864 
L 124.359389 15.196539 
L 124.535072 15.55544 
L 124.622913 15.649887 
L 124.842517 15.876562 
L 125.106041 16.122126 
L 125.193882 16.216573 
L 125.237803 16.159905 
L 125.281723 16.122126 
L 125.325644 16.216573 
L 126.116216 17.746625 
L 126.291899 17.9733 
L 127.03855 19.5978 
L 127.214233 19.881143 
L 127.345995 20.164486 
L 127.829123 21.430084 
L 128.180488 22.034549 
L 128.97106 23.772386 
L 129.058902 24.490189 
L 129.102822 24.301293 
L 129.146743 24.112398 
L 129.234584 24.206846 
L 129.761632 25.62356 
L 130.156919 26.171357 
L 130.288681 26.228025 
L 130.859649 26.832491 
L 131.035332 27.040275 
L 131.167094 27.115833 
L 131.254935 27.24806 
L 131.298856 27.191392 
L 131.342777 27.134723 
L 131.386697 27.172502 
L 131.56238 27.210281 
L 131.738063 27.134723 
L 131.781984 27.078054 
L 131.825904 27.134723 
L 131.913746 27.134723 
L 132.133349 26.85138 
L 132.17727 26.889159 
L 132.22119 26.945828 
L 132.265111 26.908049 
L 132.396873 26.813601 
L 132.440794 26.87027 
L 132.660397 27.115833 
L 132.704318 27.059165 
L 132.748238 27.002496 
L 132.792159 27.040275 
L 133.055683 27.134723 
L 133.231366 27.134723 
L 133.275287 27.191392 
L 133.319207 27.115833 
L 133.49489 26.983607 
L 133.626652 27.059165 
L 133.758414 27.096944 
L 133.890176 27.078054 
L 134.1537 27.115833 
L 134.241541 26.945828 
L 134.285462 27.021386 
L 134.329383 27.078054 
L 134.373303 26.983607 
L 134.505065 26.813601 
L 134.548986 26.832491 
L 135.076034 26.945828 
L 135.251717 26.87027 
L 135.295638 26.813601 
L 135.383479 27.115833 
L 135.4274 26.926938 
L 135.559162 26.719153 
L 136.13013 26.87027 
L 136.349734 26.756932 
L 136.437575 27.078054 
L 136.481496 26.87027 
L 136.613258 26.605816 
L 136.832861 26.700264 
L 136.964623 26.681374 
L 137.315989 26.605816 
L 137.40383 26.492479 
L 137.491671 26.926938 
L 137.535592 26.681374 
L 137.579513 26.4547 
L 137.667354 26.473589 
L 137.886958 26.549148 
L 138.01872 26.605816 
L 138.150482 26.530258 
L 138.326164 26.473589 
L 138.414006 26.416921 
L 138.457926 26.341363 
L 138.501847 26.398031 
L 138.545768 26.4547 
L 138.589688 26.379142 
L 138.809292 26.265805 
L 139.028895 26.341363 
L 139.907309 26.001351 
L 140.039071 26.133578 
L 140.214753 26.076909 
L 140.566119 26.020241 
L 140.741801 25.774677 
L 140.873563 25.850235 
L 141.005326 25.869124 
L 141.224929 25.774677 
L 141.97158 25.510223 
L 142.147263 25.604671 
L 142.498629 25.548002 
L 142.630391 25.189101 
L 142.674311 24.962427 
L 142.718232 25.132433 
L 142.849994 25.283549 
L 143.025677 25.302438 
L 143.289201 25.302438 
L 143.464883 25.22688 
L 143.640566 25.056874 
L 143.684487 25.113543 
L 143.728407 25.151322 
L 143.772328 25.056874 
L 143.90409 24.981316 
L 144.51898 24.886869 
L 145.002107 24.773531 
L 145.309552 24.792421 
L 145.529155 24.886869 
L 145.616997 24.886869 
L 145.792679 24.527968 
L 145.8366 24.395741 
L 145.880521 24.452409 
L 145.924441 24.527968 
L 145.968362 24.490189 
L 146.100124 24.490189 
L 146.187965 24.641305 
L 146.231886 24.603526 
L 146.407569 24.584636 
L 147.1103 24.376851 
L 147.329903 24.395741 
L 147.988713 23.942392 
L 148.296158 24.112398 
L 148.603602 23.885723 
L 148.735365 23.810165 
L 148.823206 23.149032 
L 148.867127 23.413485 
L 148.998889 23.677939 
L 149.08673 23.545712 
L 149.130651 23.583491 
L 149.262413 23.64016 
L 149.350254 23.545712 
L 149.394175 23.583491 
L 149.569857 23.677939 
L 149.701619 23.60238 
L 150.052985 23.356817 
L 150.272588 23.489043 
L 150.492192 23.413485 
L 150.711795 23.413485 
L 150.755716 23.356817 
L 150.843557 22.790131 
L 150.887478 23.035695 
L 150.931398 23.262369 
L 151.01924 23.22459 
L 151.151002 23.281258 
L 151.326684 23.337927 
L 152.205098 23.073474 
L 152.644305 22.979026 
L 152.819987 22.941247 
L 152.863908 23.016805 
L 152.907829 22.922357 
L 153.039591 22.82791 
L 153.171353 22.903468 
L 153.390956 22.82791 
L 153.742322 22.733462 
L 154.049766 22.582346 
L 154.31329 22.676793 
L 154.488973 22.582346 
L 154.796418 22.431229 
L 154.884259 22.544567 
L 154.92818 22.450119 
L 155.059942 22.355671 
L 155.191704 22.374561 
L 155.367387 22.355671 
L 155.762673 22.091218 
L 155.806593 22.204555 
L 155.850514 22.299003 
L 155.894435 22.204555 
L 156.026197 22.034549 
L 156.201879 22.166776 
L 156.289721 21.977881 
L 156.333641 22.072328 
L 156.377562 22.147887 
L 156.421483 22.072328 
L 156.553245 21.977881 
L 156.728928 21.883433 
L 156.816769 21.524532 
L 156.86069 21.656759 
L 156.992452 21.883433 
L 157.036372 21.864544 
L 157.124214 21.883433 
L 157.299896 21.958991 
L 157.739103 21.826764 
L 157.826944 21.883433 
L 157.870865 21.845654 
L 158.222231 21.448974 
L 158.397913 22.072328 
L 158.573596 21.392305 
L 158.661437 21.807875 
L 158.705358 21.60009 
L 158.83712 21.354526 
L 158.924961 21.581201 
L 158.968882 21.486753 
L 159.012803 21.373416 
L 159.056723 21.430084 
L 159.188485 21.448974 
L 159.320247 21.505642 
L 159.364168 21.562311 
L 159.408089 21.448974 
L 159.45201 21.316747 
L 159.49593 21.373416 
L 159.539851 21.430084 
L 159.627692 21.127852 
L 159.671613 21.18452 
L 159.803375 21.373416 
L 159.891216 21.052294 
L 159.979058 21.165631 
L 160.198661 21.146741 
L 160.374344 21.165631 
L 160.637868 20.976736 
L 160.725709 21.127852 
L 160.76963 21.241189 
L 160.81355 21.052294 
L 160.857471 20.844509 
L 160.945312 20.863398 
L 161.033154 20.712282 
L 161.077075 20.750061 
L 161.208837 20.80673 
L 161.648043 20.504497 
L 161.735885 20.863398 
L 161.779805 20.693393 
L 161.955488 20.447829 
L 162.08725 20.466718 
L 162.394695 20.37227 
L 162.570378 20.277823 
L 162.614298 20.277823 
L 162.658219 20.636724 
L 162.70214 20.485608 
L 162.877822 20.202265 
L 163.229188 20.126707 
L 163.580553 19.956701 
L 163.712315 19.918922 
L 163.931918 19.692247 
L 164.107601 19.862253 
L 164.151522 19.824474 
L 164.502887 19.654468 
L 164.67857 19.843364 
L 164.722491 19.918922 
L 164.766411 19.805585 
L 164.854253 19.560021 
L 164.942094 19.5978 
L 165.161697 19.654468 
L 165.293459 19.57891 
L 165.644825 19.352236 
L 165.820508 19.371125 
L 166.391476 19.106672 
L 166.479318 18.747771 
L 166.523238 18.917776 
L 166.655 19.144451 
L 166.874604 19.144451 
L 167.006366 19.16334 
L 167.225969 18.974445 
L 167.357731 18.955556 
L 167.401652 19.106672 
L 167.445573 18.993335 
L 167.577335 18.879997 
L 168.323986 18.539986 
L 168.367907 18.653323 
L 168.411827 18.747771 
L 168.455748 18.615544 
L 169.597686 18.237753 
L 169.817289 18.218864 
L 170.080813 18.029968 
L 170.432179 18.086637 
L 170.476099 18.029968 
L 170.52002 18.067748 
L 170.651782 18.048858 
L 171.442354 17.822184 
L 171.705878 17.841073 
L 171.925482 17.727736 
L 171.969402 17.727736 
L 172.101164 17.123271 
L 172.145085 17.425503 
L 172.232926 17.727736 
L 172.276847 17.708846 
L 172.49645 17.727736 
L 172.716054 17.633288 
L 172.891736 17.57662 
L 173.594467 17.57662 
L 173.638388 17.463283 
L 173.682309 17.501062 
L 173.814071 17.538841 
L 173.857991 17.519951 
L 173.945833 17.123271 
L 173.989753 17.349945 
L 174.165436 17.652178 
L 174.824246 17.708846 
L 174.956008 17.878852 
L 175.08777 17.916631 
L 175.439136 18.086637 
L 175.526977 18.086637 
L 175.70266 18.237753 
L 175.74658 17.841073 
L 175.790501 18.011079 
L 176.010104 18.502207 
L 176.624994 18.823329 
L 176.756756 19.408904 
L 176.800677 19.012224 
L 176.888518 19.050003 
L 177.152042 19.276678 
L 177.591249 19.673358 
L 177.67909 19.805585 
L 178.425742 21.18452 
L 178.601424 21.373416 
L 179.304155 22.884578 
L 179.567679 23.413485 
L 179.655521 23.942392 
L 179.699441 23.659049 
L 180.006886 24.301293 
L 180.182569 24.697973 
L 180.446093 25.056874 
L 180.665696 25.548002 
L 180.885299 26.001351 
L 181.148824 26.473589 
L 181.58803 27.134723 
L 181.631951 27.040275 
L 181.983316 28.003642 
L 182.071158 28.135868 
L 182.598206 29.023676 
L 182.905651 29.533694 
L 183.257016 30.251496 
L 183.432699 30.440391 
L 183.784064 30.969298 
L 183.871905 30.780403 
L 184.13543 31.668211 
L 185.101684 33.084926 
L 185.760495 34.256077 
L 186.155781 34.822763 
L 186.199701 35.257222 
L 186.287543 35.106106 
L 186.507146 35.408338 
L 187.165956 36.333925 
L 187.38556 36.617268 
L 187.42948 36.881722 
L 187.517322 36.825053 
L 187.561242 36.806164 
L 187.736925 37.146175 
L 187.956528 37.448408 
L 188.263973 37.76953 
L 188.483576 38.090652 
L 188.615338 38.241768 
L 188.659259 38.203989 
L 188.70318 38.16621 
L 188.878863 38.695117 
L 189.36199 39.337361 
L 189.976879 39.979605 
L 190.196483 40.1685 
L 190.899214 40.659628 
L 191.074896 40.754076 
L 191.250579 40.791855 
L 191.33842 40.546291 
L 191.558024 41.207425 
L 191.997231 41.698552 
L 192.041151 41.660773 
L 192.128993 41.566326 
L 192.172913 41.641884 
L 192.524279 41.963006 
L 192.656041 42.019674 
L 192.743882 42.227459 
L 192.787803 42.038564 
L 192.831723 42.114122 
L 193.051327 42.227459 
L 193.183089 42.227459 
L 193.227009 42.095233 
L 193.314851 42.133012 
L 193.402692 42.114122 
L 193.578375 42.038564 
L 193.973661 41.981895 
L 195.115599 41.887448 
L 195.950091 41.641884 
L 196.389298 41.566326 
L 196.652822 41.452988 
L 196.828505 41.471878 
L 197.092029 41.452988 
L 197.267712 41.490768 
L 197.619077 41.434099 
L 197.926522 41.207425 
L 198.102205 41.226314 
L 198.190046 41.301872 
L 198.321808 41.150756 
L 198.45357 41.169645 
L 198.585332 41.150756 
L 199.463745 40.697407 
L 199.507666 40.60296 
L 199.639428 40.829634 
L 199.902952 40.829634 
L 200.43 40.716297 
L 200.649604 40.640739 
L 200.781366 40.621849 
L 200.957048 40.58407 
L 201.088811 40.527401 
L 201.879383 40.451843 
L 202.142907 40.281837 
L 202.230748 40.640739 
L 202.274669 40.414064 
L 202.406431 40.18739 
L 202.669955 40.281837 
L 203.02132 40.206279 
L 203.240924 40.036274 
L 203.460527 39.885157 
L 203.548368 40.319617 
L 203.592289 40.074053 
L 203.63621 39.828489 
L 203.724051 39.885157 
L 203.899734 39.922936 
L 204.734227 39.677372 
L 205.349116 39.582925 
L 205.524799 39.545146 
L 205.700481 39.488477 
L 205.964006 39.299582 
L 206.095768 39.337361 
L 206.139688 39.677372 
L 206.183609 39.545146 
L 206.359292 39.224024 
L 206.447133 39.280692 
L 206.491054 39.242913 
L 206.842419 39.205134 
L 207.193784 39.129576 
L 207.413388 39.016239 
L 207.457309 39.205134 
L 207.501229 39.129576 
L 207.676912 38.827343 
L 207.808674 38.921791 
L 207.984357 38.95957 
L 208.116119 38.902902 
L 208.291801 38.827343 
L 208.511405 38.732896 
L 209.038453 38.619559 
L 209.872946 38.58178 
L 210.048628 38.260658 
L 210.224311 38.506221 
L 211.234487 38.16621 
L 211.366249 38.392884 
L 211.410169 38.279547 
L 211.541931 38.109541 
L 212.06898 38.525111 
L 212.200742 38.222878 
L 212.288583 38.279547 
L 212.376424 38.279547 
L 212.508186 38.16621 
L 212.596028 38.222878 
L 212.639948 38.185099 
L 213.254838 38.015094 
L 213.430521 37.977315 
L 213.825807 37.76953 
L 213.869727 38.16621 
L 213.913648 38.015094 
L 214.133251 37.656192 
L 214.70422 37.599524 
L 214.748141 37.467297 
L 214.835982 37.505076 
L 215.670475 37.259512 
L 215.890078 37.240623 
L 216.153602 37.127286 
L 216.373206 37.070617 
L 216.417126 37.240623 
L 216.461047 37.089507 
L 216.548889 36.93839 
L 216.592809 36.95728 
L 217.339461 36.862832 
L 217.602985 36.730605 
L 217.690826 36.862832 
L 217.822588 36.692826 
L 218.56924 36.617268 
L 218.788843 36.485041 
L 218.832764 36.466152 
L 218.920605 36.012803 
L 218.964526 36.182809 
L 219.140208 36.428373 
L 220.018622 36.088361 
L 220.106463 35.483896 
L 220.150384 35.672792 
L 220.326067 36.069472 
L 220.501749 36.031693 
L 220.765273 36.012803 
L 220.940956 35.975024 
L 221.248401 35.74835 
L 221.336242 35.087216 
L 221.380163 35.295001 
L 221.511925 35.691681 
L 221.555846 35.672792 
L 222.126814 35.578344 
L 222.5221 35.35167 
L 222.566021 34.973879 
L 222.609942 35.143885 
L 222.785625 35.35167 
L 223.268752 35.257222 
L 223.7958 35.106106 
L 223.839721 35.162774 
L 223.971483 34.954989 
L 224.322848 34.992768 
L 224.762055 34.91721 
L 224.981658 34.822763 
L 225.0695 34.898321 
L 225.11342 34.803873 
L 225.245182 34.728315 
L 225.947913 34.633867 
L 226.079675 34.558309 
L 226.167517 34.237187 
L 226.211437 34.331635 
L 226.38712 34.52053 
L 227.002009 34.426082 
L 227.748661 34.218298 
L 227.924344 34.180519 
L 228.231788 34.12385 
L 228.36355 34.067181 
L 228.670995 34.010513 
L 228.714916 33.934955 
L 228.802757 33.991623 
L 229.549409 33.916065 
L 229.681171 33.72717 
L 229.725091 33.764949 
L 229.812933 33.840507 
L 229.944695 33.689391 
L 230.252139 33.70828 
L 230.515664 33.613833 
L 230.691346 33.538274 
L 230.823108 33.481606 
L 230.998791 33.406048 
L 231.218394 33.368269 
L 231.306236 33.462716 
L 231.437998 33.292711 
L 231.877204 33.198263 
L 232.096808 33.028257 
L 232.140729 33.103815 
L 232.184649 33.160484 
L 232.22857 32.952699 
L 232.316411 32.990478 
L 232.492094 32.952699 
L 232.931301 32.858251 
L 233.414428 32.556019 
L 234.029318 32.480461 
L 234.380683 32.216007 
L 234.424604 31.630432 
L 234.468524 31.932664 
L 234.600286 32.253786 
L 234.688128 32.216007 
L 234.775969 32.216007 
L 234.81989 32.272676 
L 234.86381 32.178228 
L 235.083414 32.178228 
L 235.566541 31.743769 
L 235.610462 31.573763 
L 235.654383 31.70599 
L 235.786145 31.819327 
L 236.181431 31.724879 
L 236.664558 31.422647 
L 236.7524 31.158193 
L 236.79632 31.30931 
L 236.928082 31.441536 
L 237.45513 31.365978 
L 237.806496 30.931519 
L 237.894337 30.440391 
L 238.026099 31.044856 
L 238.201782 31.063746 
L 238.333544 31.063746 
L 240.090371 30.308164 
L 240.134292 30.515949 
L 240.178212 30.383723 
L 240.309974 30.251496 
L 240.793102 30.157048 
L 241.100546 29.930374 
L 241.32015 29.760368 
L 241.583674 29.779258 
L 244.218914 28.721444 
L 244.306756 28.778112 
L 244.482439 28.494769 
L 244.526359 28.910339 
L 244.57028 28.683665 
L 244.614201 28.438101 
L 244.702042 28.47588 
L 244.921645 28.513659 
L 245.097328 28.419211 
L 245.316931 28.343653 
L 245.536535 28.173647 
L 245.624376 27.455845 
L 245.756138 28.116979 
L 246.063583 28.022531 
L 247.337282 27.588072 
L 247.776489 27.493624 
L 247.908251 27.474735 
L 248.347458 27.606961 
L 248.786665 27.040275 
L 248.830585 27.115833 
L 248.874506 27.191392 
L 249.006268 26.983607 
L 249.225872 26.983607 
L 249.313713 26.926938 
L 249.357634 27.040275 
L 249.401554 27.002496 
L 249.577237 26.945828 
L 249.840761 26.926938 
L 249.928602 27.059165 
L 250.016444 26.605816 
L 250.060364 26.756932 
L 250.104285 26.908049 
L 250.148206 26.85138 
L 250.499571 26.568037 
L 250.631333 26.605816 
L 250.675254 26.416921 
L 250.763095 26.473589 
L 251.158381 26.133578 
L 251.290143 26.095799 
L 251.465826 26.076909 
L 251.817191 25.831345 
L 252.124636 25.585781 
L 252.300319 25.64245 
L 252.432081 25.491334 
L 252.476002 25.548002 
L 252.519922 25.604671 
L 252.563843 25.548002 
L 253.090891 25.019095 
L 253.486177 25.302438 
L 253.530098 25.340217 
L 253.66186 25.056874 
L 253.969305 24.905758 
L 254.013225 24.43352 
L 254.057146 24.584636 
L 254.232829 24.867979 
L 254.32067 24.962427 
L 254.364591 24.905758 
L 254.847718 24.641305 
L 254.891639 24.509078 
L 254.97948 24.584636 
L 255.023401 24.622415 
L 255.067322 24.565747 
L 255.286925 24.395741 
L 255.945735 24.074619 
L 256.033576 23.64016 
L 256.077497 23.734607 
L 256.25318 23.904613 
L 256.341021 23.923503 
L 256.384942 23.772386 
L 256.428862 23.847944 
L 256.604545 23.923503 
L 256.736307 23.772386 
L 256.955911 23.677939 
L 257.043752 23.60238 
L 257.087673 23.734607 
L 257.131593 23.659049 
L 257.351197 23.526822 
L 257.526879 23.507933 
L 257.922165 23.262369 
L 258.010007 22.997915 
L 258.097848 22.620125 
L 258.22961 23.054584 
L 258.712738 22.997915 
L 258.88842 22.884578 
L 259.283706 22.676793 
L 259.54723 22.601235 
L 259.854675 22.374561 
L 259.898596 22.41234 
L 259.942517 22.336782 
L 259.986437 22.242334 
L 260.030358 22.280113 
L 260.118199 22.355671 
L 260.249961 22.204555 
L 260.689168 22.110107 
L 261.304058 21.713427 
L 261.699344 21.61898 
L 261.962868 21.430084 
L 262.050709 20.863398 
L 262.182471 21.354526 
L 262.665598 21.278968 
L 262.929123 21.052294 
L 262.973043 20.542276 
L 263.016964 20.693393 
L 263.192647 20.995625 
L 263.675774 20.901177 
L 263.851457 20.731172 
L 263.939298 20.126707 
L 263.983219 20.334491 
L 264.158901 20.617834 
L 264.510267 20.542276 
L 264.861632 20.126707 
L 264.905553 19.862253 
L 264.949474 20.013369 
L 265.037315 20.315602 
L 265.125156 20.277823 
L 266.354935 19.862253 
L 266.442777 19.862253 
L 266.618459 19.654468 
L 266.750221 19.560021 
L 266.881983 20.013369 
L 266.925904 19.522242 
L 267.013745 19.654468 
L 267.145507 19.5978 
L 267.32119 19.484462 
L 267.452952 19.654468 
L 267.496873 19.654468 
L 267.540794 19.201119 
L 267.628635 19.295567 
L 267.716476 19.295567 
L 267.760397 19.257788 
L 267.804318 19.031114 
L 267.892159 19.106672 
L 268.419207 19.031114 
L 268.63881 18.879997 
L 268.770572 18.898887 
L 268.990176 18.842218 
L 269.297621 18.76666 
L 269.561145 18.539986 
L 269.692907 18.521096 
L 269.824669 18.483317 
L 269.956431 18.407759 
L 270.000351 18.558875 
L 270.088193 18.483317 
L 270.176034 18.539986 
L 270.219955 18.483317 
L 270.395637 18.313311 
L 270.439558 18.36998 
L 270.483479 18.313311 
L 270.659162 18.218864 
L 270.834844 18.105527 
L 270.922686 18.162195 
L 270.966606 18.124416 
L 271.18621 18.067748 
L 271.449734 17.57662 
L 271.493654 17.387724 
L 271.537575 17.55773 
L 271.669337 17.708846 
L 272.328147 17.614399 
L 272.372068 17.501062 
L 272.415989 17.614399 
L 272.459909 17.727736 
L 272.50383 17.652178 
L 272.635592 17.406614 
L 272.679513 17.501062 
L 272.723433 17.57662 
L 272.767354 17.501062 
L 272.899116 17.444393 
L 273.030878 17.463283 
L 273.338323 16.74548 
L 273.601847 17.255498 
L 273.645768 17.14216 
L 273.689688 17.009934 
L 273.733609 17.066602 
L 273.909292 17.123271 
L 273.953212 16.991044 
L 274.041054 17.066602 
L 274.392419 16.783259 
L 274.43634 16.858817 
L 274.568102 16.915486 
L 274.743784 16.934376 
L 274.787705 16.972155 
L 274.919467 16.802149 
L 275.09515 16.669922 
L 275.182991 16.008789 
L 275.226912 16.273242 
L 275.314753 16.537695 
L 275.358674 16.518806 
L 276.808056 15.95212 
L 276.851977 16.027678 
L 276.895898 15.895451 
L 276.939818 15.763225 
L 276.983739 15.819893 
L 277.115501 15.801004 
L 277.598628 15.725446 
L 277.949994 15.55544 
L 278.213518 15.55544 
L 278.477042 15.593219 
L 278.740566 14.932085 
L 278.784487 14.592074 
L 278.828407 14.875417 
L 278.872328 15.13987 
L 278.960169 15.102091 
L 279.531138 15.026533 
L 279.575059 14.856527 
L 279.618979 14.913196 
L 279.706821 14.950975 
L 279.750742 14.913196 
L 280.189948 14.818748 
L 280.629155 14.422068 
L 280.804838 14.384289 
L 281.419727 14.289841 
L 281.727172 14.119835 
L 281.946775 14.119835 
L 282.649506 13.93094 
L 282.86911 13.855382 
L 283.483999 13.458702 
L 284.054968 13.383144 
L 284.23065 13.11869 
L 284.274571 13.024242 
L 284.318492 13.099801 
L 284.450254 13.269806 
L 284.494175 13.156469 
L 284.538095 13.024242 
L 284.582016 13.194248 
L 284.625937 13.383144 
L 284.669857 13.326475 
L 284.801619 13.194248 
L 284.889461 13.477591 
L 284.933381 13.345364 
L 285.109064 13.024242 
L 285.328667 13.477591 
L 285.372588 13.345364 
L 285.416509 13.213138 
L 285.460429 13.53426 
L 285.50435 13.439812 
L 285.548271 13.326475 
L 285.636112 13.364254 
L 285.723953 13.477591 
L 285.767874 13.572039 
L 285.811795 13.307585 
L 285.899636 13.402033 
L 286.251002 13.723155 
L 286.338843 13.798713 
L 286.514526 13.91205 
L 287.041574 14.497626 
L 287.744305 16.405469 
L 287.832146 16.292132 
L 287.876067 16.405469 
L 288.447035 17.784405 
L 288.490956 17.841073 
L 288.534877 18.577765 
L 288.622718 18.38887 
L 288.666639 18.294422 
L 288.710559 18.38887 
L 290.247783 22.053439 
L 291.389721 24.641305 
L 291.433641 24.509078 
L 291.477562 24.357962 
L 291.653245 25.264659 
L 292.399896 26.945828 
L 292.443817 26.832491 
L 292.487738 26.719153 
L 292.839103 27.928083 
L 293.453992 29.212572 
L 293.761437 29.779258 
L 294.464168 31.30931 
L 294.59593 31.498205 
L 294.683771 30.988188 
L 294.903375 32.046001 
L 295.079057 32.556019 
L 295.518264 33.443827 
L 295.693947 33.557164 
L 295.825709 33.840507 
L 295.86963 33.878286 
L 296.045312 34.274966 
L 296.52844 35.257222 
L 297.099409 36.088361 
L 297.319012 36.730605 
L 298.856236 39.488477 
L 299.031918 39.847378 
L 299.251522 40.111832 
L 299.295442 40.130721 
L 299.515046 40.508512 
L 299.690728 40.924082 
L 299.77857 40.848523 
L 299.822491 40.810744 
L 300.042094 41.320762 
L 300.261697 41.452988 
L 300.525221 41.906337 
L 300.920507 42.284128 
L 301.008349 41.887448 
L 301.052269 42.095233 
L 301.315793 42.831924 
L 301.579318 43.190825 
L 301.974604 43.681953 
L 302.106366 43.927517 
L 302.36989 44.097523 
L 302.457731 44.135302 
L 302.589493 44.324197 
L 302.677334 44.475314 
L 303.819272 45.892029 
L 303.907113 45.514238 
L 304.082796 46.175372 
L 304.214558 46.364267 
L 304.434162 46.742058 
L 305.488258 48.158772 
L 305.532178 48.064325 
L 305.576099 47.969877 
L 305.62002 48.045435 
L 306.147068 48.744348 
L 306.498433 49.178807 
L 307.025481 49.688825 
L 307.069402 49.669935 
L 307.332926 50.142173 
L 307.859974 50.859976 
L 308.167419 51.256656 
L 309.133674 52.673371 
L 309.441119 53.126719 
L 309.572881 53.296725 
L 310.231691 53.995638 
L 310.539135 54.052307 
L 310.583056 54.127865 
L 310.626977 54.071196 
L 310.714818 53.957859 
L 310.758739 54.014527 
L 311.066184 54.241202 
L 311.417549 54.278981 
L 311.944597 54.184533 
L 312.295963 53.938969 
L 312.339883 53.825632 
L 312.383804 53.92008 
L 312.471645 54.108975 
L 312.515566 54.071196 
L 312.691249 53.995638 
L 313.525741 53.90119 
L 314.09671 53.542289 
L 314.228472 53.428952 
L 314.448076 53.5234 
L 314.7116 53.5234 
L 314.975124 53.5234 
L 315.414331 53.221167 
L 315.590013 53.164498 
L 315.765696 53.258946 
L 315.985299 53.353394 
L 316.073141 53.410062 
L 316.204903 53.258946 
L 316.556268 53.221167 
L 316.775872 52.975603 
L 316.907634 52.975603 
L 317.127237 52.994493 
L 317.258999 52.975603 
L 317.434682 52.937824 
L 317.698206 52.937824 
L 317.786047 53.145609 
L 317.96173 52.748929 
L 318.576619 52.578923 
L 318.752302 52.673371 
L 319.455033 52.371138 
L 319.542874 52.616702 
L 319.586795 52.427807 
L 319.718557 52.257801 
L 320.640891 52.182243 
L 320.860494 52.050016 
L 321.036177 51.955568 
L 321.21186 51.955568 
L 321.299701 52.050016 
L 321.343622 51.993347 
L 321.475384 51.917789 
L 321.694987 51.936679 
L 321.87067 51.917789 
L 322.661242 51.672225 
L 322.836925 51.634446 
L 322.968687 51.464441 
L 323.012608 51.539999 
L 323.14437 51.577778 
L 323.539656 51.48333 
L 323.978862 51.407772 
L 324.418069 51.313324 
L 324.637673 51.237766 
L 324.725514 51.313324 
L 324.769435 51.218877 
L 324.945117 51.08665 
L 325.472165 50.973313 
L 325.691769 50.878865 
L 328.019565 49.991057 
L 328.107406 49.896609 
L 328.239168 49.802162 
L 328.502692 49.802162 
L 329.073661 49.707714 
L 329.381106 49.575487 
L 329.64463 49.537708 
L 329.732471 49.632156 
L 329.776392 49.537708 
L 329.908154 49.48104 
L 330.171678 49.48104 
L 330.830488 49.424371 
L 331.094012 49.159918 
L 331.225774 49.141028 
L 331.313615 48.574342 
L 331.357536 48.819906 
L 331.489298 49.08436 
L 332.455553 49.04658 
L 332.631236 49.499929 
L 332.719077 49.499929 
L 332.89476 50.217731 
L 332.93868 50.085505 
L 333.070442 49.311034 
L 333.158284 49.556598 
L 333.246125 49.688825 
L 333.290046 49.651045 
L 333.377887 49.726604 
L 333.421808 49.821051 
L 333.509649 49.499929 
L 333.59749 49.575487 
L 333.861015 49.669935 
L 334.036697 49.707714 
L 334.431983 49.783272 
L 334.519825 49.783272 
L 334.651587 49.632156 
L 334.695507 49.745493 
L 334.87119 49.915499 
L 335.661762 50.161063 
L 335.881366 50.085505 
L 336.013128 50.142173 
L 336.14489 50.198842 
L 336.276652 50.217731 
L 336.452334 50.387737 
L 336.496255 50.349958 
L 336.8037 50.387737 
L 336.891541 50.387737 
L 337.067224 50.425516 
L 337.46251 50.331069 
L 337.901717 50.614412 
L 338.077399 50.463295 
L 338.12132 50.595522 
L 338.297003 50.765528 
L 338.648368 50.935534 
L 338.824051 50.973313 
L 339.263258 51.237766 
L 339.307178 51.332214 
L 339.351099 51.275545 
L 339.39502 51.199987 
L 339.43894 51.275545 
L 339.746385 51.50222 
L 339.834226 51.256656 
L 339.878147 51.388882 
L 340.009909 51.577778 
L 340.229513 51.50222 
L 340.493037 51.577778 
L 340.71264 51.710005 
L 340.932243 51.804452 
L 341.327529 52.087795 
L 341.503212 52.163353 
L 341.591054 52.163353 
L 341.678895 52.371138 
L 341.722816 52.31447 
L 341.854578 52.257801 
L 342.162022 52.390028 
L 342.381626 52.560033 
L 342.601229 52.767818 
L 342.68907 52.824487 
L 342.820832 52.843376 
L 343.260039 52.937824 
L 343.347881 52.900045 
L 343.435722 52.484475 
L 343.479643 52.730039 
L 343.611405 53.032272 
L 343.787087 53.013382 
L 344.094532 52.937824 
L 344.226294 52.956714 
L 344.753342 53.032272 
L 345.148628 53.655626 
L 345.23647 53.580068 
L 345.28039 53.485621 
L 345.324311 53.580068 
L 345.456073 53.655626 
L 345.719597 53.617847 
L 346.114883 53.882301 
L 346.158804 53.825632 
L 346.246645 54.108975 
L 346.290566 54.071196 
L 346.334487 54.014527 
L 346.378407 54.090086 
L 346.55409 54.241202 
L 347.256821 54.335649 
L 347.696028 54.788998 
L 347.82779 54.845667 
L 348.135234 55.015673 
L 348.179155 54.977894 
L 348.223076 55.034562 
L 348.4866 55.223458 
L 348.794044 55.261237 
L 348.881886 55.393463 
L 348.969727 54.996783 
L 349.013648 55.261237 
L 349.14541 55.52569 
L 349.540696 55.752364 
L 349.584617 55.714585 
L 349.672458 55.960149 
L 349.716379 55.884591 
L 349.760299 55.809033 
L 349.80422 55.92237 
L 349.935982 56.167934 
L 350.023823 55.903481 
L 350.067744 56.092376 
L 350.111665 56.281271 
L 350.155585 56.167934 
L 350.199506 56.035707 
L 350.243427 56.130155 
L 350.331268 56.451277 
L 350.375189 56.696841 
L 350.419109 56.526835 
L 350.46303 56.356829 
L 350.506951 56.413498 
L 350.638713 56.75351 
L 350.682634 56.602393 
L 350.726554 56.432388 
L 350.770475 56.640172 
L 350.902237 56.923515 
L 350.990078 56.696841 
L 351.033999 56.73462 
L 351.12184 56.772399 
L 351.165761 56.73462 
L 351.341444 56.829068 
L 351.429285 56.73462 
L 351.473206 56.791289 
L 351.648888 56.885736 
L 351.868492 56.999074 
L 352.483381 57.395754 
L 352.615143 57.357975 
L 352.659064 57.282417 
L 352.746905 57.339085 
L 352.834747 57.509091 
L 352.878667 57.433533 
L 353.05435 57.339085 
L 353.449636 57.263527 
L 354.020605 57.414643 
L 354.767256 57.187969 
L 355.250384 57.301306 
L 355.557829 57.282417 
L 356.260559 57.187969 
L 356.568004 57.15019 
L 356.611925 57.206858 
L 356.655845 57.1313 
L 356.831528 56.980184 
L 357.051132 56.961294 
L 357.270735 56.885736 
L 357.490338 56.791289 
L 357.797783 56.545725 
L 358.017386 56.356829 
L 358.324831 55.960149 
L 358.368752 55.752364 
L 358.412673 55.960149 
L 358.456593 56.149045 
L 358.544435 56.111266 
L 358.807959 56.300161 
L 358.939721 56.224603 
L 359.071483 56.205713 
L 359.774213 55.827923 
L 359.949896 55.317905 
L 360.125579 56.489056 
L 360.433024 55.620138 
L 360.476944 55.582359 
L 360.520865 55.639027 
L 360.652627 55.639027 
L 361.223596 55.299016 
L 361.48712 55.11012 
L 361.662803 55.015673 
L 362.453375 54.562324 
L 362.760819 54.411208 
L 362.936502 54.31676 
L 363.595312 53.863411 
L 363.727074 53.92008 
L 363.902757 53.5234 
L 363.946678 53.542289 
L 364.034519 53.485621 
L 364.473726 53.08894 
L 364.912933 52.786708 
L 365.088615 52.767818 
L 365.176457 52.69226 
L 365.308219 52.635592 
L 365.439981 52.578923 
L 365.615663 52.427807 
L 365.747425 52.371138 
L 365.923108 52.238911 
L 366.010949 52.446696 
L 366.05487 52.371138 
L 366.362315 52.050016 
L 366.450156 52.352249 
L 366.494077 52.144464 
L 366.625839 51.8989 
L 366.71368 51.823342 
L 366.757601 51.88001 
L 366.845442 51.88001 
L 367.152887 51.653336 
L 367.284649 51.653336 
L 367.416411 51.785563 
L 367.460332 51.747784 
L 367.98738 51.407772 
L 368.514428 51.313324 
L 368.602269 51.162208 
L 368.64619 51.048871 
L 368.734031 51.124429 
L 369.129317 51.06776 
L 369.26108 51.048871 
L 369.480683 51.029981 
L 369.700286 50.878865 
L 369.744207 50.935534 
L 369.91989 50.973313 
L 370.227334 50.727749 
L 370.315176 50.916644 
L 370.490858 50.406627 
L 370.666541 50.708859 
L 370.754383 50.482185 
L 370.842224 50.538854 
L 371.281431 50.482185 
L 371.369272 50.217731 
L 371.413193 50.2744 
L 371.501034 50.538854 
L 371.720637 51.143319 
L 371.89632 51.011092 
L 371.984161 51.313324 
L 372.072003 50.784417 
L 372.115923 50.916644 
L 372.159844 51.048871 
L 372.247685 50.973313 
L 372.335527 51.048871 
L 372.379448 50.973313 
L 372.467289 50.727749 
L 372.51121 50.519964 
L 372.599051 50.614412 
L 372.686892 50.425516 
L 372.862575 50.973313 
L 373.038258 49.764383 
L 373.126099 50.009947 
L 373.21394 51.728894 
L 373.257861 51.48333 
L 373.389623 50.727749 
L 373.433544 51.029981 
L 373.477464 51.332214 
L 373.521385 51.199987 
L 373.653147 50.67108 
L 373.697068 50.841086 
L 373.740988 50.992202 
L 373.784909 50.897755 
L 373.82883 50.784417 
L 373.916671 51.275545 
L 373.960592 51.143319 
L 374.092354 50.935534 
L 374.180195 51.105539 
L 374.268037 50.784417 
L 374.355878 50.841086 
L 374.619402 50.387737 
L 374.663323 50.463295 
L 375.14645 50.992202 
L 375.234291 50.746638 
L 375.278212 50.803307 
L 375.409974 50.935534 
L 375.453895 50.897755 
L 375.497816 50.841086 
L 375.541736 50.878865 
L 375.673498 50.916644 
L 375.893102 50.859976 
L 376.244467 50.765528 
L 377.122881 50.444406 
L 377.254643 50.482185 
L 377.606008 50.387737 
L 377.869532 50.161063 
L 378.045215 50.198842 
L 378.264818 50.085505 
L 378.484422 49.87772 
L 378.704025 49.518819 
L 378.747946 49.292144 
L 378.791866 49.499929 
L 378.923628 49.688825 
L 379.187152 49.367703 
L 379.362835 49.311034 
L 379.582438 49.292144 
L 380.021645 49.216586 
L 380.285169 49.141028 
L 380.373011 48.744348 
L 380.416931 48.442115 
L 380.460852 48.574342 
L 380.504773 48.725458 
L 380.592614 48.687679 
L 380.724376 48.593232 
L 381.075741 48.177662 
L 381.295345 47.969877 
L 381.471027 47.384302 
L 381.514948 47.497639 
L 381.998076 48.555453 
L 382.129838 48.423226 
L 382.173758 48.328778 
L 382.217679 48.385447 
L 382.349441 48.366557 
L 382.569044 48.328778 
L 382.612965 48.423226 
L 382.656886 48.309889 
L 382.788648 47.875429 
L 382.832568 48.139883 
L 382.876489 48.385447 
L 382.96433 48.309889 
L 383.140013 48.366557 
L 383.271775 47.969877 
L 383.315696 47.988767 
L 383.447458 47.932098 
L 383.667061 47.724313 
L 384.501554 47.629866 
L 385.028602 47.308743 
L 385.248206 46.930953 
L 385.292126 46.968732 
L 385.336047 47.006511 
L 385.379968 46.949842 
L 385.863095 46.307598 
L 385.907016 46.402046 
L 386.126619 46.685389 
L 386.258381 46.685389 
L 386.434064 46.62872 
L 386.521905 46.553162 
L 386.653667 46.288709 
L 386.741509 46.402046 
L 386.82935 46.553162 
L 386.873271 46.420935 
L 386.917191 46.288709 
L 387.005033 46.364267 
L 387.092874 46.534273 
L 387.136795 46.458715 
L 387.180715 46.364267 
L 387.224636 46.496494 
L 387.356398 46.930953 
L 387.400319 46.760947 
L 387.619922 46.269819 
L 387.971288 46.213151 
L 388.14697 45.457569 
L 388.322653 46.420935 
L 388.410494 46.005366 
L 388.454415 46.156482 
L 388.498336 46.288709 
L 388.542256 46.213151 
L 388.717939 46.118703 
L 388.849701 46.043145 
L 388.893622 46.099813 
L 388.937542 46.156482 
L 388.981463 46.080924 
L 389.025384 46.005366 
L 389.069304 46.080924 
L 389.157146 46.118703 
L 389.201066 46.080924 
L 389.288908 45.873139 
L 389.332829 45.929808 
L 389.376749 46.005366 
L 389.42067 45.967587 
L 389.596353 45.85425 
L 389.684194 45.81647 
L 389.728115 45.759802 
L 389.772035 45.83536 
L 389.815956 45.910918 
L 389.991639 45.570907 
L 390.167321 45.41979 
L 390.211242 45.495348 
L 390.299083 45.533127 
L 390.343004 45.495348 
L 391.001814 45.400901 
L 391.616704 44.966441 
L 391.792386 44.947552 
L 392.01199 44.890883 
L 392.407276 44.815325 
L 392.714721 44.437535 
L 392.802562 44.588651 
L 392.978245 44.513093 
L 393.32961 44.343087 
L 393.505293 44.305308 
L 393.812737 44.059744 
L 394.164103 43.79529 
L 394.515468 43.474168 
L 394.735072 43.39861 
L 394.866834 43.360831 
L 394.998596 43.341942 
L 395.130358 43.4175 
L 395.174278 43.493058 
L 395.218199 43.455279 
L 395.569565 43.171936 
L 395.657406 43.134157 
L 395.877009 42.888593 
L 396.008771 42.869703 
L 396.184454 42.850814 
L 396.360137 42.831924 
L 396.623661 42.60525 
L 396.843264 42.491913 
L 396.931105 41.887448 
L 396.975026 42.133012 
L 397.018947 42.359686 
L 397.062868 42.303017 
L 397.23855 42.18968 
L 397.589916 42.133012 
L 397.765598 42.114122 
L 397.985202 41.963006 
L 398.248726 41.887448 
L 398.336567 42.284128 
L 398.380488 42.019674 
L 398.51225 41.660773 
L 399.346743 41.755221 
L 399.478505 41.774111 
L 399.566346 41.698552 
L 399.654187 41.301872 
L 399.698108 41.415209 
L 399.742029 41.528547 
L 399.785949 41.452988 
L 399.917711 41.37743 
L 400.049474 41.282983 
L 400.093394 41.169645 
L 400.137315 41.245204 
L 400.225156 41.282983 
L 400.269077 41.245204 
L 400.664363 41.320762 
L 400.883966 41.188535 
L 401.10357 41.094087 
L 401.235332 41.037419 
L 402.289428 40.58407 
L 402.377269 40.867413 
L 402.42119 40.678518 
L 402.596873 40.376285 
L 402.816476 40.149611 
L 402.860397 40.18739 
L 402.948238 40.149611 
L 403.123921 40.074053 
L 403.299604 40.111832 
L 403.475286 40.111832 
L 404.046255 39.752931 
L 404.265858 39.734041 
L 404.39762 39.752931 
L 404.617224 39.77182 
L 404.705065 39.734041 
L 405.01251 39.35625 
L 405.056431 39.431809 
L 405.100351 39.507367 
L 405.144272 39.469588 
L 405.407796 39.299582 
L 405.803082 39.242913 
L 406.198368 39.167355 
L 406.242289 39.091797 
L 406.33013 39.507367 
L 406.374051 39.280692 
L 406.549734 38.902902 
L 406.725416 38.789564 
L 406.857178 38.770675 
L 406.98894 38.770675 
L 407.120702 38.770675 
L 407.515988 38.676227 
L 407.60383 38.676227 
L 408.174799 38.317326 
L 408.745767 38.241768 
L 408.789688 38.185099 
L 408.877529 37.523966 
L 408.92145 37.845088 
L 408.965371 38.16621 
L 409.053212 38.090652 
L 409.360657 37.845088 
L 410.151229 37.882867 
L 410.19515 37.977315 
L 410.23907 37.826198 
L 410.370832 37.637303 
L 410.897881 37.542855 
L 411.381008 37.240623 
L 411.424929 37.051727 
L 411.468849 37.278402 
L 411.51277 37.505076 
L 411.600611 37.410629 
L 411.732373 37.278402 
L 411.776294 37.202844 
L 411.820215 37.240623 
L 412.083739 37.35396 
L 412.303342 37.37285 
L 412.522946 37.316181 
L 412.654708 37.278402 
L 412.83039 37.183954 
L 413.577042 36.95728 
L 413.752724 36.976169 
L 413.928407 36.976169 
L 414.016249 37.070617 
L 414.148011 36.749495 
L 414.675059 36.617268 
L 414.894662 36.636158 
L 415.114265 36.522821 
L 415.202107 36.93839 
L 415.246027 36.692826 
L 415.377789 36.428373 
L 415.641314 36.333925 
L 416.0366 36.277257 
L 416.300124 36.201699 
L 416.344044 36.14503 
L 416.387965 36.220588 
L 416.519727 36.258367 
L 416.827172 35.861687 
L 417.134617 35.880576 
L 417.617744 35.767239 
L 417.661665 35.805018 
L 417.705585 35.74835 
L 417.925189 35.540565 
L 418.276554 35.446117 
L 418.496157 35.559454 
L 418.803602 35.483896 
L 418.891444 35.823908 
L 418.935364 35.597233 
L 419.067126 35.35167 
L 419.33065 35.238332 
L 419.98946 35.143885 
L 420.340826 34.91721 
L 420.472588 34.860542 
L 420.911795 34.954989 
L 421.219239 34.973879 
L 421.307081 34.898321 
L 421.570605 34.577199 
L 421.658446 34.558309 
L 421.834129 34.482751 
L 422.229415 34.558309 
L 422.492939 34.048292 
L 422.53686 34.180519 
L 422.668622 34.312745 
L 422.800384 34.350524 
L 423.283511 34.067181 
L 423.415273 34.161629 
L 423.459194 34.12385 
L 423.590956 34.274966 
L 423.634877 34.407193 
L 423.678797 34.350524 
L 423.898401 33.840507 
L 423.942321 33.953844 
L 424.074083 34.067181 
L 424.337607 33.802728 
L 424.381528 33.840507 
L 424.601131 33.916065 
L 424.732894 33.859397 
L 424.820735 33.557164 
L 424.864656 33.33049 
L 424.908576 33.519385 
L 424.952497 33.70828 
L 424.996418 33.651612 
L 425.303862 33.349379 
L 425.479545 33.424937 
L 425.567386 33.349379 
L 425.611307 33.443827 
L 425.743069 33.538274 
L 425.918752 33.406048 
L 426.006593 33.481606 
L 426.050514 33.387158 
L 426.270117 33.160484 
L 426.401879 33.236042 
L 426.533641 33.254931 
L 426.665403 33.103815 
L 426.709324 32.990478 
L 426.797165 33.028257 
L 427.060689 33.084926 
L 427.10461 33.141594 
L 427.148531 33.009368 
L 427.192451 33.160484 
L 427.236372 33.33049 
L 427.280293 33.141594 
L 427.455975 32.707135 
L 428.202627 32.669356 
L 428.290468 32.480461 
L 428.334389 32.556019 
L 428.37831 32.612687 
L 428.42223 32.537129 
L 428.553992 32.480461 
L 428.817516 32.291565 
L 429.212802 32.197118 
L 429.256723 32.10267 
L 429.300644 32.159339 
L 429.432406 32.178228 
L 429.520247 31.630432 
L 429.564168 31.913775 
L 429.608089 32.178228 
L 429.652009 32.08378 
L 429.959454 31.762658 
L 430.047295 31.913775 
L 430.091216 31.819327 
L 430.222978 31.762658 
L 430.486502 31.762658 
L 430.574343 31.6871 
L 430.662185 31.233752 
L 430.706105 31.441536 
L 430.750026 31.649321 
L 430.837867 31.554874 
L 430.96963 31.422647 
L 431.101392 31.365978 
L 431.189233 31.441536 
L 431.233154 31.384868 
L 431.277074 31.328199 
L 431.320995 31.384868 
L 431.540598 31.517095 
L 431.804122 31.044856 
L 431.848043 31.139304 
L 431.891964 31.252641 
L 431.979805 31.195972 
L 432.28725 30.931519 
L 432.375091 30.931519 
L 432.506853 30.855961 
L 432.682536 30.912629 
L 432.858219 30.704845 
L 432.94606 31.063746 
L 432.989981 30.818182 
L 433.165663 30.459281 
L 433.297425 30.383723 
L 433.473108 30.440391 
L 433.648791 30.345944 
L 433.824473 30.308164 
L 434.131918 30.138159 
L 434.26368 30.005932 
L 434.834649 29.854816 
L 435.010332 29.817037 
L 435.054252 29.798147 
L 435.142094 29.401467 
L 435.186014 29.552583 
L 435.273856 29.68481 
L 435.317776 29.66592 
L 435.449538 29.514804 
L 435.581301 29.401467 
L 435.669142 29.495915 
L 435.713063 29.439246 
L 435.756983 29.363688 
L 435.800904 29.420356 
L 436.020507 29.477025 
L 436.19619 29.26924 
L 436.240111 29.382577 
L 436.284031 29.477025 
L 436.459714 29.099234 
L 436.547555 29.023676 
L 436.591476 29.080345 
L 436.723238 29.174793 
L 437.074604 28.834781 
L 437.162445 29.080345 
L 437.206366 28.985897 
L 437.338128 28.608107 
L 437.382048 28.683665 
L 437.51381 28.778112 
L 437.689493 28.551438 
L 437.777334 28.740333 
L 437.865176 28.683665 
L 437.953017 28.740333 
L 437.996938 28.626996 
L 438.040858 28.513659 
L 438.084779 28.570327 
L 438.392224 28.815891 
L 438.655748 28.324764 
L 438.875351 28.419211 
L 439.007113 28.419211 
L 439.44632 28.513659 
L 439.534161 28.683665 
L 439.578082 28.551438 
L 439.709844 28.324764 
L 439.841606 28.419211 
L 439.885527 28.381432 
L 439.973368 28.305874 
L 440.017289 28.362543 
L 440.192972 28.438101 
L 440.500416 28.381432 
L 440.588258 28.041421 
L 440.632178 28.249205 
L 440.676099 28.45699 
L 440.76394 28.362543 
L 441.071385 28.305874 
L 441.115306 28.362543 
L 441.159226 28.305874 
L 441.203147 28.249205 
L 441.247068 28.305874 
L 441.37883 28.45699 
L 441.42275 28.419211 
L 441.466671 28.362543 
L 441.510592 28.400322 
L 441.642354 28.45699 
L 441.905878 28.249205 
L 442.213323 28.286984 
L 442.345085 28.286984 
L 442.652529 28.438101 
L 442.69645 28.419211 
L 442.784291 28.645886 
L 442.828212 28.47588 
L 443.003895 28.230316 
L 443.750546 28.324764 
L 443.838388 27.833636 
L 443.882308 28.022531 
L 443.926229 28.230316 
L 444.01407 28.116979 
L 444.277594 28.116979 
L 444.365436 28.230316 
L 444.409356 28.173647 
L 444.453277 28.116979 
L 444.497198 28.173647 
L 444.67288 28.249205 
L 444.980325 28.154758 
L 445.419532 28.06031 
L 445.551294 28.0792 
L 445.595215 28.041421 
L 445.639135 28.098089 
L 445.770897 28.154758 
L 446.649311 27.890304 
L 446.956756 27.946973 
L 447.000676 27.852525 
L 447.088518 28.324764 
L 447.132438 28.0792 
L 447.308121 27.682519 
L 447.483804 27.66363 
L 447.659486 27.701409 
L 448.054773 27.720299 
L 448.142614 27.24806 
L 448.186535 27.455845 
L 448.318297 27.64474 
L 448.493979 27.380287 
L 448.5379 27.455845 
L 448.801424 27.625851 
L 448.889265 27.625851 
L 448.933186 27.569182 
L 448.977107 27.606961 
L 449.021027 27.64474 
L 449.064948 27.588072 
L 449.152789 27.361397 
L 449.19671 27.210281 
L 449.240631 27.342508 
L 449.284551 27.474735 
L 449.372393 27.399176 
L 449.767679 27.304729 
L 449.8116 27.26695 
L 449.85552 27.323618 
L 450.075124 27.436956 
L 450.733934 27.210281 
L 450.865696 27.26695 
L 451.217061 27.210281 
L 451.304903 27.304729 
L 451.480585 27.059165 
L 451.612347 26.983607 
L 451.656268 26.926938 
L 451.700189 26.983607 
L 451.831951 27.078054 
L 452.051554 26.908049 
L 452.095475 26.87027 
L 452.139395 26.964717 
L 452.271157 27.210281 
L 452.315078 27.134723 
L 452.534682 26.794711 
L 452.622523 26.945828 
L 452.666444 26.85138 
L 452.754285 26.738043 
L 452.798206 26.756932 
L 452.886047 26.87027 
L 452.929968 26.832491 
L 453.06173 26.85138 
L 453.237412 26.908049 
L 453.940143 26.681374 
L 454.071905 26.700264 
L 454.159747 26.700264 
L 454.335429 26.775822 
L 454.423271 26.775822 
L 454.467191 26.813601 
L 454.511112 26.719153 
L 454.555033 26.624706 
L 454.598953 26.681374 
L 454.642874 26.738043 
L 454.686795 26.643595 
L 454.906398 26.360252 
L 455.257763 26.738043 
L 455.345605 26.605816 
L 455.433446 26.530258 
L 455.477367 26.605816 
L 455.521287 26.681374 
L 455.565208 26.568037 
L 455.740891 26.416921 
L 455.784812 26.416921 
L 455.960494 27.569182 
L 456.004415 27.24806 
L 456.224018 25.113543 
L 456.267939 26.001351 
L 456.31186 26.908049 
L 456.35578 26.605816 
L 456.487542 25.699119 
L 456.575384 26.813601 
L 456.619304 26.549148 
L 456.751066 26.190246 
L 456.838908 26.738043 
L 456.882828 26.4547 
L 456.926749 26.152467 
L 457.01459 26.228025 
L 457.190273 26.05802 
L 457.234194 26.171357 
L 457.278115 26.284694 
L 457.322035 26.209136 
L 457.365956 26.152467 
L 457.409877 26.265805 
L 457.453797 26.398031 
L 457.541639 26.322473 
L 457.62948 25.888014 
L 457.673401 26.133578 
L 457.717321 26.360252 
L 457.761242 26.284694 
L 457.936925 26.171357 
L 458.068687 26.076909 
L 458.156528 26.265805 
L 458.200449 26.209136 
L 458.332211 26.133578 
L 458.595735 26.341363 
L 458.683576 25.680229 
L 458.727497 25.906903 
L 458.859259 26.133578 
L 459.034942 26.095799 
L 459.254545 26.114688 
L 459.430228 26.05802 
L 459.60591 26.076909 
L 459.693752 25.925793 
L 459.737672 25.812456 
L 459.781593 25.869124 
L 460.001196 25.963572 
L 460.2208 25.831345 
L 460.396483 25.869124 
L 460.660007 25.869124 
L 460.703927 25.755787 
L 460.791769 26.228025 
L 460.835689 26.020241 
L 460.967451 25.62356 
L 461.011372 25.699119 
L 461.055293 25.755787 
L 461.099213 25.718008 
L 461.230975 25.64245 
L 461.274896 25.699119 
L 461.362737 25.699119 
L 461.406658 25.64245 
L 461.450579 25.699119 
L 461.582341 25.736898 
L 461.758024 25.680229 
L 461.889786 25.66134 
L 462.109389 25.434665 
L 462.15331 25.472444 
L 462.416834 25.472444 
L 462.548596 25.548002 
L 462.724278 25.566892 
L 462.85604 25.529113 
L 463.031723 25.472444 
L 463.295247 25.359107 
L 463.734454 25.434665 
L 463.778375 25.434665 
L 463.866216 25.113543 
L 463.910137 25.264659 
L 463.997978 25.434665 
L 464.041899 25.415776 
L 464.349343 25.264659 
L 464.612867 25.359107 
L 464.78855 25.321328 
L 464.832471 25.24577 
L 464.876392 25.340217 
L 464.920312 25.434665 
L 464.964233 25.377997 
L 465.227757 25.132433 
L 465.359519 25.094654 
L 465.710884 25.283549 
L 465.886567 25.113543 
L 465.930488 25.189101 
L 465.974408 25.24577 
L 466.018329 25.132433 
L 466.194012 24.924648 
L 467.116346 24.886869 
L 467.292029 24.697973 
L 467.950839 24.792421 
L 467.99476 24.84909 
L 468.03868 24.735752 
L 468.214363 24.527968 
L 468.390046 24.452409 
L 468.741411 24.622415 
L 468.917094 24.584636 
L 469.092776 24.509078 
L 469.619825 24.357962 
L 469.795507 24.452409 
L 469.927269 24.357962 
L 470.015111 23.659049 
L 470.059031 23.980171 
L 470.102952 24.320183 
L 470.190793 24.206846 
L 470.761762 24.301293 
L 470.805683 24.395741 
L 470.849603 24.357962 
L 470.981366 24.131287 
L 471.025286 24.244625 
L 471.069207 24.357962 
L 471.113128 24.225735 
L 471.24489 23.999061 
L 471.332731 24.112398 
L 471.376652 24.055729 
L 471.420572 23.999061 
L 471.464493 24.03684 
L 471.552334 24.03684 
L 471.596255 23.980171 
L 471.640176 24.03684 
L 471.815858 24.093508 
L 471.991541 23.847944 
L 472.035462 23.60238 
L 472.079382 23.810165 
L 472.211144 24.055729 
L 472.386827 23.772386 
L 472.430748 23.810165 
L 472.518589 23.810165 
L 472.650351 23.791276 
L 472.826034 23.904613 
L 473.045637 23.885723 
L 473.089558 23.942392 
L 473.133479 23.847944 
L 473.353082 23.64016 
L 473.660527 23.583491 
L 473.836209 23.677939 
L 473.967971 23.64016 
L 474.055813 23.22459 
L 474.099734 23.413485 
L 474.143654 23.583491 
L 474.231496 23.545712 
L 474.451099 23.413485 
L 474.582861 23.451264 
L 474.802464 23.507933 
L 474.934226 23.545712 
L 475.065988 23.375706 
L 475.109909 23.413485 
L 475.373433 23.281258 
L 475.768719 23.337927 
L 476.120085 23.300148 
L 476.295767 23.073474 
L 476.691053 22.960136 
L 476.866736 23.130142 
L 476.954577 22.997915 
L 476.998498 23.073474 
L 477.042419 23.149032 
L 477.086339 23.035695 
L 477.218102 22.960136 
L 477.481626 22.865689 
L 478.140436 22.846799 
L 478.316118 22.695683 
L 478.40396 22.695683 
L 478.535722 22.695683 
L 479.106691 22.676793 
L 479.282373 22.487898 
L 479.458056 22.431229 
L 479.501977 22.469009 
L 479.545897 22.39345 
L 479.589818 22.299003 
L 479.633739 22.374561 
L 479.853342 22.506788 
L 479.941183 22.487898 
L 480.029025 22.091218 
L 480.072945 22.223445 
L 480.116866 22.336782 
L 480.204707 22.299003 
L 480.512152 22.166776 
L 480.687835 22.204555 
L 481.0392 22.128997 
L 481.170962 22.034549 
L 481.258804 22.091218 
L 481.302724 22.034549 
L 481.434486 21.977881 
L 481.566248 22.034549 
L 481.69801 22.091218 
L 481.829773 22.053439 
L 481.873693 22.091218 
L 481.917614 21.99677 
L 481.961535 21.902323 
L 482.049376 21.958991 
L 482.400741 21.770096 
L 482.708186 21.864544 
L 482.752107 21.977881 
L 482.796027 21.940102 
L 482.927789 21.845654 
L 483.015631 22.242334 
L 483.059551 21.99677 
L 483.235234 21.61898 
L 483.762282 21.788985 
L 483.894044 21.694538 
L 483.981886 21.845654 
L 484.157568 21.562311 
L 484.377172 21.448974 
L 484.992061 21.392305 
L 485.167744 21.222299 
L 485.431268 21.127852 
L 485.606951 21.20341 
L 485.738713 21.297858 
L 485.870475 20.863398 
L 485.914395 20.598945 
L 485.958316 20.882288 
L 486.002237 21.18452 
L 486.090078 21.033404 
L 486.22184 21.014515 
L 486.265761 20.957846 
L 486.309681 20.995625 
L 486.441444 20.976736 
L 486.529285 20.901177 
L 486.573206 20.976736 
L 486.617126 21.052294 
L 486.704968 20.995625 
L 486.792809 20.957846 
L 486.88065 20.39116 
L 486.924571 20.561166 
L 487.056333 20.80673 
L 487.232016 20.598945 
L 487.275936 20.674503 
L 487.363778 20.712282 
L 487.407698 20.674503 
L 487.583381 20.731172 
L 487.759064 20.655613 
L 487.846905 20.107817 
L 487.890826 20.315602 
L 487.934746 20.504497 
L 488.022588 20.41005 
L 488.286112 20.240044 
L 488.373953 20.183375 
L 488.417874 20.240044 
L 488.681398 20.334491 
L 488.725319 20.277823 
L 488.769239 20.39116 
L 488.81316 20.504497 
L 488.857081 20.353381 
L 488.988843 20.183375 
L 489.735494 20.258933 
L 489.779415 20.41005 
L 489.823336 20.183375 
L 489.867256 19.937811 
L 489.911177 20.032259 
L 489.955098 20.126707 
L 489.999018 20.070038 
L 490.042939 19.99448 
L 490.08686 20.051148 
L 490.218622 20.070038 
L 490.306463 19.786695 
L 490.350384 19.900032 
L 490.526066 20.032259 
L 490.701749 19.99448 
L 490.74567 20.013369 
L 490.921352 19.786695 
L 491.140956 19.786695 
L 491.448401 19.937811 
L 491.711925 19.862253 
L 492.151131 19.560021 
L 492.282893 19.5978 
L 492.414655 19.5978 
L 492.634259 19.522242 
L 492.941704 19.333346 
L 493.249148 19.465573 
L 493.424831 19.503352 
L 493.512672 19.238899 
L 493.556593 19.031114 
L 493.600514 19.220009 
L 493.644434 19.408904 
L 493.688355 19.333346 
L 493.732276 19.257788 
L 493.776196 19.295567 
L 493.820117 19.333346 
L 493.864038 19.257788 
L 493.9958 19.257788 
L 494.215403 19.276678 
L 494.303245 19.314457 
L 494.347165 19.276678 
L 494.522848 19.390015 
L 494.566769 19.276678 
L 494.742451 19.106672 
L 494.786372 19.031114 
L 494.830293 19.068893 
L 495.005975 19.125561 
L 495.093817 19.16334 
L 495.31342 19.408904 
L 495.401261 19.16334 
L 495.445182 19.276678 
L 495.489103 19.390015 
L 495.533023 19.295567 
L 495.752627 19.068893 
L 495.840468 18.936666 
L 495.884389 18.974445 
L 496.060072 19.031114 
L 496.499278 18.728881 
L 496.63104 18.747771 
L 496.850644 18.76666 
L 496.894564 18.823329 
L 496.938485 18.76666 
L 496.982406 18.709992 
L 497.026326 18.76666 
L 497.158088 18.974445 
L 497.24593 18.879997 
L 497.333771 18.313311 
L 497.377692 18.653323 
L 497.509454 19.106672 
L 497.685137 18.36998 
L 497.729057 18.558875 
L 497.860819 19.087782 
L 498.036502 18.36998 
L 498.212185 18.747771 
L 498.387867 18.672213 
L 498.475709 18.691102 
L 498.56355 18.445538 
L 498.651391 18.539986 
L 498.914916 18.539986 
L 499.002757 18.558875 
L 499.090598 18.36998 
L 499.134519 18.502207 
L 499.17844 18.634434 
L 499.22236 18.577765 
L 499.398043 18.294422 
L 499.441964 18.218864 
L 499.485884 18.256643 
L 499.529805 18.294422 
L 499.617646 18.048858 
L 499.661567 18.256643 
L 499.705488 18.445538 
L 499.793329 18.36998 
L 499.925091 18.445538 
L 499.969012 18.539986 
L 500.012932 18.38887 
L 500.056853 18.256643 
L 500.100774 18.332201 
L 500.144694 18.407759 
L 500.188615 18.294422 
L 500.320377 18.048858 
L 500.364298 18.067748 
L 500.539981 18.029968 
L 500.759584 17.9733 
L 500.935267 18.105527 
L 501.023108 17.992189 
L 501.067029 18.048858 
L 501.110949 18.105527 
L 501.15487 18.048858 
L 501.330553 17.9733 
L 501.769759 18.048858 
L 501.81368 18.105527 
L 501.989363 17.368835 
L 502.033284 17.652178 
L 502.077204 17.916631 
L 502.165046 17.822184 
L 502.296808 17.765515 
L 502.340728 17.689957 
L 502.384649 17.765515 
L 502.42857 17.859963 
L 502.47249 17.822184 
L 502.516411 17.765515 
L 502.560332 17.803294 
L 502.779935 17.897742 
L 502.867776 17.822184 
L 502.911697 17.878852 
L 502.955618 17.95441 
L 502.999538 17.878852 
L 503.219142 17.595509 
L 503.350904 17.633288 
L 503.482666 17.689957 
L 503.614428 17.708846 
L 503.658349 17.765515 
L 503.702269 17.708846 
L 503.790111 17.406614 
L 503.834031 17.17994 
L 503.877952 17.368835 
L 503.921873 17.55773 
L 503.965793 17.501062 
L 504.141476 17.444393 
L 504.405 17.519951 
L 504.448921 17.57662 
L 504.492841 17.501062 
L 504.536762 17.406614 
L 504.580683 17.501062 
L 504.624603 17.57662 
L 504.668524 17.519951 
L 504.712445 17.444393 
L 504.756365 17.55773 
L 504.800286 17.652178 
L 504.844207 17.501062 
L 504.932048 17.368835 
L 504.975969 17.387724 
L 505.151652 17.255498 
L 505.195572 17.331056 
L 505.239493 17.387724 
L 505.283414 17.331056 
L 505.327334 17.274387 
L 505.371255 17.387724 
L 505.503017 17.633288 
L 505.546938 17.538841 
L 505.6787 17.009934 
L 505.72262 17.198829 
L 505.766541 17.368835 
L 505.854382 17.331056 
L 506.33751 17.368835 
L 506.469272 17.406614 
L 506.732796 17.406614 
L 506.864558 17.349945 
L 506.99632 17.312166 
L 507.128082 17.331056 
L 507.172003 17.387724 
L 507.215923 17.349945 
L 507.259844 17.312166 
L 507.435527 17.55773 
L 507.523368 16.915486 
L 507.567289 17.217719 
L 507.611209 17.519951 
L 507.699051 17.387724 
L 507.918654 17.406614 
L 508.006496 17.482172 
L 508.050416 17.444393 
L 508.357861 17.614399 
L 508.445702 17.614399 
L 508.577464 17.595509 
L 508.797068 17.538841 
L 509.148433 17.784405 
L 509.192354 17.841073 
L 509.236274 17.803294 
L 509.280195 17.765515 
L 509.368036 17.274387 
L 509.411957 17.538841 
L 509.543719 17.916631 
L 509.58764 17.897742 
L 509.719402 17.822184 
L 509.763323 17.878852 
L 510.158609 18.237753 
L 510.202529 18.162195 
L 510.24645 18.086637 
L 510.290371 18.199974 
L 510.334291 18.313311 
L 510.422133 18.256643 
L 510.685657 18.162195 
L 510.861339 18.351091 
L 510.993101 18.521096 
L 511.037022 18.672213 
L 511.124864 18.577765 
L 511.300546 18.672213 
L 511.432308 18.76666 
L 511.476229 18.842218 
L 511.52015 18.76666 
L 511.651912 18.691102 
L 511.915436 19.144451 
L 512.091118 19.106672 
L 512.17896 18.879997 
L 512.22288 18.974445 
L 512.354642 19.220009 
L 512.398563 19.16334 
L 512.530325 19.068893 
L 512.662087 19.257788 
L 512.706008 19.220009 
L 513.101294 19.692247 
L 513.145215 19.881143 
L 513.189135 19.692247 
L 513.320897 19.427794 
L 513.584421 19.522242 
L 513.891866 19.843364 
L 514.287152 19.918922 
L 514.418914 19.937811 
L 514.8142 20.447829 
L 514.945962 20.580055 
L 514.989883 20.655613 
L 515.033804 20.598945 
L 515.077724 20.542276 
L 515.121645 20.598945 
L 515.604772 21.222299 
L 515.648693 21.146741 
L 515.692614 21.090073 
L 515.912217 21.448974 
L 515.956138 21.505642 
L 516.000059 21.467863 
L 516.043979 21.430084 
L 516.0879 21.524532 
L 516.219662 21.61898 
L 516.351424 21.61898 
L 516.74671 22.147887 
L 516.834551 22.166776 
L 517.010234 22.506788 
L 517.054155 22.431229 
L 517.185917 22.374561 
L 517.800806 23.186811 
L 517.844727 23.149032 
L 517.888648 23.092363 
L 517.976489 23.356817 
L 518.06433 23.319038 
L 518.240013 23.413485 
L 518.415696 23.60238 
L 518.591378 23.810165 
L 518.767061 24.263514 
L 518.810982 24.244625 
L 518.854903 24.206846 
L 518.898823 24.301293 
L 519.030585 24.357962 
L 519.118427 24.320183 
L 519.294109 24.565747 
L 519.425871 24.622415 
L 519.601554 24.792421 
L 519.689395 24.886869 
L 519.908999 25.113543 
L 519.99684 24.8302 
L 520.216443 25.548002 
L 520.919174 26.586927 
L 521.007016 26.738043 
L 521.138778 26.87027 
L 521.841508 27.588072 
L 522.017191 27.720299 
L 522.105033 27.64474 
L 522.324636 28.022531 
L 522.544239 28.192537 
L 522.895605 28.815891 
L 523.334811 29.212572 
L 523.90578 29.835926 
L 524.169304 30.175938 
L 524.213225 30.157048 
L 524.476749 30.534839 
L 525.135559 31.554874 
L 525.443004 32.348234 
L 525.486925 32.197118 
L 525.530845 32.046001 
L 525.574766 32.10267 
L 526.365338 33.273821 
L 526.4971 33.406048 
L 526.584942 33.141594 
L 526.628862 33.33049 
L 526.760624 33.538274 
L 527.287672 34.067181 
L 527.551196 34.633867 
L 527.595117 34.614978 
L 527.682958 34.671646 
L 527.990403 34.954989 
L 528.122165 35.011658 
L 528.473531 35.521675 
L 528.693134 35.823908 
L 528.956658 36.220588 
L 529.08842 36.277257 
L 529.220182 36.466152 
L 529.264103 36.428373 
L 529.308023 36.390594 
L 529.571547 36.787274 
L 530.142516 37.580634 
L 530.186437 37.542855 
L 530.274278 37.845088 
L 530.36212 37.76953 
L 530.493882 37.826198 
L 530.801326 38.16621 
L 531.108771 38.525111 
L 531.328375 38.827343 
L 531.460137 38.732896 
L 531.504057 38.638448 
L 531.723661 39.129576 
L 532.294629 39.752931 
L 532.733836 40.225169 
L 532.821678 40.017384 
L 533.041281 40.546291 
L 533.831853 41.339651 
L 534.007536 41.509657 
L 534.095377 41.585215 
L 534.358901 41.755221 
L 534.754187 41.981895 
L 535.017711 42.340797 
L 535.281235 42.567471 
L 535.764363 42.850814 
L 537.081983 43.304163 
L 537.257666 43.266384 
L 538.355683 43.341942 
L 538.443524 43.455279 
L 538.487445 43.379721 
L 538.707048 43.228605 
L 539.058414 43.323052 
L 539.585462 43.455279 
L 539.761144 43.39861 
L 539.848986 43.663064 
L 539.892906 43.474168 
L 539.936827 43.285273 
L 540.024668 43.360831 
L 541.166606 43.39861 
L 541.254447 43.81418 
L 541.298368 43.587506 
L 541.43013 43.323052 
L 541.693654 43.323052 
L 541.693654 43.323052 
" style="fill:none;stroke:#1f77b4;stroke-linecap:square;stroke-width:1.5;"/>
   </g>
   <g id="patch_8">
    <path d="M 48.060391 59.733333 
L 48.060391 10.8 
" style="fill:none;stroke:#000000;stroke-linecap:square;stroke-linejoin:miter;stroke-width:0.8;"/>
   </g>
   <g id="patch_9">
    <path d="M 565.2 59.733333 
L 565.2 10.8 
" style="fill:none;stroke:#000000;stroke-linecap:square;stroke-linejoin:miter;stroke-width:0.8;"/>
   </g>
   <g id="patch_10">
    <path d="M 48.060391 59.733333 
L 565.2 59.733333 
" style="fill:none;stroke:#000000;stroke-linecap:square;stroke-linejoin:miter;stroke-width:0.8;"/>
   </g>
   <g id="patch_11">
    <path d="M 48.060391 10.8 
L 565.2 10.8 
" style="fill:none;stroke:#000000;stroke-linecap:square;stroke-linejoin:miter;stroke-width:0.8;"/>
   </g>
  </g>
  <g id="axes_2">
   <g id="patch_12">
    <path d="M 48.060391 122.966667 
L 565.2 122.966667 
L 565.2 74.033333 
L 48.060391 74.033333 
z
" style="fill:#ffffff;"/>
   </g>
   <g id="patch_13">
    <path clip-path="url(#p95deea2961)" d="M 80.350872 122.966667 
L 80.350872 74.033333 
L 90.847913 74.033333 
L 90.847913 122.966667 
z
" style="fill:#008000;opacity:0.3;stroke:#008000;stroke-linejoin:miter;"/>
   </g>
   <g id="patch_14">
    <path clip-path="url(#p95deea2961)" d="M 119.703798 122.966667 
L 119.703798 74.033333 
L 129.673791 74.033333 
L 129.673791 122.966667 
z
" style="fill:#008000;opacity:0.3;stroke:#008000;stroke-linejoin:miter;"/>
   </g>
   <g id="patch_15">
    <path clip-path="url(#p95deea2961)" d="M 173.638388 122.966667 
L 173.638388 74.033333 
L 188.791021 74.033333 
L 188.791021 122.966667 
z
" style="fill:#008000;opacity:0.3;stroke:#008000;stroke-linejoin:miter;"/>
   </g>
   <g id="patch_16">
    <path clip-path="url(#p95deea2961)" d="M 284.054968 122.966667 
L 284.054968 74.033333 
L 309.660722 74.033333 
L 309.660722 122.966667 
z
" style="fill:#008000;opacity:0.3;stroke:#008000;stroke-linejoin:miter;"/>
   </g>
   <g id="patch_17">
    <path clip-path="url(#p95deea2961)" d="M 509.280195 122.966667 
L 509.280195 74.033333 
L 532.95344 74.033333 
L 532.95344 122.966667 
z
" style="fill:#008000;opacity:0.3;stroke:#008000;stroke-linejoin:miter;"/>
   </g>
   <g id="matplotlib.axis_3"/>
   <g id="matplotlib.axis_4">
    <g id="text_2">
     <!-- $p_\mathrm{ESC}$ -->
     <g transform="translate(11.740391 95.14)scale(0.16 -0.16)">
      <defs>
       <path d="M 3175 2156 
Q 3175 2616 2975 2859 
Q 2775 3103 2400 3103 
Q 2144 3103 1911 2972 
Q 1678 2841 1497 2591 
Q 1319 2344 1212 1994 
Q 1106 1644 1106 1300 
Q 1106 863 1306 627 
Q 1506 391 1875 391 
Q 2147 391 2380 519 
Q 2613 647 2778 891 
Q 2956 1147 3065 1494 
Q 3175 1841 3175 2156 
z
M 1394 2969 
Q 1625 3272 1939 3428 
Q 2253 3584 2638 3584 
Q 3175 3584 3472 3232 
Q 3769 2881 3769 2247 
Q 3769 1728 3584 1258 
Q 3400 788 3053 416 
Q 2822 169 2531 39 
Q 2241 -91 1919 -91 
Q 1547 -91 1294 64 
Q 1041 219 916 525 
L 556 -1331 
L -19 -1331 
L 922 3500 
L 1497 3500 
L 1394 2969 
z
" id="DejaVuSans-Oblique-70" transform="scale(0.015625)"/>
       <path d="M 628 4666 
L 3578 4666 
L 3578 4134 
L 1259 4134 
L 1259 2753 
L 3481 2753 
L 3481 2222 
L 1259 2222 
L 1259 531 
L 3634 531 
L 3634 0 
L 628 0 
L 628 4666 
z
" id="DejaVuSans-45" transform="scale(0.015625)"/>
       <path d="M 3425 4513 
L 3425 3897 
Q 3066 4069 2747 4153 
Q 2428 4238 2131 4238 
Q 1616 4238 1336 4038 
Q 1056 3838 1056 3469 
Q 1056 3159 1242 3001 
Q 1428 2844 1947 2747 
L 2328 2669 
Q 3034 2534 3370 2195 
Q 3706 1856 3706 1288 
Q 3706 609 3251 259 
Q 2797 -91 1919 -91 
Q 1588 -91 1214 -16 
Q 841 59 441 206 
L 441 856 
Q 825 641 1194 531 
Q 1563 422 1919 422 
Q 2459 422 2753 634 
Q 3047 847 3047 1241 
Q 3047 1584 2836 1778 
Q 2625 1972 2144 2069 
L 1759 2144 
Q 1053 2284 737 2584 
Q 422 2884 422 3419 
Q 422 4038 858 4394 
Q 1294 4750 2059 4750 
Q 2388 4750 2728 4690 
Q 3069 4631 3425 4513 
z
" id="DejaVuSans-53" transform="scale(0.015625)"/>
       <path d="M 4122 4306 
L 4122 3641 
Q 3803 3938 3442 4084 
Q 3081 4231 2675 4231 
Q 1875 4231 1450 3742 
Q 1025 3253 1025 2328 
Q 1025 1406 1450 917 
Q 1875 428 2675 428 
Q 3081 428 3442 575 
Q 3803 722 4122 1019 
L 4122 359 
Q 3791 134 3420 21 
Q 3050 -91 2638 -91 
Q 1578 -91 968 557 
Q 359 1206 359 2328 
Q 359 3453 968 4101 
Q 1578 4750 2638 4750 
Q 3056 4750 3426 4639 
Q 3797 4528 4122 4306 
z
" id="DejaVuSans-43" transform="scale(0.015625)"/>
      </defs>
      <use xlink:href="#DejaVuSans-Oblique-70"/>
      <use transform="translate(63.476562 -16.40625)scale(0.7)" xlink:href="#DejaVuSans-45"/>
      <use transform="translate(107.705078 -16.40625)scale(0.7)" xlink:href="#DejaVuSans-53"/>
      <use transform="translate(152.138672 -16.40625)scale(0.7)" xlink:href="#DejaVuSans-43"/>
     </g>
    </g>
   </g>
   <g id="line2d_2">
    <path clip-path="url(#p95deea2961)" d="M 71.566737 120.742424 
L 79.999506 120.742424 
L 80.087348 101.677489 
L 80.131268 108.032468 
L 80.175189 114.387446 
L 80.21911 111.209957 
L 80.438713 101.677489 
L 80.965761 101.677489 
L 81.053603 95.322511 
L 81.097523 98.5 
L 81.229285 101.677489 
L 81.317127 95.322511 
L 81.361047 98.5 
L 81.404968 101.677489 
L 81.448889 98.5 
L 81.580651 95.322511 
L 83.073954 95.322511 
L 83.249636 101.677489 
L 83.337478 95.322511 
L 83.381398 98.5 
L 83.51316 101.677489 
L 83.688843 101.677489 
L 83.776684 95.322511 
L 83.820605 98.5 
L 83.864526 101.677489 
L 83.908447 98.5 
L 83.952367 95.322511 
L 83.996288 98.5 
L 84.040209 101.677489 
L 84.084129 98.5 
L 84.215891 95.322511 
L 84.303733 101.677489 
L 84.347653 98.5 
L 84.479415 95.322511 
L 85.094305 95.322511 
L 85.269987 101.677489 
L 85.357829 101.677489 
L 85.533512 95.322511 
L 86.236242 95.322511 
L 86.324084 101.677489 
L 86.368004 98.5 
L 86.499766 95.322511 
L 86.675449 101.677489 
L 87.553863 101.677489 
L 87.641704 95.322511 
L 87.685625 98.5 
L 87.817387 101.677489 
L 88.432276 101.677489 
L 88.607959 108.032468 
L 90.803993 108.032468 
L 90.979675 120.742424 
L 118.913225 120.742424 
L 119.001067 108.032468 
L 119.044987 111.209957 
L 119.176749 114.387446 
L 119.264591 114.387446 
L 119.440274 108.032468 
L 119.615956 108.032468 
L 119.791639 101.677489 
L 120.670052 101.677489 
L 120.757894 95.322511 
L 120.801814 98.5 
L 120.845735 101.677489 
L 120.889656 98.5 
L 121.021418 95.322511 
L 121.548466 95.322511 
L 121.724149 101.677489 
L 121.899831 95.322511 
L 122.075514 101.677489 
L 122.163355 95.322511 
L 122.207276 98.5 
L 122.251197 101.677489 
L 122.295117 98.5 
L 122.426879 95.322511 
L 122.690404 95.322511 
L 122.866086 88.967532 
L 122.953928 88.967532 
L 123.12961 95.322511 
L 124.183707 95.322511 
L 124.359389 88.967532 
L 124.447231 95.322511 
L 124.491151 92.145022 
L 124.622913 88.967532 
L 124.710755 88.967532 
L 124.798596 95.322511 
L 124.842517 92.145022 
L 124.974279 88.967532 
L 125.940534 88.967532 
L 126.116216 95.322511 
L 126.204058 88.967532 
L 126.247978 92.145022 
L 126.291899 95.322511 
L 126.33582 92.145022 
L 126.467582 88.967532 
L 126.555423 88.967532 
L 126.643264 95.322511 
L 126.687185 92.145022 
L 126.731106 88.967532 
L 126.775026 92.145022 
L 126.818947 95.322511 
L 126.862868 92.145022 
L 126.99463 88.967532 
L 127.170313 95.322511 
L 129.454188 95.322511 
L 129.893394 120.742424 
L 130.156919 120.742424 
L 130.332601 114.387446 
L 130.420443 114.387446 
L 130.596125 108.032468 
L 130.771808 108.032468 
L 130.947491 120.742424 
L 131.386697 120.742424 
L 131.474539 114.387446 
L 131.518459 117.564935 
L 131.650221 120.742424 
L 173.023498 120.742424 
L 173.287022 108.032468 
L 173.550547 108.032468 
L 173.726229 101.677489 
L 173.989753 101.677489 
L 174.165436 95.322511 
L 174.868167 95.322511 
L 174.956008 88.967532 
L 174.999929 92.145022 
L 175.131691 95.322511 
L 177.152042 95.322511 
L 177.327725 88.967532 
L 178.206138 88.967532 
L 178.381821 95.322511 
L 180.050807 95.322511 
L 180.226489 101.677489 
L 180.402172 95.322511 
L 180.753537 95.322511 
L 180.841379 101.677489 
L 180.885299 98.5 
L 181.017061 95.322511 
L 181.104903 95.322511 
L 181.280586 101.677489 
L 181.719792 101.677489 
L 181.895475 108.032468 
L 182.071158 108.032468 
L 182.158999 101.677489 
L 182.20292 104.854978 
L 182.334682 108.032468 
L 183.740143 108.032468 
L 183.827985 101.677489 
L 183.871905 104.854978 
L 184.003667 108.032468 
L 184.267192 108.032468 
L 184.442874 101.677489 
L 184.618557 108.032468 
L 184.79424 101.677489 
L 184.969922 108.032468 
L 185.057764 101.677489 
L 185.101684 104.854978 
L 185.145605 108.032468 
L 185.189526 104.854978 
L 185.321288 101.677489 
L 185.49697 101.677489 
L 185.672653 108.032468 
L 185.760495 101.677489 
L 185.804415 104.854978 
L 185.848336 108.032468 
L 185.892257 104.854978 
L 186.024019 101.677489 
L 186.11186 101.677489 
L 186.199701 108.032468 
L 186.243622 104.854978 
L 186.287543 101.677489 
L 186.331463 104.854978 
L 186.463225 108.032468 
L 186.551067 108.032468 
L 186.726749 101.677489 
L 186.902432 108.032468 
L 188.7471 108.032468 
L 188.922783 114.387446 
L 189.098466 108.032468 
L 189.186307 114.387446 
L 189.230228 111.209957 
L 189.274149 108.032468 
L 189.318069 111.209957 
L 189.537673 120.742424 
L 189.976879 120.742424 
L 190.064721 114.387446 
L 190.108641 117.564935 
L 190.152562 120.742424 
L 190.196483 117.564935 
L 190.328245 114.387446 
L 192.436437 114.387446 
L 192.61212 120.742424 
L 283.967126 120.742424 
L 284.142809 101.677489 
L 284.318492 95.322511 
L 284.933381 95.322511 
L 285.109064 88.967532 
L 285.899636 88.967532 
L 285.987478 95.322511 
L 286.031398 92.145022 
L 286.075319 88.967532 
L 286.11924 92.145022 
L 286.16316 95.322511 
L 286.207081 92.145022 
L 286.338843 88.967532 
L 286.426684 88.967532 
L 286.602367 82.612554 
L 286.865891 82.612554 
L 287.041574 88.967532 
L 287.305098 88.967532 
L 287.392939 95.322511 
L 287.43686 92.145022 
L 287.568622 88.967532 
L 287.832146 88.967532 
L 288.09567 76.257576 
L 288.183511 76.257576 
L 288.271353 82.612554 
L 288.315273 79.435065 
L 288.447035 76.257576 
L 288.534877 76.257576 
L 288.622718 82.612554 
L 288.666639 79.435065 
L 288.798401 76.257576 
L 289.061925 76.257576 
L 289.237608 82.612554 
L 289.41329 82.612554 
L 289.501132 76.257576 
L 289.545052 79.435065 
L 289.676814 82.612554 
L 290.555228 82.612554 
L 290.643069 88.967532 
L 290.68699 85.790043 
L 290.730911 82.612554 
L 290.774831 85.790043 
L 290.906593 88.967532 
L 291.521483 88.967532 
L 291.609324 95.322511 
L 291.653245 92.145022 
L 291.785007 88.967532 
L 291.960689 95.322511 
L 292.487738 95.322511 
L 292.66342 101.677489 
L 293.014786 101.677489 
L 293.190468 108.032468 
L 297.758219 108.032468 
L 297.84606 114.387446 
L 297.889981 111.209957 
L 298.021743 108.032468 
L 298.285267 108.032468 
L 298.46095 114.387446 
L 299.16368 114.387446 
L 299.251522 120.742424 
L 299.295442 117.564935 
L 299.427204 114.387446 
L 300.129935 114.387446 
L 300.305618 120.742424 
L 300.481301 114.387446 
L 301.71108 114.387446 
L 301.798921 108.032468 
L 301.842842 111.209957 
L 301.974604 114.387446 
L 302.853017 114.387446 
L 302.940859 108.032468 
L 302.984779 111.209957 
L 303.0287 114.387446 
L 303.072621 111.209957 
L 303.116541 108.032468 
L 303.160462 111.209957 
L 303.292224 114.387446 
L 303.555748 114.387446 
L 303.643589 108.032468 
L 303.68751 111.209957 
L 303.731431 114.387446 
L 303.775351 111.209957 
L 303.819272 108.032468 
L 303.863193 111.209957 
L 303.994955 114.387446 
L 304.258479 114.387446 
L 304.434162 108.032468 
L 304.609844 108.032468 
L 304.697686 114.387446 
L 304.741606 111.209957 
L 304.873368 108.032468 
L 305.66394 108.032468 
L 305.839623 101.677489 
L 306.190989 101.677489 
L 306.366671 95.322511 
L 308.21134 95.322511 
L 308.299181 101.677489 
L 308.343102 98.5 
L 308.474864 95.322511 
L 308.738388 95.322511 
L 308.826229 101.677489 
L 308.87015 98.5 
L 309.001912 95.322511 
L 309.177595 101.677489 
L 309.353277 101.677489 
L 309.52896 108.032468 
L 309.616801 108.032468 
L 309.792484 120.742424 
L 505.239493 120.742424 
L 505.283414 114.387446 
L 505.327334 116.505772 
L 505.415176 120.742424 
L 505.546938 114.387446 
L 506.908479 114.387446 
L 507.084161 108.032468 
L 507.215923 114.387446 
L 507.567289 114.387446 
L 507.65513 108.032468 
L 507.699051 110.150794 
L 507.786892 114.387446 
L 507.830813 111.209957 
L 507.962575 108.032468 
L 509.192354 108.032468 
L 509.368036 101.677489 
L 509.411957 101.677489 
L 509.543719 108.032468 
L 509.58764 104.854978 
L 509.719402 101.677489 
L 513.49658 101.677489 
L 513.672263 95.322511 
L 513.760104 95.322511 
L 513.847945 88.967532 
L 513.891866 92.145022 
L 513.935787 95.322511 
L 513.979707 92.145022 
L 514.111469 88.967532 
L 514.243232 95.322511 
L 514.374994 101.677489 
L 514.418914 98.5 
L 514.550676 95.322511 
L 515.42909 95.322511 
L 515.604772 101.677489 
L 515.824376 101.677489 
L 515.956138 95.322511 
L 516.000059 98.5 
L 516.043979 101.677489 
L 516.0879 98.5 
L 516.219662 95.322511 
L 516.395345 101.677489 
L 516.658869 101.677489 
L 516.74671 95.322511 
L 516.790631 98.5 
L 516.922393 101.677489 
L 517.010234 101.677489 
L 517.185917 95.322511 
L 517.3616 101.677489 
L 517.888648 101.677489 
L 517.976489 95.322511 
L 518.02041 98.5 
L 518.152172 101.677489 
L 518.67922 101.677489 
L 518.767061 95.322511 
L 518.810982 98.5 
L 518.942744 101.677489 
L 519.030585 95.322511 
L 519.074506 98.5 
L 519.118427 101.677489 
L 519.162347 98.5 
L 519.206268 95.322511 
L 519.250189 98.5 
L 519.294109 101.677489 
L 519.33803 98.5 
L 519.469792 95.322511 
L 519.733316 95.322511 
L 519.821157 88.967532 
L 519.865078 92.145022 
L 519.99684 95.322511 
L 520.260364 95.322511 
L 520.436047 101.677489 
L 520.523888 101.677489 
L 520.61173 95.322511 
L 520.65565 98.5 
L 520.699571 101.677489 
L 520.743492 98.5 
L 520.787412 95.322511 
L 520.831333 98.5 
L 520.963095 101.677489 
L 521.577984 101.677489 
L 521.753667 95.322511 
L 521.92935 95.322511 
L 522.017191 101.677489 
L 522.061112 98.5 
L 522.105033 95.322511 
L 522.148953 98.5 
L 522.192874 101.677489 
L 522.236795 98.5 
L 522.368557 95.322511 
L 522.544239 101.677489 
L 523.24697 101.677489 
L 523.422653 95.322511 
L 523.598336 101.677489 
L 524.915956 101.677489 
L 525.091639 95.322511 
L 525.355163 95.322511 
L 525.443004 101.677489 
L 525.486925 98.5 
L 525.618687 95.322511 
L 525.794369 95.322511 
L 525.970052 101.677489 
L 526.321417 101.677489 
L 526.409259 95.322511 
L 526.453179 98.5 
L 526.584942 101.677489 
L 527.375514 101.677489 
L 527.551196 95.322511 
L 527.726879 101.677489 
L 528.868817 101.677489 
L 528.956658 95.322511 
L 529.000579 98.5 
L 529.132341 101.677489 
L 529.922913 101.677489 
L 530.098596 108.032468 
L 532.909519 108.032468 
L 532.99736 114.387446 
L 533.041281 111.209957 
L 533.173043 108.032468 
L 533.260884 108.032468 
L 533.436567 114.387446 
L 533.524408 108.032468 
L 533.568329 111.209957 
L 533.700091 114.387446 
L 534.314981 114.387446 
L 534.402822 108.032468 
L 534.446743 111.209957 
L 534.578505 114.387446 
L 535.369077 114.387446 
L 535.456918 120.742424 
L 535.500839 117.564935 
L 535.544759 114.387446 
L 535.58868 117.564935 
L 535.720442 120.742424 
L 541.342289 120.742424 
L 541.605813 108.032468 
L 541.693654 108.032468 
L 541.693654 108.032468 
" style="fill:none;stroke:#1f77b4;stroke-linecap:square;stroke-width:1.5;"/>
   </g>
   <g id="patch_18">
    <path d="M 48.060391 122.966667 
L 48.060391 74.033333 
" style="fill:none;stroke:#000000;stroke-linecap:square;stroke-linejoin:miter;stroke-width:0.8;"/>
   </g>
   <g id="patch_19">
    <path d="M 565.2 122.966667 
L 565.2 74.033333 
" style="fill:none;stroke:#000000;stroke-linecap:square;stroke-linejoin:miter;stroke-width:0.8;"/>
   </g>
   <g id="patch_20">
    <path d="M 48.060391 122.966667 
L 565.2 122.966667 
" style="fill:none;stroke:#000000;stroke-linecap:square;stroke-linejoin:miter;stroke-width:0.8;"/>
   </g>
   <g id="patch_21">
    <path d="M 48.060391 74.033333 
L 565.2 74.033333 
" style="fill:none;stroke:#000000;stroke-linecap:square;stroke-linejoin:miter;stroke-width:0.8;"/>
   </g>
  </g>
  <g id="axes_3">
   <g id="patch_22">
    <path d="M 48.060391 186.2 
L 565.2 186.2 
L 565.2 137.266667 
L 48.060391 137.266667 
z
" style="fill:#ffffff;"/>
   </g>
   <g id="patch_23">
    <path clip-path="url(#p40a57da567)" d="M 80.350872 186.2 
L 80.350872 137.266667 
L 90.847913 137.266667 
L 90.847913 186.2 
z
" style="fill:#008000;opacity:0.3;stroke:#008000;stroke-linejoin:miter;"/>
   </g>
   <g id="patch_24">
    <path clip-path="url(#p40a57da567)" d="M 119.703798 186.2 
L 119.703798 137.266667 
L 129.673791 137.266667 
L 129.673791 186.2 
z
" style="fill:#008000;opacity:0.3;stroke:#008000;stroke-linejoin:miter;"/>
   </g>
   <g id="patch_25">
    <path clip-path="url(#p40a57da567)" d="M 173.638388 186.2 
L 173.638388 137.266667 
L 188.791021 137.266667 
L 188.791021 186.2 
z
" style="fill:#008000;opacity:0.3;stroke:#008000;stroke-linejoin:miter;"/>
   </g>
   <g id="patch_26">
    <path clip-path="url(#p40a57da567)" d="M 284.054968 186.2 
L 284.054968 137.266667 
L 309.660722 137.266667 
L 309.660722 186.2 
z
" style="fill:#008000;opacity:0.3;stroke:#008000;stroke-linejoin:miter;"/>
   </g>
   <g id="patch_27">
    <path clip-path="url(#p40a57da567)" d="M 509.280195 186.2 
L 509.280195 137.266667 
L 532.95344 137.266667 
L 532.95344 186.2 
z
" style="fill:#008000;opacity:0.3;stroke:#008000;stroke-linejoin:miter;"/>
   </g>
   <g id="matplotlib.axis_5">
    <g id="text_3">
     <!-- Time -->
     <g transform="translate(287.056445 202.3575)scale(0.16 -0.16)">
      <defs>
       <path d="M -19 4666 
L 3928 4666 
L 3928 4134 
L 2272 4134 
L 2272 0 
L 1638 0 
L 1638 4134 
L -19 4134 
L -19 4666 
z
" id="DejaVuSans-54" transform="scale(0.015625)"/>
       <path d="M 603 3500 
L 1178 3500 
L 1178 0 
L 603 0 
L 603 3500 
z
M 603 4863 
L 1178 4863 
L 1178 4134 
L 603 4134 
L 603 4863 
z
" id="DejaVuSans-69" transform="scale(0.015625)"/>
       <path d="M 3328 2828 
Q 3544 3216 3844 3400 
Q 4144 3584 4550 3584 
Q 5097 3584 5394 3201 
Q 5691 2819 5691 2113 
L 5691 0 
L 5113 0 
L 5113 2094 
Q 5113 2597 4934 2840 
Q 4756 3084 4391 3084 
Q 3944 3084 3684 2787 
Q 3425 2491 3425 1978 
L 3425 0 
L 2847 0 
L 2847 2094 
Q 2847 2600 2669 2842 
Q 2491 3084 2119 3084 
Q 1678 3084 1418 2786 
Q 1159 2488 1159 1978 
L 1159 0 
L 581 0 
L 581 3500 
L 1159 3500 
L 1159 2956 
Q 1356 3278 1631 3431 
Q 1906 3584 2284 3584 
Q 2666 3584 2933 3390 
Q 3200 3197 3328 2828 
z
" id="DejaVuSans-6d" transform="scale(0.015625)"/>
       <path d="M 3597 1894 
L 3597 1613 
L 953 1613 
Q 991 1019 1311 708 
Q 1631 397 2203 397 
Q 2534 397 2845 478 
Q 3156 559 3463 722 
L 3463 178 
Q 3153 47 2828 -22 
Q 2503 -91 2169 -91 
Q 1331 -91 842 396 
Q 353 884 353 1716 
Q 353 2575 817 3079 
Q 1281 3584 2069 3584 
Q 2775 3584 3186 3129 
Q 3597 2675 3597 1894 
z
M 3022 2063 
Q 3016 2534 2758 2815 
Q 2500 3097 2075 3097 
Q 1594 3097 1305 2825 
Q 1016 2553 972 2059 
L 3022 2063 
z
" id="DejaVuSans-65" transform="scale(0.015625)"/>
      </defs>
      <use xlink:href="#DejaVuSans-54"/>
      <use x="57.958984" xlink:href="#DejaVuSans-69"/>
      <use x="85.742188" xlink:href="#DejaVuSans-6d"/>
      <use x="183.154297" xlink:href="#DejaVuSans-65"/>
     </g>
    </g>
   </g>
   <g id="matplotlib.axis_6">
    <g id="text_4">
     <!-- $\mathrm{sq}_\mathrm{BL}$ -->
     <g transform="translate(11.500391 158.373333)scale(0.16 -0.16)">
      <defs>
       <path d="M 2834 3397 
L 2834 2853 
Q 2591 2978 2328 3040 
Q 2066 3103 1784 3103 
Q 1356 3103 1142 2972 
Q 928 2841 928 2578 
Q 928 2378 1081 2264 
Q 1234 2150 1697 2047 
L 1894 2003 
Q 2506 1872 2764 1633 
Q 3022 1394 3022 966 
Q 3022 478 2636 193 
Q 2250 -91 1575 -91 
Q 1294 -91 989 -36 
Q 684 19 347 128 
L 347 722 
Q 666 556 975 473 
Q 1284 391 1588 391 
Q 1994 391 2212 530 
Q 2431 669 2431 922 
Q 2431 1156 2273 1281 
Q 2116 1406 1581 1522 
L 1381 1569 
Q 847 1681 609 1914 
Q 372 2147 372 2553 
Q 372 3047 722 3315 
Q 1072 3584 1716 3584 
Q 2034 3584 2315 3537 
Q 2597 3491 2834 3397 
z
" id="DejaVuSans-73" transform="scale(0.015625)"/>
       <path d="M 947 1747 
Q 947 1113 1208 752 
Q 1469 391 1925 391 
Q 2381 391 2643 752 
Q 2906 1113 2906 1747 
Q 2906 2381 2643 2742 
Q 2381 3103 1925 3103 
Q 1469 3103 1208 2742 
Q 947 2381 947 1747 
z
M 2906 525 
Q 2725 213 2448 61 
Q 2172 -91 1784 -91 
Q 1150 -91 751 415 
Q 353 922 353 1747 
Q 353 2572 751 3078 
Q 1150 3584 1784 3584 
Q 2172 3584 2448 3432 
Q 2725 3281 2906 2969 
L 2906 3500 
L 3481 3500 
L 3481 -1331 
L 2906 -1331 
L 2906 525 
z
" id="DejaVuSans-71" transform="scale(0.015625)"/>
       <path d="M 1259 2228 
L 1259 519 
L 2272 519 
Q 2781 519 3026 730 
Q 3272 941 3272 1375 
Q 3272 1813 3026 2020 
Q 2781 2228 2272 2228 
L 1259 2228 
z
M 1259 4147 
L 1259 2741 
L 2194 2741 
Q 2656 2741 2882 2914 
Q 3109 3088 3109 3444 
Q 3109 3797 2882 3972 
Q 2656 4147 2194 4147 
L 1259 4147 
z
M 628 4666 
L 2241 4666 
Q 2963 4666 3353 4366 
Q 3744 4066 3744 3513 
Q 3744 3084 3544 2831 
Q 3344 2578 2956 2516 
Q 3422 2416 3680 2098 
Q 3938 1781 3938 1306 
Q 3938 681 3513 340 
Q 3088 0 2303 0 
L 628 0 
L 628 4666 
z
" id="DejaVuSans-42" transform="scale(0.015625)"/>
       <path d="M 628 4666 
L 1259 4666 
L 1259 531 
L 3531 531 
L 3531 0 
L 628 0 
L 628 4666 
z
" id="DejaVuSans-4c" transform="scale(0.015625)"/>
      </defs>
      <use xlink:href="#DejaVuSans-73"/>
      <use transform="translate(52.099609 0)" xlink:href="#DejaVuSans-71"/>
      <use transform="translate(116.533203 -16.40625)scale(0.7)" xlink:href="#DejaVuSans-42"/>
      <use transform="translate(164.555664 -16.40625)scale(0.7)" xlink:href="#DejaVuSans-4c"/>
     </g>
    </g>
   </g>
   <g id="line2d_3">
    <path clip-path="url(#p40a57da567)" d="M 71.566737 186.2 
L 183.432699 186.2 
L 183.564461 137.266667 
L 184.398954 137.266667 
L 184.530716 186.2 
L 185.189526 186.2 
L 185.321288 137.266667 
L 186.331463 137.266667 
L 186.463225 186.2 
L 296.089233 186.2 
L 296.220995 137.266667 
L 296.923726 137.266667 
L 297.055488 186.2 
L 541.693654 186.2 
L 541.693654 186.2 
" style="fill:none;stroke:#1f77b4;stroke-linecap:square;stroke-width:1.5;"/>
   </g>
   <g id="patch_28">
    <path d="M 48.060391 186.2 
L 48.060391 137.266667 
" style="fill:none;stroke:#000000;stroke-linecap:square;stroke-linejoin:miter;stroke-width:0.8;"/>
   </g>
   <g id="patch_29">
    <path d="M 565.2 186.2 
L 565.2 137.266667 
" style="fill:none;stroke:#000000;stroke-linecap:square;stroke-linejoin:miter;stroke-width:0.8;"/>
   </g>
   <g id="patch_30">
    <path d="M 48.060391 186.2 
L 565.2 186.2 
" style="fill:none;stroke:#000000;stroke-linecap:square;stroke-linejoin:miter;stroke-width:0.8;"/>
   </g>
   <g id="patch_31">
    <path d="M 48.060391 137.266667 
L 565.2 137.266667 
" style="fill:none;stroke:#000000;stroke-linecap:square;stroke-linejoin:miter;stroke-width:0.8;"/>
   </g>
  </g>
 </g>
 <defs>
  <clipPath id="p47f5a0d178">
   <rect height="48.933333" width="517.139609" x="48.060391" y="10.8"/>
  </clipPath>
  <clipPath id="p95deea2961">
   <rect height="48.933333" width="517.139609" x="48.060391" y="74.033333"/>
  </clipPath>
  <clipPath id="p40a57da567">
   <rect height="48.933333" width="517.139609" x="48.060391" y="137.266667"/>
  </clipPath>
 </defs>
</svg>
