<?xml version="1.0" encoding="UTF-8" standalone="no"?>
<!-- Created with Inkscape (http://www.inkscape.org/) -->

<svg
   width="225.1969mm"
   height="112.42389mm"
   viewBox="0 0 225.1969 112.42388"
   version="1.1"
   id="svg12873"
   inkscape:version="1.2.1 (9c6d41e410, 2022-07-14)"
   sodipodi:docname="cm_example.svg"
   inkscape:export-filename="cm_example.pdf"
   inkscape:export-xdpi="96"
   inkscape:export-ydpi="96"
   xmlns:inkscape="http://www.inkscape.org/namespaces/inkscape"
   xmlns:sodipodi="http://sodipodi.sourceforge.net/DTD/sodipodi-0.dtd"
   xmlns:xlink="http://www.w3.org/1999/xlink"
   xmlns="http://www.w3.org/2000/svg"
   xmlns:svg="http://www.w3.org/2000/svg">
  <sodipodi:namedview
     id="namedview12875"
     pagecolor="#ffffff"
     bordercolor="#000000"
     borderopacity="0.25"
     inkscape:showpageshadow="2"
     inkscape:pageopacity="0.0"
     inkscape:pagecheckerboard="0"
     inkscape:deskcolor="#d1d1d1"
     inkscape:document-units="mm"
     showgrid="true"
     inkscape:zoom="0.7251543"
     inkscape:cx="470.93425"
     inkscape:cy="58.608216"
     inkscape:window-width="1920"
     inkscape:window-height="1001"
     inkscape:window-x="-9"
     inkscape:window-y="-9"
     inkscape:window-maximized="1"
     inkscape:current-layer="layer1">
    <inkscape:grid
       type="xygrid"
       id="grid12994"
       originx="-26.267103"
       originy="19.442845" />
  </sodipodi:namedview>
  <defs
     id="defs12870">
    <rect
       x="380"
       y="180"
       width="80"
       height="60"
       id="rect13292" />
    <rect
       x="380"
       y="180"
       width="60"
       height="60"
       id="rect13286" />
    <rect
       x="260"
       y="260"
       width="100"
       height="60"
       id="rect13280" />
    <rect
       x="380"
       y="80"
       width="100"
       height="40"
       id="rect13020" />
    <rect
       x="360"
       y="160"
       width="140"
       height="80"
       id="rect13006" />
    <rect
       x="380"
       y="80"
       width="100"
       height="40"
       id="rect13268" />
    <rect
       x="380"
       y="180"
       width="80"
       height="60"
       id="rect13300" />
    <rect
       x="380"
       y="180"
       width="80"
       height="60"
       id="rect13306" />
    <rect
       x="380"
       y="180"
       width="80"
       height="60"
       id="rect13312" />
    <rect
       x="380"
       y="180"
       width="80"
       height="60"
       id="rect13318" />
    <rect
       x="380"
       y="180"
       width="80"
       height="60"
       id="rect13324" />
    <rect
       x="380"
       y="180"
       width="80"
       height="60"
       id="rect13330" />
    <rect
       x="380"
       y="180"
       width="80"
       height="60"
       id="rect13336" />
    <clipPath
       clipPathUnits="userSpaceOnUse"
       id="clipPath17161">
      <rect
         style="fill:#ffeeaa;stroke-width:0.7;stroke-linejoin:bevel"
         id="rect17163"
         width="209.43243"
         height="62.391891"
         x="9.1216211"
         y="182.43242"
         ry="6.3578278e-07" />
    </clipPath>
    <rect
       x="380"
       y="180"
       width="80"
       height="60"
       id="rect17713" />
    <rect
       x="380"
       y="180"
       width="80"
       height="60"
       id="rect17719" />
    <rect
       x="380"
       y="180"
       width="80"
       height="60"
       id="rect17725" />
    <rect
       x="380"
       y="180"
       width="80"
       height="60"
       id="rect17731" />
    <clipPath
       id="pc1d65625f6">
      <rect
         height="45.869221"
         width="500.36874"
         x="73.764374"
         y="480.18927"
         id="rect17683" />
    </clipPath>
    <clipPath
       id="clipPath18616">
      <rect
         height="45.869221"
         width="500.36874"
         x="73.764374"
         y="480.18927"
         id="rect18614" />
    </clipPath>
    <clipPath
       id="clipPath18620">
      <rect
         height="45.869221"
         width="500.36874"
         x="73.764374"
         y="480.18927"
         id="rect18618" />
    </clipPath>
    <clipPath
       id="pe57c2bb7b6">
      <rect
         height="45.869221"
         width="500.36874"
         x="73.764374"
         y="547.57477"
         id="rect17686" />
    </clipPath>
    <clipPath
       id="clipPath18626">
      <rect
         height="45.869221"
         width="500.36874"
         x="73.764374"
         y="547.57477"
         id="rect18624" />
    </clipPath>
    <clipPath
       id="clipPath18630">
      <rect
         height="45.869221"
         width="500.36874"
         x="73.764374"
         y="547.57477"
         id="rect18628" />
    </clipPath>
    <clipPath
       id="clipPath18634">
      <rect
         height="45.869221"
         width="500.36874"
         x="73.764374"
         y="547.57477"
         id="rect18632" />
    </clipPath>
    <path
       d="M 313,2009 H 1997 V 1497 H 313 Z"
       id="DejaVuSans-2d"
       transform="scale(0.015625)" />
    <path
       d="m 2834,3397 v -544 q -243,125 -506,187 -262,63 -544,63 -428,0 -642,-131 -214,-131 -214,-394 0,-200 153,-314 153,-114 616,-217 l 197,-44 q 612,-131 870,-370 258,-239 258,-667 0,-488 -386,-773 Q 2250,-91 1575,-91 1294,-91 989,-36 684,19 347,128 v 594 q 319,-166 628,-249 309,-82 613,-82 406,0 624,139 219,139 219,392 0,234 -158,359 -157,125 -692,241 l -200,47 q -534,112 -772,345 -237,233 -237,639 0,494 350,762 350,269 994,269 318,0 599,-47 282,-46 519,-140 z"
       id="DejaVuSans-73"
       transform="scale(0.015625)" />
    <path
       d="m 947,1747 q 0,-634 261,-995 261,-361 717,-361 456,0 718,361 263,361 263,995 0,634 -263,995 -262,361 -718,361 -456,0 -717,-361 Q 947,2381 947,1747 Z M 2906,525 Q 2725,213 2448,61 2172,-91 1784,-91 1150,-91 751,415 353,922 353,1747 q 0,825 398,1331 399,506 1033,506 388,0 664,-152 277,-151 458,-463 v 531 h 575 v -4831 h -575 z"
       id="DejaVuSans-71"
       transform="scale(0.015625)" />
    <path
       d="M 2419,4116 825,1625 h 1594 z m -166,550 h 794 V 1625 h 666 V 1100 H 3047 V 0 H 2419 V 1100 H 313 v 609 z"
       id="DejaVuSans-34"
       transform="scale(0.015625)" />
    <path
       d="m 2113,2584 q -425,0 -674,-291 -248,-290 -248,-796 0,-503 248,-796 249,-292 674,-292 425,0 673,292 248,293 248,796 0,506 -248,796 -248,291 -673,291 z m 1253,1979 v -575 q -238,112 -480,171 -242,60 -480,60 -625,0 -955,-422 -329,-422 -376,-1275 184,272 462,417 279,145 613,145 703,0 1111,-427 408,-426 408,-1160 0,-719 -425,-1154 -425,-434 -1131,-434 -810,0 -1238,620 -428,621 -428,1799 0,1106 525,1764 525,658 1409,658 238,0 480,-47 242,-47 505,-140 z"
       id="DejaVuSans-36"
       transform="scale(0.015625)" />
    <path
       d="m 2034,2216 q -450,0 -708,-241 -257,-241 -257,-662 0,-422 257,-663 258,-241 708,-241 450,0 709,242 260,243 260,662 0,421 -258,662 -257,241 -711,241 z m -631,268 q -406,100 -633,378 -226,279 -226,679 0,559 398,884 399,325 1092,325 697,0 1094,-325 397,-325 397,-884 0,-400 -227,-679 -226,-278 -629,-378 456,-106 710,-416 255,-309 255,-755 Q 3634,634 3220,271 2806,-91 2034,-91 1263,-91 848,271 434,634 434,1313 q 0,446 256,755 257,310 713,416 z m -231,997 q 0,-362 226,-565 227,-203 636,-203 407,0 636,203 230,203 230,565 0,363 -230,566 -229,203 -636,203 -409,0 -636,-203 -226,-203 -226,-566 z"
       id="DejaVuSans-38"
       transform="scale(0.015625)" />
    <path
       d="m 3122,3366 v -538 q -244,135 -489,202 -245,67 -495,67 -560,0 -870,-355 -309,-354 -309,-995 0,-641 309,-996 310,-354 870,-354 250,0 495,67 245,67 489,202 V 134 Q 2881,22 2623,-34 2366,-91 2075,-91 1284,-91 818,406 353,903 353,1747 q 0,856 470,1346 471,491 1290,491 265,0 518,-55 253,-54 491,-163 z"
       id="DejaVuSans-63"
       transform="scale(0.015625)" />
    <path
       d="m 1959,3097 q -462,0 -731,-361 -269,-361 -269,-989 0,-628 267,-989 268,-361 733,-361 460,0 728,362 269,363 269,988 0,622 -269,986 -268,364 -728,364 z m 0,487 q 750,0 1178,-488 429,-487 429,-1349 Q 3566,888 3137,398 2709,-91 1959,-91 1206,-91 779,398 353,888 353,1747 q 0,862 426,1349 427,488 1180,488 z"
       id="DejaVuSans-6f"
       transform="scale(0.015625)" />
    <path
       d="m 2906,2969 v 1894 h 575 V 0 H 2906 V 525 Q 2725,213 2448,61 2172,-91 1784,-91 1150,-91 751,415 353,922 353,1747 q 0,825 398,1331 399,506 1033,506 388,0 664,-152 277,-151 458,-463 z M 947,1747 q 0,-634 261,-995 261,-361 717,-361 456,0 718,361 263,361 263,995 0,634 -263,995 -262,361 -718,361 -456,0 -717,-361 -261,-361 -261,-995 z"
       id="DejaVuSans-64"
       transform="scale(0.015625)" />
    <path
       d="m 628,4666 h 941 L 2759,1491 3956,4666 h 941 V 0 H 4281 V 4097 L 3078,897 H 2444 L 1241,4097 V 0 H 628 Z"
       id="DejaVuSans-4d"
       transform="scale(0.015625)" />
    <path
       d="M 1259,4147 V 2394 h 794 q 441,0 681,228 241,228 241,650 0,419 -241,647 -240,228 -681,228 z m -631,519 h 1425 q 785,0 1186,-355 402,-355 402,-1039 0,-691 -402,-1044 -401,-353 -1186,-353 H 1259 V 0 H 628 Z"
       id="DejaVuSans-50"
       transform="scale(0.015625)" />
    <path
       d="M 1159,525 V -1331 H 581 v 4831 h 578 v -531 q 182,312 458,463 277,152 661,152 638,0 1036,-506 399,-506 399,-1331 0,-825 -399,-1332 -398,-506 -1036,-506 -384,0 -661,152 -276,152 -458,464 z m 1957,1222 q 0,634 -261,995 -261,361 -717,361 -457,0 -718,-361 -261,-361 -261,-995 0,-634 261,-995 261,-361 718,-361 456,0 717,361 261,361 261,995 z"
       id="DejaVuSans-70"
       transform="scale(0.015625)" />
    <path
       d="M 3513,2113 V 0 h -575 v 2094 q 0,497 -194,743 -194,247 -581,247 -466,0 -735,-297 -269,-296 -269,-809 V 0 H 581 v 4863 h 578 V 2956 q 207,316 486,472 280,156 646,156 603,0 912,-373 310,-373 310,-1098 z"
       id="DejaVuSans-68"
       transform="scale(0.015625)" />
  </defs>
  <g
     inkscape:label="Ebene 1"
     inkscape:groupmode="layer"
     id="layer1"
     transform="translate(-26.2671,19.442848)">
    <text
       xml:space="preserve"
       transform="scale(0.26458333)"
       id="text13004"
       style="font-weight:bold;font-size:16px;font-family:Arial;-inkscape-font-specification:'Arial Bold';white-space:pre;shape-inside:url(#rect13006);display:inline;fill:none;stroke:#000000;stroke-width:1.88976;stroke-linejoin:bevel" />
    <text
       xml:space="preserve"
       transform="matrix(0.26458333,0,0,0.26458333,6.8791662,65.616668)"
       id="text13018"
       style="font-weight:bold;font-size:21.3333px;font-family:Arial;-inkscape-font-specification:'Arial Bold';white-space:pre;shape-inside:url(#rect13020);display:inline;fill:#000000;stroke:none;stroke-width:1.88976;stroke-linejoin:bevel"><tspan
         x="380"
         y="99.216064"
         id="tspan33243">predicted</tspan></text>
    <text
       xml:space="preserve"
       transform="matrix(0,-0.26458333,0.26458333,0,68.204113,171.53114)"
       id="text13266"
       style="font-weight:bold;font-size:21.3333px;font-family:Arial;-inkscape-font-specification:'Arial Bold';white-space:pre;shape-inside:url(#rect13268);display:inline;fill:#000000;stroke:none;stroke-width:1.88976;stroke-linejoin:bevel"><tspan
         x="380"
         y="99.216064"
         id="tspan33245">actual</tspan></text>
    <rect
       style="fill:none;stroke:#000000;stroke-width:0.499999;stroke-linejoin:bevel"
       id="rect13270"
       width="15.875"
       height="15.875"
       x="102.6583"
       y="46.037502" />
    <rect
       style="fill:none;stroke:#000000;stroke-width:0.499999;stroke-linejoin:bevel"
       id="rect13272"
       width="15.875"
       height="15.875"
       x="118.5333"
       y="46.037502" />
    <rect
       style="fill:none;stroke:#000000;stroke-width:0.499999;stroke-linejoin:bevel"
       id="rect13274"
       width="15.875"
       height="15.875"
       x="118.5333"
       y="61.912502" />
    <rect
       style="fill:none;stroke:#000000;stroke-width:0.499999;stroke-linejoin:bevel"
       id="rect13276"
       width="15.875"
       height="15.875"
       x="102.6583"
       y="61.912502" />
    <text
       xml:space="preserve"
       transform="scale(0.26458333)"
       id="text13278"
       style="font-weight:bold;font-size:16px;font-family:Arial;-inkscape-font-specification:'Arial Bold';white-space:pre;shape-inside:url(#rect13280);display:inline;fill:none;stroke:#000000;stroke-width:1.88976;stroke-linejoin:bevel" />
    <text
       xml:space="preserve"
       transform="scale(0.26458333)"
       id="text13284"
       style="font-weight:bold;font-size:16px;font-family:Arial;-inkscape-font-specification:'Arial Bold';white-space:pre;shape-inside:url(#rect13286);display:inline;fill:none;stroke:#000000;stroke-width:1.88976;stroke-linejoin:bevel" />
    <text
       xml:space="preserve"
       transform="matrix(0.26458333,0,0,0.26458333,10.634992,-1.2397028)"
       id="text13290"
       style="font-weight:bold;font-size:16px;font-family:Arial;-inkscape-font-specification:'Arial Bold';text-align:center;white-space:pre;shape-inside:url(#rect13292);display:inline;fill:#000000;stroke:none;stroke-width:1.88976;stroke-linejoin:bevel"
       x="9.6835938"
       y="0"><tspan
         x="409.77734"
         y="194.41207"
         id="tspan33247">FP</tspan></text>
    <text
       xml:space="preserve"
       transform="matrix(0.26458333,0,0,0.26458333,-5.2400065,-1.2397028)"
       id="text13298"
       style="font-weight:bold;font-size:16px;font-family:Arial;-inkscape-font-specification:'Arial Bold';text-align:center;white-space:pre;shape-inside:url(#rect13300);display:inline;fill:#000000;stroke:none;stroke-width:1.88976;stroke-linejoin:bevel"
       x="9.6835938"
       y="0"><tspan
         x="409.33594"
         y="194.41207"
         id="tspan33249">TN</tspan></text>
    <text
       xml:space="preserve"
       transform="matrix(0.26458333,0,0,0.26458333,-5.2400065,14.635297)"
       id="text13304"
       style="font-weight:bold;font-size:16px;font-family:Arial;-inkscape-font-specification:'Arial Bold';text-align:center;white-space:pre;shape-inside:url(#rect13306);display:inline;fill:#000000;stroke:none;stroke-width:1.88976;stroke-linejoin:bevel"
       x="9.6835938"
       y="0"><tspan
         x="409.33594"
         y="194.41207"
         id="tspan33251">FN</tspan></text>
    <text
       xml:space="preserve"
       transform="matrix(0.26458333,0,0,0.26458333,10.634992,14.635297)"
       id="text13310"
       style="font-weight:bold;font-size:16px;font-family:Arial;-inkscape-font-specification:'Arial Bold';text-align:center;white-space:pre;shape-inside:url(#rect13312);display:inline;fill:#000000;stroke:none;stroke-width:1.88976;stroke-linejoin:bevel"
       x="9.6835938"
       y="0"><tspan
         x="409.77734"
         y="194.41207"
         id="tspan33253">TP</tspan></text>
    <text
       xml:space="preserve"
       transform="matrix(0.26458333,0,0,0.26458333,15.397492,32.626966)"
       id="text13316"
       style="font-weight:bold;font-size:21.3333px;font-family:Arial;-inkscape-font-specification:'Arial Bold';text-align:center;white-space:pre;shape-inside:url(#rect13318);display:inline;fill:#000000;stroke:none;stroke-width:1.88976;stroke-linejoin:bevel"
       x="9.6835938"
       y="0"><tspan
         x="414.06772"
         y="199.21606"
         id="tspan33255">1</tspan></text>
    <text
       xml:space="preserve"
       transform="matrix(0.26458333,0,0,0.26458333,-0.47750647,32.626966)"
       id="text13322"
       style="font-weight:bold;font-size:21.3333px;font-family:Arial;-inkscape-font-specification:'Arial Bold';text-align:center;white-space:pre;shape-inside:url(#rect13324);display:inline;fill:#000000;stroke:none;stroke-width:1.88976;stroke-linejoin:bevel"
       x="9.6835938"
       y="0"><tspan
         x="414.06772"
         y="199.21606"
         id="tspan33257">0</tspan></text>
    <text
       xml:space="preserve"
       transform="matrix(0.26458333,0,0,0.26458333,-12.648342,19.926964)"
       id="text13328"
       style="font-weight:bold;font-size:21.3333px;font-family:Arial;-inkscape-font-specification:'Arial Bold';text-align:center;white-space:pre;shape-inside:url(#rect13330);display:inline;fill:#000000;stroke:none;stroke-width:1.88976;stroke-linejoin:bevel"
       x="9.6835938"
       y="0"><tspan
         x="414.06772"
         y="199.21606"
         id="tspan33259">1</tspan></text>
    <text
       xml:space="preserve"
       transform="matrix(0.26458333,0,0,0.26458333,-12.648342,4.0519639)"
       id="text13334"
       style="font-weight:bold;font-size:21.3333px;font-family:Arial;-inkscape-font-specification:'Arial Bold';text-align:center;white-space:pre;shape-inside:url(#rect13336);display:inline;fill:#000000;stroke:none;stroke-width:1.88976;stroke-linejoin:bevel"
       x="9.6835938"
       y="0"><tspan
         x="414.06772"
         y="199.21606"
         id="tspan33261">0</tspan></text>
    <g
       id="g17707"
       transform="rotate(90,124.05555,39.526027)">
      <path
         style="fill:none;stroke:#000000;stroke-width:0.426801;stroke-linejoin:bevel;stroke-dasharray:none"
         d="m 127.88467,44.999104 c -12.06638,0 0,-34.875859 -12.06638,-34.875859"
         id="path8330" />
      <path
         style="fill:none;stroke:#000000;stroke-width:0.426801;stroke-linejoin:bevel;stroke-dasharray:none"
         d="m 127.88467,44.999104 c -12.06638,0 0,34.875879 -12.06638,34.875879"
         id="path8332" />
    </g>
    <text
       xml:space="preserve"
       transform="matrix(0.26458333,0,0,0.26458333,0.58082683,5.6394643)"
       id="text17711"
       style="font-weight:bold;font-size:21.3333px;font-family:Arial;-inkscape-font-specification:'Arial Bold';text-align:center;white-space:pre;shape-inside:url(#rect17713);display:inline;fill:#000000;stroke:none;stroke-width:1.88976;stroke-linejoin:bevel"
       x="9.6835938"
       y="0"><tspan
         x="402.20315"
         y="199.21606"
         id="tspan33263">287</tspan></text>
    <text
       xml:space="preserve"
       transform="matrix(0.26458333,0,0,0.26458333,16.455827,5.6394643)"
       id="text17717"
       style="font-weight:bold;font-size:21.3333px;font-family:Arial;-inkscape-font-specification:'Arial Bold';text-align:center;white-space:pre;shape-inside:url(#rect17719);display:inline;fill:#000000;stroke:none;stroke-width:1.88976;stroke-linejoin:bevel"
       x="9.6835938"
       y="0"><tspan
         x="402.20315"
         y="199.21606"
         id="tspan33265">393</tspan></text>
    <text
       xml:space="preserve"
       transform="matrix(0.26458333,0,0,0.26458333,16.455827,21.514465)"
       id="text17723"
       style="font-weight:bold;font-size:21.3333px;font-family:Arial;-inkscape-font-specification:'Arial Bold';text-align:center;white-space:pre;shape-inside:url(#rect17725);display:inline;fill:#000000;stroke:none;stroke-width:1.88976;stroke-linejoin:bevel"
       x="9.6835938"
       y="0"><tspan
         x="408.72398"
         y="199.21606"
         id="tspan33267">11</tspan></text>
    <text
       xml:space="preserve"
       transform="matrix(0.26458333,0,0,0.26458333,0.58082663,21.514465)"
       id="text17729"
       style="font-weight:bold;font-size:21.3333px;font-family:Arial;-inkscape-font-specification:'Arial Bold';text-align:center;white-space:pre;shape-inside:url(#rect17731);display:inline;fill:#000000;stroke:none;stroke-width:1.88976;stroke-linejoin:bevel"
       x="9.6835938"
       y="0"><tspan
         x="414.06772"
         y="199.21606"
         id="tspan33269">0</tspan></text>
    <g
       id="patch_44"
       style="stroke-linecap:butt;stroke-linejoin:round"
       transform="matrix(0.35277777,0,0,0.35277777,12.730356,-187.85411)">
      <path
         d="M 73.764375,526.05849 H 574.13312 V 480.18927 H 73.764375 Z"
         style="fill:#ffffff;stroke-linecap:butt;stroke-linejoin:round"
         id="path17326" />
    </g>
    <g
       id="matplotlib.axis_15"
       style="stroke-linecap:butt;stroke-linejoin:round"
       transform="matrix(0.35277777,0,0,0.35277777,12.730356,-187.85411)">
      <g
         id="xtick_36"
         style="stroke-linecap:butt;stroke-linejoin:round">
        <g
           id="line2d_71"
           style="stroke-linecap:butt;stroke-linejoin:round">
          <g
             id="g17331"
             style="stroke-linecap:butt;stroke-linejoin:round">
            <path
               d="m 96.508408,526.05847 v 3.5"
               id="use17329"
               style="stroke:#000000;stroke-width:0.8;stroke-linecap:butt;stroke-linejoin:round" />
          </g>
        </g>
      </g>
      <g
         id="xtick_37"
         style="stroke-linecap:butt;stroke-linejoin:round">
        <g
           id="line2d_72"
           style="stroke-linecap:butt;stroke-linejoin:round">
          <g
             id="g17337"
             style="stroke-linecap:butt;stroke-linejoin:round">
            <path
               d="m 210.39174,526.05847 v 3.5"
               id="use17335"
               style="stroke:#000000;stroke-width:0.8;stroke-linecap:butt;stroke-linejoin:round" />
          </g>
        </g>
      </g>
      <g
         id="xtick_38"
         style="stroke-linecap:butt;stroke-linejoin:round">
        <g
           id="line2d_73"
           style="stroke-linecap:butt;stroke-linejoin:round">
          <g
             id="g17343"
             style="stroke-linecap:butt;stroke-linejoin:round">
            <path
               d="m 324.27505,526.05847 v 3.5"
               id="use17341"
               style="stroke:#000000;stroke-width:0.8;stroke-linecap:butt;stroke-linejoin:round" />
          </g>
        </g>
      </g>
      <g
         id="xtick_39"
         style="stroke-linecap:butt;stroke-linejoin:round">
        <g
           id="line2d_74"
           style="stroke-linecap:butt;stroke-linejoin:round">
          <g
             id="g17349"
             style="stroke-linecap:butt;stroke-linejoin:round">
            <path
               d="m 438.15839,526.05847 v 3.5"
               id="use17347"
               style="stroke:#000000;stroke-width:0.8;stroke-linecap:butt;stroke-linejoin:round" />
          </g>
        </g>
      </g>
      <g
         id="xtick_40"
         style="stroke-linecap:butt;stroke-linejoin:round">
        <g
           id="line2d_75"
           style="stroke-linecap:butt;stroke-linejoin:round">
          <g
             id="g17355"
             style="stroke-linecap:butt;stroke-linejoin:round">
            <path
               d="m 552.04169,526.05847 v 3.5"
               id="use17353"
               style="stroke:#000000;stroke-width:0.8;stroke-linecap:butt;stroke-linejoin:round" />
          </g>
        </g>
      </g>
    </g>
    <g
       id="matplotlib.axis_16"
       style="stroke-linecap:butt;stroke-linejoin:round"
       transform="matrix(0.35277777,0,0,0.35277777,12.730356,-187.85411)">
      <g
         id="ytick_15"
         style="stroke-linecap:butt;stroke-linejoin:round">
        <g
           id="line2d_76"
           style="stroke-linecap:butt;stroke-linejoin:round">
          <g
             id="g17362"
             style="stroke-linecap:butt;stroke-linejoin:round">
            <path
               d="m 73.764374,523.97351 h -3.5"
               id="use17360"
               style="stroke:#000000;stroke-width:0.8;stroke-linecap:butt;stroke-linejoin:round" />
          </g>
        </g>
        <g
           id="text_29"
           style="stroke-linecap:butt;stroke-linejoin:round">
          <!-- 0 -->
          <g
             transform="matrix(0.14,0,0,-0.14,57.856875,529.29243)"
             id="g17367"
             style="stroke-linecap:butt;stroke-linejoin:round">
            <path
               d="m 31.78125,66.40625 q -7.609375,0 -11.453125,-7.5 Q 16.5,51.421875 16.5,36.375 q 0,-14.984375 3.828125,-22.484375 3.84375,-7.5 11.453125,-7.5 7.671875,0 11.5,7.5 3.84375,7.5 3.84375,22.484375 0,15.046875 -3.84375,22.53125 -3.828125,7.5 -11.5,7.5 z m 0,7.8125 q 12.265625,0 18.734375,-9.703125 6.46875,-9.6875 6.46875,-28.140625 0,-18.40625 -6.46875,-28.109375 -6.46875,-9.6875 -18.734375,-9.6875 -12.25,0 -18.71875,9.6875 Q 6.59375,17.96875 6.59375,36.375 q 0,18.453125 6.46875,28.140625 6.46875,9.703125 18.71875,9.703125 z"
               id="use17365"
               style="stroke-width:0.015625;stroke-linecap:butt;stroke-linejoin:round" />
          </g>
        </g>
      </g>
      <g
         id="ytick_16"
         style="stroke-linecap:butt;stroke-linejoin:round">
        <g
           id="line2d_77"
           style="stroke-linecap:butt;stroke-linejoin:round">
          <g
             id="g17373"
             style="stroke-linecap:butt;stroke-linejoin:round">
            <path
               d="m 73.764374,482.27423 h -3.5"
               id="use17371"
               style="stroke:#000000;stroke-width:0.8;stroke-linecap:butt;stroke-linejoin:round" />
          </g>
        </g>
        <g
           id="text_30"
           style="stroke-linecap:butt;stroke-linejoin:round">
          <!-- 1 -->
          <g
             transform="matrix(0.14,0,0,-0.14,57.856875,487.59314)"
             id="g17378"
             style="stroke-linecap:butt;stroke-linejoin:round">
            <path
               d="m 12.40625,8.296875 h 16.109375 v 55.625 L 10.984375,60.40625 v 8.984375 l 17.4375,3.515625 H 38.28125 V 8.296875 H 54.390625 V 0 H 12.40625 Z"
               id="use17376"
               style="stroke-width:0.015625;stroke-linecap:butt;stroke-linejoin:round" />
          </g>
        </g>
      </g>
      <g
         id="text_31"
         style="stroke-linecap:butt;stroke-linejoin:round">
        <!-- [-] -->
        <g
           transform="matrix(0,-0.16,-0.16,0,50.529375,512.25263)"
           id="g17391"
           style="stroke-linecap:butt;stroke-linejoin:round">
          <defs
             id="defs17383">
            <path
               d="M 313,2009 H 1997 V 1497 H 313 Z"
               id="path19450"
               transform="scale(0.015625)" />
          </defs>
          <path
             d="M 8.59375,75.984375 H 29.296875 V 69 H 17.578125 V -6.203125 h 11.71875 V -13.1875 H 8.59375 Z"
             id="use17385"
             style="stroke-width:0.015625;stroke-linecap:butt;stroke-linejoin:round" />
          <use
             x="39.013672"
             xlink:href="#DejaVuSans-2d"
             id="use17387"
             style="stroke-linecap:butt;stroke-linejoin:round" />
          <path
             d="M 105.51953,75.984375 V -13.1875 H 84.816406 v 6.984375 H 96.488281 V 69 H 84.816406 v 6.984375 z"
             id="use17389"
             style="stroke-width:0.015625;stroke-linecap:butt;stroke-linejoin:round" />
        </g>
      </g>
    </g>
    <g
       id="line2d_78"
       style="stroke-linecap:butt;stroke-linejoin:round"
       transform="matrix(0.35277777,0,0,0.35277777,12.730356,-187.85411)">
      <path
         clip-path="url(#pc1d65625f6)"
         d="M 96.508409,523.97352 H 377.79044 l 0.65262,-41.69929 h 8.48415 l 0.65262,41.69929 h 163.80926 v 0"
         style="fill:none;stroke:#1f77b4;stroke-width:1.5;stroke-linecap:square;stroke-linejoin:round"
         id="path17395" />
    </g>
    <g
       id="LineCollection_15"
       style="stroke-linecap:butt;stroke-linejoin:round"
       transform="matrix(0.35277777,0,0,0.35277777,12.730356,-187.85411)">
      <path
         clip-path="url(#pc1d65625f6)"
         d="M 161.11843,523.97352 V 482.27423"
         style="fill:none;stroke:#000000;stroke-width:1.5;stroke-linecap:butt;stroke-linejoin:round"
         id="path17398" />
    </g>
    <g
       id="LineCollection_16"
       style="stroke-linecap:butt;stroke-linejoin:round"
       transform="matrix(0.35277777,0,0,0.35277777,12.730356,-187.85411)">
      <path
         clip-path="url(#pc1d65625f6)"
         d="M 486.77907,523.97352 V 482.27423"
         style="fill:none;stroke:#000000;stroke-width:1.5;stroke-linecap:butt;stroke-linejoin:round"
         id="path17401" />
    </g>
    <g
       id="patch_45"
       style="stroke-linecap:butt;stroke-linejoin:round"
       transform="matrix(0.35277777,0,0,0.35277777,12.730356,-187.85411)">
      <path
         d="M 73.764375,526.05849 V 480.18927"
         style="fill:none;stroke:#000000;stroke-width:0.8;stroke-linecap:square;stroke-linejoin:miter"
         id="path17404" />
    </g>
    <g
       id="patch_46"
       style="stroke-linecap:butt;stroke-linejoin:round"
       transform="matrix(0.35277777,0,0,0.35277777,12.730356,-187.85411)">
      <path
         d="M 574.13312,526.05849 V 480.18927"
         style="fill:none;stroke:#000000;stroke-width:0.8;stroke-linecap:square;stroke-linejoin:miter"
         id="path17407" />
    </g>
    <g
       id="patch_47"
       style="stroke-linecap:butt;stroke-linejoin:round"
       transform="matrix(0.35277777,0,0,0.35277777,12.730356,-187.85411)">
      <path
         d="M 73.764375,526.05849 H 574.13312"
         style="fill:none;stroke:#000000;stroke-width:0.8;stroke-linecap:square;stroke-linejoin:miter"
         id="path17410" />
    </g>
    <g
       id="patch_48"
       style="stroke-linecap:butt;stroke-linejoin:round"
       transform="matrix(0.35277777,0,0,0.35277777,12.730356,-187.85411)">
      <path
         d="M 73.764375,480.18927 H 574.13312"
         style="fill:none;stroke:#000000;stroke-width:0.8;stroke-linecap:square;stroke-linejoin:miter"
         id="path17413" />
    </g>
    <g
       id="legend_8"
       style="stroke-linecap:butt;stroke-linejoin:round"
       transform="matrix(0.35277777,0,0,0.35277777,4.7928561,-193.14578)">
      <g
         id="patch_49"
         style="stroke-linecap:butt;stroke-linejoin:round">
        <path
           d="m 603.70531,531.0434 h 84.32 q 3.2,0 3.2,-3.20001 V 505.9259 q 0,-3.20001 -3.2,-3.20001 h -84.32 q -3.2,0 -3.2,3.20001 v 21.91749 q 0,3.20001 3.2,3.20001 z"
           style="opacity:0.8;fill:#ffffff;stroke:#cccccc;stroke-linecap:butt;stroke-linejoin:miter"
           id="path17416" />
      </g>
      <g
         id="line2d_79"
         style="stroke-linecap:butt;stroke-linejoin:round">
        <path
           d="m 606.90531,515.6834 h 32"
           style="fill:none;stroke:#1f77b4;stroke-width:1.5;stroke-linecap:square;stroke-linejoin:round"
           id="path17419" />
      </g>
      <g
         id="line2d_80"
         style="stroke-linecap:butt;stroke-linejoin:round" />
      <g
         id="text_32"
         style="stroke-linecap:butt;stroke-linejoin:round">
        <!-- $\mathrm{sq}_\mathrm{BL}$ -->
        <g
           transform="matrix(0.16,0,0,-0.16,651.70531,521.2834)"
           id="g17435"
           style="stroke-linecap:butt;stroke-linejoin:round">
          <defs
             id="defs17425">
            <path
               d="m 2834,3397 v -544 q -243,125 -506,187 -262,63 -544,63 -428,0 -642,-131 -214,-131 -214,-394 0,-200 153,-314 153,-114 616,-217 l 197,-44 q 612,-131 870,-370 258,-239 258,-667 0,-488 -386,-773 Q 2250,-91 1575,-91 1294,-91 989,-36 684,19 347,128 v 594 q 319,-166 628,-249 309,-82 613,-82 406,0 624,139 219,139 219,392 0,234 -158,359 -157,125 -692,241 l -200,47 q -534,112 -772,345 -237,233 -237,639 0,494 350,762 350,269 994,269 318,0 599,-47 282,-46 519,-140 z"
               id="path19478"
               transform="scale(0.015625)" />
            <path
               d="m 947,1747 q 0,-634 261,-995 261,-361 717,-361 456,0 718,361 263,361 263,995 0,634 -263,995 -262,361 -718,361 -456,0 -717,-361 Q 947,2381 947,1747 Z M 2906,525 Q 2725,213 2448,61 2172,-91 1784,-91 1150,-91 751,415 353,922 353,1747 q 0,825 398,1331 399,506 1033,506 388,0 664,-152 277,-151 458,-463 v 531 h 575 v -4831 h -575 z"
               id="path19480"
               transform="scale(0.015625)" />
          </defs>
          <use
             xlink:href="#DejaVuSans-73"
             id="use17427"
             style="stroke-linecap:butt;stroke-linejoin:round" />
          <use
             transform="translate(52.099609)"
             xlink:href="#DejaVuSans-71"
             id="use17429"
             style="stroke-linecap:butt;stroke-linejoin:round" />
          <path
             d="m 130.30351,7.9625 v -18.692188 h 11.07969 q 5.56719,0 8.24687,2.307813 2.69063,2.3078125 2.69063,7.0546875 0,4.790625 -2.69063,7.0546875 -2.67968,2.275 -8.24687,2.275 z m 0,20.989062 V 13.573437 h 10.22656 q 5.05313,0 7.525,1.892188 2.48282,1.903125 2.48282,5.796875 0,3.860937 -2.48282,5.775 -2.47187,1.914062 -7.525,1.914062 z m -6.90156,5.676563 h 17.64219 q 7.89687,0 12.1625,-3.28125 4.27656,-3.28125 4.27656,-9.329688 0,-4.692187 -2.1875,-7.459375 -2.1875,-2.767187 -6.43125,-3.445312 5.09687,-1.09375 7.91875,-4.571875 2.82187,-3.4671875 2.82187,-8.6625 0,-6.8359375 -4.64843,-10.565625 -4.64844,-3.71875 -13.23438,-3.71875 h -18.32031 z"
             id="use17431"
             style="stroke-width:0.0109375;stroke-linecap:butt;stroke-linejoin:round" />
          <path
             d="m 171.42441,34.628125 h 6.90156 v -45.226562 h 24.85 v -5.807813 h -31.75156 z"
             id="use17433"
             style="stroke-width:0.0109375;stroke-linecap:butt;stroke-linejoin:round" />
        </g>
      </g>
    </g>
    <g
       id="patch_50"
       style="stroke-linecap:butt;stroke-linejoin:round"
       transform="matrix(0.35277777,0,0,0.35277777,12.730356,-187.85411)">
      <path
         d="M 73.764375,593.44398 H 574.13312 V 547.57475 H 73.764375 Z"
         style="fill:#ffffff;stroke-linecap:butt;stroke-linejoin:round"
         id="path17440" />
    </g>
    <g
       id="xtick_41"
       style="stroke-linecap:butt;stroke-linejoin:round"
       transform="matrix(0.35277777,0,0,0.35277777,12.730356,-187.85411)">
      <g
         id="line2d_81"
         style="stroke-linecap:butt;stroke-linejoin:round">
        <g
           id="g17445"
           style="stroke-linecap:butt;stroke-linejoin:round">
          <path
             d="m 96.508408,593.44397 v 3.5"
             id="use17443"
             style="stroke:#000000;stroke-width:0.8;stroke-linecap:butt;stroke-linejoin:round" />
        </g>
      </g>
      <g
         id="text_33"
         style="stroke-linecap:butt;stroke-linejoin:round">
        <!-- 0.00 -->
        <g
           transform="matrix(0.14,0,0,-0.14,80.922472,611.08179)"
           id="g17456"
           style="stroke-linecap:butt;stroke-linejoin:round">
          <path
             d="m 31.78125,66.40625 q -7.609375,0 -11.453125,-7.5 Q 16.5,51.421875 16.5,36.375 q 0,-14.984375 3.828125,-22.484375 3.84375,-7.5 11.453125,-7.5 7.671875,0 11.5,7.5 3.84375,7.5 3.84375,22.484375 0,15.046875 -3.84375,22.53125 -3.828125,7.5 -11.5,7.5 z m 0,7.8125 q 12.265625,0 18.734375,-9.703125 6.46875,-9.6875 6.46875,-28.140625 0,-18.40625 -6.46875,-28.109375 -6.46875,-9.6875 -18.734375,-9.6875 -12.25,0 -18.71875,9.6875 Q 6.59375,17.96875 6.59375,36.375 q 0,18.453125 6.46875,28.140625 6.46875,9.703125 18.71875,9.703125 z"
             id="use17448"
             style="stroke-width:0.015625;stroke-linecap:butt;stroke-linejoin:round" />
          <path
             d="m 74.310547,12.40625 h 10.3125 V 0 h -10.3125 z"
             id="use17450"
             style="stroke-width:0.015625;stroke-linecap:butt;stroke-linejoin:round" />
          <path
             d="m 127.19141,66.40625 q -7.60938,0 -11.45313,-7.5 -3.82812,-7.484375 -3.82812,-22.53125 0,-14.984375 3.82812,-22.484375 3.84375,-7.5 11.45313,-7.5 7.67187,0 11.5,7.5 3.84375,7.5 3.84375,22.484375 0,15.046875 -3.84375,22.53125 -3.82813,7.5 -11.5,7.5 z m 0,7.8125 q 12.26562,0 18.73437,-9.703125 6.46875,-9.6875 6.46875,-28.140625 0,-18.40625 -6.46875,-28.109375 -6.46875,-9.6875 -18.73437,-9.6875 -12.25,0 -18.71875,9.6875 -6.46875,9.703125 -6.46875,28.109375 0,18.453125 6.46875,28.140625 6.46875,9.703125 18.71875,9.703125 z"
             id="use17452"
             style="stroke-width:0.015625;stroke-linecap:butt;stroke-linejoin:round" />
          <path
             d="m 190.81445,66.40625 q -7.60937,0 -11.45312,-7.5 -3.82813,-7.484375 -3.82813,-22.53125 0,-14.984375 3.82813,-22.484375 3.84375,-7.5 11.45312,-7.5 7.67188,0 11.5,7.5 3.84375,7.5 3.84375,22.484375 0,15.046875 -3.84375,22.53125 -3.82812,7.5 -11.5,7.5 z m 0,7.8125 q 12.26563,0 18.73438,-9.703125 6.46875,-9.6875 6.46875,-28.140625 0,-18.40625 -6.46875,-28.109375 -6.46875,-9.6875 -18.73438,-9.6875 -12.25,0 -18.71875,9.6875 -6.46875,9.703125 -6.46875,28.109375 0,18.453125 6.46875,28.140625 6.46875,9.703125 18.71875,9.703125 z"
             id="use17454"
             style="stroke-width:0.015625;stroke-linecap:butt;stroke-linejoin:round" />
        </g>
      </g>
    </g>
    <g
       id="xtick_42"
       style="stroke-linecap:butt;stroke-linejoin:round"
       transform="matrix(0.35277777,0,0,0.35277777,12.730356,-187.85411)">
      <g
         id="line2d_82"
         style="stroke-linecap:butt;stroke-linejoin:round">
        <g
           id="g17462"
           style="stroke-linecap:butt;stroke-linejoin:round">
          <path
             d="m 210.39174,593.44397 v 3.5"
             id="use17460"
             style="stroke:#000000;stroke-width:0.8;stroke-linecap:butt;stroke-linejoin:round" />
        </g>
      </g>
      <g
         id="text_34"
         style="stroke-linecap:butt;stroke-linejoin:round">
        <!-- 1.75 -->
        <g
           transform="matrix(0.14,0,0,-0.14,194.8058,611.08179)"
           id="g17473"
           style="stroke-linecap:butt;stroke-linejoin:round">
          <path
             d="m 12.40625,8.296875 h 16.109375 v 55.625 L 10.984375,60.40625 v 8.984375 l 17.4375,3.515625 H 38.28125 V 8.296875 H 54.390625 V 0 H 12.40625 Z"
             id="use17465"
             style="stroke-width:0.015625;stroke-linecap:butt;stroke-linejoin:round" />
          <path
             d="m 74.310547,12.40625 h 10.3125 V 0 h -10.3125 z"
             id="use17467"
             style="stroke-width:0.015625;stroke-linecap:butt;stroke-linejoin:round" />
          <path
             d="m 103.61328,72.90625 h 46.875 V 68.703125 L 124.01953,0 h -10.29687 l 24.90625,64.59375 h -35.01563 z"
             id="use17469"
             style="stroke-width:0.015625;stroke-linecap:butt;stroke-linejoin:round" />
          <path
             d="m 169.83008,72.90625 h 38.71875 v -8.3125 h -29.6875 V 46.734375 q 2.14062,0.734375 4.28125,1.09375 2.15625,0.359375 4.3125,0.359375 12.20312,0 19.32812,-6.6875 7.14063,-6.6875 7.14063,-18.109375 0,-11.765625 -7.32813,-18.296875 -7.32812,-6.515625 -20.65625,-6.515625 -4.59375,0 -9.35937,0.78125 -4.75,0.78125 -9.82813,2.34375 V 11.625 q 4.39063,-2.390625 9.07813,-3.5625 4.6875,-1.171875 9.90625,-1.171875 8.45312,0 13.375,4.4375 4.9375,4.4375 4.9375,12.0625 0,7.609375 -4.9375,12.046875 -4.92188,4.453125 -13.375,4.453125 -3.95313,0 -7.89063,-0.875 -3.92187,-0.875 -8.01562,-2.734375 z"
             id="use17471"
             style="stroke-width:0.015625;stroke-linecap:butt;stroke-linejoin:round" />
        </g>
      </g>
    </g>
    <g
       id="xtick_43"
       style="stroke-linecap:butt;stroke-linejoin:round"
       transform="matrix(0.35277777,0,0,0.35277777,12.730356,-187.85411)">
      <g
         id="line2d_83"
         style="stroke-linecap:butt;stroke-linejoin:round">
        <g
           id="g17479"
           style="stroke-linecap:butt;stroke-linejoin:round">
          <path
             d="m 324.27505,593.44397 v 3.5"
             id="use17477"
             style="stroke:#000000;stroke-width:0.8;stroke-linecap:butt;stroke-linejoin:round" />
        </g>
      </g>
      <g
         id="text_35"
         style="stroke-linecap:butt;stroke-linejoin:round">
        <!-- 3.49 -->
        <g
           transform="matrix(0.14,0,0,-0.14,308.68913,611.08179)"
           id="g17493"
           style="stroke-linecap:butt;stroke-linejoin:round">
          <defs
             id="defs17483">
            <path
               d="M 2419,4116 825,1625 h 1594 z m -166,550 h 794 V 1625 h 666 V 1100 H 3047 V 0 H 2419 V 1100 H 313 v 609 z"
               id="path19516"
               transform="scale(0.015625)" />
          </defs>
          <path
             d="M 40.578125,39.3125 Q 47.65625,37.796875 51.625,33 q 3.984375,-4.78125 3.984375,-11.8125 0,-10.78125 -7.421875,-16.703125 -7.421875,-5.90625 -21.09375,-5.90625 -4.578125,0 -9.4375,0.90625 -4.859375,0.90625 -10.03125,2.71875 v 9.515625 q 4.09375,-2.390625 8.96875,-3.609375 4.890625,-1.21875 10.21875,-1.21875 9.265625,0 14.125,3.65625 4.859375,3.65625 4.859375,10.640625 0,6.453125 -4.515625,10.078125 -4.515625,3.640625 -12.5625,3.640625 h -8.5 v 8.109375 h 8.890625 q 7.265625,0 11.125,2.90625 3.859375,2.90625 3.859375,8.375 0,5.609375 -3.984375,8.609375 -3.96875,3.015625 -11.390625,3.015625 -4.0625,0 -8.703125,-0.890625 Q 15.375,64.15625 9.8125,62.3125 v 8.78125 q 5.625,1.5625 10.53125,2.34375 4.90625,0.78125 9.25,0.78125 11.234375,0 17.765625,-5.109375 6.546875,-5.09375 6.546875,-13.78125 0,-6.0625 -3.46875,-10.234375 -3.46875,-4.171875 -9.859375,-5.78125 z"
             id="use17485"
             style="stroke-width:0.015625;stroke-linecap:butt;stroke-linejoin:round" />
          <path
             d="m 74.310547,12.40625 h 10.3125 V 0 h -10.3125 z"
             id="use17487"
             style="stroke-width:0.015625;stroke-linecap:butt;stroke-linejoin:round" />
          <use
             x="95.410156"
             xlink:href="#DejaVuSans-34"
             id="use17489"
             style="stroke-linecap:butt;stroke-linejoin:round" />
          <path
             d="M 170.01758,1.515625 V 10.5 q 3.71875,-1.765625 7.51562,-2.6875 3.8125,-0.921875 7.48438,-0.921875 9.76562,0 14.90625,6.5625 5.15625,6.5625 5.89062,19.953125 -2.82812,-4.203125 -7.1875,-6.453125 -4.34375,-2.25 -9.60937,-2.25 -10.9375,0 -17.3125,6.609375 -6.375,6.625 -6.375,18.109375 0,11.21875 6.64062,18 6.64063,6.796875 17.67188,6.796875 12.65625,0 19.3125,-9.703125 6.67187,-9.6875 6.67187,-28.140625 0,-17.234375 -8.1875,-27.515625 -8.17187,-10.28125 -21.98437,-10.28125 -3.71875,0 -7.53125,0.734375 -3.79688,0.734375 -7.90625,2.203125 z m 19.625,30.90625 q 6.64062,0 10.51562,4.53125 3.89063,4.546875 3.89063,12.46875 0,7.859375 -3.89063,12.421875 -3.875,4.5625 -10.51562,4.5625 -6.64063,0 -10.51563,-4.5625 -3.875,-4.5625 -3.875,-12.421875 0,-7.921875 3.875,-12.46875 3.875,-4.53125 10.51563,-4.53125 z"
             id="use17491"
             style="stroke-width:0.015625;stroke-linecap:butt;stroke-linejoin:round" />
        </g>
      </g>
    </g>
    <g
       id="xtick_44"
       style="stroke-linecap:butt;stroke-linejoin:round"
       transform="matrix(0.35277777,0,0,0.35277777,12.730356,-187.85411)">
      <g
         id="line2d_84"
         style="stroke-linecap:butt;stroke-linejoin:round">
        <g
           id="g17499"
           style="stroke-linecap:butt;stroke-linejoin:round">
          <path
             d="m 438.15839,593.44397 v 3.5"
             id="use17497"
             style="stroke:#000000;stroke-width:0.8;stroke-linecap:butt;stroke-linejoin:round" />
        </g>
      </g>
      <g
         id="text_36"
         style="stroke-linecap:butt;stroke-linejoin:round">
        <!-- 5.24 -->
        <g
           transform="matrix(0.14,0,0,-0.14,422.57245,611.08179)"
           id="g17510"
           style="stroke-linecap:butt;stroke-linejoin:round">
          <path
             d="m 10.796875,72.90625 h 38.71875 v -8.3125 h -29.6875 V 46.734375 q 2.140625,0.734375 4.28125,1.09375 2.15625,0.359375 4.3125,0.359375 Q 40.625,48.1875 47.75,41.5 54.890625,34.8125 54.890625,23.390625 54.890625,11.625 47.5625,5.09375 40.234375,-1.421875 26.90625,-1.421875 q -4.59375,0 -9.359375,0.78125 -4.75,0.78125 -9.828125,2.34375 V 11.625 q 4.390625,-2.390625 9.078125,-3.5625 4.6875,-1.171875 9.90625,-1.171875 8.453125,0 13.375,4.4375 4.9375,4.4375 4.9375,12.0625 0,7.609375 -4.9375,12.046875 -4.921875,4.453125 -13.375,4.453125 -3.953125,0 -7.890625,-0.875 -3.921875,-0.875 -8.015625,-2.734375 z"
             id="use17502"
             style="stroke-width:0.015625;stroke-linecap:butt;stroke-linejoin:round" />
          <path
             d="m 74.310547,12.40625 h 10.3125 V 0 h -10.3125 z"
             id="use17504"
             style="stroke-width:0.015625;stroke-linecap:butt;stroke-linejoin:round" />
          <path
             d="m 114.59766,8.296875 h 34.42187 V 0 h -46.28125 v 8.296875 q 5.60938,5.8125 15.29688,15.59375 9.70312,9.796875 12.1875,12.640625 4.73437,5.3125 6.60937,9 1.89063,3.6875 1.89063,7.25 0,5.8125 -4.07813,9.46875 -4.07812,3.671875 -10.625,3.671875 -4.64062,0 -9.79687,-1.609375 -5.14063,-1.609375 -11,-4.890625 v 9.96875 q 5.95312,2.390625 11.125,3.609375 5.1875,1.21875 9.48437,1.21875 11.32813,0 18.0625,-5.671875 6.73438,-5.65625 6.73438,-15.125 0,-4.5 -1.6875,-8.53125 -1.67188,-4.015625 -6.125,-9.484375 -1.21875,-1.421875 -7.76563,-8.1875 -6.53125,-6.765625 -18.45312,-18.921875 z"
             id="use17506"
             style="stroke-width:0.015625;stroke-linecap:butt;stroke-linejoin:round" />
          <use
             x="159.0332"
             xlink:href="#DejaVuSans-34"
             id="use17508"
             style="stroke-linecap:butt;stroke-linejoin:round" />
        </g>
      </g>
    </g>
    <g
       id="xtick_45"
       style="stroke-linecap:butt;stroke-linejoin:round"
       transform="matrix(0.35277777,0,0,0.35277777,12.730356,-187.85411)">
      <g
         id="line2d_85"
         style="stroke-linecap:butt;stroke-linejoin:round">
        <g
           id="g17516"
           style="stroke-linecap:butt;stroke-linejoin:round">
          <path
             d="m 552.04169,593.44397 v 3.5"
             id="use17514"
             style="stroke:#000000;stroke-width:0.8;stroke-linecap:butt;stroke-linejoin:round" />
        </g>
      </g>
      <g
         id="text_37"
         style="stroke-linecap:butt;stroke-linejoin:round">
        <!-- 6.98 -->
        <g
           transform="matrix(0.14,0,0,-0.14,536.45578,611.08179)"
           id="g17531"
           style="stroke-linecap:butt;stroke-linejoin:round">
          <defs
             id="defs17521">
            <path
               d="m 2113,2584 q -425,0 -674,-291 -248,-290 -248,-796 0,-503 248,-796 249,-292 674,-292 425,0 673,292 248,293 248,796 0,506 -248,796 -248,291 -673,291 z m 1253,1979 v -575 q -238,112 -480,171 -242,60 -480,60 -625,0 -955,-422 -329,-422 -376,-1275 184,272 462,417 279,145 613,145 703,0 1111,-427 408,-426 408,-1160 0,-719 -425,-1154 -425,-434 -1131,-434 -810,0 -1238,620 -428,621 -428,1799 0,1106 525,1764 525,658 1409,658 238,0 480,-47 242,-47 505,-140 z"
               id="path19539"
               transform="scale(0.015625)" />
            <path
               d="m 2034,2216 q -450,0 -708,-241 -257,-241 -257,-662 0,-422 257,-663 258,-241 708,-241 450,0 709,242 260,243 260,662 0,421 -258,662 -257,241 -711,241 z m -631,268 q -406,100 -633,378 -226,279 -226,679 0,559 398,884 399,325 1092,325 697,0 1094,-325 397,-325 397,-884 0,-400 -227,-679 -226,-278 -629,-378 456,-106 710,-416 255,-309 255,-755 Q 3634,634 3220,271 2806,-91 2034,-91 1263,-91 848,271 434,634 434,1313 q 0,446 256,755 257,310 713,416 z m -231,997 q 0,-362 226,-565 227,-203 636,-203 407,0 636,203 230,203 230,565 0,363 -230,566 -229,203 -636,203 -409,0 -636,-203 -226,-203 -226,-566 z"
               id="path19541"
               transform="scale(0.015625)" />
          </defs>
          <use
             xlink:href="#DejaVuSans-36"
             id="use17523"
             style="stroke-linecap:butt;stroke-linejoin:round" />
          <path
             d="m 74.310547,12.40625 h 10.3125 V 0 h -10.3125 z"
             id="use17525"
             style="stroke-width:0.015625;stroke-linecap:butt;stroke-linejoin:round" />
          <path
             d="M 106.39453,1.515625 V 10.5 q 3.71875,-1.765625 7.51563,-2.6875 3.8125,-0.921875 7.48437,-0.921875 9.76563,0 14.90625,6.5625 5.15625,6.5625 5.89063,19.953125 -2.82813,-4.203125 -7.1875,-6.453125 -4.34375,-2.25 -9.60938,-2.25 -10.9375,0 -17.3125,6.609375 -6.375,6.625 -6.375,18.109375 0,11.21875 6.64063,18 6.64062,6.796875 17.67187,6.796875 12.65625,0 19.3125,-9.703125 6.67188,-9.6875 6.67188,-28.140625 0,-17.234375 -8.1875,-27.515625 -8.17188,-10.28125 -21.98438,-10.28125 -3.71875,0 -7.53125,0.734375 -3.79687,0.734375 -7.90625,2.203125 z m 19.625,30.90625 q 6.64063,0 10.51563,4.53125 3.89062,4.546875 3.89062,12.46875 0,7.859375 -3.89062,12.421875 -3.875,4.5625 -10.51563,4.5625 -6.64062,0 -10.51562,-4.5625 -3.875,-4.5625 -3.875,-12.421875 0,-7.921875 3.875,-12.46875 3.875,-4.53125 10.51562,-4.53125 z"
             id="use17527"
             style="stroke-width:0.015625;stroke-linecap:butt;stroke-linejoin:round" />
          <use
             x="159.0332"
             xlink:href="#DejaVuSans-38"
             id="use17529"
             style="stroke-linecap:butt;stroke-linejoin:round" />
        </g>
      </g>
    </g>
    <g
       id="text_38"
       style="stroke-linecap:butt;stroke-linejoin:round"
       transform="matrix(0.35277777,0,0,0.35277777,70.938693,-187.85411)">
      <!-- seconds -->
      <g
         transform="matrix(0.16,0,0,-0.16,291.24875,630.15085)"
         id="g17554"
         style="stroke-linecap:butt;stroke-linejoin:round">
        <defs
           id="defs17538">
          <path
             d="m 3122,3366 v -538 q -244,135 -489,202 -245,67 -495,67 -560,0 -870,-355 -309,-354 -309,-995 0,-641 309,-996 310,-354 870,-354 250,0 495,67 245,67 489,202 V 134 Q 2881,22 2623,-34 2366,-91 2075,-91 1284,-91 818,406 353,903 353,1747 q 0,856 470,1346 471,491 1290,491 265,0 518,-55 253,-54 491,-163 z"
             id="path19551"
             transform="scale(0.015625)" />
          <path
             d="m 1959,3097 q -462,0 -731,-361 -269,-361 -269,-989 0,-628 267,-989 268,-361 733,-361 460,0 728,362 269,363 269,988 0,622 -269,986 -268,364 -728,364 z m 0,487 q 750,0 1178,-488 429,-487 429,-1349 Q 3566,888 3137,398 2709,-91 1959,-91 1206,-91 779,398 353,888 353,1747 q 0,862 426,1349 427,488 1180,488 z"
             id="path19553"
             transform="scale(0.015625)" />
          <path
             d="m 2906,2969 v 1894 h 575 V 0 H 2906 V 525 Q 2725,213 2448,61 2172,-91 1784,-91 1150,-91 751,415 353,922 353,1747 q 0,825 398,1331 399,506 1033,506 388,0 664,-152 277,-151 458,-463 z M 947,1747 q 0,-634 261,-995 261,-361 717,-361 456,0 718,361 263,361 263,995 0,634 -263,995 -262,361 -718,361 -456,0 -717,-361 -261,-361 -261,-995 z"
             id="path19555"
             transform="scale(0.015625)" />
        </defs>
        <use
           xlink:href="#DejaVuSans-73"
           id="use17540"
           style="stroke-linecap:butt;stroke-linejoin:round" />
        <path
           d="M 108.30273,29.59375 V 25.203125 H 66.990234 q 0.59375,-9.28125 5.59375,-14.140625 5,-4.859375 13.9375,-4.859375 5.171875,0 10.03125,1.265625 4.859376,1.265625 9.656246,3.8125 v -8.5 q -4.84375,-2.046875 -9.921871,-3.125 -5.078125,-1.078125 -10.296875,-1.078125 -13.09375,0 -20.734375,7.609375 -7.640625,7.625 -7.640625,20.625 0,13.421875 7.25,21.296875 Q 72.115234,56 84.427734,56 q 11.03125,0 17.453126,-7.109375 6.42187,-7.09375 6.42187,-19.296875 z m -8.984371,2.640625 q -0.09375,7.359375 -4.125,11.75 -4.03125,4.40625 -10.671875,4.40625 -7.515625,0 -12.03125,-4.25 -4.515625,-4.25 -5.203125,-11.96875 z"
           id="use17542"
           style="stroke-width:0.015625;stroke-linecap:butt;stroke-linejoin:round" />
        <use
           x="113.62305"
           xlink:href="#DejaVuSans-63"
           id="use17544"
           style="stroke-linecap:butt;stroke-linejoin:round" />
        <use
           x="168.60352"
           xlink:href="#DejaVuSans-6f"
           id="use17546"
           style="stroke-linecap:butt;stroke-linejoin:round" />
        <path
           d="M 284.67578,33.015625 V 0 h -8.98437 v 32.71875 q 0,7.765625 -3.03125,11.609375 -3.03125,3.859375 -9.07813,3.859375 -7.28125,0 -11.48437,-4.640625 -4.20313,-4.625 -4.20313,-12.640625 V 0 h -9.03125 v 54.6875 h 9.03125 v -8.5 q 3.23438,4.9375 7.59375,7.375 4.375,2.4375 10.09375,2.4375 9.42188,0 14.25,-5.828125 4.84375,-5.828125 4.84375,-17.15625 z"
           id="use17548"
           style="stroke-width:0.015625;stroke-linecap:butt;stroke-linejoin:round" />
        <use
           x="293.16406"
           xlink:href="#DejaVuSans-64"
           id="use17550"
           style="stroke-linecap:butt;stroke-linejoin:round" />
        <use
           x="356.64062"
           xlink:href="#DejaVuSans-73"
           id="use17552"
           style="stroke-linecap:butt;stroke-linejoin:round" />
      </g>
    </g>
    <g
       id="matplotlib.axis_18"
       style="stroke-linecap:butt;stroke-linejoin:round"
       transform="matrix(0.35277777,0,0,0.35277777,12.730356,-187.85411)">
      <g
         id="ytick_17"
         style="stroke-linecap:butt;stroke-linejoin:round">
        <g
           id="line2d_86"
           style="stroke-linecap:butt;stroke-linejoin:round">
          <g
             id="g17560"
             style="stroke-linecap:butt;stroke-linejoin:round">
            <path
               d="m 73.764374,591.35901 h -3.5"
               id="use17558"
               style="stroke:#000000;stroke-width:0.8;stroke-linecap:butt;stroke-linejoin:round" />
          </g>
        </g>
        <g
           id="text_39"
           style="stroke-linecap:butt;stroke-linejoin:round">
          <!-- 0 -->
          <g
             transform="matrix(0.14,0,0,-0.14,57.856875,596.67792)"
             id="g17565"
             style="stroke-linecap:butt;stroke-linejoin:round">
            <path
               d="m 31.78125,66.40625 q -7.609375,0 -11.453125,-7.5 Q 16.5,51.421875 16.5,36.375 q 0,-14.984375 3.828125,-22.484375 3.84375,-7.5 11.453125,-7.5 7.671875,0 11.5,7.5 3.84375,7.5 3.84375,22.484375 0,15.046875 -3.84375,22.53125 -3.828125,7.5 -11.5,7.5 z m 0,7.8125 q 12.265625,0 18.734375,-9.703125 6.46875,-9.6875 6.46875,-28.140625 0,-18.40625 -6.46875,-28.109375 -6.46875,-9.6875 -18.734375,-9.6875 -12.25,0 -18.71875,9.6875 Q 6.59375,17.96875 6.59375,36.375 q 0,18.453125 6.46875,28.140625 6.46875,9.703125 18.71875,9.703125 z"
               id="use17563"
               style="stroke-width:0.015625;stroke-linecap:butt;stroke-linejoin:round" />
          </g>
        </g>
      </g>
      <g
         id="ytick_18"
         style="stroke-linecap:butt;stroke-linejoin:round">
        <g
           id="line2d_87"
           style="stroke-linecap:butt;stroke-linejoin:round">
          <g
             id="g17571"
             style="stroke-linecap:butt;stroke-linejoin:round">
            <path
               d="m 73.764374,549.65973 h -3.5"
               id="use17569"
               style="stroke:#000000;stroke-width:0.8;stroke-linecap:butt;stroke-linejoin:round" />
          </g>
        </g>
        <g
           id="text_40"
           style="stroke-linecap:butt;stroke-linejoin:round">
          <!-- 1 -->
          <g
             transform="matrix(0.14,0,0,-0.14,57.856875,554.97863)"
             id="g17576"
             style="stroke-linecap:butt;stroke-linejoin:round">
            <path
               d="m 12.40625,8.296875 h 16.109375 v 55.625 L 10.984375,60.40625 v 8.984375 l 17.4375,3.515625 H 38.28125 V 8.296875 H 54.390625 V 0 H 12.40625 Z"
               id="use17574"
               style="stroke-width:0.015625;stroke-linecap:butt;stroke-linejoin:round" />
          </g>
        </g>
      </g>
      <g
         id="text_41"
         style="stroke-linecap:butt;stroke-linejoin:round">
        <!-- MLP -->
        <g
           transform="matrix(0,-0.16,-0.16,0,50.529375,586.69312)"
           id="g17590"
           style="stroke-linecap:butt;stroke-linejoin:round">
          <defs
             id="defs17582">
            <path
               d="m 628,4666 h 941 L 2759,1491 3956,4666 h 941 V 0 H 4281 V 4097 L 3078,897 H 2444 L 1241,4097 V 0 H 628 Z"
               id="path19582"
               transform="scale(0.015625)" />
            <path
               d="M 1259,4147 V 2394 h 794 q 441,0 681,228 241,228 241,650 0,419 -241,647 -240,228 -681,228 z m -631,519 h 1425 q 785,0 1186,-355 402,-355 402,-1039 0,-691 -402,-1044 -401,-353 -1186,-353 H 1259 V 0 H 628 Z"
               id="path19584"
               transform="scale(0.015625)" />
          </defs>
          <use
             xlink:href="#DejaVuSans-4d"
             id="use17584"
             style="stroke-linecap:butt;stroke-linejoin:round" />
          <path
             d="m 96.091797,72.90625 h 9.859373 V 8.296875 h 35.5 V 0 H 96.091797 Z"
             id="use17586"
             style="stroke-width:0.015625;stroke-linecap:butt;stroke-linejoin:round" />
          <use
             x="141.99219"
             xlink:href="#DejaVuSans-50"
             id="use17588"
             style="stroke-linecap:butt;stroke-linejoin:round" />
        </g>
      </g>
    </g>
    <g
       id="line2d_88"
       style="stroke-linecap:butt;stroke-linejoin:round"
       transform="matrix(0.35277777,0,0,0.35277777,12.730356,-187.85411)">
      <path
         clip-path="url(#pe57c2bb7b6)"
         d="m 161.77106,583.17909 0.65263,-0.87631 0.65262,-1.2033 1.30526,-0.0574 0.65262,0.27597 0.65263,0.0987 1.95788,-0.30156 1.30525,0.44648 1.30525,1.07747 0.65263,-0.80978 0.65263,-0.99352 0.65262,-0.35965 1.30526,-0.18981 1.95788,0.0684 0.65262,-0.22601 0.65263,0.0109 0.65263,0.32442 0.65262,-0.0475 0.65263,-0.42101 1.30525,-2.71308 0.65263,-0.0105 0.65263,-0.20563 1.30525,2.49311 0.65263,-0.12518 h 0.65262 l 0.65263,-0.17591 0.65262,0.0794 0.65263,-1.42861 0.65263,-1.79804 1.30525,-1.3336 1.95788,-0.56971 0.65263,-0.23693 0.65262,-0.10284 0.65263,-0.4659 1.30525,-0.33143 0.65263,-0.37537 0.65263,-0.2091 1.30525,0.10184 0.65263,-0.10184 0.65262,-0.64914 0.65263,-2.22029 0.65263,-1.77146 0.65262,0.49954 0.65263,1.2708 0.65262,0.60611 0.65263,-0.6765 0.65263,0.036 0.65262,-1.14054 0.65263,0.0126 0.65263,0.196 0.65262,-0.0799 0.65263,0.2544 1.30525,-1.1858 1.30526,1.22365 2.6105,-2.22728 1.30526,-0.78846 0.65262,-0.37422 0.65263,-0.20406 1.95788,-0.13774 0.65262,0.0252 0.65263,-0.31021 3.26313,-0.7518 1.95788,-0.77905 0.65263,-0.18721 0.65263,7.5e-4 1.95788,-0.36953 1.95788,-0.18416 1.30525,-0.12383 1.30525,-0.58421 1.95788,0.27975 0.65263,0.3052 0.65262,-0.27944 0.65263,0.0227 1.30525,0.20266 1.95788,-0.0384 1.95788,-0.2235 1.30526,-0.12257 0.65262,-0.0211 0.65263,-0.13451 1.95788,-0.11349 1.30525,-0.18878 1.30525,0.16657 0.65263,0.20515 1.30525,0.2468 0.65263,0.17768 1.30525,-0.10086 0.65263,0.57281 0.65263,0.40017 2.6105,-0.4862 0.65263,-0.46202 0.65263,-0.65776 2.6105,-0.27927 1.30525,-0.81987 1.95788,-0.0737 1.30526,-0.33633 1.30525,0.33533 0.65263,-0.28251 0.65262,0.22747 2.61051,-0.18772 1.95788,-0.0361 1.95788,0.34055 1.30525,0.0109 1.30526,-0.19924 1.30525,-0.0101 0.65262,0.028 1.30526,0.72229 1.30525,0.0752 1.30525,-0.37232 0.65263,0.0869 0.65263,-0.0697 0.65262,-0.42928 0.65263,-0.25479 2.61051,0.13325 1.95788,-0.27442 2.6105,-0.23023 0.65263,0.14 2.6105,-0.0712 2.61051,0.11913 1.95788,-0.0593 1.30525,0.21182 1.30526,-0.21189 0.65262,0.0257 0.65263,-0.17608 0.65262,0.41632 0.65263,-0.16561 2.61051,0.0293 1.30525,0.15914 0.65263,0.081 1.30525,-0.0764 1.95788,0.18182 1.30525,-0.0246 0.65263,0.13849 3.26313,0.15934 0.65263,0.20909 1.30525,0.022 1.30526,0.16867 1.30525,-0.91406 3.91576,0.30929 3.26313,0.25849 1.30525,0.11862 0.65263,0.01 0.65263,0.18375 3.26313,0.42462 0.65262,0.097 0.65263,-0.0462 0.65263,0.13513 0.65262,-0.0523 1.30526,0.59921 0.65262,-0.0697 3.26314,0.32285 0.65262,0.44233 0.65263,0.20579 0.65263,-0.089 1.30525,0.71844 0.65262,-0.016 0.65263,-0.46614 0.65263,0.497 0.65262,0.30378 0.65263,-0.34095 1.30525,0.14074 1.30526,1.11602 0.65262,0.20813 0.65263,0.0705 0.65263,0.54297 0.65262,0.82987 0.65263,0.23243 0.65263,0.0392 0.65262,-0.78222 0.65263,-0.30453 0.65263,0.64258 0.65262,0.92601 1.30526,0.15285 0.65262,0.39527 0.65263,0.0979 1.30525,-1.38674 0.65263,0.0893 0.65263,0.38241 0.65262,0.14214 0.65263,-0.0597 1.30525,0.45206 0.65263,0.0883 0.65262,0.24216 0.65263,-0.0583 0.65263,0.35325 0.65262,0.21615 0.65263,0.38116 1.95788,0.13356 1.30525,0.42097 0.65263,-0.1153 0.65263,0.12885 0.65262,0.30208 0.65263,-0.62916 0.65262,-0.40195 0.65263,-0.56313 0.65263,-0.36683 0.65262,-0.49709 0.65263,-0.12189 0.65263,-0.37439 1.30525,-0.25032 0.65263,0.11971 0.65262,-0.31476 1.30526,-0.22706 0.65262,0.11379 0.65263,-0.2751 0.65263,0.0365 0.65262,-0.94022 0.65263,-0.70918 0.65263,-0.17544 1.95787,0.0204 0.65263,0.20696 1.95788,1.11088 0.65263,-0.15972 0.65262,0.008 0.65263,0.21369 0.65263,0.49086 1.30525,1.72829 0.65263,-0.10808 0.65262,0.0717 0.65263,-0.27756 0.65263,0.086 0.65262,0.22397 0.65263,0.4573 0.65263,-0.15642 0.65262,-0.0128 0.65263,0.15972 0.65263,0.42255 0.65262,0.2356 0.65263,0.35617 0.65262,-0.20196 0.65263,0.13958 1.30526,-0.18778 0.65262,-0.17423 0.65263,0.14191 0.65262,0.36288 0.65263,0.57806 0.65263,1.13544 0.65262,1.41866 0.65263,-0.17772 0.65263,0.1006 0.65262,-0.2357 0.65263,0.11426 0.65263,-0.11009 0.65262,0.0611 0.65263,0.52657 0.65263,0.6821 0.65262,1.15185 0.65263,1.4186 0.65263,0.12508 0.65262,0.45902 0.65263,0.12948 0.65263,0.41627 0.65262,-0.91381 0.65263,-0.48936 0.65262,0.43988 0.65263,0.94663 1.30525,-0.0495 0.65263,-0.30239 0.65263,-0.47418 1.30525,0.18421 1.30525,0.52454 1.95788,0.45162 0.65263,0.31916 0.65263,-0.0147 0.65262,0.17276 0.65263,0.90861 0.65262,0.70167 2.61051,0.76776 1.30525,0.25336 1.30526,0.47749 1.95788,0.33395 0.65262,0.0225 1.30526,0.29638 1.30525,0.22364 1.30525,0.19816 1.30526,-0.74617 1.30525,1.26051 1.30525,-1.08787 1.30525,0.39981 1.30526,0.0836 1.30525,0.28748 3.91576,0.27875 1.30525,0.36563 1.95788,0.16569 0.65263,0.0842 1.30525,-0.061 0.65263,0.14145 1.30525,0.0267 1.95788,0.19534 1.95788,0.0293 9.7894,1.05288 1.30525,0.79349 1.30525,-0.62273 1.30526,0.84343 1.30525,-0.57345 1.30525,0.12539 1.30526,-1.42931 0.65262,-2.87688 0.65263,-3.79383 0.65263,-5.85962 0.65262,-1.34739 0.65263,4.2794 v 0"
         style="fill:none;stroke:#2ca02c;stroke-width:1.5;stroke-linecap:square;stroke-linejoin:round"
         id="path17594" />
    </g>
    <g
       id="line2d_89"
       style="stroke-linecap:butt;stroke-linejoin:round"
       transform="matrix(0.35277777,0,0,0.35277777,12.730356,-187.85411)">
      <path
         clip-path="url(#pe57c2bb7b6)"
         d="m 161.77106,591.35901 h 35.24183 l 0.65263,-41.69929 h 209.49311 l 0.65263,41.69929 h 77.00993 l 0.65262,-41.69929 0.65263,41.69929 v 0"
         style="fill:none;stroke:#1f77b4;stroke-width:1.5;stroke-linecap:square;stroke-linejoin:round"
         id="path17597" />
    </g>
    <g
       id="LineCollection_17"
       style="stroke-linecap:butt;stroke-linejoin:round"
       transform="matrix(0.35277777,0,0,0.35277777,12.730356,-187.85411)">
      <path
         clip-path="url(#pe57c2bb7b6)"
         d="M 161.11843,591.35901 V 549.65972"
         style="fill:none;stroke:#000000;stroke-width:1.5;stroke-linecap:butt;stroke-linejoin:round"
         id="path17600" />
    </g>
    <g
       id="LineCollection_18"
       style="stroke-linecap:butt;stroke-linejoin:round"
       transform="matrix(0.35277777,0,0,0.35277777,12.730356,-187.85411)">
      <path
         clip-path="url(#pe57c2bb7b6)"
         d="M 486.77907,591.35901 V 549.65972"
         style="fill:none;stroke:#000000;stroke-width:1.5;stroke-linecap:butt;stroke-linejoin:round"
         id="path17603" />
    </g>
    <g
       id="patch_51"
       style="stroke-linecap:butt;stroke-linejoin:round"
       transform="matrix(0.35277777,0,0,0.35277777,12.730356,-187.85411)">
      <path
         d="M 73.764375,593.44398 V 547.57475"
         style="fill:none;stroke:#000000;stroke-width:0.8;stroke-linecap:square;stroke-linejoin:miter"
         id="path17606" />
    </g>
    <g
       id="patch_52"
       style="stroke-linecap:butt;stroke-linejoin:round"
       transform="matrix(0.35277777,0,0,0.35277777,12.730356,-187.85411)">
      <path
         d="M 574.13312,593.44398 V 547.57475"
         style="fill:none;stroke:#000000;stroke-width:0.8;stroke-linecap:square;stroke-linejoin:miter"
         id="path17609" />
    </g>
    <g
       id="patch_53"
       style="stroke-linecap:butt;stroke-linejoin:round"
       transform="matrix(0.35277777,0,0,0.35277777,12.730356,-187.85411)">
      <path
         d="M 73.764375,593.44398 H 574.13312"
         style="fill:none;stroke:#000000;stroke-width:0.8;stroke-linecap:square;stroke-linejoin:miter"
         id="path17612" />
    </g>
    <g
       id="patch_54"
       style="stroke-linecap:butt;stroke-linejoin:round"
       transform="matrix(0.35277777,0,0,0.35277777,12.730356,-187.85411)">
      <path
         d="M 73.764375,547.57475 H 574.13312"
         style="fill:none;stroke:#000000;stroke-width:0.8;stroke-linecap:square;stroke-linejoin:miter"
         id="path17615" />
    </g>
    <g
       id="legend_9"
       style="stroke-linecap:butt;stroke-linejoin:round"
       transform="matrix(0.35277777,0,0,0.35277777,7.4386893,-193.14578)">
      <g
         id="patch_55"
         style="stroke-linecap:butt;stroke-linejoin:round">
        <path
           d="m 596.01531,610.15513 h 92.01 q 3.2,0 3.2,-3.2 v -45.37 q 0,-3.2 -3.2,-3.2 h -92.01 q -3.2,0 -3.2,3.2 v 45.37 q 0,3.2 3.2,3.2 z"
           style="opacity:0.8;fill:#ffffff;stroke:#cccccc;stroke-linecap:butt;stroke-linejoin:miter"
           id="path17618" />
      </g>
      <g
         id="line2d_90"
         style="stroke-linecap:butt;stroke-linejoin:round">
        <path
           d="m 599.21531,571.34263 h 32"
           style="fill:none;stroke:#2ca02c;stroke-width:1.5;stroke-linecap:square;stroke-linejoin:round"
           id="path17621" />
      </g>
      <g
         id="line2d_91"
         style="stroke-linecap:butt;stroke-linejoin:round" />
      <g
         id="text_42"
         style="stroke-linecap:butt;stroke-linejoin:round">
        <!-- pred -->
        <g
           transform="matrix(0.16,0,0,-0.16,644.01531,576.94263)"
           id="g17636"
           style="stroke-linecap:butt;stroke-linejoin:round">
          <defs
             id="defs17626">
            <path
               d="M 1159,525 V -1331 H 581 v 4831 h 578 v -531 q 182,312 458,463 277,152 661,152 638,0 1036,-506 399,-506 399,-1331 0,-825 -399,-1332 -398,-506 -1036,-506 -384,0 -661,152 -276,152 -458,464 z m 1957,1222 q 0,634 -261,995 -261,361 -717,361 -457,0 -718,-361 -261,-361 -261,-995 0,-634 261,-995 261,-361 718,-361 456,0 717,361 261,361 261,995 z"
               id="path19614"
               transform="scale(0.015625)" />
          </defs>
          <use
             xlink:href="#DejaVuSans-70"
             id="use17628"
             style="stroke-linecap:butt;stroke-linejoin:round" />
          <path
             d="m 104.58594,46.296875 q -1.51563,0.875 -3.29688,1.28125 Q 99.507812,48 97.367187,48 89.742187,48 85.664062,43.046875 81.585937,38.09375 81.585937,28.8125 V 0 h -9.03125 v 54.6875 h 9.03125 v -8.5 q 2.84375,4.984375 7.375,7.390625 Q 93.507812,56 100.00781,56 q 0.92188,0 2.04688,-0.125 1.125,-0.109375 2.48437,-0.359375 z"
             id="use17630"
             style="stroke-width:0.015625;stroke-linecap:butt;stroke-linejoin:round" />
          <path
             d="m 158.54297,29.59375 v -4.390625 h -41.3125 q 0.59375,-9.28125 5.59375,-14.140625 5,-4.859375 13.9375,-4.859375 5.17187,0 10.03125,1.265625 4.85937,1.265625 9.65625,3.8125 v -8.5 q -4.84375,-2.046875 -9.92188,-3.125 -5.07812,-1.078125 -10.29687,-1.078125 -13.09375,0 -20.73438,7.609375 -7.64062,7.625 -7.64062,20.625 0,13.421875 7.25,21.296875 Q 122.35547,56 134.66797,56 q 11.03125,0 17.45312,-7.109375 6.42188,-7.09375 6.42188,-19.296875 z m -8.98438,2.640625 q -0.0937,7.359375 -4.125,11.75 -4.03125,4.40625 -10.67187,4.40625 -7.51563,0 -12.03125,-4.25 -4.51563,-4.25 -5.20313,-11.96875 z"
             id="use17632"
             style="stroke-width:0.015625;stroke-linecap:butt;stroke-linejoin:round" />
          <use
             x="163.86328"
             xlink:href="#DejaVuSans-64"
             id="use17634"
             style="stroke-linecap:butt;stroke-linejoin:round" />
        </g>
      </g>
      <g
         id="line2d_92"
         style="stroke-linecap:butt;stroke-linejoin:round">
        <path
           d="m 599.21531,594.82763 h 32"
           style="fill:none;stroke:#1f77b4;stroke-width:1.5;stroke-linecap:square;stroke-linejoin:round"
           id="path17639" />
      </g>
      <g
         id="line2d_93"
         style="stroke-linecap:butt;stroke-linejoin:round" />
      <g
         id="text_43"
         style="stroke-linecap:butt;stroke-linejoin:round">
        <!-- tresh -->
        <g
           transform="matrix(0.16,0,0,-0.16,644.01531,600.42763)"
           id="g17656"
           style="stroke-linecap:butt;stroke-linejoin:round">
          <defs
             id="defs17644">
            <path
               d="M 3513,2113 V 0 h -575 v 2094 q 0,497 -194,743 -194,247 -581,247 -466,0 -735,-297 -269,-296 -269,-809 V 0 H 581 v 4863 h 578 V 2956 q 207,316 486,472 280,156 646,156 603,0 912,-373 310,-373 310,-1098 z"
               id="path19626"
               transform="scale(0.015625)" />
          </defs>
          <path
             d="M 18.3125,70.21875 V 54.6875 h 18.5 v -6.984375 h -18.5 v -29.6875 q 0,-6.6875 1.828125,-8.59375 1.828125,-1.90625 7.453125,-1.90625 H 36.8125 V 0 H 27.59375 Q 17.1875,0 13.234375,3.875 9.28125,7.765625 9.28125,18.015625 v 29.6875 H 2.6875 V 54.6875 h 6.59375 v 15.53125 z"
             id="use17646"
             style="stroke-width:0.015625;stroke-linecap:butt;stroke-linejoin:round" />
          <path
             d="m 80.318359,46.296875 q -1.515625,0.875 -3.296875,1.28125 Q 75.240234,48 73.099609,48 65.474609,48 61.396484,43.046875 57.318359,38.09375 57.318359,28.8125 V 0 h -9.03125 v 54.6875 h 9.03125 v -8.5 q 2.84375,4.984375 7.375,7.390625 Q 69.240234,56 75.740234,56 q 0.921875,0 2.046875,-0.125 1.125,-0.109375 2.484375,-0.359375 z"
             id="use17648"
             style="stroke-width:0.015625;stroke-linecap:butt;stroke-linejoin:round" />
          <path
             d="M 134.27539,29.59375 V 25.203125 H 92.962891 q 0.59375,-9.28125 5.59375,-14.140625 4.999999,-4.859375 13.937499,-4.859375 5.17188,0 10.03125,1.265625 4.85938,1.265625 9.65625,3.8125 v -8.5 q -4.84375,-2.046875 -9.92187,-3.125 -5.07813,-1.078125 -10.29688,-1.078125 -13.093749,0 -20.734374,7.609375 -7.640625,7.625 -7.640625,20.625 0,13.421875 7.25,21.296875 Q 98.087891,56 110.40039,56 q 11.03125,0 17.45313,-7.109375 6.42187,-7.09375 6.42187,-19.296875 z m -8.98437,2.640625 q -0.0937,7.359375 -4.125,11.75 -4.03125,4.40625 -10.67188,4.40625 -7.51562,0 -12.031249,-4.25 -4.515625,-4.25 -5.203125,-11.96875 z"
             id="use17650"
             style="stroke-width:0.015625;stroke-linecap:butt;stroke-linejoin:round" />
          <use
             x="139.5957"
             xlink:href="#DejaVuSans-73"
             id="use17652"
             style="stroke-linecap:butt;stroke-linejoin:round" />
          <use
             x="191.69531"
             xlink:href="#DejaVuSans-68"
             id="use17654"
             style="stroke-linecap:butt;stroke-linejoin:round" />
        </g>
      </g>
    </g>
  </g>
</svg>
