<?xml version="1.0" encoding="UTF-8" standalone="no"?>
<!-- Creator: CorelDRAW -->

<svg
   xml:space="preserve"
   width="665.17188"
   height="388.92401"
   style="clip-rule:evenodd;fill-rule:evenodd;image-rendering:optimizeQuality;shape-rendering:geometricPrecision;text-rendering:geometricPrecision"
   viewBox="0 0 665.17188 388.87213"
   version="1.1"
   id="svg1810"
   sodipodi:docname="drum_brake.svg"
   inkscape:version="1.2.1 (9c6d41e410, 2022-07-14)"
   inkscape:export-filename="drum_brake.pdf"
   inkscape:export-xdpi="96"
   inkscape:export-ydpi="96"
   xmlns:inkscape="http://www.inkscape.org/namespaces/inkscape"
   xmlns:sodipodi="http://sodipodi.sourceforge.net/DTD/sodipodi-0.dtd"
   xmlns="http://www.w3.org/2000/svg"
   xmlns:svg="http://www.w3.org/2000/svg"><sodipodi:namedview
   id="namedview1812"
   pagecolor="#ffffff"
   bordercolor="#000000"
   borderopacity="0.25"
   inkscape:showpageshadow="2"
   inkscape:pageopacity="0.0"
   inkscape:pagecheckerboard="0"
   inkscape:deskcolor="#d1d1d1"
   showgrid="false"
   inkscape:zoom="0.86872999"
   inkscape:cx="62.735258"
   inkscape:cy="109.93059"
   inkscape:window-width="1920"
   inkscape:window-height="1001"
   inkscape:window-x="-9"
   inkscape:window-y="-9"
   inkscape:window-maximized="1"
   inkscape:current-layer="Livello_x0020_1" />
 <defs
   id="defs1345"><inkscape:path-effect
   effect="bspline"
   id="path-effect22020"
   is_visible="true"
   lpeversion="1"
   weight="33.333333"
   steps="2"
   helper_size="0"
   apply_no_weight="true"
   apply_with_weight="true"
   only_selected="false" /><inkscape:path-effect
   effect="bspline"
   id="path-effect21912"
   is_visible="true"
   lpeversion="1"
   weight="33.333333"
   steps="2"
   helper_size="0"
   apply_no_weight="true"
   apply_with_weight="true"
   only_selected="false" /><rect
   x="825.34277"
   y="151.94595"
   width="148.49263"
   height="88.635132"
   id="rect1991" />
  <style
   type="text/css"
   id="style1343">
   <![CDATA[
    .str2 {stroke:#1F1A17;stroke-width:0.0951865}
    .str0 {stroke:#1F1A17;stroke-width:0.881412}
    .str1 {stroke:#838281;stroke-width:10.5763}
    .fil2 {fill:none}
    .fil7 {fill:#1F1A17}
    .fil1 {fill:#4D4948}
    .fil8 {fill:#75C5F0}
    .fil0 {fill:#84C225}
    .fil3 {fill:#C0A062}
    .fil6 {fill:#F8C300}
    .fil4 {fill:#FFF974}
    .fil5 {fill:white}
    .fil9 {fill:#1F1A17;fill-rule:nonzero}
    .fil10 {fill:#DA251D;fill-rule:nonzero}
   ]]>
  </style>
 <rect
   x="825.34277"
   y="151.94595"
   width="148.49263"
   height="88.635132"
   id="rect1999" /><rect
   x="825.34277"
   y="151.94595"
   width="148.49263"
   height="88.635132"
   id="rect22014" /><rect
   x="825.34277"
   y="151.94595"
   width="148.49263"
   height="88.635132"
   id="rect22028" /></defs>
 <g
   id="Livello_x0020_1"
   inkscape:label="Livello 1"
   inkscape:groupmode="layer"
   transform="translate(-168.39596,-67.405347)">
  <metadata
   id="CorelCorpID_0Corel-Layer" />
  
  
  
  
  
  
  
  
  
  
  
  
  
  
  
  
  
  
  
  
  
  
  
  
  
  
  
  
  <g
   id="g1627">
   <path
   class="fil0 str0"
   d="M 460.768,395.78 C 393.0931,379.6458 345.324,319.0922 345.324,249.509 c 0,-69.5833 47.7779,-130.1 115.453,-146.234 l -10e-4,36.6818 c -47.6807,15.1871 -80.0761,59.4991 -80.0761,109.552 0,44.3542 25.5355,84.7992 65.5803,103.846 5.02989,-6.24059 12.6236,-9.87541 20.6412,-9.87541 14.6402,0 26.5128,11.8726 26.5128,26.5128 0,14.6402 -11.8726,26.5128 -26.5128,26.5128 -2.07162,0 -4.13999,-0.24584 -6.15315,-0.72502 z"
   id="path1615" />
   <path
   class="fil1 str0"
   d="m 420.487,379.728 c -46.5112,-26.8348 -75.1631,-76.5132 -75.1631,-130.22 0,-53.7062 28.6706,-103.375 75.1818,-130.21 l -4.42155,-7.65964 c -49.2474,28.4135 -79.6041,81.004 -79.6041,137.87 0,56.8658 30.3375,109.436 79.5849,137.87 l 4.42205,-7.6499 z"
   id="path1617" />
   <path
   class="fil2 str0"
   d="m 435.863,377.76 c -49.822,-23.2351 -81.6948,-73.2644 -81.6948,-128.251 0,-54.9869 31.8727,-105.016 81.6948,-128.251"
   id="path1619" />
   <line
   class="fil2 str0"
   x1="432.116"
   y1="385.79501"
   x2="435.86301"
   y2="377.76001"
   id="line1621" />
   <line
   class="fil2 str0"
   x1="435.862"
   y1="121.257"
   x2="432.117"
   y2="113.221"
   id="line1623" />
   <circle
   class="fil3 str0"
   cx="466.92099"
   cy="369.992"
   r="8.8376503"
   id="circle1625" />
  </g>
  <g
   id="g1641">
   <path
   class="fil1 str0"
   d="m 570.842,379.734 c 46.5115,-26.8348 75.1729,-76.519 75.1729,-130.225 0,-53.7062 -28.6704,-103.375 -75.1818,-130.21 l 4.4213,-7.65939 c 49.2474,28.4135 79.6044,81.0037 79.6044,137.869 0,56.8658 -30.3567,109.456 -79.6041,137.87 l -4.41256,-7.64415 z"
   id="path1629" />
   <path
   class="fil0 str0"
   d="m 530.562,395.742 c 67.6749,-16.1342 115.453,-76.6504 115.453,-146.234 0,-69.5833 -47.7779,-130.1 -115.453,-146.234 l 10e-4,36.6818 c 47.6807,15.1871 80.0761,59.4991 80.0761,109.552 0,44.3542 -25.5442,84.7617 -65.5892,103.809 -5.02989,-6.24059 -12.6236,-9.87541 -20.6412,-9.87541 -14.6402,0 -26.5128,11.8726 -26.5128,26.5128 0,14.6402 11.8726,26.5128 26.5128,26.5128 2.07162,0 4.13999,-0.24584 6.15315,-0.72502 z"
   id="path1631" />
   <path
   class="fil2 str0"
   d="m 555.476,121.257 c 49.8219,23.2351 81.6946,73.2642 81.6946,128.251 0,54.9871 -31.8727,105.016 -81.6946,128.251"
   id="path1633" />
   <line
   class="fil2 str0"
   x1="559.22101"
   y1="385.79599"
   x2="555.47601"
   y2="377.76001"
   id="line1635" />
   <line
   class="fil2 str0"
   x1="555.47601"
   y1="121.257"
   x2="559.22101"
   y2="113.221"
   id="line1637" />
   <circle
   class="fil3 str0"
   cx="524.409"
   cy="369.95499"
   r="8.8376503"
   id="circle1639" />
  </g>
  <circle
   class="fil2 str1"
   cx="495.66901"
   cy="249.508"
   r="176.877"
   id="circle1643" />
  <g
   id="g1647">
   <path
   class="fil9"
   d="m 500.567,171.095 h -9.79596 l 4.89798,-8.90406 z m -5.83486,13.7518 V 170.323 h 1.87375 v 14.5238 z"
   id="path1645" />
  </g>
  <g
   id="g1675">
   <polygon
   class="fil4"
   points="510.899,104.654 510.899,102.048 480.439,102.048 480.439,104.654 471.876,104.654 471.876,134.187 480.439,134.187 480.439,136.793 491.862,136.793 491.862,149.499 499.477,149.499 499.477,136.793 510.899,136.793 510.899,134.187 519.462,134.187 519.462,104.654 "
   id="polygon1649" />
   <path
   class="fil2 str0"
   d="m 480.439,134.187 h -8.56354 v -29.5338 h 8.56354 m 30.4597,0 h 8.56379 v 29.5338 h -8.56379"
   id="path1651" />
   <rect
   class="fil5 str0"
   x="455.26099"
   y="116.022"
   width="16.6143"
   height="6.7967501"
   id="rect1653" />
   <rect
   class="fil5 str0"
   x="519.46301"
   y="116.022"
   width="16.6143"
   height="6.7967501"
   id="rect1655" />
   <line
   class="fil2 str0"
   x1="481.841"
   y1="110.56"
   x2="490.022"
   y2="110.56"
   id="line1657" />
   <line
   class="fil2 str0"
   x1="488.18701"
   y1="116.906"
   x2="496.36801"
   y2="116.906"
   id="line1659" />
   <line
   class="fil2 str0"
   x1="475.495"
   y1="123.251"
   x2="483.677"
   y2="123.251"
   id="line1661" />
   <line
   class="fil2 str0"
   x1="481.841"
   y1="129.597"
   x2="490.022"
   y2="129.597"
   id="line1663" />
   <line
   class="fil2 str0"
   x1="500.87799"
   y1="110.56"
   x2="509.06"
   y2="110.56"
   id="line1665" />
   <line
   class="fil2 str0"
   x1="507.224"
   y1="116.906"
   x2="515.40601"
   y2="116.906"
   id="line1667" />
   <line
   class="fil2 str0"
   x1="494.53299"
   y1="123.251"
   x2="502.71399"
   y2="123.251"
   id="line1669" />
   <line
   class="fil2 str0"
   x1="500.87799"
   y1="129.597"
   x2="509.06"
   y2="129.597"
   id="line1671" />
   <path
   class="fil2 str0"
   d="m 491.862,149.499 v -12.706 h -22.6299 v -9.75799 m 30.2448,22.464 v -12.706 h 22.6294 v -9.75799 m -52.8742,-15.2298 v -9.75799 h 52.8742 v 9.75799"
   id="path1673" />
  </g>
  <g
   id="g1679">
   <path
   class="fil9"
   d="m 475.056,119.42 4.85676,-2.42838 v 4.85676 z m 13.1297,0.93688 h -8.33669 v -1.87375 h 8.33669 z"
   id="path1677" />
  </g>
  <g
   id="g1683">
   <path
   class="fil9"
   d="m 516.282,119.42 -4.85676,2.42838 v -4.85676 z m -13.1297,-0.93687 h 8.33669 v 1.87375 h -8.33669 z"
   id="path1681" />
  </g>
  
  
  
  
  <g
   id="g1701">
   <path
   class="fil10"
   d="m 549.905,441.078 0.95012,3.38774 -4.33823,1.17472 -4.36221,1.08365 -4.37071,0.97922 -4.3912,0.88141 -4.39657,0.78423 -4.41393,0.68667 -4.42267,0.58948 -4.4233,0.48555 -4.43567,0.39549 -4.43267,0.29168 -4.44204,0.19512 -4.44291,0.0984 -4.42805,0.002 -4.43941,-0.0943 -4.42855,-0.1905 -4.42942,-0.28643 -4.42217,-0.38937 -4.40631,-0.47831 -4.40256,-0.58073 -4.38345,-0.67643 -4.37646,-0.77186 -4.35397,-0.86704 -4.34385,-0.96224 -4.31824,-1.06417 -4.30463,-1.15211 -4.2759,-1.25379 -4.25229,-1.34173 -4.23368,-1.44291 -4.2002,-1.53735 -4.17159,-1.63154 -4.14836,-1.72585 -4.10976,-1.82666 1.45978,-3.19487 4.0408,1.78543 4.06591,1.69812 4.10264,1.60405 4.13124,1.50987 4.15123,1.41543 4.18333,1.32774 4.20694,1.22631 4.22218,1.13837 4.24929,1.03668 4.26116,0.94849 4.28527,0.85331 4.29376,0.75787 4.3145,0.66268 4.32012,0.567 4.33736,0.47831 4.33948,0.37562 4.34698,0.28643 4.35959,0.1905 4.35672,0.0943 4.37308,-0.002 4.36022,-0.0984 4.35934,-0.19512 4.36396,-0.29168 4.35297,-0.38174 4.35435,-0.48555 4.34023,-0.57575 4.33124,-0.67292 4.32761,-0.77024 4.30875,-0.86767 4.30176,-0.96548 4.27952,-1.05617 4.26953,-1.16098 z m 12.384,-1.68013 -20.8189,16.869 0.12754,-0.72177 0.1078,-0.71627 0.0879,-0.71053 0.0681,-0.7049 0.0484,-0.69941 0.0284,-0.69366 0.009,-0.68817 -0.0112,-0.68242 -0.031,-0.67692 -0.051,-0.6713 -0.0707,-0.66556 -0.0906,-0.66006 -0.11043,-0.65431 -0.13016,-0.64882 -0.15015,-0.64307 -0.16989,-0.63758 -0.18975,-0.63195 -0.20961,-0.62621 -0.22934,-0.62071 -0.24934,-0.61509 -0.26907,-0.60946 -0.28893,-0.60373 -0.30867,-0.59822 -0.32866,-0.59261 -0.34839,-0.58686 -0.36825,-0.58136 -0.38812,-0.57574 -0.40785,-0.57012 -0.42784,-0.5645 -0.44758,-0.55875 -0.46744,-0.55326 -0.4873,-0.54763 v 0 l 26.5734,3.44195 z"
   id="path1699" />
  </g>
  
  
  
  
  
  
  
  
  
  
  
  
  
  
  
  
  <g
   id="g1745">
   <path
   class="fil9"
   d="m 421.996,138.565 2.98488,-4.52086 2.42276,4.19633 z m 11.8391,-5.75604 -7.22955,4.17397 -0.93688,-1.61767 7.22955,-4.17397 z"
   id="path1743" />
  </g>
  <g
   id="g1749">
   <path
   class="fil9"
   d="m 566.621,138.565 -5.40764,-0.32453 2.42276,-4.19633 z m -10.9022,-7.37371 7.22955,4.17397 -0.93687,1.61767 -7.22956,-4.17397 z"
   id="path1747" />
  </g>
  
  
  
  
  
  
  
  
  
  
  
  
  
  
  
  
 <path
   style="fill:#000000;stroke:#000000;stroke-width:2.64567;stroke-linejoin:bevel"
   d="m 672.54601,249.508 68.76603,-25.1049"
   id="path1985"
   sodipodi:nodetypes="cc" /><path
   style="fill:#000000;stroke:#000000;stroke-width:2.64567;stroke-linejoin:bevel"
   d="m 374.10934,292.89205 -101.2973,38.56203"
   id="path1987"
   sodipodi:nodetypes="cc" /><text
   xml:space="preserve"
   transform="translate(-69.697789,47.506296)"
   id="text1989"
   style="font-weight:bold;font-size:32px;font-family:Arial;-inkscape-font-specification:'Arial Bold';white-space:pre;shape-inside:url(#rect1991);display:inline;fill:#000000;stroke:none;stroke-width:2.64567;stroke-linejoin:bevel"><tspan
     x="825.34375"
     y="180.76945"
     id="tspan22375">drum</tspan></text><text
   xml:space="preserve"
   transform="translate(-657.69779,149.5063)"
   id="text1997"
   style="font-weight:bold;font-size:32px;font-family:Arial;-inkscape-font-specification:'Arial Bold';white-space:pre;shape-inside:url(#rect1999);display:inline;fill:#000000;stroke:none;stroke-width:2.64567;stroke-linejoin:bevel"><tspan
     x="825.34375"
     y="180.76945"
     id="tspan22377">brake </tspan><tspan
     x="825.34375"
     y="220.76945"
     id="tspan22379">shoe</tspan></text><path
   style="fill:none;stroke:#000000;stroke-width:2.64567;stroke-linejoin:bevel"
   d="m 626.53601,162.34562 c 31.0803,-14.38903 62.16015,-28.77785 93.23955,-43.16646"
   id="path21910"
   inkscape:path-effect="#path-effect21912"
   inkscape:original-d="m 626.53601,162.34562 c 31.08085,-14.38782 62.16071,-28.77664 93.23955,-43.16646"
   sodipodi:nodetypes="cc" /><text
   xml:space="preserve"
   transform="translate(-129.69779,-72.493704)"
   id="text22012"
   style="font-weight:bold;font-size:32px;font-family:Arial;-inkscape-font-specification:'Arial Bold';text-align:center;white-space:pre;shape-inside:url(#rect22014);display:inline;fill:#000000;stroke:none;stroke-width:2.64567;stroke-linejoin:bevel"
   x="38.304688"
   y="0"><tspan
     x="856.89453"
     y="180.76945"
     id="tspan22381">brake </tspan><tspan
     x="856.93359"
     y="220.76945"
     id="tspan22383">lining</tspan></text><path
   style="fill:none;stroke:#000000;stroke-width:2.64567;stroke-linejoin:bevel"
   d="M 493.87385,128.10115 C 441.88333,123.11313 389.89171,118.12501 337.89902,113.13678"
   id="path22016"
   inkscape:path-effect="#path-effect22020"
   inkscape:original-d="M 493.87385,128.10115 C 441.88324,123.11403 389.89162,118.1259 337.89902,113.13678"
   sodipodi:nodetypes="cc" /><text
   xml:space="preserve"
   transform="translate(-617.69779,-80.4937)"
   id="text22026"
   style="font-weight:bold;font-size:32px;font-family:Arial;-inkscape-font-specification:'Arial Bold';text-align:center;white-space:pre;shape-inside:url(#rect22028);display:inline;fill:#000000;stroke:none;stroke-width:2.64567;stroke-linejoin:bevel"
   x="42.507812"
   y="0"><tspan
     x="856.89453"
     y="180.76945"
     id="tspan22385">brake </tspan><tspan
     x="865.82422"
     y="220.76945"
     id="tspan22387">fluid</tspan></text></g>
</svg>
