<?xml version="1.0" encoding="UTF-8" standalone="no"?>
<!-- Created with Inkscape (http://www.inkscape.org/) -->

<svg
   width="210mm"
   height="297mm"
   viewBox="0 0 210 297"
   version="1.1"
   id="svg5"
   sodipodi:docname="freischnitt.svg"
   inkscape:version="1.2.1 (9c6d41e410, 2022-07-14)"
   inkscape:export-filename="freischnitt.pdf"
   inkscape:export-xdpi="96"
   inkscape:export-ydpi="96"
   xmlns:inkscape="http://www.inkscape.org/namespaces/inkscape"
   xmlns:sodipodi="http://sodipodi.sourceforge.net/DTD/sodipodi-0.dtd"
   xmlns="http://www.w3.org/2000/svg"
   xmlns:svg="http://www.w3.org/2000/svg">
  <sodipodi:namedview
     id="namedview7"
     pagecolor="#ffffff"
     bordercolor="#000000"
     borderopacity="0.25"
     inkscape:showpageshadow="2"
     inkscape:pageopacity="0.0"
     inkscape:pagecheckerboard="0"
     inkscape:deskcolor="#d1d1d1"
     inkscape:document-units="mm"
     showgrid="true"
     inkscape:zoom="0.72515432"
     inkscape:cx="114.4584"
     inkscape:cy="759.14876"
     inkscape:window-width="1920"
     inkscape:window-height="1001"
     inkscape:window-x="-9"
     inkscape:window-y="-9"
     inkscape:window-maximized="1"
     inkscape:current-layer="layer1">
    <inkscape:grid
       type="xygrid"
       id="grid132" />
  </sodipodi:namedview>
  <defs
     id="defs2">
    <rect
       x="350"
       y="870"
       width="280"
       height="70"
       id="rect6394" />
    <rect
       x="620"
       y="790"
       width="130"
       height="30"
       id="rect6382" />
    <rect
       x="40"
       y="470"
       width="290"
       height="60.000007"
       id="rect4736" />
    <rect
       x="40"
       y="400"
       width="270"
       height="80.000006"
       id="rect3944" />
    <rect
       x="430"
       y="160"
       width="80.000006"
       height="50.000003"
       id="rect3172" />
    <rect
       x="55"
       y="315"
       width="200"
       height="35.000004"
       id="rect2960" />
    <rect
       x="130"
       y="100"
       width="240"
       height="25.000002"
       id="rect1905" />
    <marker
       style="overflow:visible"
       id="Arrow2"
       refX="0"
       refY="0"
       orient="auto-start-reverse"
       inkscape:stockid="Arrow2"
       markerWidth="7.6999998"
       markerHeight="5.5999999"
       viewBox="0 0 7.7 5.6"
       inkscape:isstock="true"
       inkscape:collect="always"
       preserveAspectRatio="xMidYMid">
      <path
         transform="scale(0.7)"
         d="M -2,-4 9,0 -2,4 c 2,-2.33 2,-5.66 0,-8 z"
         style="fill:context-stroke;fill-rule:evenodd;stroke:none"
         id="arrow2L" />
    </marker>
    <rect
       x="50"
       y="30"
       width="231.33661"
       height="67.867142"
       id="rect188" />
    <rect
       x="40"
       y="470"
       width="290"
       height="60.000007"
       id="rect5589" />
    <rect
       x="40"
       y="470"
       width="322"
       height="60.000004"
       id="rect5601" />
    <rect
       x="40"
       y="470"
       width="332"
       height="60.000002"
       id="rect5613" />
    <rect
       x="430"
       y="160"
       width="80.000006"
       height="50.000003"
       id="rect6333" />
    <rect
       x="130"
       y="100"
       width="240"
       height="25.000002"
       id="rect1905-4" />
    <rect
       x="430"
       y="160"
       width="80.000006"
       height="50.000003"
       id="rect10427" />
  </defs>
  <g
     inkscape:label="Ebene 1"
     inkscape:groupmode="layer"
     id="layer1">
    <path
       style="fill:#808080;stroke:#808080;stroke-width:0.499999;stroke-linejoin:bevel"
       d="m 72.495831,31.75 5.291667,7.9375 h 7.9375 L 91.016665,31.75 Z"
       id="path1494" />
    <text
       xml:space="preserve"
       transform="matrix(0.22741493,0,0,0.22741493,2.1656889,1.5560507)"
       id="text186"
       style="font-weight:bold;font-size:18.6667px;font-family:Arial;-inkscape-font-specification:'Arial Bold';white-space:pre;shape-inside:url(#rect188);display:inline;fill:#ff0000;stroke-width:1.88976;stroke-linejoin:bevel"><tspan
         x="50"
         y="46.814113"
         id="tspan20740"><tspan
           style="fill:#000000"
           id="tspan20738">m, M_brems, r_rad, </tspan></tspan><tspan
         x="50"
         y="70.147487"
         id="tspan20744"><tspan
           style="fill:#000000"
           id="tspan20742">r_brems</tspan></tspan></text>
    <circle
       style="fill:none;stroke:#000000;stroke-width:0.833332;stroke-linejoin:bevel"
       id="path1166"
       cx="82.020836"
       cy="50.270832"
       r="26.458334" />
    <path
       style="fill:#ffffff;stroke:#000000;stroke-width:0.645496;stroke-linejoin:bevel"
       d="M 82.020832,50.270833 H 108.47917"
       id="path1168" />
    <circle
       style="fill:none;stroke:#ff0000;stroke-width:0.499999;stroke-linejoin:bevel"
       id="path1170"
       cx="82.020836"
       cy="50.270832"
       r="15.875" />
    <circle
       style="fill:#000000;stroke:none;stroke-width:0.499999;stroke-linejoin:bevel"
       id="path1328"
       cx="82.020836"
       cy="50.270832"
       r="2.6458333" />
    <path
       style="fill:#000000;stroke:#ff0000;stroke-width:0.499999;stroke-linejoin:bevel"
       d="m 82.020832,50.270833 7.9375,-13.229167"
       id="path1384" />
    <path
       style="fill:none;stroke:#0000ff;stroke-width:0.499999;stroke-linejoin:bevel;marker-end:url(#Arrow2)"
       d="M 171.97917,84.666667 H 137.58333"
       id="path1604" />
    <text
       xml:space="preserve"
       transform="matrix(0.26458333,0,0,0.26458333,34.116399,-18.654587)"
       id="text1903"
       style="font-weight:bold;font-size:18.6667px;font-family:Arial;-inkscape-font-specification:'Arial Bold';white-space:pre;shape-inside:url(#rect1905);display:inline;fill:#0000ff;stroke:none;stroke-width:1.88976;stroke-linejoin:bevel"><tspan
         x="130"
         y="116.81411"
         id="tspan20746">M_brems</tspan></text>
    <circle
       style="fill:none;stroke:none;stroke-width:0.499999;stroke-linejoin:bevel"
       id="path2400"
       r="34.395832"
       cy="50.270832"
       cx="82.020836" />
    <path
       style="fill:none;stroke:#0000ff;stroke-width:0.499999;stroke-linejoin:bevel"
       d="m 93.927082,17.197916 c -0.263218,0.07233 -0.51771,0.24068 -0.789654,0.216977 -0.571048,-0.04977 -2.73082,-1.100266 -2.966982,-1.160993 -0.883423,-0.227166 -1.809231,-0.237039 -2.708981,-0.386997 -0.391047,-0.06517 -0.765927,-0.225076 -1.160995,-0.257999 -0.642768,-0.05356 -1.29822,0.102704 -1.934988,0 -0.71161,-0.114776 -1.364702,-0.470175 -2.063988,-0.644996 -0.857088,-0.214272 -1.845212,0.291023 -2.708981,0.386998 -2.639057,0.293228 -4.729152,0.360605 -7.094958,1.418991 -1.211704,0.542078 -2.418924,1.095012 -3.611978,1.67699 -0.570614,0.278348 -1.194951,0.489818 -1.67699,0.902994 -0.15272,0.130905 0.04871,0.994392 -0.515996,0.902995 -0.224702,-0.03637 -0.364506,-0.272751 -0.546759,-0.409126"
       id="path2649" />
    <path
       style="fill:none;stroke:#0000ff;stroke-width:0.499999;stroke-linejoin:bevel"
       d="m 70.114582,13.229167 c -9.953098,17.950005 0.306166,0.04104 -5.614979,9.345694 -0.0979,0.153841 0.250129,0.132935 0.258,0.129 0.138669,-0.06933 0.237924,-0.215407 0.386999,-0.257999 0.372107,-0.106316 0.773993,0 1.160991,0 1.977988,0 3.955976,0 5.933964,0 0.601996,0 1.203992,0 1.805988,0 0.086,0 0.201766,-0.06507 0.258,0 0.04894,0.05662 -0.146809,0.02915 -0.220213,0.04372"
       id="path2651" />
    <path
       style="fill:none;stroke:#ff0000;stroke-width:0.499999;stroke-linejoin:bevel"
       d="m 76.729166,5.2916666 c 0.09445,0.0851 0.157289,0.2388809 0.283361,0.2552994 1.244229,0.1620377 4.323249,0 5.417968,0 3.439977,0 6.879957,0 10.319935,0 0.558998,0 1.123119,-0.075528 1.67699,0 12.06539,1.6452799 -0.04986,0.1357751 5.417968,1.1609929 0.211312,0.039622 0.438732,-0.060666 0.644992,0 0.53629,0.1577301 1.01768,0.4682258 1.54799,0.644996 0.3761,0.1253646 0.78716,0.126056 1.161,0.2579984 1.13647,0.4011064 0.93674,0.5620488 1.93499,1.1609929 1.93992,1.1639577 0.21894,-0.3283262 2.70898,1.8059888 0.073,0.06257 0.0575,0.193677 0.129,0.257999 1.16707,1.050362 2.76257,1.472579 3.86997,2.579984 0.068,0.06799 0.061,0.19001 0.129,0.257998 0.068,0.06799 0.215,0.043 0.258,0.128999 0.0577,0.115381 0,0.257999 0,0.386998 0.0729,0.120723 0.14574,0.241447 0.21861,0.36217"
       id="path2718" />
    <path
       style="fill:none;stroke:#ff0000;stroke-width:0.499999;stroke-linejoin:bevel"
       d="m 117.73958,7.9374999 c -0.0738,2.3851361 -0.31626,4.7710211 -0.2213,7.1554071 0.047,1.179798 0.41963,2.323954 0.645,3.482979 0.0757,0.38915 0.25799,0.764555 0.25799,1.160993 0,0.086 -0.17229,0.0071 -0.25799,0 -0.43065,-0.03589 -0.86549,-0.04814 -1.29,-0.128999 -0.48161,-0.09174 -0.93691,-0.297725 -1.41899,-0.386998 -1.73457,-0.321216 -2.13197,-0.108661 -3.74097,-0.644996 -0.49291,-0.164302 -0.91774,-0.508289 -1.419,-0.644996 -0.45821,-0.124967 -0.94717,-0.07456 -1.41899,-0.128999 -2.433,-0.280731 -1.19771,-0.257999 -2.45098,-0.257999 -0.301,0 -0.602,0 -0.903,0 -0.086,0 -0.31559,0.06387 -0.258,0 0.14884,-0.165057 0.37999,-0.23065 0.56998,-0.345976"
       id="path2720" />
    <path
       style="fill:none;stroke:#00ff00;stroke-width:0.499999;stroke-linejoin:bevel"
       d="m 115.09375,50.270833 h 22.48958"
       id="path2839" />
    <path
       style="fill:none;stroke:#00ff00;stroke-width:0.499999;stroke-linejoin:bevel"
       d="m 133.61458,46.302083 c 1.73243,0.575535 0.0235,-0.08641 1.31859,0.653629 0.11806,0.06746 0.27169,0.05693 0.387,0.129 0.84296,0.526847 0.54715,0.547145 1.28999,1.289992 0.6992,0.699196 1.78959,0.983525 2.70899,1.289992 0.16819,0.05607 0.37172,0.02596 0.51599,0.128998 0.37195,0.265681 0.55185,0.73937 0.903,1.031994 0.0739,0.06155 0.34399,0.086 0.25799,0.129 -0.74278,0.371393 -1.55091,0.594566 -2.32198,0.902994 -0.734,0.2936 -1.43843,0.667197 -2.19299,0.902994 -4.30108,1.344088 0.76585,-1.370555 -5.15997,2.579983 -0.45423,0.302821 -0.11746,-0.0091 -0.35244,0.22184"
       id="path2904" />
    <text
       xml:space="preserve"
       transform="scale(0.26458333)"
       id="text2958"
       style="font-weight:bold;font-size:18.6667px;font-family:Arial;-inkscape-font-specification:'Arial Bold';white-space:pre;shape-inside:url(#rect2960);display:inline;fill:#000000;stroke:none;stroke-width:1.88976;stroke-linejoin:bevel"><tspan
         x="55"
         y="331.81411"
         id="tspan20748">m*a = Summe(F_i)</tspan></text>
    <path
       style="fill:#999999;stroke:none;stroke-width:0.499999;stroke-linejoin:bevel"
       d="M 82.020832,140.22919 V 87.312503 h 25.135418 z"
       id="path3012" />
    <text
       xml:space="preserve"
       transform="matrix(0.26458333,0,0,0.26458333,6.9811269,0.78505551)"
       id="text3170"
       style="font-weight:bold;font-size:18.6667px;font-family:Arial;-inkscape-font-specification:'Arial Bold';white-space:pre;shape-inside:url(#rect3172);display:inline;fill:#000000;stroke:none;stroke-width:1.88976;stroke-linejoin:bevel"><tspan
         x="430"
         y="176.81411"
         id="tspan20750">m*a</tspan></text>
    <text
       xml:space="preserve"
       transform="scale(0.26458333)"
       id="text3942"
       style="font-weight:bold;font-size:18.6667px;font-family:Arial;-inkscape-font-specification:'Arial Bold';white-space:pre;shape-inside:url(#rect3944);display:inline;fill:#000000;stroke:none;stroke-width:1.88976;stroke-linejoin:bevel"><tspan
         x="40"
         y="416.81411"
         id="tspan20752">a = M_brems / r_brems / m</tspan></text>
    <text
       xml:space="preserve"
       transform="matrix(0.26458333,0,0,0.26458333,-0.52916737,0)"
       id="text4734"
       style="font-weight:bold;font-size:18.6667px;font-family:Arial;-inkscape-font-specification:'Arial Bold';white-space:pre;shape-inside:url(#rect4736);display:inline;fill:#000000;stroke:none;stroke-width:1.88976;stroke-linejoin:bevel"><tspan
         x="40"
         y="486.81411"
         id="tspan20754">M_brems = 4 * c_p * p_brems</tspan></text>
    <rect
       style="fill:#000000;stroke:none;stroke-width:0.499999;stroke-linejoin:bevel"
       id="rect4828"
       width="10.583333"
       height="23.8125"
       x="7.9375005"
       y="161.39583"
       ry="5.2916665" />
    <rect
       style="fill:#000000;stroke:none;stroke-width:0.499999;stroke-linejoin:bevel"
       id="rect4830"
       width="10.583333"
       height="23.8125"
       x="50.270832"
       y="161.39583"
       ry="5.2916665" />
    <rect
       style="fill:#000000;stroke:none;stroke-width:0.499999;stroke-linejoin:bevel"
       id="rect4832"
       width="10.583333"
       height="23.8125"
       x="7.9375005"
       y="198.4375"
       ry="5.2916665" />
    <rect
       style="fill:#000000;stroke:none;stroke-width:0.499999;stroke-linejoin:bevel"
       id="rect4834"
       width="10.583335"
       height="23.8125"
       x="50.270832"
       y="198.4375"
       ry="5.2916665" />
    <text
       xml:space="preserve"
       transform="matrix(0.26458333,0,0,0.26458333,100.0125,0)"
       id="text5587"
       style="font-weight:bold;font-size:18.6667px;font-family:Arial;-inkscape-font-specification:'Arial Bold';white-space:pre;shape-inside:url(#rect5589);display:inline;fill:#000000;stroke:none;stroke-width:1.88976;stroke-linejoin:bevel"><tspan
         x="40"
         y="486.81411"
         id="tspan20756">M_brems,i = c_p,i * p_brems</tspan></text>
    <text
       xml:space="preserve"
       transform="matrix(0.26458333,0,0,0.26458333,100.0125,10.583334)"
       id="text5599"
       style="font-weight:bold;font-size:18.6667px;font-family:Arial;-inkscape-font-specification:'Arial Bold';white-space:pre;shape-inside:url(#rect5601);display:inline;fill:#000000;stroke:none;stroke-width:1.88976;stroke-linejoin:bevel"><tspan
         x="40"
         y="486.81411"
         id="tspan20758">F_brems,i = M_brems,i / r_brems,i</tspan></text>
    <text
       xml:space="preserve"
       transform="matrix(0.26458333,0,0,0.26458333,100.0125,21.166668)"
       id="text5611"
       style="font-weight:bold;font-size:18.6667px;font-family:Arial;-inkscape-font-specification:'Arial Bold';white-space:pre;shape-inside:url(#rect5613);display:inline;fill:#000000;stroke:none;stroke-width:1.88976;stroke-linejoin:bevel"><tspan
         x="40"
         y="486.81411"
         id="tspan20760">F_brems,ges = Summe(F_brems,i)</tspan></text>
    <circle
       style="fill:#ffffff;stroke:#000000;stroke-width:0.499999;stroke-linejoin:bevel"
       id="path5797"
       cx="142.87502"
       cy="222.25003"
       r="26.547861" />
    <path
       style="fill:none;stroke:#0000ff;stroke-width:0.499999;stroke-linejoin:bevel"
       d="m 145.52084,206.37501 c -0.10079,0.41292 0.0136,0.95444 -0.30237,1.23874 -0.66389,0.59739 -0.94225,0.12497 -1.45946,0.18244 -10.39534,1.15503 -1.57637,-0.1905 -6.2027,1.09459 -0.83891,0.23303 -1.73881,0.24158 -2.55405,0.5473 -1.11865,0.41949 -4.73317,1.81173 -5.47298,2.73648 -0.12012,0.15017 -0.0964,0.3753 -0.18243,0.5473 -0.0981,0.19611 -0.32564,0.33158 -0.36486,0.5473 -0.24083,1.32456 0.0351,3.60658 0.36486,4.92568 0.033,0.13191 0.16557,0.22993 0.18243,0.36486 0.0453,0.36205 -0.10883,0.74634 0,1.09459 0.2028,0.64894 0.70937,1.17539 0.91217,1.82433 0.10883,0.34825 -0.0426,0.73223 0,1.09459 0.10869,0.92386 0.13128,1.90447 0.54729,2.73649 0.0769,0.15384 0.25927,0.2291 0.36487,0.36486 0.85856,1.10387 1.48209,2.18253 2.55405,3.10135 0.29957,0.25677 1.06627,0.61711 1.27703,0.91217 0.14573,0.20402 0.0258,0.53394 0.18243,0.72973 0.47431,0.59288 1.84546,-0.0674 2.21622,-0.2303"
       id="path5911" />
    <path
       style="fill:none;stroke:#0000ff;stroke-width:0.499999;stroke-linejoin:bevel"
       d="m 140.22917,224.89585 c -8.00338,-3.56939 5.06021,7.26165 2.43525,8.80574 -0.89106,0.52415 -2.06757,0 -3.10135,0 -1.27703,0 -2.55405,0 -3.83108,0 -0.12163,0 -0.28276,0.0897 -0.36487,0 -0.21798,-0.23822 -0.28641,-0.57883 -0.42961,-0.86824"
       id="path5913" />
    <path
       style="fill:#ffffff;stroke:#000000;stroke-width:0.499999;stroke-linejoin:bevel"
       d="m 84.666666,283.10419 c 6.683184,-0.96003 13.312216,-2.43855 20.049554,-2.88007 7.94916,-0.52093 15.93271,0.0672 23.89864,0 8.60017,-0.0726 17.13979,-0.36487 25.72298,-0.36487 5.22973,0 10.45946,0 15.68918,0 2.49325,0 4.98649,0 7.47973,0 0.60908,0 3.25455,-0.21729 3.83109,0 0.42524,0.16028 0.81644,0.3994 1.22466,0.5991"
       id="path5923" />
    <path
       style="fill:none;stroke:#008000;stroke-width:0.499999;stroke-linejoin:bevel"
       d="m 117.93348,277.81252 c 23.51176,-2.85078 13.77258,-2.51408 29.12669,-2.51408 3.70946,0 7.41892,0 11.12838,0 0.24324,0 0.96667,0.055 0.72973,0 -0.4234,-0.0983 -0.86486,-0.0878 -1.2973,-0.13175"
       id="path5925" />
    <path
       style="fill:none;stroke:#008000;stroke-width:0.499999;stroke-linejoin:bevel"
       d="m 152.32931,269.87502 c 2.50038,0.83483 5.00071,1.66983 7.50113,2.5045 0.36482,0.12178 0.80259,0.11457 1.0946,0.36487 0.22425,0.19222 0.33037,1.71087 0.18243,2.00676 -0.0272,0.0544 -0.12199,-0.007 -0.18243,0 -0.48728,0.0541 -0.99435,0.0274 -1.45946,0.18243 -0.645,0.215 -1.20599,0.62949 -1.82433,0.91216 -1.51057,0.69055 -3.06205,1.29093 -4.56081,2.00676 -4.33789,2.07182 -6.4569,3.52699 -10.39865,4.92567 -0.48581,0.17239 -5.80515,1.70095 -6.2027,2.37162 -0.10211,0.17226 -0.0165,0.40015 -0.0248,0.60023"
       id="path5927" />
    <path
       style="fill:#ff0000;stroke:#ff0000;stroke-width:0.499999;stroke-linejoin:bevel"
       d="m 144.8601,222.25001 c 1.98315,-0.76269 4.33073,-0.40653 6.41329,-0.40653 1.93055,0 -1.91052,0.0501 1.82433,-0.36486 1.61556,-0.17951 3.46899,0 5.10811,0 2.46068,0 5.67885,0.32075 8.02702,-0.18243 2.99981,-0.64282 1.02481,-0.53909 4.19595,-0.91217 1.8937,-0.22279 3.93278,0 5.83784,0 0.32648,0 1.66157,0.23107 2.00675,0 0.34747,-0.2326 0.65503,-0.51989 0.98255,-0.77984"
       id="path6055" />
    <path
       style="fill:none;stroke:#ff0000;stroke-width:0.499999;stroke-linejoin:bevel"
       d="m 176.6101,214.31251 c 2.25714,1.59816 4.52875,3.17606 6.7714,4.79449 0.88497,0.63864 2.54494,1.51809 1.0946,2.55405 -0.35684,0.25488 -0.76685,0.4384 -1.0946,0.72973 -0.22725,0.202 -0.36486,0.48649 -0.5473,0.72973 -1.21621,0.97297 -2.463,1.90892 -3.64864,2.91892 -0.45827,0.39037 -0.78207,0.93436 -1.27703,1.27703 -0.12108,0.0838 -1.98902,0.68443 -2.18919,0.54729 -0.26047,-0.17844 0.59384,-0.21471 0.89076,-0.32207"
       id="path6057" />
    <circle
       style="fill:#000000;stroke:none;stroke-width:0.499999;stroke-linejoin:bevel"
       id="path6323"
       cx="142.87502"
       cy="222.25003"
       r="2.6458333" />
    <text
       xml:space="preserve"
       transform="matrix(0.26458333,0,0,0.26458333,65.84198,164.82674)"
       id="text6331"
       style="font-weight:bold;font-size:18.6667px;font-family:Arial;-inkscape-font-specification:'Arial Bold';white-space:pre;shape-inside:url(#rect6333);display:inline;fill:#ff0000;stroke:none;stroke-width:1.88976;stroke-linejoin:bevel"><tspan
         x="430"
         y="176.81411"
         id="tspan20762">m*a</tspan></text>
    <text
       xml:space="preserve"
       transform="matrix(0.26458333,0,0,0.26458333,97.616399,173.71165)"
       id="text1903-6"
       style="font-weight:bold;font-size:18.6667px;font-family:Arial;-inkscape-font-specification:'Arial Bold';white-space:pre;shape-inside:url(#rect1905-4);display:inline;fill:#0000ff;stroke:none;stroke-width:1.88976;stroke-linejoin:bevel"><tspan
         x="130"
         y="116.81411"
         id="tspan20764">M_brems</tspan></text>
    <text
       xml:space="preserve"
       transform="matrix(0.26458333,0,0,0.26458333,-74.083337,26.458334)"
       id="text6380"
       style="font-weight:bold;font-size:18.6667px;font-family:Arial;-inkscape-font-specification:'Arial Bold';white-space:pre;shape-inside:url(#rect6382);display:inline;fill:#000000;stroke:none;stroke-width:1.88976;stroke-linejoin:bevel"><tspan
         x="620"
         y="806.81411"
         id="tspan20766">F_haft</tspan></text>
    <text
       xml:space="preserve"
       transform="matrix(0.26458333,0,0,0.26458333,26.458334,21.166667)"
       id="text6392"
       style="font-weight:bold;font-size:18.6667px;font-family:Arial;-inkscape-font-specification:'Arial Bold';white-space:pre;shape-inside:url(#rect6394);display:inline;fill:#000000;stroke:none;stroke-width:1.88976;stroke-linejoin:bevel"><tspan
         x="350"
         y="886.81411"
         id="tspan20768">F_haft = M_brems / r_rad
</tspan><tspan
         x="350"
         y="910.14749"
         id="tspan20770">
</tspan><tspan
         x="350"
         y="933.48086"
         id="tspan20772">a = F_haft / m</tspan></text>
    <path
       style="fill:none;stroke:#000000;stroke-width:0.499999;stroke-linejoin:bevel"
       d="m 142.875,248.70835 c -3.69894,0.31948 -4.16158,0.56748 -8.05518,-0.0473 -0.87458,-0.13809 -1.6838,-0.56656 -2.55405,-0.72973 -1.44562,-0.27105 -2.91486,-0.40095 -4.37838,-0.5473 -1.10288,-0.11029 -2.42819,0.0692 -3.46621,0 -3.30885,-0.22059 -7.00723,-0.72785 -10.21622,-1.09459 -0.62096,-0.071 -4.95714,-0.14738 -5.47298,0 -0.13074,0.0374 -0.12162,0.24324 -0.18243,0.36486 -0.24324,0.0608 -0.48241,0.14121 -0.72973,0.18243 -0.51056,0.0851 -1.15449,-0.16246 -1.64189,0 -0.42159,0.14054 0.0822,0.3238 -0.36486,0.5473 -0.16318,0.0816 -0.36578,-0.0181 -0.54731,0 -0.42786,0.0428 -0.86154,0.0716 -1.27702,0.18244 -1.18975,0.31726 -2.28227,0.93875 -3.46622,1.27702 -0.17541,0.0501 -0.572885,0.18063 -0.547295,0 0.02726,-0.19219 0.377625,-0.0901 0.566445,-0.13513"
       id="path10332" />
    <path
       style="fill:none;stroke:#000000;stroke-width:0.499999;stroke-linejoin:bevel"
       d="m 103.1875,243.41668 c -0.70589,1.0792 -1.25721,2.27712 -2.11768,3.23761 -1.321086,1.47464 -2.947652,2.645 -4.378378,4.01352 -0.04395,0.042 0.131834,-0.0337 0.182432,0 0.143111,0.0954 0.211024,0.28794 0.364864,0.36486 0.108783,0.0544 0.246874,-0.0295 0.364865,0 0.373118,0.0933 0.724792,0.25921 1.094595,0.36487 1.470972,0.42027 2.993872,1.34809 4.560812,1.64189 0.48014,0.09 3.99302,0.1079 4.19595,0.18243 0.40247,0.14782 0.6828,0.51877 1.02421,0.77815"
       id="path10334" />
    <path
       style="fill:none;stroke:#000000;stroke-width:0.499999;stroke-linejoin:bevel"
       d="m 103.1875,280.45833 c -0.40259,-0.14153 -0.78473,-0.48062 -1.20777,-0.42455 -0.66363,0.088 -1.55795,1.28286 -2.006757,1.6419 -10.926212,8.74096 1.098647,-0.96316 -5.655406,4.01352 -0.520411,0.38346 -0.908925,0.93823 -1.45946,1.27701 -0.264078,0.1625 -0.634822,0.0438 -0.912161,0.18243 -2.449449,1.22473 -0.238263,0.23828 -1.094595,1.0946 -0.443092,0.4431 -0.267888,-0.0543 -0.547298,0.36486 -0.07543,0.11314 -0.07797,0.27782 -0.182433,0.36487 -0.272399,0.22701 -0.661432,0.29657 -0.912162,0.54729 -0.135977,0.13599 -0.267356,0.37478 -0.182433,0.54731 0.19839,0.40304 0.620872,0.6494 0.931307,0.97409"
       id="path10403" />
    <path
       style="fill:none;stroke:#000000;stroke-width:0.499999;stroke-linejoin:bevel"
       d="m 116.41667,280.45833 c -12.43895,11.9757 -7.88938,15.3212 -13.22917,10.58333"
       id="path10405" />
    <path
       style="fill:none;stroke:#000000;stroke-width:0.499999;stroke-linejoin:bevel"
       d="m 129.64583,280.45833 c -3.17377,6.07126 -5.14012,9.94106 -10.58333,13.22917"
       id="path10407" />
    <path
       style="fill:none;stroke:#000000;stroke-width:0.499999;stroke-linejoin:bevel"
       d="m 142.875,280.45833 c -4.69257,4.11525 -9.38514,8.23047 -14.07771,12.34572 -0.0608,0.0608 -0.242,0.12041 -0.18243,0.18243 0.28788,0.29972 0.68731,0.46734 1.03097,0.70102"
       id="path10409" />
    <path
       style="fill:none;stroke:#000000;stroke-width:0.499999;stroke-linejoin:bevel"
       d="m 158.75,280.45833 c -13.92456,7.53274 -17.27901,3.63485 -13.22917,7.9375"
       id="path10411" />
    <path
       style="fill:none;stroke:#000000;stroke-width:0.499999;stroke-linejoin:bevel"
       d="m 171.97916,280.45833 c -11.51749,10.01898 -14.4768,6.00239 -10.58333,10.58333"
       id="path10413" />
    <path
       style="fill:none;stroke:#000000;stroke-width:0.499999;stroke-linejoin:bevel"
       d="m 105.83334,185.20834 c 2.044,1.49142 2.47544,1.60586 4.72522,1.60586 0.72973,0 1.48754,0.20047 2.18919,0 1.50942,-0.43126 0.61173,-1.70632 1.45946,-2.55406 0.68308,-0.68307 1.77832,-0.26143 2.55406,-0.36486 0.3246,-0.0433 0.59359,-0.28902 0.91216,-0.36487 0.64403,-0.15333 3.56089,-0.88511 4.74325,-0.54729 0.21082,0.0602 0.35929,0.25205 0.5473,0.36486 0.1166,0.07 0.27992,0.0762 0.36486,0.18243 0.16989,0.21236 0.21401,0.50345 0.36486,0.72973 0.26474,0.3971 0.87759,1.01073 1.27703,1.27703 0.11314,0.0754 0.28944,0.0693 0.36487,0.18243 0.20336,0.30505 -0.42332,1.03615 -0.36487,1.0946 0.129,0.129 0.36921,-0.0396 0.5473,0 1.46855,0.32634 2.89218,0.86146 4.37838,1.09459 1.6265,0.25514 3.2823,0.26527 4.92567,0.36487 0.87975,0.0533 1.85996,-0.14609 2.73649,0 0.67727,0.11287 3.07605,0.46873 3.64865,0.18243 0.0544,-0.0272 0,-0.12162 0,-0.18243 0,-0.95263 -0.0776,-1.66904 0.36486,-2.55406 1.06736,-2.13472 3.0034,-1.45946 5.10811,-1.45946 0.42568,0 0.85135,0 1.27703,0 0.24324,0 0.53513,-0.14594 0.72973,0 0.35081,0.26311 0.4384,0.76685 0.72973,1.0946 0.202,0.22725 0.56107,0.29431 0.72973,0.54729 0.24029,0.36045 -0.0758,2.06006 0.5473,2.37163 0.21756,0.10878 0.48648,0 0.72972,0 1.76352,0 3.53473,-0.16461 5.29055,0 1.40433,0.13165 2.79474,0.38562 4.19594,0.54729 0.18123,0.0209 0.38413,-0.0816 0.5473,0 0.23076,0.11538 0.30433,0.46053 0.5473,0.5473 2.21822,0.79222 1.51804,0.12135 3.46621,0.36487 0.9839,0.12298 1.73937,0.53105 2.73649,0.36486 0.13413,-0.0224 0.31712,-0.0551 0.36486,-0.18243 0.19842,-0.52912 0.62507,-5.9694 0.36487,-6.75 -0.14099,-0.42296 -1.57854,-0.13127 -2.37162,-0.18243 -0.9984,-0.0644 -5.81891,-0.51374 -7.11487,-0.72973 -0.80028,-0.13338 -1.56565,-0.45431 -2.37162,-0.5473 -0.78533,-0.0906 -1.58108,0 -2.37162,0 -0.18243,0 -0.38413,0.0816 -0.5473,0 -0.12162,-0.0608 -0.0863,-0.26871 -0.18243,-0.36487 -1.55629,-1.55628 0.72731,2.60841 -1.27703,-2.73648 -0.13862,-0.36965 -1.93752,-2.34111 -2.18919,-2.55406 -0.60527,-0.51215 -1.34704,-0.83721 -2.00675,-1.27702 -0.0709,-0.0473 -0.79882,-0.7014 -0.91216,-0.72973 -0.88908,-0.22227 -2.90867,0.0603 -3.46622,0 -1.47102,-0.15903 -2.90578,-0.58607 -4.37838,-0.72973 -2.25025,-0.21954 -4.66273,0 -6.93243,0 -1.88514,0 -3.77027,0 -5.65541,0 -0.63292,0 -1.57726,-0.15298 -2.18919,0 -1.67681,0.4192 -3.79794,2.15951 -4.92568,2.73648 -1.84982,0.94642 -4.44194,2.02795 -6.56757,2.73649 -0.25511,0.085 -5.35769,0.16564 -6.02027,0 -0.18656,-0.0466 -0.35761,-0.15082 -0.5473,-0.18243 -0.37969,-0.0633 -0.73848,-0.0693 -0.91216,0.36486 -0.11037,0.27593 -0.14486,5.00082 0,5.29054 0.0385,0.0769 0.18243,0.0964 0.18243,0.18244 0,0.0608 -0.15734,-0.0554 -0.18243,0 -0.10772,0.23781 -0.10961,0.51051 -0.16441,0.76576"
       id="path10417" />
    <path
       style="fill:none;stroke:#ff0000;stroke-width:0.499999;stroke-linejoin:bevel"
       d="m 145.52083,187.85417 c -0.28359,-0.22503 -0.54771,-0.47708 -0.85078,-0.67511 -0.26923,-0.17591 -0.88262,0.16316 -1.0946,0.18243 -2.09327,0.1903 -4.52182,0 -6.56757,0 -2.18918,0 -4.37837,0 -6.56756,0 -1.27703,0 -2.55406,0 -3.83108,0 -0.12162,0 -0.26367,-0.0675 -0.36487,0 -0.11314,0.0754 -0.0863,0.26872 -0.18243,0.36487 -0.258,0.258 -0.72973,0 -1.0946,0 -1.96749,0 -3.9486,-0.0874 -5.90484,0.12781"
       id="path10419" />
    <path
       style="fill:none;stroke:#ff0000;stroke-width:0.499999;stroke-linejoin:bevel"
       d="m 124.35417,179.91667 c -2.75644,2.68412 -7.27391,6.95349 -9.96791,9.99888 -0.0806,0.0911 -0.10119,0.2974 0,0.36486 0.1518,0.1012 0.36577,-0.0181 0.5473,0 0.42786,0.0428 0.86155,0.0716 1.27703,0.18243 0.50202,0.13388 0.96951,0.37438 1.45946,0.5473 0.54401,0.19201 1.12589,0.2893 1.64189,0.5473 0.12162,0.0608 0.0608,0.30406 0.18243,0.36486 0.16317,0.0816 0.37962,-0.0719 0.5473,0 1.40348,0.6015 3.1798,2.82285 4.3125,3.86937"
       id="path10421" />
    <text
       xml:space="preserve"
       transform="matrix(0.26458333,0,0,0.26458333,15.041977,136.25174)"
       id="text10425"
       style="font-weight:bold;font-size:18.6667px;font-family:Arial;-inkscape-font-specification:'Arial Bold';white-space:pre;shape-inside:url(#rect10427);display:inline;fill:#ff0000;stroke:none;stroke-width:1.88976;stroke-linejoin:bevel"><tspan
         x="430"
         y="176.81411"
         id="tspan20774">m*a</tspan></text>
    <path
       style="fill:none;stroke:#000000;stroke-width:0.499999;stroke-linejoin:bevel"
       d="m 10.583333,248.70833 c 0.911412,0.16479 1.949663,0.002 2.734234,0.49437 6.575078,4.12498 12.595889,9.07509 18.972974,13.5 1.330325,0.92308 2.695905,1.79534 4.013512,2.73648 0.811596,0.57973 1.541759,1.27108 2.371622,1.82433 1.565036,3.40643 5.279114,3.08324 7.844594,4.74323 1.706335,1.10411 3.132322,2.59192 4.743243,3.83109 0.521364,0.40106 1.17678,0.6295 1.641893,1.09461 0.705247,0.70525 1.161706,1.62616 1.824324,2.37162 0.315539,0.35496 0.758756,0.57631 1.094594,0.91215 0.09615,0.0962 0.07365,0.28329 0.182433,0.36486 0.153842,0.11538 0.375298,0.0964 0.547298,0.18243 0.171998,0.086 0.360024,0.62106 0.182431,0.54732 -0.446622,-0.18553 -0.782656,-0.56833 -1.173986,-0.85249"
       id="path12570" />
    <path
       style="fill:none;stroke:#000000;stroke-width:0.499999;stroke-linejoin:bevel"
       d="m 42.333333,269.875 c -2.178124,1.74775 -4.892162,2.66782 -7.123875,4.32093 -0.327795,0.24281 -0.353007,0.73592 -0.547296,1.09461 -0.596389,1.10101 -1.34272,2.12794 -1.824325,3.28377 -0.140333,0.33682 0,0.72975 0,1.09461 0,2.15389 0.525227,1.85809 -1.087837,3.43524"
       id="path12572" />
    <path
       style="fill:none;stroke:#000000;stroke-width:0.499999;stroke-linejoin:bevel"
       d="m 47.624999,277.8125 c -1.986983,-0.64667 -2.037574,1.8025 -3.293919,2.22128 -0.508939,0.16965 -3.960897,0.39682 -4.925674,0.18243 -0.590336,-0.13118 -0.537001,-1.53892 -0.547299,-1.6419 -0.0063,-0.0628 -0.07439,-1.20261 0,-1.27701 0.318411,-0.31843 0.940875,-0.18243 1.277028,-0.18243 0.547296,0 1.127545,-0.18703 1.641893,0 1.659456,0.60343 0.846981,0.51686 1.824323,1.27701 0.823801,0.64074 1.735357,1.16938 2.554055,1.82433 0.0011,0 1.821981,1.22753 1.824323,1.6419 0.0024,0.43185 -0.236487,0.83071 -0.35473,1.24605"
       id="path12574" />
    <path
       style="fill:none;stroke:#000000;stroke-width:0.499999;stroke-linejoin:bevel"
       d="m 66.145832,238.125 c -4.811561,-7.10443 -7.427729,2.72357 -5.578265,3.7804 0.580784,0.33188 1.431292,0.34102 2.006756,0 1.183753,-0.70148 1.973974,-1.9187 2.91892,-2.91892 0.247399,-0.26187 0.601641,-0.50485 0.652589,-0.86148 0.08093,-0.56653 0.276464,-1.78848 -0.287726,-1.69257 -1.204846,0.20481 0.784558,1.92752 1.094597,3.28378 0.234191,1.02448 0.377214,7.58807 0.18243,8.75676 -0.05829,0.34976 -0.225348,0.76357 -0.547296,0.91216 -0.355748,0.16419 -4.96032,0.34755 -5.290542,0.18243 -0.164301,-0.0821 -1.757616,-1.51884 -0.443129,-0.85923"
       id="path12576" />
    <path
       style="fill:none;stroke:#000000;stroke-width:0.499999;stroke-linejoin:bevel"
       d="m 76.729166,232.83333 c -0.324991,6.15089 0.435977,12.36799 0,18.52083"
       id="path12578" />
    <path
       style="fill:none;stroke:#000000;stroke-width:0.499999;stroke-linejoin:bevel"
       d="m 71.437499,246.0625 c 3.872624,1.01821 0.958035,-0.15073 4.819256,6.60642 0.301707,0.52798 0.503023,1.60031 1.094594,1.45946 2.682222,-0.63863 3.776388,-4.62782 4.378381,-6.56757 0.158916,-0.51207 -0.351116,-1.4126 0.291102,-1.49831"
       id="path12580" />
    <path
       style="fill:none;stroke:#000000;stroke-width:0.499999;stroke-linejoin:bevel"
       d="m 44.979166,246.0625 c -1.180195,2.37984 -1.03872,2.30886 -2.472409,4.41723 -0.588307,0.86515 -1.243981,1.68353 -1.824326,2.55405 -0.150852,0.22628 -0.201692,0.51217 -0.364863,0.72973 -0.206399,0.2752 -0.514837,0.46111 -0.729732,0.72973 -0.358378,0.44797 -0.506502,1.0538 -0.912161,1.45946 -0.155038,0.15504 -0.37886,0.2245 -0.547296,0.36486 -0.1982,0.16517 -0.332632,0.40419 -0.547299,0.5473 -0.160004,0.10667 -0.422148,0.0364 -0.547296,0.18243 -0.26548,0.30973 -0.321019,0.75518 -0.547298,1.0946 -0.392033,0.58805 -0.828858,0.54625 -1.094595,1.27702 -0.146949,0.40411 -0.0078,0.8841 -0.182433,1.27703 -0.08905,0.20036 -0.410329,0.19366 -0.547296,0.36487 -0.07554,0.0944 -0.219061,0.69111 -0.266329,0.87669"
       id="path12582" />
    <path
       style="fill:none;stroke:#000000;stroke-width:0.499999;stroke-linejoin:bevel"
       d="m 44.979166,246.0625 c -0.763325,0.43862 -1.501894,0.92347 -2.289977,1.31588 -1.094594,0.48648 -2.189188,0.97297 -3.283783,1.45946 -0.304054,0.0608 -0.625443,0.0644 -0.912164,0.18243 -2.250985,0.92687 -4.019926,2.55405 -6.567567,2.55405 -0.243242,0 -0.486487,0 -0.729729,0 -0.182433,0.12162 -0.331025,0.32882 -0.547298,0.36487 -0.539851,0.09 -1.097309,-0.0545 -1.641891,0 -0.02019,0.002 -1.069596,0.71973 -1.094594,0.72973 -0.635336,0.25413 -0.392258,-0.16189 -1.094595,0.36486 -0.02666,0.02 -1.32866,1.07251 -1.277028,1.0946 0.284022,0.12147 0.611862,-0.0856 0.917793,-0.12838 0.467558,1.29529 1.902713,1.59657 2.730856,2.5 0.468514,0.51111 0.786755,1.15162 1.277027,1.64189 0.135977,0.13598 0.382401,0.0835 0.547298,0.18243 0.147487,0.0885 0.206772,0.29712 0.364864,0.36487 0.285005,0.12214 0.634823,0.0438 0.912163,0.18243 0.337728,0.16887 0.938655,1.62539 1.277027,1.45946 0.397768,-0.19506 0.552177,-0.69294 0.828265,-1.03941"
       id="path12584" />
    <path
       style="fill:none;stroke:#000000;stroke-width:0.499999;stroke-linejoin:bevel"
       d="m 39.6875,251.35416 c -1.742732,-6.33414 -1.194258,-2.84 -1.194258,-10.54335 0,-0.72973 0,-1.45946 0,-2.18919 0,-0.18243 -0.176427,-0.50088 0,-0.5473 0.385334,-0.10137 0.796171,0.0338 1.194258,0.0507"
       id="path12586" />
    <path
       style="fill:none;stroke:#000000;stroke-width:0.499999;stroke-linejoin:bevel"
       d="m 44.979166,232.83333 c -11.216161,-1.08178 -0.387673,-0.62406 -5.938626,0.13288 -0.609766,0.0832 -3.012696,0.17731 -3.283783,-0.36486 -0.228481,-0.45697 -0.588711,-2.60106 -0.182433,-2.73649 2.255986,-0.75199 4.334462,1.96284 5.655405,3.28378 0.304054,0.30406 0.681308,0.5494 0.912162,0.91217 0.206483,0.32447 0.144312,0.77951 0.364866,1.09459 0.183681,0.26241 1.654212,1.07734 1.094594,1.82433 -0.34149,0.45582 -0.845346,0.76351 -1.268018,1.14527"
       id="path12588" />
  </g>
</svg>
