<?xml version="1.0" encoding="UTF-8" standalone="no"?>
<!-- Created with Inkscape (http://www.inkscape.org/) -->

<svg
   width="235.26347mm"
   height="210.38632mm"
   viewBox="0 0 235.26347 210.38632"
   version="1.1"
   id="svg5"
   xml:space="preserve"
   inkscape:version="1.2.1 (9c6d41e410, 2022-07-14)"
   sodipodi:docname="raw_data_sampling.svg"
   inkscape:export-filename="raw_data_sampling.pdf"
   inkscape:export-xdpi="96"
   inkscape:export-ydpi="96"
   xmlns:inkscape="http://www.inkscape.org/namespaces/inkscape"
   xmlns:sodipodi="http://sodipodi.sourceforge.net/DTD/sodipodi-0.dtd"
   xmlns="http://www.w3.org/2000/svg"
   xmlns:svg="http://www.w3.org/2000/svg"><sodipodi:namedview
     id="namedview7"
     pagecolor="#ffffff"
     bordercolor="#000000"
     borderopacity="0.25"
     inkscape:showpageshadow="2"
     inkscape:pageopacity="0.0"
     inkscape:pagecheckerboard="0"
     inkscape:deskcolor="#d1d1d1"
     inkscape:document-units="mm"
     showgrid="false"
     inkscape:zoom="1.0255231"
     inkscape:cx="259.86739"
     inkscape:cy="314.47366"
     inkscape:window-width="1920"
     inkscape:window-height="1001"
     inkscape:window-x="-9"
     inkscape:window-y="-9"
     inkscape:window-maximized="1"
     inkscape:current-layer="figure_1" /><defs
     id="defs2"><inkscape:path-effect
       effect="bspline"
       id="path-effect17173"
       is_visible="true"
       lpeversion="1"
       weight="33.333333"
       steps="2"
       helper_size="0"
       apply_no_weight="true"
       apply_with_weight="true"
       only_selected="false" /><inkscape:path-effect
       effect="bspline"
       id="path-effect17169"
       is_visible="true"
       lpeversion="1"
       weight="33.333333"
       steps="2"
       helper_size="0"
       apply_no_weight="true"
       apply_with_weight="true"
       only_selected="false" /><inkscape:path-effect
       effect="bspline"
       id="path-effect17155"
       is_visible="true"
       lpeversion="1"
       weight="33.333333"
       steps="2"
       helper_size="0"
       apply_no_weight="true"
       apply_with_weight="true"
       only_selected="false" /><inkscape:path-effect
       effect="bspline"
       id="path-effect17151"
       is_visible="true"
       lpeversion="1"
       weight="33.333333"
       steps="2"
       helper_size="0"
       apply_no_weight="true"
       apply_with_weight="true"
       only_selected="false" /><inkscape:path-effect
       effect="bspline"
       id="path-effect17147"
       is_visible="true"
       lpeversion="1"
       weight="33.333333"
       steps="2"
       helper_size="0"
       apply_no_weight="true"
       apply_with_weight="true"
       only_selected="false" /><inkscape:path-effect
       effect="bspline"
       id="path-effect17131"
       is_visible="true"
       lpeversion="1"
       weight="33.333333"
       steps="2"
       helper_size="0"
       apply_no_weight="true"
       apply_with_weight="true"
       only_selected="false" /><inkscape:path-effect
       effect="bspline"
       id="path-effect17127"
       is_visible="true"
       lpeversion="1"
       weight="33.333333"
       steps="2"
       helper_size="0"
       apply_no_weight="true"
       apply_with_weight="true"
       only_selected="false" /><inkscape:path-effect
       effect="bspline"
       id="path-effect17123"
       is_visible="true"
       lpeversion="1"
       weight="33.333333"
       steps="2"
       helper_size="0"
       apply_no_weight="true"
       apply_with_weight="true"
       only_selected="false" /><inkscape:path-effect
       effect="bspline"
       id="path-effect17107"
       is_visible="true"
       lpeversion="1"
       weight="33.333333"
       steps="2"
       helper_size="0"
       apply_no_weight="true"
       apply_with_weight="true"
       only_selected="false" /><inkscape:path-effect
       effect="bspline"
       id="path-effect17095"
       is_visible="true"
       lpeversion="1"
       weight="33.333333"
       steps="2"
       helper_size="0"
       apply_no_weight="true"
       apply_with_weight="true"
       only_selected="false" /><inkscape:path-effect
       effect="bspline"
       id="path-effect17083"
       is_visible="true"
       lpeversion="1"
       weight="33.333333"
       steps="2"
       helper_size="0"
       apply_no_weight="true"
       apply_with_weight="true"
       only_selected="false" /><inkscape:path-effect
       effect="bspline"
       id="path-effect5216"
       is_visible="true"
       lpeversion="1"
       weight="33.333333"
       steps="2"
       helper_size="0"
       apply_no_weight="true"
       apply_with_weight="true"
       only_selected="false" /><rect
       x="-65.332512"
       y="28.278252"
       width="72.158295"
       height="38.029373"
       id="rect5118" /><rect
       x="-80.934311"
       y="117.01346"
       width="58.506729"
       height="30.228476"
       id="rect5101" /><rect
       x="-71.183189"
       y="211.59933"
       width="56.556503"
       height="44.85516"
       id="rect5087" /><rect
       x="203.79845"
       y="284.73273"
       width="130.66502"
       height="56.556503"
       id="rect4908" /><rect
       x="210.62422"
       y="288"
       width="112.1379"
       height="32.811893"
       id="rect4791" /><marker
       style="overflow:visible"
       id="Arrow1"
       refX="0"
       refY="0"
       orient="auto-start-reverse"
       inkscape:stockid="Arrow1"
       markerWidth="3.8535328"
       markerHeight="6.7071066"
       viewBox="0 0 3.8535327 6.7071068"
       inkscape:isstock="true"
       inkscape:collect="always"
       preserveAspectRatio="xMidYMid"><path
         style="fill:none;stroke:context-stroke;stroke-width:1;stroke-linecap:butt"
         d="M 3,-3 0,0 3,3"
         id="path5057"
         transform="rotate(180,0.125,0)"
         sodipodi:nodetypes="ccc" /></marker><inkscape:path-effect
       effect="bspline"
       id="path-effect4201"
       is_visible="true"
       lpeversion="1"
       weight="33.333333"
       steps="2"
       helper_size="0"
       apply_no_weight="true"
       apply_with_weight="true"
       only_selected="false" /><style
       type="text/css"
       id="style473">*{stroke-linecap:butt;stroke-linejoin:round;}</style><path
       d="m 459,3500 h 610 L 1581,525 3256,3500 h 610 L 1875,0 h -775 z"
       id="DejaVuSans-Oblique-76"
       transform="scale(0.015625)" /><path
       d="m 3175,2156 q 0,460 -200,703 -200,244 -575,244 -256,0 -489,-131 -233,-131 -414,-381 -178,-247 -285,-597 -106,-350 -106,-694 0,-437 200,-673 200,-236 569,-236 272,0 505,128 233,128 398,372 178,256 287,603 110,347 110,662 z m -1781,813 q 231,303 545,459 314,156 699,156 537,0 834,-352 297,-351 297,-985 0,-519 -185,-989 Q 3400,788 3053,416 2822,169 2531,39 2241,-91 1919,-91 1547,-91 1294,64 1041,219 916,525 L 556,-1331 H -19 l 941,4831 h 575 z"
       id="DejaVuSans-Oblique-70"
       transform="scale(0.015625)" /><path
       d="M 628,4666 H 3578 V 4134 H 1259 V 2753 H 3481 V 2222 H 1259 V 531 H 3634 V 0 H 628 Z"
       id="DejaVuSans-45"
       transform="scale(0.015625)" /><path
       d="m 3425,4513 v -616 q -359,172 -678,256 -319,85 -616,85 -515,0 -795,-200 -280,-200 -280,-569 0,-310 186,-468 186,-157 705,-254 l 381,-78 q 706,-135 1042,-474 336,-339 336,-907 0,-679 -455,-1029 -454,-350 -1332,-350 -331,0 -705,75 -373,75 -773,222 v 650 q 384,-215 753,-325 369,-109 725,-109 540,0 834,212 294,213 294,607 0,343 -211,537 -211,194 -692,291 l -385,75 q -706,140 -1022,440 -315,300 -315,835 0,619 436,975 436,356 1201,356 329,0 669,-60 341,-59 697,-177 z"
       id="DejaVuSans-53"
       transform="scale(0.015625)" /><path
       d="m 4122,4306 v -665 q -319,297 -680,443 -361,147 -767,147 -800,0 -1225,-489 -425,-489 -425,-1414 0,-922 425,-1411 425,-489 1225,-489 406,0 767,147 361,147 680,444 V 359 Q 3791,134 3420,21 3050,-91 2638,-91 1578,-91 968,557 359,1206 359,2328 q 0,1125 609,1773 610,649 1670,649 418,0 788,-111 371,-111 696,-333 z"
       id="DejaVuSans-43"
       transform="scale(0.015625)" /><path
       d="M -19,4666 H 3928 V 4134 H 2272 V 0 H 1638 V 4134 H -19 Z"
       id="DejaVuSans-54"
       transform="scale(0.015625)" /><path
       d="m 603,3500 h 575 V 0 H 603 Z m 0,1363 h 575 V 4134 H 603 Z"
       id="DejaVuSans-69"
       transform="scale(0.015625)" /><path
       d="m 3328,2828 q 216,388 516,572 300,184 706,184 547,0 844,-383 297,-382 297,-1088 V 0 h -578 v 2094 q 0,503 -179,746 -178,244 -543,244 -447,0 -707,-297 -259,-296 -259,-809 V 0 h -578 v 2094 q 0,506 -178,748 -178,242 -550,242 -441,0 -701,-298 -259,-298 -259,-808 V 0 H 581 v 3500 h 578 v -544 q 197,322 472,475 275,153 653,153 382,0 649,-194 267,-193 395,-562 z"
       id="DejaVuSans-6d"
       transform="scale(0.015625)" /><path
       d="M 3597,1894 V 1613 H 953 q 38,-594 358,-905 320,-311 892,-311 331,0 642,81 311,81 618,244 V 178 Q 3153,47 2828,-22 2503,-91 2169,-91 1331,-91 842,396 353,884 353,1716 q 0,859 464,1363 464,505 1252,505 706,0 1117,-455 411,-454 411,-1235 z m -575,169 q -6,471 -264,752 -258,282 -683,282 -481,0 -770,-272 -289,-272 -333,-766 z"
       id="DejaVuSans-65"
       transform="scale(0.015625)" /><path
       d="m 2834,3397 v -544 q -243,125 -506,187 -262,63 -544,63 -428,0 -642,-131 -214,-131 -214,-394 0,-200 153,-314 153,-114 616,-217 l 197,-44 q 612,-131 870,-370 258,-239 258,-667 0,-488 -386,-773 Q 2250,-91 1575,-91 1294,-91 989,-36 684,19 347,128 v 594 q 319,-166 628,-249 309,-82 613,-82 406,0 624,139 219,139 219,392 0,234 -158,359 -157,125 -692,241 l -200,47 q -534,112 -772,345 -237,233 -237,639 0,494 350,762 350,269 994,269 318,0 599,-47 282,-46 519,-140 z"
       id="DejaVuSans-73"
       transform="scale(0.015625)" /><path
       d="m 947,1747 q 0,-634 261,-995 261,-361 717,-361 456,0 718,361 263,361 263,995 0,634 -263,995 -262,361 -718,361 -456,0 -717,-361 Q 947,2381 947,1747 Z M 2906,525 Q 2725,213 2448,61 2172,-91 1784,-91 1150,-91 751,415 353,922 353,1747 q 0,825 398,1331 399,506 1033,506 388,0 664,-152 277,-151 458,-463 v 531 h 575 v -4831 h -575 z"
       id="DejaVuSans-71"
       transform="scale(0.015625)" /><path
       d="M 1259,2228 V 519 h 1013 q 509,0 754,211 246,211 246,645 0,438 -246,645 -245,208 -754,208 z m 0,1919 V 2741 h 935 q 462,0 688,173 227,174 227,530 0,353 -227,528 -226,175 -688,175 z m -631,519 h 1613 q 722,0 1112,-300 391,-300 391,-853 0,-429 -200,-682 -200,-253 -588,-315 466,-100 724,-418 258,-317 258,-792 0,-625 -425,-966 Q 3088,0 2303,0 H 628 Z"
       id="DejaVuSans-42"
       transform="scale(0.015625)" /><path
       d="m 628,4666 h 631 V 531 H 3531 V 0 H 628 Z"
       id="DejaVuSans-4c"
       transform="scale(0.015625)" /><clipPath
       id="p47f5a0d178"><rect
         height="48.933334"
         width="517.13959"
         x="48.06039"
         y="10.8"
         id="rect648" /></clipPath><clipPath
       id="p95deea2961"><rect
         height="48.933334"
         width="517.13959"
         x="48.06039"
         y="74.033333"
         id="rect651" /></clipPath><clipPath
       id="p40a57da567"><rect
         height="48.933334"
         width="517.13959"
         x="48.06039"
         y="137.26666"
         id="rect654" /></clipPath><rect
       x="203.79845"
       y="284.73273"
       width="130.66502"
       height="56.556503"
       id="rect5077" /><rect
       x="203.79845"
       y="284.73273"
       width="238.90248"
       height="78.008972"
       id="rect5212" /><rect
       x="203.79845"
       y="284.73273"
       width="157.96815"
       height="57.531616"
       id="rect8181" /><rect
       x="203.79845"
       y="284.73273"
       width="142.36636"
       height="59.481838"
       id="rect8245" /><rect
       x="203.79845"
       y="284.73273"
       width="142.36636"
       height="59.481838"
       id="rect8947" /><rect
       x="203.79845"
       y="284.73273"
       width="142.36636"
       height="59.481838"
       id="rect8959" /><inkscape:path-effect
       effect="bspline"
       id="path-effect3098"
       is_visible="true"
       lpeversion="1"
       weight="33.333333"
       steps="2"
       helper_size="0"
       apply_no_weight="true"
       apply_with_weight="true"
       only_selected="false" /><inkscape:path-effect
       effect="bspline"
       id="path-effect3098-5"
       is_visible="true"
       lpeversion="1"
       weight="33.333333"
       steps="2"
       helper_size="0"
       apply_no_weight="true"
       apply_with_weight="true"
       only_selected="false" /><rect
       x="203.79845"
       y="284.73273"
       width="297.40918"
       height="36.079147"
       id="rect17187" /></defs><g
     inkscape:label="Ebene 1"
     inkscape:groupmode="layer"
     id="layer1"
     transform="translate(-4.1435097,10.819937)"><g
       id="figure_1"
       transform="scale(0.35277778)"><g
         id="patch_2"
         transform="translate(54,1.5000001)"><path
           d="M 48.060391,59.733333 H 565.2 V 10.8 H 48.060391 Z"
           style="fill:#ffffff"
           id="path480" /></g><g
         id="patch_3"
         transform="translate(54,1.5000001)"><path
           clip-path="url(#p47f5a0d178)"
           d="M 80.350872,59.733333 V 10.8 h 10.497041 v 48.933333 z"
           style="opacity:0.3;fill:#008000;stroke:#008000;stroke-linejoin:miter"
           id="path483" /></g><g
         id="patch_4"
         transform="translate(54,1.5000001)"><path
           clip-path="url(#p47f5a0d178)"
           d="M 119.7038,59.733333 V 10.8 h 9.96999 v 48.933333 z"
           style="opacity:0.3;fill:#008000;stroke:#008000;stroke-linejoin:miter"
           id="path486" /></g><g
         id="patch_5"
         style="fill:#ff2a2a;fill-opacity:1;stroke:#ff2a2a"
         transform="translate(54,1.5000001)"><path
           clip-path="url(#p47f5a0d178)"
           d="M 173.63839,59.733333 V 10.8 h 15.15263 v 48.933333 z"
           style="opacity:0.3;fill:#ff2a2a;fill-opacity:1;stroke:#ff2a2a;stroke-linejoin:miter"
           id="path489" /></g><g
         id="patch_6"
         style="fill:#ff2a2a;fill-opacity:1;stroke:#ff2a2a"
         transform="translate(54,1.5000001)"><path
           clip-path="url(#p47f5a0d178)"
           d="M 284.05497,59.733333 V 10.8 h 25.60575 v 48.933333 z"
           style="opacity:0.3;fill:#ff2a2a;fill-opacity:1;stroke:#ff2a2a;stroke-linejoin:miter"
           id="path492" /></g><g
         id="patch_7"
         transform="translate(54,1.5000001)"><path
           clip-path="url(#p47f5a0d178)"
           d="M 509.28019,59.733333 V 10.8 h 23.67325 v 48.933333 z"
           style="opacity:0.3;fill:#008000;stroke:#008000;stroke-linejoin:miter"
           id="path495" /></g><g
         id="matplotlib.axis_1"
         transform="translate(-6,61.5)" /><g
         id="line2d_1"
         transform="translate(54,1.5000001)"><path
           clip-path="url(#p47f5a0d178)"
           d="m 71.566737,21.260078 0.395286,-0.07556 0.307444,-0.151116 0.175683,-0.07556 0.131762,-0.05667 0.131762,0.09445 0.04392,0.09445 0.04392,-0.03778 0.175683,-0.05667 0.746652,-0.207785 0.439206,-0.07556 0.08784,-0.05667 0.08784,0.566686 0.04392,-0.321122 0.04392,-0.321122 0.08784,0.05667 0.263524,0.03778 0.263524,-0.09445 0.131762,-0.132226 0.04392,-0.113338 0.08784,0.396681 0.04392,-0.264454 0.131762,-0.340011 0.131762,0.03778 0.04392,-0.05667 0.04392,0.07556 0.04392,0.05667 0.04392,-0.113337 0.04392,-0.113338 0.04392,0.05667 0.131762,0.113337 0.175683,-0.264453 0.04392,0.07556 0.131762,0.113337 0.175683,-0.226674 0.04392,0.151116 0.04392,0.151116 0.04392,-0.07556 0.04392,-0.09445 0.04392,0.09445 0.131762,0.07556 0.08784,-0.358901 0.04392,0.151116 0.04392,0.151117 0.04392,-0.09445 0.131762,-0.245564 0.04392,0.07556 0.04392,0.05667 0.04392,-0.113337 0.04392,-0.113338 0.04392,0.09445 0.08784,0.05667 0.04392,-0.03778 0.219604,-0.07556 0.219603,-0.207784 0.131762,-0.07556 0.131762,-0.170005 0.04392,0.03778 0.439206,0.07556 0.219604,-0.03778 0.08784,-0.547797 0.04392,0.188896 0.04392,0.207784 0.08784,-0.03778 0.08784,-0.05667 0.04392,0.05667 0.175683,0.05667 0.351365,-0.264453 0.04392,-0.07556 0.08784,0.528907 0.04392,-0.302232 0.131762,-0.340012 0.65881,-0.09445 0.263524,-0.09445 0.527048,0.321122 h 0.131762 l 0.08784,-0.528907 0.04392,0.207785 0.131762,0.264453 0.131762,0.132227 0.175683,0.132227 0.08784,0.05667 0.219604,0.132227 0.131762,-0.03778 h 0.131762 l 0.175682,0.07556 0.219604,0.188896 0.307444,0.132226 0.131762,0.07556 0.08784,0.03778 0.04392,-0.03778 0.70273,0.472239 0.175683,-0.07556 0.131762,0.01889 0.04392,-0.03778 0.04392,0.07556 0.307445,0.39668 0.219604,-0.05667 0.395286,0.07556 0.65881,0.698913 0.307444,0.07556 0.527049,0.321122 h 0.219603 l 0.04392,0.07556 0.04392,-0.07556 0.08784,-0.03778 0.04392,0.03778 0.439207,0.415569 0.263524,0.09445 0.08784,0.358901 0.04392,-0.170006 0.04392,-0.188895 0.08784,0.09445 0.439207,0.302232 0.219603,0.09445 0.04392,-0.01889 0.08784,-0.528906 0.04392,0.264453 0.131762,0.321122 0.65881,0.434459 0.08784,0.07556 0.04392,0.09445 0.04392,-0.07556 0.04392,-0.07556 0.04392,0.03778 0.439207,0.39668 0.351365,0.07556 0.04392,-0.05667 0.08784,0.358901 0.04392,-0.170006 0.131762,-0.245564 0.263524,0.207785 h 0.175683 l 0.08784,0.113337 0.04392,-0.05667 0.351365,-0.188895 0.483128,0.132227 0.175683,-0.132227 0.175682,-0.151116 0.08784,0.358901 0.04392,-0.207785 0.131762,-0.264453 0.395286,0.05667 0.04392,0.05667 0.04392,-0.03778 0.263524,-0.41557 0.04392,-0.226674 0.04392,0.170005 0.04392,0.151117 0.08784,-0.05667 0.483128,0.132227 0.395286,-0.207785 0.395286,0.09445 0.175683,-0.01889 0.263524,-0.188895 0.04392,-0.07556 0.08784,0.453348 0.04392,-0.245563 0.131762,-0.283343 0.219604,0.09445 0.219603,-0.01889 0.08784,0.09445 0.04392,-0.05667 0.175683,-0.302233 0.04392,-0.264453 0.04392,0.170006 0.131762,0.188895 0.65881,-0.09445 0.702731,-0.188895 0.527048,-0.01889 0.131762,-0.188895 0.04392,0.01889 0.351363,0.03778 0.26352,-0.09445 0.0439,-0.09445 0.0439,0.03778 0.0439,0.03778 0.0439,-0.09445 0.17569,-0.132227 0.61489,-0.09445 0.0439,-0.07556 0.0878,-0.868918 0.0439,0.415569 0.0878,0.396681 0.0439,-0.01889 0.13176,0.05667 0.13177,0.01889 0.2196,0.01889 0.17568,-0.03778 0.35137,-0.340012 h 0.26352 l 0.26353,-0.09445 0.48312,-0.302232 0.17568,0.03778 0.39529,-0.283343 0.30745,-0.321122 0.26352,-0.07556 1.09802,-0.81225 0.26352,-0.188895 0.0439,-0.09445 0.0878,-0.717802 0.0439,0.264453 0.0439,0.264454 0.0879,-0.05667 0.26352,-0.09445 0.35136,-0.245563 0.0878,-0.151117 0.0439,0.03778 0.0439,0.03778 0.0439,-0.09445 0.2196,-0.245564 0.26353,-0.09445 0.61489,-0.547796 0.0439,0.07556 0.0439,0.07556 0.0439,-0.09445 0.0439,-0.113337 0.0878,0.03778 0.35137,-0.547796 0.0439,0.151116 0.0439,0.170006 0.0439,-0.264454 0.13176,-0.321122 0.17568,-0.07556 0.17568,-0.07556 0.17569,0.01889 0.13176,-0.41557 0.0439,-0.264454 0.0439,0.170006 0.0439,0.170006 0.0439,-0.07556 0.0439,-0.07556 0.0439,0.113337 0.13177,0.113337 0.13176,-0.151116 0.0439,-0.113337 0.0439,0.05667 h 0.13176 l 0.0878,-0.01889 0.17568,-0.321122 0.0439,0.07556 0.0439,0.07556 0.0439,-0.09445 0.0439,-0.113337 0.0439,0.07556 0.17568,0.113337 0.30744,-0.07556 0.0879,-0.09445 0.0439,0.05667 0.0439,0.03778 0.0439,-0.07556 0.13176,-0.113337 0.74665,-0.07556 0.17569,-0.188896 0.35136,0.03778 0.2196,-0.07556 0.0879,-0.680023 0.0439,0.264454 0.13176,0.283343 0.2196,-0.01889 0.0439,0.05667 0.0439,-0.05667 h 0.13176 l 0.13177,-0.05667 0.2196,-0.188896 0.43921,0.07556 0.26352,-0.09445 0.43921,-0.113337 0.13176,0.03778 0.17568,-0.03778 0.13176,-0.05667 0.26353,-0.188895 0.2196,0.07556 h 0.0878 l 0.61489,-0.39668 0.35137,0.170005 0.0878,0.01889 0.13176,0.03778 0.26352,-0.340012 0.0439,0.07556 0.0878,0.03778 0.0439,-0.03778 0.0878,0.09445 0.0439,-0.05667 0.13176,-0.09445 0.17568,-0.01889 0.57097,-0.132226 h 0.26353 l 0.13176,-0.151117 0.0878,0.283343 0.0439,-0.170005 0.13176,-0.188896 0.48313,0.321122 0.13176,-0.113337 0.0878,0.41557 0.0439,-0.226675 0.13176,-0.226674 0.61489,0.264453 0.0878,0.41557 0.0439,-0.207785 0.0439,-0.188895 0.0878,0.05667 0.2196,0.207784 0.26353,0.132227 0.13176,-0.09445 0.0878,0.170005 0.0439,-0.132226 0.0439,-0.132227 0.0439,0.05667 0.52705,0.321123 h 0.13176 l 0.0879,-0.547797 0.0439,0.283343 0.17568,0.41557 0.13176,0.170006 0.26353,0.207784 0.17568,0.05667 0.0878,-0.453349 0.0439,0.226675 0.17568,0.358901 0.0878,0.09445 0.21961,0.226675 0.26352,0.245564 0.0878,0.09445 0.0439,-0.05667 0.0439,-0.03778 0.0439,0.09445 0.79058,1.530052 0.17568,0.226675 0.74665,1.6245 0.17568,0.283343 0.13177,0.283343 0.48312,1.265598 0.35137,0.604465 0.79057,1.737837 0.0878,0.717803 0.0439,-0.188896 0.0439,-0.188895 0.0878,0.09445 0.52705,1.416714 0.39529,0.547797 0.13176,0.05667 0.57097,0.604466 0.17568,0.207784 0.13176,0.07556 0.0878,0.132227 0.0439,-0.05667 0.0439,-0.05667 0.0439,0.03778 0.17568,0.03778 0.17568,-0.07556 0.0439,-0.05667 0.0439,0.05667 h 0.0879 l 0.2196,-0.283343 0.0439,0.03778 0.0439,0.05667 0.0439,-0.03778 0.13176,-0.09445 0.0439,0.05667 0.21961,0.245563 0.0439,-0.05667 0.0439,-0.05667 0.0439,0.03778 0.26352,0.09445 h 0.17569 l 0.0439,0.05667 0.0439,-0.07556 0.17568,-0.132226 0.13176,0.07556 0.13176,0.03778 0.13177,-0.01889 0.26352,0.03778 0.0878,-0.170005 0.0439,0.07556 0.0439,0.05667 0.0439,-0.09445 0.13176,-0.170006 0.0439,0.01889 0.52704,0.113337 0.17569,-0.07556 0.0439,-0.05667 0.0878,0.302232 0.0439,-0.188895 0.13176,-0.207785 0.57097,0.151117 0.2196,-0.113338 0.0878,0.321122 0.0439,-0.207784 0.13176,-0.264454 0.2196,0.09445 0.13176,-0.01889 0.35137,-0.07556 0.0878,-0.113337 0.0878,0.434459 0.0439,-0.245564 0.0439,-0.226674 0.0878,0.01889 0.21961,0.07556 0.13176,0.05667 0.13176,-0.07556 0.17568,-0.05667 0.0879,-0.05667 0.0439,-0.07556 0.0439,0.05667 0.0439,0.05667 0.0439,-0.07556 0.21961,-0.113337 0.2196,0.07556 0.87842,-0.340012 0.13176,0.132227 0.17568,-0.05667 0.35137,-0.05667 0.17568,-0.245564 0.13176,0.07556 0.13177,0.01889 0.2196,-0.09445 0.74665,-0.264454 0.17568,0.09445 0.35137,-0.05667 0.13176,-0.358901 0.0439,-0.226674 0.0439,0.170006 0.13176,0.151116 0.17569,0.01889 h 0.26352 l 0.17568,-0.07556 0.17569,-0.170006 0.0439,0.05667 0.0439,0.03778 0.0439,-0.09445 0.13176,-0.07556 0.61489,-0.09445 0.48313,-0.113338 0.30744,0.01889 0.2196,0.09445 h 0.0879 l 0.17568,-0.358901 0.0439,-0.132227 0.0439,0.05667 0.0439,0.07556 0.0439,-0.03778 h 0.13176 l 0.0878,0.151116 0.0439,-0.03778 0.17568,-0.01889 0.70273,-0.207785 0.2196,0.01889 0.65881,-0.453349 0.30745,0.170006 0.30744,-0.226675 0.13176,-0.07556 0.0879,-0.661133 0.0439,0.264453 0.13176,0.264454 0.0878,-0.132227 0.0439,0.03778 0.13176,0.05667 0.0878,-0.09445 0.0439,0.03778 0.17569,0.09445 0.13176,-0.07556 0.35136,-0.245563 0.21961,0.132226 0.2196,-0.07556 h 0.2196 l 0.0439,-0.05667 0.0878,-0.566686 0.0439,0.245564 0.0439,0.226674 0.0878,-0.03778 0.13176,0.05667 0.17568,0.05667 0.87842,-0.264453 0.4392,-0.09445 0.17569,-0.03778 0.0439,0.07556 0.0439,-0.09445 0.13176,-0.09445 0.13176,0.07556 0.21961,-0.07556 0.35136,-0.09445 0.30745,-0.151116 0.26352,0.09445 0.17568,-0.09445 0.30745,-0.151117 0.0878,0.113338 0.0439,-0.09445 0.13176,-0.09445 0.13176,0.01889 0.17569,-0.01889 0.39528,-0.264453 0.0439,0.113337 0.0439,0.09445 0.0439,-0.09445 0.13177,-0.170006 0.17568,0.132227 0.0878,-0.188895 0.0439,0.09445 0.0439,0.07556 0.0439,-0.07556 0.13176,-0.09445 0.17569,-0.09445 0.0878,-0.358901 0.0439,0.132227 0.13176,0.226674 0.0439,-0.01889 0.0878,0.01889 0.17569,0.07556 0.4392,-0.132227 0.0878,0.05667 0.0439,-0.03778 0.35137,-0.39668 0.17568,0.623354 0.17569,-0.680023 0.0878,0.41557 0.0439,-0.207785 0.13176,-0.245564 0.0878,0.226675 0.0439,-0.09445 0.0439,-0.113337 0.0439,0.05667 0.13176,0.01889 0.13177,0.05667 0.0439,0.05667 0.0439,-0.113337 0.0439,-0.132227 0.0439,0.05667 0.0439,0.05667 0.0878,-0.302232 0.0439,0.05667 0.13176,0.188896 0.0879,-0.321122 0.0878,0.113337 0.2196,-0.01889 0.17568,0.01889 0.26353,-0.188895 0.0878,0.151116 0.0439,0.113337 0.0439,-0.188895 0.0439,-0.207785 0.0878,0.01889 0.0878,-0.151116 0.0439,0.03778 0.13177,0.05667 0.4392,-0.302233 0.0878,0.358901 0.0439,-0.170005 0.17569,-0.245564 0.13176,0.01889 0.30745,-0.09445 0.17568,-0.09445 h 0.0439 l 0.0439,0.358901 0.0439,-0.151116 0.17568,-0.283343 0.35137,-0.07556 0.35136,-0.170006 0.13176,-0.03778 0.21961,-0.226675 0.17568,0.170006 0.0439,-0.03778 0.35137,-0.170006 0.17568,0.188896 0.0439,0.07556 0.0439,-0.113337 0.0878,-0.245564 0.0878,0.03778 0.21961,0.05667 0.13176,-0.07556 0.35136,-0.226674 0.17569,0.01889 0.57097,-0.264453 0.0878,-0.358901 0.0439,0.170005 0.13176,0.226675 h 0.2196 l 0.13177,0.01889 0.2196,-0.188895 0.13176,-0.01889 0.0439,0.151116 0.0439,-0.113337 0.13176,-0.113338 0.74666,-0.340011 0.0439,0.113337 0.0439,0.09445 0.0439,-0.132227 1.14194,-0.377791 0.2196,-0.01889 0.26352,-0.188896 0.35137,0.05667 0.0439,-0.05667 0.0439,0.03778 0.13176,-0.01889 0.79057,-0.226674 0.26353,0.01889 0.2196,-0.113337 h 0.0439 l 0.13176,-0.604465 0.0439,0.302232 0.0879,0.302233 0.0439,-0.01889 0.2196,0.01889 0.2196,-0.09445 0.17569,-0.05667 h 0.70273 l 0.0439,-0.113337 0.0439,0.03778 0.13176,0.03778 0.0439,-0.01889 0.0878,-0.39668 0.0439,0.226674 0.17569,0.302233 0.65881,0.05667 0.13176,0.170006 0.13176,0.03778 0.35137,0.170006 h 0.0878 l 0.17568,0.151116 0.0439,-0.39668 0.0439,0.170006 0.2196,0.491128 0.61489,0.321122 0.13177,0.585575 0.0439,-0.39668 0.0878,0.03778 0.26352,0.226675 0.43921,0.39668 0.0878,0.132227 0.74665,1.378935 0.17568,0.188896 0.70273,1.511162 0.26353,0.528907 0.0878,0.528907 0.0439,-0.283343 0.30745,0.642244 0.17568,0.39668 0.26352,0.358901 0.21961,0.491128 0.2196,0.453349 0.26352,0.472238 0.43921,0.661134 0.0439,-0.09445 0.35137,0.963367 0.0878,0.132226 0.52705,0.887808 0.30744,0.510018 0.35137,0.717802 0.17568,0.188895 0.35136,0.528907 0.0878,-0.188895 0.26353,0.887808 0.96625,1.416715 0.65881,1.171151 0.39529,0.566686 0.0439,0.434459 0.0878,-0.151116 0.21961,0.302232 0.65881,0.925587 0.2196,0.283343 0.0439,0.264454 0.0878,-0.05667 0.0439,-0.01889 0.17569,0.340011 0.2196,0.302233 0.30744,0.321122 0.21961,0.321122 0.13176,0.151116 0.0439,-0.03778 0.0439,-0.03778 0.17568,0.528907 0.48313,0.642244 0.61489,0.642244 0.2196,0.188895 0.70273,0.491128 0.17569,0.09445 0.17568,0.03778 0.0878,-0.245564 0.2196,0.661134 0.43921,0.491127 0.0439,-0.03778 0.0878,-0.09445 0.0439,0.07556 0.35137,0.321122 0.13176,0.05667 0.0878,0.207785 0.0439,-0.188895 0.0439,0.07556 0.21961,0.113337 h 0.13176 l 0.0439,-0.132226 0.0878,0.03778 0.0878,-0.01889 0.17568,-0.07556 0.39529,-0.05667 1.14194,-0.09445 0.83449,-0.245564 0.43921,-0.07556 0.26352,-0.113338 0.17568,0.01889 0.26353,-0.01889 0.17568,0.03778 0.35137,-0.05667 0.30744,-0.226674 0.17568,0.01889 0.0879,0.07556 0.13176,-0.151116 0.13176,0.01889 0.13176,-0.01889 0.87841,-0.453349 0.0439,-0.09445 0.13176,0.226674 h 0.26352 l 0.52705,-0.113337 0.2196,-0.07556 0.13177,-0.01889 0.17568,-0.03778 0.13176,-0.05667 0.79057,-0.07556 0.26353,-0.170006 0.0878,0.358902 0.0439,-0.226675 0.13176,-0.226674 0.26352,0.09445 0.35137,-0.07556 0.2196,-0.170005 0.21961,-0.151117 0.0878,0.43446 0.0439,-0.245564 0.0439,-0.245564 0.0878,0.05667 0.17568,0.03778 0.8345,-0.245564 0.61489,-0.09445 0.17568,-0.03778 0.17568,-0.05667 0.26353,-0.188895 0.13176,0.03778 0.0439,0.340011 0.0439,-0.132226 0.17568,-0.321122 0.0878,0.05667 0.0439,-0.03778 0.35137,-0.03778 0.35136,-0.07556 0.21961,-0.113337 0.0439,0.188895 0.0439,-0.07556 0.17568,-0.302233 0.13176,0.09445 0.17569,0.03778 0.13176,-0.05667 0.17568,-0.07556 0.2196,-0.09445 0.52705,-0.113337 0.8345,-0.03778 0.17568,-0.321122 0.17568,0.245563 1.01018,-0.340011 0.13176,0.226674 0.0439,-0.113337 0.13176,-0.170006 0.52705,0.41557 0.13176,-0.302233 0.0878,0.05667 h 0.0878 l 0.13177,-0.113337 0.0878,0.05667 0.0439,-0.03778 0.61489,-0.170005 0.17568,-0.03778 0.39529,-0.207785 0.0439,0.39668 0.0439,-0.151116 0.2196,-0.358902 0.57097,-0.05667 0.0439,-0.132227 0.0878,0.03778 0.83449,-0.245564 0.21961,-0.01889 0.26352,-0.113337 0.21961,-0.05667 0.0439,0.170006 0.0439,-0.151116 0.0878,-0.151117 0.0439,0.01889 0.74665,-0.09445 0.26352,-0.132227 0.0879,0.132227 0.13176,-0.170006 0.74665,-0.07556 0.2196,-0.132227 0.0439,-0.01889 0.0878,-0.453349 0.0439,0.170006 0.17568,0.245564 0.87841,-0.340012 0.0878,-0.604465 0.0439,0.188896 0.17569,0.39668 0.17568,-0.03778 0.26352,-0.01889 0.17569,-0.03778 0.30744,-0.226674 0.0878,-0.661134 0.0439,0.207785 0.13176,0.39668 0.0439,-0.01889 0.57096,-0.09445 0.39529,-0.226674 0.0439,-0.377791 0.0439,0.170006 0.17568,0.207785 0.48313,-0.09445 0.52705,-0.151116 0.0439,0.05667 0.13176,-0.207785 0.35137,0.03778 0.4392,-0.07556 0.21961,-0.09445 0.0878,0.07556 0.0439,-0.09445 0.13176,-0.07556 0.70273,-0.09445 0.13176,-0.07556 0.0879,-0.321122 0.0439,0.09445 0.17568,0.188895 0.61489,-0.09445 0.74665,-0.207784 0.17568,-0.03778 0.30745,-0.05667 0.13176,-0.05667 0.30744,-0.05667 0.0439,-0.07556 0.0878,0.05667 0.74665,-0.07556 0.13176,-0.188895 0.0439,0.03778 0.0878,0.07556 0.13176,-0.151116 0.30745,0.01889 0.26352,-0.09445 0.17569,-0.07556 0.13176,-0.05667 0.17568,-0.07556 0.2196,-0.03778 0.0879,0.09445 0.13176,-0.170005 0.4392,-0.09445 0.21961,-0.170006 0.0439,0.07556 0.0439,0.05667 0.0439,-0.207785 0.0878,0.03778 0.17568,-0.03778 0.43921,-0.09445 0.48313,-0.302232 0.61489,-0.07556 0.35136,-0.264454 0.0439,-0.585575 0.0439,0.302232 0.13177,0.321122 0.0878,-0.03778 h 0.0878 l 0.0439,0.05667 0.0439,-0.09445 h 0.2196 l 0.48313,-0.434459 0.0439,-0.170006 0.0439,0.132227 0.13176,0.113337 0.39529,-0.09445 0.48313,-0.302232 0.0878,-0.264454 0.0439,0.151117 0.13176,0.132226 0.52705,-0.07556 0.35137,-0.434459 0.0878,-0.491128 0.13176,0.604465 0.17568,0.01889 h 0.13176 l 1.75683,-0.755582 0.0439,0.207785 0.0439,-0.132226 0.13176,-0.132227 0.48313,-0.09445 0.30745,-0.226674 0.2196,-0.170006 0.26352,0.01889 2.63524,-1.057814 0.0879,0.05667 0.17568,-0.283343 0.0439,0.41557 0.0439,-0.226674 0.0439,-0.245564 0.0878,0.03778 0.2196,0.03778 0.17569,-0.09445 0.2196,-0.07556 0.2196,-0.170006 0.0879,-0.717802 0.13176,0.661134 0.30744,-0.09445 1.2737,-0.434459 0.43921,-0.09445 0.13176,-0.01889 0.43921,0.132226 0.4392,-0.566686 0.0439,0.07556 0.0439,0.07556 0.13176,-0.207785 h 0.2196 l 0.0878,-0.05667 0.0439,0.113337 0.0439,-0.03778 0.17569,-0.05667 0.26352,-0.01889 0.0878,0.132227 0.0878,-0.453349 0.0439,0.151116 0.0439,0.151117 0.0439,-0.05667 0.35136,-0.283343 0.13176,0.03778 0.0439,-0.188895 0.0878,0.05667 0.39529,-0.340011 0.13176,-0.03778 0.17569,-0.01889 0.35136,-0.245564 0.30745,-0.245564 0.17568,0.05667 0.13176,-0.151116 0.0439,0.05667 0.0439,0.05667 0.0439,-0.05667 0.52705,-0.528907 0.39529,0.283343 0.0439,0.03778 0.13176,-0.283343 0.30744,-0.151116 0.0439,-0.472238 0.0439,0.151116 0.17568,0.283343 0.0878,0.09445 0.0439,-0.05667 0.48313,-0.264453 0.0439,-0.132227 0.0878,0.07556 0.0439,0.03778 0.0439,-0.05667 0.2196,-0.170006 0.65882,-0.321122 0.0878,-0.434459 0.0439,0.09445 0.17568,0.170006 0.0878,0.01889 0.0439,-0.151117 0.0439,0.07556 0.17568,0.07556 0.13177,-0.151117 0.2196,-0.09445 0.0878,-0.07556 0.0439,0.132227 0.0439,-0.07556 0.21961,-0.132227 0.17568,-0.01889 0.39528,-0.245564 0.0879,-0.264454 0.0878,-0.37779 0.13176,0.434459 0.48313,-0.05667 0.17568,-0.113337 0.39529,-0.207785 0.26352,-0.07556 0.30744,-0.226674 0.0439,0.03778 0.0439,-0.07556 0.0439,-0.09445 0.0439,0.03778 0.0878,0.07556 0.13176,-0.151116 0.43921,-0.09445 0.61489,-0.39668 0.39528,-0.09445 0.26353,-0.188896 0.0878,-0.566686 0.13176,0.491128 0.48313,-0.07556 0.26352,-0.226674 0.0439,-0.510018 0.0439,0.151117 0.17569,0.302232 0.48312,-0.09445 0.17569,-0.170005 0.0878,-0.604465 0.0439,0.207784 0.17568,0.283343 0.35137,-0.07556 0.35136,-0.415569 0.0439,-0.264454 0.0439,0.151116 0.0878,0.302233 0.0879,-0.03778 1.22977,-0.41557 h 0.0879 l 0.17568,-0.207785 0.13176,-0.09445 0.13176,0.453348 0.0439,-0.491127 0.0878,0.132226 0.13177,-0.05667 0.17568,-0.113338 0.13176,0.170006 h 0.0439 l 0.0439,-0.453349 0.0878,0.09445 h 0.0879 l 0.0439,-0.03778 0.0439,-0.226674 0.0878,0.07556 0.52705,-0.07556 0.2196,-0.151117 0.13176,0.01889 0.21961,-0.05667 0.30744,-0.07556 0.26352,-0.226674 0.13177,-0.01889 0.13176,-0.03778 0.13176,-0.07556 0.0439,0.151116 0.0878,-0.07556 0.0878,0.05667 0.0439,-0.05667 0.17568,-0.170006 0.0439,0.05667 0.0439,-0.05667 0.17568,-0.09445 0.17568,-0.113337 0.0879,0.05667 0.0439,-0.03778 0.2196,-0.05667 0.26352,-0.491128 0.0439,-0.188896 0.0439,0.170006 0.13177,0.151116 0.65881,-0.09445 0.0439,-0.113337 0.0439,0.113337 0.0439,0.113337 0.0439,-0.07556 0.13176,-0.245564 0.0439,0.09445 0.0439,0.07556 0.0439,-0.07556 0.13177,-0.05667 0.13176,0.01889 0.30744,-0.717803 0.26353,0.510018 0.0439,-0.113338 0.0439,-0.132226 0.0439,0.05667 0.17568,0.05667 0.0439,-0.132227 0.0878,0.07556 0.35137,-0.283343 0.0439,0.07556 0.13176,0.05667 0.17568,0.01889 0.0439,0.03778 0.13176,-0.170006 0.17568,-0.132227 0.0878,-0.661133 0.0439,0.264453 0.0878,0.264453 0.0439,-0.01889 1.44939,-0.566686 0.0439,0.07556 0.0439,-0.132227 0.0439,-0.132226 0.0439,0.05667 0.13176,-0.01889 0.48313,-0.07556 0.35136,-0.170006 h 0.26353 l 0.26352,0.03778 0.26353,-0.661134 0.0439,-0.340011 0.0439,0.283343 0.0439,0.264453 0.0878,-0.03778 0.57097,-0.07556 0.0439,-0.170006 0.0439,0.05667 0.0878,0.03778 0.0439,-0.03778 0.43921,-0.09445 0.43921,-0.39668 0.17568,-0.03778 0.61489,-0.09445 0.30744,-0.170006 h 0.2196 l 0.70274,-0.188895 0.2196,-0.07556 0.61489,-0.39668 0.57097,-0.07556 0.17568,-0.264454 0.0439,-0.09445 0.0439,0.07556 0.13176,0.170005 0.0439,-0.113337 0.0439,-0.132227 0.0439,0.170006 0.0439,0.188896 0.0439,-0.05667 0.13176,-0.132227 0.0878,0.283343 0.0439,-0.132227 0.17568,-0.321122 0.21961,0.453349 0.0439,-0.132227 0.0439,-0.132226 0.0439,0.321122 0.0439,-0.09445 0.0439,-0.113337 0.0878,0.03778 0.0878,0.113337 0.0439,0.09445 0.0439,-0.264454 0.0878,0.09445 0.35136,0.321122 0.0878,0.07556 0.17569,0.113337 0.52704,0.585576 0.70273,1.907843 0.0879,-0.113337 0.0439,0.113337 0.57097,1.378936 0.0439,0.05667 0.0439,0.736692 0.0878,-0.188895 0.0439,-0.09445 0.0439,0.09445 1.53722,3.664569 1.14194,2.587866 0.0439,-0.132227 0.0439,-0.151116 0.17569,0.906697 0.74665,1.681169 0.0439,-0.113337 0.0439,-0.113338 0.35136,1.20893 0.61489,1.284489 0.30745,0.566686 0.70273,1.530052 0.13176,0.188895 0.0878,-0.510017 0.2196,1.057813 0.17569,0.510018 0.4392,0.887808 0.17569,0.113337 0.13176,0.283343 0.0439,0.03778 0.17568,0.39668 0.48313,0.982256 0.57097,0.831139 0.2196,0.642244 1.53723,2.757872 0.17568,0.358901 0.2196,0.264454 0.0439,0.01889 0.21961,0.377791 0.17568,0.41557 0.0878,-0.07556 0.0439,-0.03778 0.2196,0.510018 0.21961,0.132226 0.26352,0.453349 0.39529,0.377791 0.0878,-0.39668 0.0439,0.207785 0.26352,0.736691 0.26353,0.358901 0.39528,0.491128 0.13177,0.245564 0.26352,0.170006 0.0878,0.03778 0.13176,0.188895 0.0878,0.151117 1.14194,1.416715 0.0878,-0.377791 0.17569,0.661134 0.13176,0.188895 0.2196,0.377791 1.0541,1.416714 0.0439,-0.09445 0.0439,-0.09445 0.0439,0.07556 0.52705,0.698913 0.35136,0.434459 0.52705,0.510018 0.0439,-0.01889 0.26353,0.472238 0.52704,0.717803 0.30745,0.39668 0.96625,1.416715 0.30745,0.453348 0.13176,0.170006 0.65881,0.698913 0.30744,0.05667 0.0439,0.07556 0.0439,-0.05667 0.0878,-0.113337 0.0439,0.05667 0.30744,0.226675 0.35137,0.03778 0.52705,-0.09445 0.35136,-0.245564 0.0439,-0.113337 0.0439,0.09445 0.0879,0.188895 0.0439,-0.03778 0.17568,-0.07556 0.83449,-0.09445 0.57097,-0.358901 0.13176,-0.113337 0.21961,0.09445 h 0.26352 0.26352 l 0.43921,-0.302233 0.17568,-0.05667 0.17569,0.09445 0.2196,0.09445 0.0878,0.05667 0.13176,-0.151116 0.35137,-0.03778 0.2196,-0.245564 h 0.13176 l 0.21961,0.01889 0.13176,-0.01889 0.17568,-0.03778 h 0.26353 l 0.0878,0.207785 0.17568,-0.39668 0.61489,-0.170006 0.17568,0.09445 0.70273,-0.302233 0.0878,0.245564 0.0439,-0.188895 0.13177,-0.170006 0.92233,-0.07556 0.2196,-0.132227 0.17569,-0.09445 h 0.17568 l 0.0878,0.09445 0.0439,-0.05667 0.13176,-0.07556 0.21961,0.01889 0.17568,-0.01889 0.79057,-0.245564 0.17568,-0.03778 0.13177,-0.170005 0.0439,0.07556 0.13176,0.03778 0.39529,-0.09445 0.4392,-0.07556 0.43921,-0.09445 0.2196,-0.07556 0.0878,0.07556 0.0439,-0.09445 0.17569,-0.132227 0.52705,-0.113337 0.2196,-0.09445 2.32779,-0.887808 0.0879,-0.09445 0.13176,-0.09445 h 0.26352 l 0.57097,-0.09445 0.30745,-0.132227 0.26352,-0.03778 0.0878,0.09445 0.0439,-0.09445 0.13176,-0.05667 h 0.26353 l 0.65881,-0.05667 0.26352,-0.264453 0.13176,-0.01889 0.0879,-0.566686 0.0439,0.245564 0.13176,0.264454 0.96625,-0.03778 0.17569,0.453349 h 0.0878 l 0.17568,0.717802 0.0439,-0.132226 0.13176,-0.774471 0.0878,0.245564 0.0878,0.132227 0.0439,-0.03778 0.0878,0.07556 0.0439,0.09445 0.0878,-0.321122 0.0878,0.07556 0.26352,0.09445 0.17569,0.03778 0.39528,0.07556 h 0.0879 l 0.13176,-0.151116 0.0439,0.113337 0.17568,0.170006 0.79057,0.245564 0.21961,-0.07556 0.13176,0.05667 0.13176,0.05667 0.13176,0.01889 0.17568,0.170006 0.0439,-0.03778 0.30744,0.03778 h 0.0878 l 0.17568,0.03778 0.39529,-0.09445 0.43921,0.283343 0.17568,-0.151117 0.0439,0.132227 0.17568,0.170006 0.35137,0.170006 0.17568,0.03778 0.43921,0.264453 0.0439,0.09445 0.0439,-0.05667 0.0439,-0.07556 0.0439,0.07556 0.30744,0.226675 0.0879,-0.245564 0.0439,0.132226 0.13176,0.188896 0.2196,-0.07556 0.26353,0.07556 0.2196,0.132227 0.2196,0.09445 0.39529,0.283343 0.17568,0.07556 h 0.0878 l 0.0878,0.207785 0.0439,-0.05667 0.13176,-0.05667 0.30744,0.132227 0.21961,0.170005 0.2196,0.207785 0.0878,0.05667 0.13176,0.01889 0.43921,0.09445 0.0878,-0.03778 0.0878,-0.41557 0.0439,0.245564 0.13176,0.302233 0.17569,-0.01889 0.30744,-0.07556 0.13176,0.01889 0.52705,0.07556 0.39529,0.623354 0.0878,-0.07556 0.0439,-0.09445 0.0439,0.09445 0.13176,0.07556 0.26353,-0.03778 0.39528,0.264454 0.0439,-0.05667 0.0878,0.283343 0.0439,-0.03778 0.0439,-0.05667 0.0439,0.07556 0.17568,0.151116 0.70273,0.09445 0.43921,0.453349 0.13176,0.05667 0.30744,0.170006 0.0439,-0.03778 0.0439,0.05667 0.26352,0.188896 0.30744,0.03778 0.0879,0.132226 0.0878,-0.39668 0.0439,0.264454 0.13176,0.264453 0.39529,0.226674 0.0439,-0.03778 0.0878,0.245564 0.0439,-0.07556 0.0439,-0.07556 0.0439,0.113337 0.13176,0.245564 0.0878,-0.264453 0.0439,0.188895 0.0439,0.188895 0.0439,-0.113337 0.0439,-0.132227 0.0439,0.09445 0.0878,0.321122 0.0439,0.245564 0.0439,-0.170006 0.0439,-0.170006 0.0439,0.05667 0.13176,0.340012 0.0439,-0.151117 0.0439,-0.170005 0.0439,0.207784 0.13177,0.283343 0.0878,-0.226674 0.0439,0.03778 0.0878,0.03778 0.0439,-0.03778 0.17568,0.09445 0.0878,-0.09445 0.0439,0.05667 0.17568,0.09445 0.2196,0.113338 0.61489,0.39668 0.13176,-0.03778 0.0439,-0.07556 0.0879,0.05667 0.0878,0.170006 0.0439,-0.07556 0.17568,-0.09445 0.39529,-0.07556 0.57096,0.151116 0.74666,-0.226674 0.48312,0.113337 0.30745,-0.01889 0.70273,-0.09445 0.30744,-0.03778 0.0439,0.05667 0.0439,-0.07556 0.17569,-0.151116 0.2196,-0.01889 0.2196,-0.07556 0.21961,-0.09445 0.30744,-0.245564 0.21961,-0.188896 0.30744,-0.39668 0.0439,-0.207785 0.0439,0.207785 0.0439,0.188896 0.0879,-0.03778 0.26352,0.188895 0.13176,-0.07556 0.13176,-0.01889 0.70273,-0.37779 0.17569,-0.510018 0.17568,1.171151 0.30744,-0.868918 0.0439,-0.03778 0.0439,0.05667 h 0.13176 l 0.57097,-0.340011 0.26352,-0.188896 0.17568,-0.09445 0.79057,-0.453349 0.30745,-0.151116 0.17568,-0.09445 0.65881,-0.453349 0.13176,0.05667 0.17569,-0.39668 0.0439,0.01889 0.0878,-0.05667 0.43921,-0.396681 0.4392,-0.302232 0.17568,-0.01889 0.0879,-0.07556 0.13176,-0.05667 0.13176,-0.05667 0.17568,-0.151116 0.13177,-0.05667 0.17568,-0.132227 0.0878,0.207785 0.0439,-0.07556 0.30745,-0.321122 0.0878,0.302233 0.0439,-0.207785 0.13176,-0.245564 0.0878,-0.07556 0.0439,0.05667 h 0.0878 l 0.30745,-0.226674 h 0.13176 l 0.13176,0.132227 0.0439,-0.03778 0.52705,-0.340012 0.52705,-0.09445 0.0878,-0.151116 0.0439,-0.113337 0.0878,0.07556 0.39529,-0.05667 0.13176,-0.01889 0.2196,-0.01889 0.21961,-0.151116 0.0439,0.05667 0.17568,0.03778 0.30744,-0.245564 0.0879,0.188895 0.17568,-0.510017 0.17568,0.302232 0.0878,-0.226674 0.0878,0.05667 0.43921,-0.05667 0.0878,-0.264454 0.0439,0.05667 0.0878,0.264454 0.21961,0.604465 0.17568,-0.132227 0.0878,0.302232 0.0878,-0.528907 0.0439,0.132227 0.0439,0.132227 0.0878,-0.07556 0.0879,0.07556 0.0439,-0.07556 0.0878,-0.245564 0.0439,-0.207785 0.0878,0.09445 0.0878,-0.188896 0.17568,0.547797 0.17569,-1.20893 0.0878,0.245564 0.0878,1.718947 0.0439,-0.245564 0.13176,-0.755581 0.0439,0.302232 0.0439,0.302233 0.0439,-0.132227 0.13177,-0.528907 0.0439,0.170006 0.0439,0.151116 0.0439,-0.09445 0.0439,-0.113338 0.0878,0.491128 0.0439,-0.132226 0.13176,-0.207785 0.0879,0.170005 0.0878,-0.321122 0.0878,0.05667 0.26352,-0.453349 0.0439,0.07556 0.48313,0.528907 0.0878,-0.245564 0.0439,0.05667 0.13176,0.132227 0.0439,-0.03778 0.0439,-0.05667 0.0439,0.03778 0.13176,0.03778 0.2196,-0.05667 0.35137,-0.09445 0.87841,-0.321122 0.13176,0.03778 0.35137,-0.09445 0.26352,-0.226674 0.17568,0.03778 0.21961,-0.113337 0.2196,-0.207785 0.2196,-0.358901 0.0439,-0.226675 0.0439,0.207785 0.13176,0.188896 0.26352,-0.321122 0.17569,-0.05667 0.2196,-0.01889 0.4392,-0.07556 0.26353,-0.07556 0.0878,-0.39668 0.0439,-0.302233 0.0439,0.132227 0.0439,0.151116 0.0878,-0.03778 0.13177,-0.09445 0.35136,-0.41557 0.2196,-0.207785 0.17569,-0.585575 0.0439,0.113337 0.48313,1.057814 0.13176,-0.132227 0.0439,-0.09445 0.0439,0.05667 0.13176,-0.01889 0.2196,-0.03778 0.0439,0.09445 0.0439,-0.113337 0.13176,-0.43446 0.0439,0.264454 0.0439,0.245564 0.0878,-0.07556 0.17568,0.05667 0.13176,-0.39668 0.0439,0.01889 0.13176,-0.05667 0.2196,-0.207785 0.83449,-0.09445 0.52705,-0.321123 0.21961,-0.37779 0.0439,0.03778 0.0439,0.03778 0.0439,-0.05667 0.48312,-0.642244 0.0439,0.09445 0.2196,0.283343 h 0.13176 l 0.17568,-0.05667 0.0878,-0.07556 0.13177,-0.264453 0.0878,0.113337 0.0878,0.151116 0.0439,-0.132227 0.0439,-0.132226 0.0878,0.07556 0.0878,0.170006 0.0439,-0.07556 0.0439,-0.09445 0.0439,0.132227 0.13176,0.434459 0.0439,-0.170006 0.2196,-0.491128 0.35137,-0.05667 0.17568,-0.755582 0.17568,0.963366 0.0878,-0.415569 0.0439,0.151116 0.0439,0.132227 0.0439,-0.07556 0.17568,-0.09445 0.13176,-0.07556 0.0439,0.05667 0.0439,0.05667 0.0439,-0.07556 0.0439,-0.07556 0.0439,0.07556 0.0879,0.03778 0.0439,-0.03778 0.0878,-0.207785 0.0439,0.05667 0.0439,0.07556 0.0439,-0.03778 0.17568,-0.113337 0.0878,-0.03778 0.0439,-0.05667 0.0439,0.07556 0.0439,0.07556 0.17568,-0.340011 0.17568,-0.151117 0.0439,0.07556 0.0878,0.03778 0.0439,-0.03778 0.65881,-0.09445 0.61489,-0.43446 0.17569,-0.01889 0.2196,-0.05667 0.39529,-0.07556 0.30744,-0.37779 0.0878,0.151116 0.17569,-0.07556 0.35136,-0.170006 0.17568,-0.03778 0.30745,-0.245564 0.35136,-0.264454 0.35137,-0.321122 0.2196,-0.07556 0.13176,-0.03778 0.13177,-0.01889 0.13176,0.07556 0.0439,0.07556 0.0439,-0.03778 0.35136,-0.283343 0.0879,-0.03778 0.2196,-0.245564 0.13176,-0.01889 0.17568,-0.01889 0.17569,-0.01889 0.26352,-0.226674 0.2196,-0.113337 0.0878,-0.604465 0.0439,0.245564 0.0439,0.226674 0.0439,-0.05667 0.17568,-0.113337 0.35137,-0.05667 0.17568,-0.01889 0.2196,-0.151116 0.26353,-0.07556 0.0878,0.39668 0.0439,-0.264454 0.13176,-0.358901 0.83449,0.09445 0.13176,0.01889 0.0879,-0.07556 0.0878,-0.39668 0.0439,0.113337 0.0439,0.113338 0.0439,-0.07556 0.13176,-0.07556 0.13176,-0.09445 0.0439,-0.113338 0.0439,0.07556 0.0879,0.03778 0.0439,-0.03778 0.39528,0.07556 0.21961,-0.132227 0.2196,-0.09445 0.13176,-0.05667 1.0541,-0.453349 0.0878,0.283343 0.0439,-0.188895 0.17568,-0.302233 0.21961,-0.226674 0.0439,0.03778 0.0878,-0.03778 0.17568,-0.07556 0.17568,0.03778 h 0.17569 l 0.57096,-0.358901 0.21961,-0.01889 0.13176,0.01889 0.2196,0.01889 0.0878,-0.03778 0.30745,-0.377791 0.0439,0.07556 0.0439,0.07556 0.0439,-0.03778 0.26353,-0.170006 0.39528,-0.05667 0.39529,-0.07556 0.0439,-0.07556 0.0878,0.41557 0.0439,-0.226675 0.17568,-0.37779 0.17569,-0.113338 0.13176,-0.01889 h 0.13176 0.13176 l 0.39529,-0.09445 h 0.0878 l 0.57097,-0.358901 0.57097,-0.07556 0.0439,-0.05667 0.0878,-0.661133 0.0439,0.321122 0.0439,0.321122 0.0878,-0.07556 0.30745,-0.245564 0.79057,0.03778 0.0439,0.09445 0.0439,-0.151117 0.13176,-0.188895 0.52705,-0.09445 0.48313,-0.302232 0.0439,-0.188896 0.0439,0.226675 0.0439,0.226674 0.0878,-0.09445 0.13176,-0.132227 0.0439,-0.07556 0.0439,0.03778 0.26352,0.113337 0.2196,0.01889 0.21961,-0.05667 0.13176,-0.03778 0.17568,-0.09445 0.74665,-0.226674 0.17568,0.01889 h 0.17569 l 0.0878,0.09445 0.13176,-0.321122 0.52705,-0.132227 0.2196,0.01889 0.2196,-0.113337 0.0879,0.415569 0.0439,-0.245564 0.13176,-0.264453 0.26352,-0.09445 0.39529,-0.05667 0.26352,-0.07556 0.0439,-0.05667 0.0439,0.07556 0.13177,0.03778 0.30744,-0.39668 0.30745,0.01889 0.48312,-0.113337 0.0439,0.03778 0.0439,-0.05667 0.21961,-0.207785 0.35136,-0.09445 0.21961,0.113337 0.30744,-0.07556 0.0878,0.340012 0.0439,-0.226675 0.13177,-0.245563 0.26352,-0.113338 0.65881,-0.09445 0.35137,-0.226675 0.13176,-0.05667 0.4392,0.09445 0.30745,0.01889 0.0878,-0.07556 0.26352,-0.321122 0.0879,-0.01889 0.17568,-0.07556 0.39529,0.07556 0.26352,-0.510017 0.0439,0.132227 0.13176,0.132226 0.13176,0.03778 0.48313,-0.283343 0.13176,0.09445 0.0439,-0.03778 0.13177,0.151116 0.0439,0.132227 0.0439,-0.05667 0.2196,-0.510017 0.0439,0.113337 0.13176,0.113337 0.26353,-0.264453 0.0439,0.03778 0.2196,0.07556 0.13176,-0.05667 0.0879,-0.302233 0.0439,-0.226674 0.0439,0.188895 0.0439,0.188895 0.0439,-0.05667 0.30744,-0.302233 0.17568,0.07556 0.0879,-0.07556 0.0439,0.09445 0.13176,0.09445 0.17568,-0.132226 0.0878,0.07556 0.0439,-0.09445 0.21961,-0.226674 0.13176,0.07556 0.13176,0.01889 0.13176,-0.151116 0.0439,-0.113337 0.0878,0.03778 0.26353,0.05667 0.0439,0.05667 0.0439,-0.132226 0.0439,0.151116 0.0439,0.170006 0.0439,-0.188896 0.17569,-0.434459 0.74665,-0.03778 0.0878,-0.188895 0.0439,0.07556 0.0439,0.05667 0.0439,-0.07556 0.13176,-0.05667 0.26353,-0.188896 0.39528,-0.09445 0.0439,-0.09445 0.0439,0.05667 0.13177,0.01889 0.0878,-0.547796 0.0439,0.283343 0.0439,0.264453 0.0439,-0.09445 0.30744,-0.321122 0.0879,0.151117 0.0439,-0.09445 0.13176,-0.05667 h 0.26352 l 0.0878,-0.07556 0.0879,-0.453348 0.0439,0.207784 0.0439,0.207785 0.0878,-0.09445 0.13176,-0.132227 0.13176,-0.05667 0.0878,0.07556 0.0439,-0.05667 0.0439,-0.05667 0.0439,0.05667 0.21961,0.132227 0.26352,-0.472239 0.0439,0.09445 0.0439,0.113337 0.0878,-0.05667 0.30745,-0.264453 h 0.0878 l 0.13176,-0.07556 0.17569,0.05667 0.17568,-0.207784 0.0878,0.358901 0.0439,-0.245564 0.17568,-0.358901 0.13176,-0.07556 0.17569,0.05667 0.17568,-0.09445 0.17568,-0.03778 0.30745,-0.170005 0.13176,-0.132227 0.57097,-0.151116 0.17568,-0.03778 0.0439,-0.01889 0.0878,-0.39668 0.0439,0.151116 0.0879,0.132227 0.0439,-0.01889 0.13176,-0.151116 0.13176,-0.113337 0.0878,0.09445 0.0439,-0.05667 0.0439,-0.07556 0.0439,0.05667 0.21961,0.05667 0.17568,-0.207785 0.0439,0.113337 0.0439,0.09445 0.17568,-0.377791 0.0878,-0.07556 0.0439,0.05667 0.13176,0.09445 0.35136,-0.340012 0.0878,0.245564 0.0439,-0.09445 0.13176,-0.37779 0.0439,0.07556 0.13176,0.09445 0.17568,-0.226674 0.0878,0.188895 0.0879,-0.05667 0.0878,0.05667 0.0439,-0.113337 0.0439,-0.113337 0.0439,0.05667 0.30744,0.245564 0.26353,-0.491127 0.2196,0.09445 h 0.13176 l 0.43921,0.09445 0.0878,0.170006 0.0439,-0.132227 0.13176,-0.226674 0.13177,0.09445 0.0439,-0.03778 0.0878,-0.07556 0.0439,0.05667 0.17568,0.07556 0.30745,-0.05667 0.0878,-0.340011 0.0439,0.207784 0.0439,0.207785 0.0878,-0.09445 0.30745,-0.05667 0.0439,0.05667 0.0439,-0.05667 0.0439,-0.05667 0.0439,0.05667 0.13176,0.151116 0.0439,-0.03778 0.0439,-0.05667 0.0439,0.03778 0.13176,0.05667 0.26353,-0.207785 0.30744,0.03778 h 0.13176 l 0.30745,0.151117 0.0439,-0.01889 0.0878,0.226675 0.0439,-0.170006 0.17568,-0.245564 0.74666,0.09445 0.0878,-0.491128 0.0439,0.188895 0.0439,0.207785 0.0878,-0.113337 h 0.26352 l 0.0879,0.113337 0.0439,-0.05667 0.0439,-0.05667 0.0439,0.05667 0.17568,0.07556 0.30744,-0.09445 0.43921,-0.09445 0.13176,0.01889 0.0439,-0.03778 0.0439,0.05667 0.13177,0.05667 0.87841,-0.264454 0.30745,0.05667 0.0439,-0.09445 0.0878,0.472239 0.0439,-0.245564 0.17568,-0.396681 0.17568,-0.01889 0.17569,0.03778 0.39528,0.01889 0.0878,-0.472239 0.0439,0.207785 0.13177,0.188895 0.17568,-0.264453 0.0439,0.07556 0.26352,0.170006 h 0.0879 l 0.0439,-0.05667 0.0439,0.03778 0.0439,0.03778 0.0439,-0.05667 0.0878,-0.226675 0.0439,-0.151116 0.0439,0.132227 0.0439,0.132227 0.0878,-0.07556 0.39529,-0.09445 0.0439,-0.03778 0.0439,0.05667 0.2196,0.113338 0.65881,-0.226675 0.13177,0.05667 0.35136,-0.05667 0.0878,0.09445 0.17569,-0.245564 0.13176,-0.07556 0.0439,-0.05667 0.0439,0.05667 0.13176,0.09445 0.2196,-0.170005 0.0439,-0.03778 0.0439,0.09445 0.13177,0.245564 0.0439,-0.07556 0.2196,-0.340012 0.0878,0.151117 0.0439,-0.09445 0.0878,-0.113337 0.0439,0.01889 0.0878,0.113338 0.0439,-0.03778 0.13176,0.01889 0.17568,0.05667 0.70273,-0.226675 0.13177,0.01889 h 0.0878 l 0.17568,0.07556 h 0.0878 l 0.0439,0.03778 0.0439,-0.09445 0.0439,-0.09445 0.0439,0.05667 0.0439,0.05667 0.0439,-0.09445 0.2196,-0.283343 0.35136,0.377791 0.0878,-0.132227 0.0879,-0.07556 0.0439,0.07556 0.0439,0.07556 0.0439,-0.113337 0.17568,-0.151116 h 0.0439 l 0.17568,1.152261 0.0439,-0.321122 0.21961,-2.134517 0.0439,0.887808 0.0439,0.906698 0.0439,-0.302233 0.13176,-0.906697 0.0878,1.114482 0.0439,-0.264453 0.13177,-0.358902 0.0878,0.547797 0.0439,-0.283343 0.0439,-0.302233 0.0878,0.07556 0.17568,-0.170005 0.0439,0.113337 0.0439,0.113337 0.0439,-0.07556 0.0439,-0.05667 0.0439,0.113338 0.0439,0.132226 0.0878,-0.07556 0.0878,-0.434459 0.0439,0.245564 0.0439,0.226674 0.0439,-0.07556 0.17568,-0.113337 0.13177,-0.09445 0.0878,0.188896 0.0439,-0.05667 0.13176,-0.07556 0.26352,0.207785 0.0879,-0.661134 0.0439,0.226674 0.13176,0.226675 0.17568,-0.03778 0.2196,0.01889 0.17569,-0.05667 0.17568,0.01889 0.0878,-0.151116 0.0439,-0.113337 0.0439,0.05667 0.21961,0.09445 0.2196,-0.132227 0.17568,0.03778 h 0.26353 l 0.0439,-0.113337 0.0878,0.472238 0.0439,-0.207784 0.13176,-0.396681 0.0439,0.07556 0.0439,0.05667 0.0439,-0.03778 0.13176,-0.07556 0.0439,0.05667 h 0.0878 l 0.0439,-0.05667 0.0439,0.05667 0.13176,0.03778 0.17568,-0.05667 0.13177,-0.01889 0.2196,-0.226675 0.0439,0.03778 h 0.26352 l 0.13177,0.07556 0.17568,0.01889 0.13176,-0.03778 0.17568,-0.05667 0.26353,-0.113337 0.4392,0.07556 h 0.0439 l 0.0879,-0.321122 0.0439,0.151116 0.0878,0.170006 0.0439,-0.01889 0.30744,-0.151117 0.26353,0.09445 0.17568,-0.03778 0.0439,-0.07556 0.0439,0.09445 0.0439,0.09445 0.0439,-0.05667 0.26353,-0.245564 0.13176,-0.03778 0.35136,0.188895 0.17569,-0.170006 0.0439,0.07556 0.0439,0.05667 0.0439,-0.113337 0.17568,-0.207785 0.92234,-0.03778 0.17568,-0.188896 0.65881,0.09445 0.0439,0.05667 0.0439,-0.113338 0.17568,-0.207784 0.17569,-0.07556 0.35136,0.170006 0.17568,-0.03778 0.17569,-0.07556 0.52704,-0.151116 0.17569,0.09445 0.13176,-0.09445 0.0878,-0.698913 0.0439,0.321122 0.0439,0.340012 0.0878,-0.113337 0.57097,0.09445 0.0439,0.09445 0.0439,-0.03778 0.13177,-0.226675 0.0439,0.113338 0.0439,0.113337 0.0439,-0.132227 0.13176,-0.226674 0.0878,0.113337 0.0439,-0.05667 0.0439,-0.05667 0.0439,0.03778 h 0.0878 l 0.0439,-0.05667 0.0439,0.05667 0.17568,0.05667 0.17568,-0.245564 0.0439,-0.245564 0.0439,0.207785 0.13176,0.245564 0.17569,-0.283343 0.0439,0.03778 h 0.0878 l 0.13176,-0.01889 0.17568,0.113337 0.21961,-0.01889 0.0439,0.05667 0.0439,-0.09445 0.2196,-0.207784 0.30745,-0.05667 0.17568,0.09445 0.13176,-0.03778 0.0878,-0.41557 0.0439,0.188895 0.0439,0.170006 0.0879,-0.03778 0.2196,-0.132227 0.13176,0.03778 0.2196,0.05667 0.13177,0.03778 0.13176,-0.170006 0.0439,0.03778 0.26352,-0.132227 0.39529,0.05667 0.35137,-0.03778 0.17568,-0.226674 0.39528,-0.113338 0.17569,0.170006 0.0878,-0.132227 0.0439,0.07556 0.0439,0.07556 0.0439,-0.113337 0.13176,-0.07556 0.26353,-0.09445 0.65881,-0.01889 0.17568,-0.151116 h 0.0878 0.13176 l 0.57097,-0.01889 0.17568,-0.188895 0.17569,-0.05667 0.0439,0.03778 0.0439,-0.07556 0.0439,-0.09445 0.0439,0.07556 0.2196,0.132227 0.0878,-0.01889 0.0878,-0.39668 0.0439,0.132227 0.0439,0.113337 0.0878,-0.03778 0.30744,-0.132227 0.17568,0.03778 0.35137,-0.07556 0.13176,-0.09445 0.0878,0.05667 0.0439,-0.05667 0.13177,-0.05667 0.13176,0.05667 0.13176,0.05667 0.13176,-0.03778 0.0439,0.03778 0.0439,-0.09445 0.0439,-0.09445 0.0878,0.05667 0.35136,-0.188895 0.30745,0.09445 0.0439,0.113337 0.0439,-0.03778 0.13176,-0.09445 0.0878,0.39668 0.0439,-0.245564 0.17568,-0.37779 0.52705,0.170005 0.13176,-0.09445 0.0879,0.151116 0.17568,-0.283343 0.2196,-0.113337 0.61489,-0.05667 0.17568,-0.170006 0.26353,-0.09445 0.17568,0.07556 0.13176,0.09445 0.13176,-0.43446 0.0439,-0.264453 0.0439,0.283343 0.0439,0.302232 0.0878,-0.151116 0.13176,-0.01889 0.0439,-0.05667 0.0439,0.03778 0.13176,-0.01889 0.0879,-0.07556 0.0439,0.07556 0.0439,0.07556 0.0878,-0.05667 0.0878,-0.03778 0.0878,-0.566686 0.0439,0.170006 0.13176,0.245564 0.17569,-0.207785 0.0439,0.07556 0.0878,0.03778 0.0439,-0.03778 0.17568,0.05667 0.17568,-0.07556 0.0878,-0.547796 0.0439,0.207785 0.0439,0.188895 0.0878,-0.09445 0.26352,-0.170006 0.0878,-0.05667 0.0439,0.05667 0.26353,0.09445 0.0439,-0.05667 0.0439,0.113337 0.0439,0.113337 0.0439,-0.151116 0.13176,-0.170006 0.74665,0.07556 0.0439,0.151117 0.0439,-0.226675 0.0439,-0.245564 0.0439,0.09445 0.0439,0.09445 0.0439,-0.05667 0.0439,-0.07556 0.0439,0.05667 0.13176,0.01889 0.0878,-0.283343 0.0439,0.113337 0.17569,0.132227 0.17568,-0.03778 0.0439,0.01889 0.17568,-0.226674 h 0.21961 l 0.30744,0.151116 0.26352,-0.07556 0.43921,-0.302232 0.13176,0.03778 h 0.13176 l 0.21961,-0.07556 0.30744,-0.188896 0.30745,0.132227 0.17568,0.03778 0.0878,-0.264453 0.0439,-0.207785 0.0439,0.188895 0.0439,0.188895 0.0439,-0.07556 0.0439,-0.07556 0.0439,0.03778 0.0439,0.03778 0.0439,-0.07556 h 0.13176 l 0.2196,0.01889 0.0878,0.03778 0.0439,-0.03778 0.17568,0.113337 0.0439,-0.113337 0.17568,-0.170006 0.0439,-0.07556 0.0439,0.03778 0.17568,0.05667 0.0879,0.03778 0.2196,0.245564 0.0878,-0.245564 0.0439,0.113338 0.0439,0.113337 0.0439,-0.09445 0.21961,-0.226674 0.0878,-0.132227 0.0439,0.03778 0.17568,0.05667 0.43921,-0.302233 0.13176,0.01889 0.2196,0.01889 0.0439,0.05667 0.0439,-0.05667 0.0439,-0.05667 0.0439,0.05667 0.13176,0.207785 0.0878,-0.09445 0.0878,-0.566686 0.0439,0.340012 0.13176,0.453349 0.17569,-0.736692 0.0439,0.188895 0.13176,0.528907 0.17568,-0.717802 0.17568,0.377791 0.17569,-0.07556 0.0878,0.01889 0.0878,-0.245564 0.0878,0.09445 h 0.26353 l 0.0878,0.01889 0.0878,-0.188895 0.0439,0.132227 0.0439,0.132227 0.0439,-0.05667 0.17568,-0.283343 0.0439,-0.07556 0.0439,0.03778 0.0439,0.03778 0.0879,-0.245564 0.0439,0.207785 0.0439,0.188895 0.0878,-0.07556 0.13176,0.07556 0.0439,0.09445 0.0439,-0.151116 0.0439,-0.132227 0.0439,0.07556 0.0439,0.07556 0.0439,-0.113337 0.13176,-0.245564 0.0439,0.01889 0.17568,-0.03778 0.2196,-0.05667 0.17569,0.132227 0.0878,-0.113338 0.0439,0.05667 0.0439,0.05667 0.0439,-0.05667 0.17568,-0.07556 0.43921,0.07556 0.0439,0.05667 0.17568,-0.736692 0.0439,0.283343 0.0439,0.264453 0.0879,-0.09445 0.13176,-0.05667 0.0439,-0.07556 0.0439,0.07556 0.0439,0.09445 0.0439,-0.03778 0.0439,-0.05667 0.0439,0.03778 0.21961,0.09445 0.0878,-0.07556 0.0439,0.05667 0.0439,0.07556 0.0439,-0.07556 0.2196,-0.283343 0.13176,0.03778 0.13177,0.05667 0.13176,0.01889 0.0439,0.05667 0.0439,-0.05667 0.0878,-0.302232 0.0439,-0.226674 0.0439,0.188895 0.0439,0.188895 0.0439,-0.05667 0.17569,-0.05667 0.26352,0.07556 0.0439,0.05667 0.0439,-0.07556 0.0439,-0.09445 0.0439,0.09445 0.0439,0.07556 0.0439,-0.05667 0.0439,-0.07556 0.0439,0.113337 0.0439,0.09445 0.0439,-0.151116 0.0878,-0.132227 0.0439,0.01889 0.17568,-0.132226 0.0439,0.07556 0.0439,0.05667 0.0439,-0.05667 0.0439,-0.05667 0.0439,0.113337 0.13176,0.245564 0.0439,-0.09445 0.13176,-0.528907 0.0439,0.188895 0.0439,0.170006 0.0878,-0.03778 0.48313,0.03778 0.13176,0.03778 h 0.26353 l 0.13176,-0.05667 0.13176,-0.03778 0.13176,0.01889 0.0439,0.05667 0.0439,-0.03778 0.0439,-0.03778 0.17569,0.245564 0.0878,-0.642244 0.0439,0.302233 0.0439,0.302232 0.0878,-0.132227 0.2196,0.01889 0.0879,0.07556 0.0439,-0.03778 0.30744,0.170006 h 0.0878 l 0.13176,-0.01889 0.21961,-0.05667 0.35136,0.245564 0.0439,0.05667 0.0439,-0.03778 0.0439,-0.03778 0.0879,-0.491128 0.0439,0.264454 0.13176,0.37779 0.0439,-0.01889 0.13176,-0.07556 0.0439,0.05667 0.39529,0.358901 0.0439,-0.07556 0.0439,-0.07556 0.0439,0.113337 0.0439,0.113337 0.0878,-0.05667 0.26353,-0.09445 0.17568,0.188896 0.13176,0.170005 0.0439,0.151117 0.0878,-0.09445 0.17569,0.09445 0.13176,0.09445 0.0439,0.07556 0.0439,-0.07556 0.13176,-0.07556 0.26353,0.453349 0.17568,-0.03778 0.0878,-0.226675 0.0439,0.09445 0.13176,0.245564 0.0439,-0.05667 0.13176,-0.09445 0.13177,0.188895 0.0439,-0.03778 0.39528,0.472238 0.0439,0.188896 0.0439,-0.188896 0.13177,-0.264453 0.26352,0.09445 0.30745,0.321122 0.39528,0.07556 0.13176,0.01889 0.39529,0.510018 0.13176,0.132226 0.0439,0.07556 0.0439,-0.05667 0.0439,-0.05667 0.0439,0.05667 0.48313,0.623354 0.0439,-0.07556 0.0439,-0.05667 0.21961,0.358901 0.0439,0.05667 0.0439,-0.03778 0.0439,-0.03778 0.0439,0.09445 0.13176,0.09445 h 0.13176 l 0.39529,0.528907 0.0878,0.01889 0.17568,0.340012 0.0439,-0.07556 0.13176,-0.05667 0.61489,0.81225 0.0439,-0.03778 0.0439,-0.05667 0.0878,0.264454 0.0878,-0.03778 0.17568,0.09445 0.17569,0.188895 0.17568,0.207785 0.17568,0.453349 0.0439,-0.01889 0.0439,-0.03778 0.0439,0.09445 0.13176,0.05667 0.0879,-0.03778 0.17568,0.245564 0.13176,0.05667 0.17568,0.170006 0.0878,0.09445 0.21961,0.226674 0.0878,-0.283343 0.2196,0.717802 0.70273,1.038925 0.0879,0.151116 0.13176,0.132227 0.70273,0.717802 0.17568,0.132227 0.0878,-0.07556 0.21961,0.377791 0.2196,0.170006 0.35137,0.623354 0.4392,0.396681 0.57097,0.623354 0.26352,0.340012 0.0439,-0.01889 0.26353,0.377791 0.65881,1.020035 0.30744,0.79336 0.0439,-0.151116 0.0439,-0.151117 0.0439,0.05667 0.79057,1.171151 0.13176,0.132227 0.0878,-0.264454 0.0439,0.188896 0.13176,0.207784 0.52705,0.528907 0.26353,0.566686 0.0439,-0.01889 0.0878,0.05667 0.30744,0.283343 0.13176,0.05667 0.35137,0.510017 0.2196,0.302233 0.26353,0.39668 0.13176,0.05667 0.13176,0.188895 0.0439,-0.03778 0.0439,-0.03778 0.26353,0.39668 0.57097,0.79336 0.0439,-0.03778 0.0878,0.302233 0.0878,-0.07556 0.13176,0.05667 0.30745,0.340012 0.30744,0.358901 0.21961,0.302232 0.13176,-0.09445 0.0439,-0.09445 0.2196,0.491128 0.57097,0.623355 0.43921,0.472238 0.0878,-0.207785 0.2196,0.528907 0.79057,0.79336 0.17569,0.170006 0.0878,0.07556 0.26352,0.170006 0.39529,0.226674 0.26352,0.358902 0.26353,0.226674 0.48312,0.283343 1.31762,0.453349 0.17569,-0.03778 1.09801,0.07556 0.0878,0.113337 0.0439,-0.07556 0.21961,-0.151116 0.35136,0.09445 0.52705,0.132227 0.17568,-0.05667 0.0879,0.264454 0.0439,-0.188896 0.0439,-0.188895 0.0878,0.07556 1.14194,0.03778 0.0878,0.41557 0.0439,-0.226674 0.13176,-0.264454 h 0.26352 v 0"
           style="fill:none;stroke:#1f77b4;stroke-width:1.5;stroke-linecap:square"
           id="path508" /></g><g
         id="patch_8"
         transform="translate(54,1.5000001)"><path
           d="M 48.060391,59.733333 V 10.8"
           style="fill:none;stroke:#000000;stroke-width:0.8;stroke-linecap:square;stroke-linejoin:miter"
           id="path511" /></g><g
         id="patch_9"
         transform="translate(54,1.5000001)"><path
           d="M 565.2,59.733333 V 10.8"
           style="fill:none;stroke:#000000;stroke-width:0.8;stroke-linecap:square;stroke-linejoin:miter"
           id="path514" /></g><g
         id="patch_10"
         transform="translate(54,1.5000001)"><path
           d="M 48.060391,59.733333 H 565.2"
           style="fill:none;stroke:#000000;stroke-width:0.8;stroke-linecap:square;stroke-linejoin:miter"
           id="path517" /></g><g
         id="patch_11"
         transform="translate(54,1.5000001)"><path
           d="M 48.060391,10.8 H 565.2"
           style="fill:none;stroke:#000000;stroke-width:0.8;stroke-linecap:square;stroke-linejoin:miter"
           id="path520" /></g><g
         id="patch_12"
         transform="translate(54,31.5)"><path
           d="M 48.060391,122.96667 H 565.2 V 74.033333 H 48.060391 Z"
           style="fill:#ffffff"
           id="path524" /></g><g
         id="patch_13"
         transform="translate(54,31.5)"><path
           clip-path="url(#p95deea2961)"
           d="M 80.350872,122.96667 V 74.033333 h 10.497041 v 48.933337 z"
           style="opacity:0.3;fill:#008000;stroke:#008000;stroke-linejoin:miter"
           id="path527" /></g><g
         id="patch_14"
         transform="translate(54,31.5)"><path
           clip-path="url(#p95deea2961)"
           d="M 119.7038,122.96667 V 74.033333 h 9.96999 v 48.933337 z"
           style="opacity:0.3;fill:#008000;stroke:#008000;stroke-linejoin:miter"
           id="path530" /></g><g
         id="patch_15"
         style="fill:#ff2a2a;fill-opacity:1;stroke:#ff2a2a"
         transform="translate(54,31.5)"><path
           clip-path="url(#p95deea2961)"
           d="M 173.63839,122.96667 V 74.033333 h 15.15263 v 48.933337 z"
           style="opacity:0.3;fill:#ff2a2a;fill-opacity:1;stroke:#ff2a2a;stroke-linejoin:miter"
           id="path533" /></g><g
         id="patch_16"
         style="fill:#ff2a2a;fill-opacity:1;stroke:#ff2a2a"
         transform="translate(54,31.5)"><path
           clip-path="url(#p95deea2961)"
           d="M 284.05497,122.96667 V 74.033333 h 25.60575 v 48.933337 z"
           style="opacity:0.3;fill:#ff2a2a;fill-opacity:1;stroke:#ff2a2a;stroke-linejoin:miter"
           id="path536" /></g><g
         id="patch_17"
         transform="translate(54,31.5)"><path
           clip-path="url(#p95deea2961)"
           d="M 509.28019,122.96667 V 74.033333 h 23.67325 v 48.933337 z"
           style="opacity:0.3;fill:#008000;stroke:#008000;stroke-linejoin:miter"
           id="path539" /></g><g
         id="matplotlib.axis_3"
         transform="translate(-6,61.5)" /><g
         id="line2d_2"
         transform="translate(54,31.5)"><path
           clip-path="url(#p95deea2961)"
           d="m 71.566737,120.74242 h 8.432769 l 0.08784,-19.06493 0.04392,6.35498 0.04392,6.35498 0.04392,-3.17749 0.219603,-9.53247 h 0.527048 l 0.08784,-6.354979 0.04392,3.177489 0.131762,3.17749 0.08784,-6.354979 0.04392,3.177489 0.04392,3.17749 0.04392,-3.17749 0.131762,-3.177489 h 1.493303 l 0.175682,6.354979 0.08784,-6.354979 0.04392,3.177489 0.131762,3.17749 h 0.175683 l 0.08784,-6.354979 0.04392,3.177489 0.04392,3.17749 0.04392,-3.17749 0.04392,-3.177489 0.04392,3.177489 0.04392,3.17749 0.04392,-3.17749 0.131762,-3.177489 0.08784,6.354979 0.04392,-3.17749 0.131762,-3.177489 h 0.61489 l 0.175682,6.354979 h 0.08784 l 0.175683,-6.354979 h 0.70273 l 0.08784,6.354979 0.04392,-3.17749 0.131762,-3.177489 0.175683,6.354979 h 0.878414 l 0.08784,-6.354979 0.04392,3.177489 0.131762,3.17749 h 0.614889 l 0.175683,6.35498 h 2.196034 l 0.175682,12.70995 h 27.933541 l 0.0879,-12.70995 0.0439,3.17749 0.13176,3.17749 h 0.0878 l 0.17568,-6.35498 h 0.17569 l 0.17568,-6.35498 h 0.87841 l 0.0878,-6.354979 0.0439,3.177489 0.0439,3.17749 0.0439,-3.17749 0.13176,-3.177489 h 0.52705 l 0.17568,6.354979 0.17568,-6.354979 0.17568,6.354979 0.0878,-6.354979 0.0439,3.177489 0.0439,3.17749 0.0439,-3.17749 0.13176,-3.177489 h 0.26352 l 0.17569,-6.354979 h 0.0878 l 0.17568,6.354979 h 1.0541 l 0.17568,-6.354979 0.0878,6.354979 0.0439,-3.177489 0.13176,-3.17749 h 0.0878 l 0.0878,6.354979 0.0439,-3.177489 0.13176,-3.17749 h 0.96625 l 0.17569,6.354979 0.0878,-6.354979 0.0439,3.17749 0.0439,3.177489 0.0439,-3.177489 0.13176,-3.17749 h 0.0878 l 0.0878,6.354979 0.0439,-3.177489 0.0439,-3.17749 0.0439,3.17749 0.0439,3.177489 0.0439,-3.177489 0.13176,-3.17749 0.17568,6.354979 h 2.28388 l 0.4392,25.419909 h 0.26353 l 0.17568,-6.35497 h 0.0878 l 0.17568,-6.35498 h 0.17569 l 0.17568,12.70995 h 0.43921 l 0.0878,-6.35497 0.0439,3.17749 0.13176,3.17748 h 41.37328 l 0.26352,-12.70995 h 0.26353 l 0.17568,-6.35498 h 0.26352 l 0.17569,-6.354979 h 0.70273 l 0.0878,-6.354979 0.0439,3.17749 0.13176,3.177489 h 2.02035 l 0.17568,-6.354979 h 0.87842 l 0.17568,6.354979 h 1.66899 l 0.17568,6.354979 0.17568,-6.354979 h 0.35137 l 0.0878,6.354979 0.0439,-3.17749 0.13176,-3.177489 h 0.0878 l 0.17569,6.354979 h 0.4392 l 0.17568,6.35498 h 0.17569 l 0.0878,-6.35498 0.0439,3.17749 0.13176,3.17749 h 1.40546 l 0.0878,-6.35498 0.0439,3.17749 0.13177,3.17749 h 0.26352 l 0.17568,-6.35498 0.17569,6.35498 0.17568,-6.35498 0.17568,6.35498 0.0878,-6.35498 0.0439,3.17749 0.0439,3.17749 0.0439,-3.17749 0.13176,-3.17749 h 0.17568 l 0.17568,6.35498 0.0878,-6.35498 0.0439,3.17749 0.0439,3.17749 0.0439,-3.17749 0.13176,-3.17749 h 0.0878 l 0.0878,6.35498 0.0439,-3.17749 0.0439,-3.17749 0.0439,3.17749 0.13176,3.17749 h 0.0879 l 0.17568,-6.35498 0.17568,6.35498 h 1.84467 l 0.17568,6.35498 0.17569,-6.35498 0.0878,6.35498 0.0439,-3.17749 0.0439,-3.17749 0.0439,3.17749 0.2196,9.53246 h 0.43921 l 0.0878,-6.35497 0.0439,3.17749 0.0439,3.17748 0.0439,-3.17748 0.13176,-3.17749 h 2.1082 l 0.17568,6.35497 h 91.35501 l 0.17568,-19.06493 0.17568,-6.354979 h 0.61489 l 0.17568,-6.354979 h 0.79058 l 0.0878,6.354979 0.0439,-3.177489 0.0439,-3.17749 0.0439,3.17749 0.0439,3.177489 0.0439,-3.177489 0.13176,-3.17749 h 0.0878 l 0.17569,-6.354978 h 0.26352 l 0.17568,6.354978 h 0.26353 l 0.0878,6.354979 0.0439,-3.177489 0.13176,-3.17749 h 0.26353 l 0.26352,-12.709956 h 0.0878 l 0.0878,6.354978 0.0439,-3.177489 0.13177,-3.177489 h 0.0878 l 0.0878,6.354978 0.0439,-3.177489 0.13176,-3.177489 h 0.26352 l 0.17569,6.354978 h 0.17568 l 0.0878,-6.354978 0.0439,3.177489 0.13176,3.177489 h 0.87842 l 0.0878,6.354978 0.0439,-3.177489 0.0439,-3.177489 0.0439,3.177489 0.13176,3.177489 h 0.61489 l 0.0878,6.354979 0.0439,-3.177489 0.13176,-3.17749 0.17568,6.354979 h 0.52705 l 0.17568,6.354979 h 0.35137 l 0.17568,6.35498 h 4.56775 l 0.0878,6.35498 0.0439,-3.17749 0.13176,-3.17749 h 0.26353 l 0.17568,6.35498 h 0.70273 l 0.0878,6.35497 0.0439,-3.17748 0.13176,-3.17749 h 0.70273 l 0.17569,6.35497 0.17568,-6.35497 h 1.22978 l 0.0878,-6.35498 0.0439,3.17749 0.13176,3.17749 h 0.87842 l 0.0878,-6.35498 0.0439,3.17749 0.0439,3.17749 0.0439,-3.17749 0.0439,-3.17749 0.0439,3.17749 0.13176,3.17749 h 0.26353 l 0.0878,-6.35498 0.0439,3.17749 0.0439,3.17749 0.0439,-3.17749 0.0439,-3.17749 0.0439,3.17749 0.13176,3.17749 h 0.26353 l 0.17568,-6.35498 h 0.17568 l 0.0879,6.35498 0.0439,-3.17749 0.13176,-3.17749 h 0.79057 l 0.17568,-6.35498 h 0.35137 l 0.17568,-6.354979 h 1.84467 l 0.0878,6.354979 0.0439,-3.17749 0.13176,-3.177489 h 0.26353 l 0.0878,6.354979 0.0439,-3.17749 0.13176,-3.177489 0.17568,6.354979 h 0.17569 l 0.17568,6.35498 h 0.0878 l 0.17568,12.70995 h 195.44701 l 0.0439,-6.35497 0.0439,2.11832 0.0879,4.23665 0.13176,-6.35497 h 1.36154 l 0.17568,-6.35498 0.13176,6.35498 h 0.35137 l 0.0878,-6.35498 0.0439,2.11832 0.0878,4.23666 0.0439,-3.17749 0.13177,-3.17749 h 1.22977 l 0.17569,-6.35498 h 0.0439 l 0.13176,6.35498 0.0439,-3.17749 0.13176,-3.17749 h 3.77718 l 0.17568,-6.354979 h 0.0878 l 0.0878,-6.354979 0.0439,3.17749 0.0439,3.177489 0.0439,-3.177489 0.13176,-3.17749 0.13176,6.354979 0.13176,6.354979 0.0439,-3.17749 0.13177,-3.177489 h 0.87841 l 0.17568,6.354979 h 0.21961 l 0.13176,-6.354979 0.0439,3.177489 0.0439,3.17749 0.0439,-3.17749 0.13176,-3.177489 0.17569,6.354979 h 0.26352 l 0.0878,-6.354979 0.0439,3.177489 0.13176,3.17749 h 0.0878 l 0.17569,-6.354979 0.17568,6.354979 h 0.52705 l 0.0878,-6.354979 0.0439,3.177489 0.13176,3.17749 h 0.52705 l 0.0878,-6.354979 0.0439,3.177489 0.13176,3.17749 0.0878,-6.354979 0.0439,3.177489 0.0439,3.17749 0.0439,-3.17749 0.0439,-3.177489 0.0439,3.177489 0.0439,3.17749 0.0439,-3.17749 0.13176,-3.177489 h 0.26353 l 0.0878,-6.354979 0.0439,3.17749 0.13176,3.177489 h 0.26352 l 0.17569,6.354979 h 0.0878 l 0.0878,-6.354979 0.0439,3.177489 0.0439,3.17749 0.0439,-3.17749 0.0439,-3.177489 0.0439,3.177489 0.13176,3.17749 h 0.61489 l 0.17569,-6.354979 h 0.17568 l 0.0878,6.354979 0.0439,-3.17749 0.0439,-3.177489 0.0439,3.177489 0.0439,3.17749 0.0439,-3.17749 0.13176,-3.177489 0.17568,6.354979 h 0.70273 l 0.17568,-6.354979 0.17569,6.354979 h 1.31762 l 0.17568,-6.354979 h 0.26352 l 0.0878,6.354979 0.0439,-3.17749 0.13176,-3.177489 h 0.17568 l 0.17568,6.354979 h 0.35137 l 0.0878,-6.354979 0.0439,3.177489 0.13176,3.17749 h 0.79057 l 0.17569,-6.354979 0.17568,6.354979 h 1.14194 l 0.0878,-6.354979 0.0439,3.177489 0.13176,3.17749 h 0.79057 l 0.17569,6.35498 h 2.81092 l 0.0878,6.35498 0.0439,-3.17749 0.13176,-3.17749 h 0.0878 l 0.17569,6.35498 0.0878,-6.35498 0.0439,3.17749 0.13176,3.17749 h 0.61489 l 0.0878,-6.35498 0.0439,3.17749 0.13176,3.17749 h 0.79058 l 0.0878,6.35497 0.0439,-3.17748 0.0439,-3.17749 0.0439,3.17749 0.13176,3.17748 h 5.62185 l 0.26352,-12.70995 h 0.0878 v 0"
           style="fill:none;stroke:#1f77b4;stroke-width:1.5;stroke-linecap:square"
           id="path561" /></g><g
         id="patch_18"
         transform="translate(54,31.5)"><path
           d="M 48.060391,122.96667 V 74.033333"
           style="fill:none;stroke:#000000;stroke-width:0.8;stroke-linecap:square;stroke-linejoin:miter"
           id="path564" /></g><g
         id="patch_19"
         transform="translate(54,31.5)"><path
           d="M 565.2,122.96667 V 74.033333"
           style="fill:none;stroke:#000000;stroke-width:0.8;stroke-linecap:square;stroke-linejoin:miter"
           id="path567" /></g><g
         id="patch_20"
         transform="translate(54,31.5)"><path
           d="M 48.060391,122.96667 H 565.2"
           style="fill:none;stroke:#000000;stroke-width:0.8;stroke-linecap:square;stroke-linejoin:miter"
           id="path570" /></g><g
         id="patch_21"
         transform="translate(54,31.5)"><path
           d="M 48.060391,74.033333 H 565.2"
           style="fill:none;stroke:#000000;stroke-width:0.8;stroke-linecap:square;stroke-linejoin:miter"
           id="path573" /></g><path
         d="M 102.06039,382.7 H 619.2 V 333.76667 H 102.06039 Z"
         style="fill:#ffffff;stroke:#000000"
         id="path990" /><path
         d="M 102.06039,502.7 H 619.2 V 453.76667 H 102.06039 Z"
         style="fill:#ffffff;stroke:#000000"
         id="path1093" /><g
         id="patch_22"
         transform="translate(54,61.5)"><path
           d="M 48.060391,186.2 H 565.2 V 137.26667 H 48.060391 Z"
           style="fill:#ffffff"
           id="path577" /></g><g
         id="patch_23"
         transform="translate(54,61.5)"><path
           clip-path="url(#p40a57da567)"
           d="M 80.350872,186.2 V 137.26667 H 90.847913 V 186.2 Z"
           style="opacity:0.3;fill:#008000;stroke:#008000;stroke-linejoin:miter"
           id="path580" /></g><g
         id="patch_24"
         transform="translate(54,61.5)"><path
           clip-path="url(#p40a57da567)"
           d="m 119.7038,186.2 v -48.93333 h 9.96999 V 186.2 Z"
           style="opacity:0.3;fill:#008000;stroke:#008000;stroke-linejoin:miter"
           id="path583" /></g><g
         id="patch_25"
         style="fill:#ff2a2a;fill-opacity:1;stroke:#ff2a2a"
         transform="translate(54,61.5)"><path
           clip-path="url(#p40a57da567)"
           d="m 173.63839,186.2 v -48.93333 h 15.15263 V 186.2 Z"
           style="opacity:0.3;fill:#ff2a2a;fill-opacity:1;stroke:#ff2a2a;stroke-linejoin:miter"
           id="path586" /></g><g
         id="patch_26"
         style="fill:#ff2a2a;fill-opacity:1;stroke:#ff2a2a"
         transform="translate(54,61.5)"><path
           clip-path="url(#p40a57da567)"
           d="m 284.05497,186.2 v -48.93333 h 25.60575 V 186.2 Z"
           style="opacity:0.3;fill:#ff2a2a;fill-opacity:1;stroke:#ff2a2a;stroke-linejoin:miter"
           id="path589" /></g><g
         id="patch_27"
         transform="translate(54,61.5)"><path
           clip-path="url(#p40a57da567)"
           d="m 509.28019,186.2 v -48.93333 h 23.67325 V 186.2 Z"
           style="opacity:0.3;fill:#008000;stroke:#008000;stroke-linejoin:miter"
           id="path592" /></g><g
         id="line2d_3"
         transform="translate(54,61.5)"><path
           clip-path="url(#p40a57da567)"
           d="M 71.566737,186.2 H 183.4327 l 0.13176,-48.93333 h 0.83449 L 184.53072,186.2 h 0.65881 l 0.13176,-48.93333 h 1.01017 L 186.46322,186.2 h 109.62601 l 0.13177,-48.93333 h 0.70273 L 297.05549,186.2 h 244.63816 v 0"
           style="fill:none;stroke:#1f77b4;stroke-width:1.5;stroke-linecap:square"
           id="path631" /></g><g
         id="patch_28"
         transform="translate(54,61.5)"><path
           d="M 48.060391,186.2 V 137.26667"
           style="fill:none;stroke:#000000;stroke-width:0.8;stroke-linecap:square;stroke-linejoin:miter"
           id="path634" /></g><g
         id="patch_29"
         transform="translate(54,61.5)"><path
           d="M 565.2,186.2 V 137.26667"
           style="fill:none;stroke:#000000;stroke-width:0.8;stroke-linecap:square;stroke-linejoin:miter"
           id="path637" /></g><g
         id="patch_30"
         transform="translate(54,61.5)"><path
           d="M 48.060391,186.2 H 565.2"
           style="fill:none;stroke:#000000;stroke-width:0.8;stroke-linecap:square;stroke-linejoin:miter"
           id="path640" /></g><g
         id="patch_31"
         transform="translate(54,61.5)"><path
           d="M 48.060391,137.26667 H 565.2"
           style="fill:none;stroke:#000000;stroke-width:0.8;stroke-linecap:square;stroke-linejoin:miter"
           id="path643" /></g><g
         id="g972"
         transform="translate(54,196.5)"><path
           clip-path="url(#p40a57da567)"
           d="M 80.350872,186.2 V 137.26667 H 90.847913 V 186.2 Z"
           style="opacity:0.3;fill:#008000;stroke:#008000;stroke-linejoin:miter"
           id="path970" /></g><g
         id="g976"
         transform="translate(54,196.5)"><path
           clip-path="url(#p40a57da567)"
           d="m 119.7038,186.2 v -48.93333 h 9.96999 V 186.2 Z"
           style="opacity:0.3;fill:#008000;stroke:#008000;stroke-linejoin:miter"
           id="path974" /></g><g
         id="g980"
         transform="translate(54,196.5)"
         style="fill:#ff0000;stroke:#ff0000"><path
           clip-path="url(#p40a57da567)"
           d="m 173.63839,186.2 v -48.93333 h 15.15263 V 186.2 Z"
           style="opacity:0.3;fill:#ff0000;stroke:#ff0000;stroke-linejoin:miter"
           id="path978" /></g><g
         id="g984"
         transform="translate(54,196.5)"
         style="fill:#ff0000;stroke:#ff0000"><path
           clip-path="url(#p40a57da567)"
           d="m 284.05497,186.2 v -48.93333 h 25.60575 V 186.2 Z"
           style="opacity:0.3;fill:#ff0000;stroke:#ff0000;stroke-linejoin:miter"
           id="path982" /></g><g
         id="g988"
         transform="translate(54,196.5)"><path
           clip-path="url(#p40a57da567)"
           d="m 509.28019,186.2 v -48.93333 h 23.67325 V 186.2 Z"
           style="opacity:0.3;fill:#008000;stroke:#008000;stroke-linejoin:miter"
           id="path986" /></g><rect
         style="fill:#5599ff;fill-opacity:1;stroke:none;stroke-width:1.41732;stroke-linejoin:bevel"
         id="rect3711"
         width="3.4578488"
         height="48.933334"
         x="133.81673"
         y="453.76666" /><rect
         style="fill:#5599ff;fill-opacity:1;stroke:none;stroke-width:1.41732;stroke-linejoin:bevel"
         id="rect4081"
         width="3.4578488"
         height="48.933334"
         x="138.31673"
         y="453.76666" /><rect
         style="fill:#5599ff;fill-opacity:1;stroke:none;stroke-width:1.41732;stroke-linejoin:bevel"
         id="rect4085"
         width="3.4578488"
         height="48.933334"
         x="172.81673"
         y="453.76666" /><rect
         style="fill:#5599ff;fill-opacity:1;stroke:none;stroke-width:1.41732;stroke-linejoin:bevel"
         id="rect4087"
         width="3.4578488"
         height="48.933334"
         x="177.31673"
         y="453.76666" /><rect
         style="fill:#5599ff;fill-opacity:1;stroke:none;stroke-width:1.41732;stroke-linejoin:bevel"
         id="rect4091"
         width="3.4578488"
         height="48.933334"
         x="225.31673"
         y="453.76666" /><rect
         style="fill:#5599ff;fill-opacity:1;stroke:none;stroke-width:1.41732;stroke-linejoin:bevel"
         id="rect4093"
         width="3.4578488"
         height="48.933334"
         x="229.81673"
         y="453.76666" /><rect
         style="fill:#ff5555;fill-opacity:1;stroke:none;stroke-width:1.41732;stroke-linejoin:bevel"
         id="rect4095"
         width="3.4578488"
         height="48.933334"
         x="234.31673"
         y="453.76666" /><rect
         style="fill:#5599ff;fill-opacity:1;stroke:none;stroke-width:1.41732;stroke-linejoin:bevel"
         id="rect4099"
         width="3.4578488"
         height="48.933334"
         x="337.81671"
         y="453.76666" /><rect
         style="fill:#5599ff;fill-opacity:1;stroke:none;stroke-width:1.41732;stroke-linejoin:bevel"
         id="rect4101"
         width="3.4578488"
         height="48.933334"
         x="342.31671"
         y="453.76666" /><rect
         style="fill:#ff5555;fill-opacity:1;stroke:none;stroke-width:1.41732;stroke-linejoin:bevel"
         id="rect4103"
         width="3.4578488"
         height="48.933334"
         x="346.81671"
         y="453.76666" /><rect
         style="fill:#5599ff;fill-opacity:1;stroke:none;stroke-width:1.41732;stroke-linejoin:bevel"
         id="rect4105"
         width="3.4578488"
         height="48.933334"
         x="351.31671"
         y="453.76666" /><rect
         style="fill:#5599ff;fill-opacity:1;stroke:none;stroke-width:1.41732;stroke-linejoin:bevel"
         id="rect4107"
         width="3.4578488"
         height="48.933334"
         x="355.81671"
         y="453.76666" /><rect
         style="fill:#5599ff;fill-opacity:1;stroke:none;stroke-width:1.41732;stroke-linejoin:bevel"
         id="rect4111"
         width="3.4578488"
         height="48.933334"
         x="562.81671"
         y="453.76666" /><rect
         style="fill:#5599ff;fill-opacity:1;stroke:none;stroke-width:1.41732;stroke-linejoin:bevel"
         id="rect4113"
         width="3.4578488"
         height="48.933334"
         x="567.31671"
         y="453.76666" /><rect
         style="fill:#5599ff;fill-opacity:1;stroke:none;stroke-width:1.41732;stroke-linejoin:bevel"
         id="rect4115"
         width="3.4578488"
         height="48.933334"
         x="571.81671"
         y="453.76666" /><rect
         style="fill:#5599ff;fill-opacity:1;stroke:none;stroke-width:1.41732;stroke-linejoin:bevel"
         id="rect4117"
         width="3.4578488"
         height="48.933334"
         x="576.31671"
         y="453.76666" /><rect
         style="fill:#5599ff;fill-opacity:1;stroke:none;stroke-width:1.41732;stroke-linejoin:bevel"
         id="rect4119"
         width="3.4578488"
         height="48.933334"
         x="580.81671"
         y="453.76666" /><rect
         style="fill:#5599ff;fill-opacity:1;stroke:none;stroke-width:1.41732;stroke-linejoin:bevel"
         id="rect4123"
         width="3.4578488"
         height="48.933334"
         x="142.81673"
         y="453.76666" /><rect
         style="fill:#5599ff;fill-opacity:1;stroke:none;stroke-width:1.41732;stroke-linejoin:bevel"
         id="rect4125"
         width="3.4578488"
         height="48.933334"
         x="181.81673"
         y="453.76666" /><rect
         style="fill:#5599ff;fill-opacity:1;stroke:none;stroke-width:1.41732;stroke-linejoin:bevel"
         id="rect4127"
         width="3.4578488"
         height="48.933334"
         x="238.81673"
         y="453.76666" /><rect
         style="fill:#5599ff;fill-opacity:1;stroke:none;stroke-width:1.41732;stroke-linejoin:bevel"
         id="rect4129"
         width="3.4578488"
         height="48.933334"
         x="360.31671"
         y="453.76666" /><rect
         style="fill:#5599ff;fill-opacity:1;stroke:none;stroke-width:1.41732;stroke-linejoin:bevel"
         id="rect4131"
         width="3.4578488"
         height="48.933334"
         x="585.31671"
         y="453.76666" /><path
         style="fill:#000000;fill-opacity:1;stroke:#000000;stroke-width:5.66929;stroke-linejoin:bevel;stroke-dasharray:none;marker-end:url(#Arrow1)"
         d="m 350.85784,278.26667 c 0,8.75474 0,17.50873 0,26.26197"
         id="path4199"
         inkscape:path-effect="#path-effect4201"
         inkscape:original-d="m 350.85784,278.26667 c 7.5e-4,8.75474 7.5e-4,17.50873 0,26.26197"
         sodipodi:nodetypes="cc" /><text
         xml:space="preserve"
         transform="matrix(0.75,0,0,0.75,54,61.5)"
         id="text4906"
         style="font-weight:bold;font-size:21.3333px;font-family:Arial;-inkscape-font-specification:'Arial Bold';text-align:center;text-anchor:middle;white-space:pre;shape-inside:url(#rect4908);display:inline;fill:#000000;fill-opacity:1;stroke:none;stroke-width:7.55906;stroke-linejoin:bevel;stroke-dasharray:none"><tspan
           sodipodi:role="line"
           id="tspan4910">brake event extraction</tspan></text><text
         xml:space="preserve"
         transform="matrix(0.75,0,0,0.75,228,36)"
         id="text5075"
         style="font-weight:bold;font-size:21.3333px;font-family:Arial;-inkscape-font-specification:'Arial Bold';text-align:center;text-anchor:middle;white-space:pre;shape-inside:url(#rect5077);display:inline;fill:#000000;fill-opacity:1;stroke:none;stroke-width:7.55906;stroke-linejoin:bevel;stroke-dasharray:none"><tspan
           sodipodi:role="line"
           id="tspan5073"
           style="font-style:normal;font-variant:normal;font-weight:normal;font-stretch:normal;font-family:Arial;-inkscape-font-specification:Arial">time</tspan></text><text
         xml:space="preserve"
         transform="matrix(0.75,0,0,0.75,114,55.5)"
         id="text5085"
         style="font-weight:bold;font-size:21.3333px;font-family:Arial;-inkscape-font-specification:'Arial Bold';text-align:center;text-anchor:middle;white-space:pre;shape-inside:url(#rect5087);display:inline;fill:#000000;fill-opacity:1;stroke:none;stroke-width:7.55906;stroke-linejoin:bevel;stroke-dasharray:none"><tspan
           sodipodi:role="line"
           id="tspan5089"
           style="font-style:normal;font-variant:normal;font-weight:normal;font-stretch:normal;font-family:Arial;-inkscape-font-specification:Arial">sq<tspan
   style="font-size:65%;baseline-shift:sub"
   id="tspan5097">BL</tspan></tspan></text><text
         xml:space="preserve"
         transform="matrix(0.75,0,0,0.75,117,31.5)"
         id="text5099"
         style="font-style:normal;font-variant:normal;font-weight:normal;font-stretch:normal;font-size:21.3333px;font-family:Arial;-inkscape-font-specification:Arial;text-align:center;text-anchor:middle;white-space:pre;shape-inside:url(#rect5101);display:inline;fill:#000000;fill-opacity:1;stroke:none;stroke-width:7.55906;stroke-linejoin:bevel;stroke-dasharray:none"><tspan
           style="font-style:italic;font-variant:normal;font-weight:normal;font-stretch:normal;font-family:Arial;-inkscape-font-specification:'Arial Italic'"
           id="tspan5114">p</tspan><tspan
           style="font-size:65%;baseline-shift:sub"
           id="tspan5111">ESC</tspan></text><text
         xml:space="preserve"
         transform="matrix(0.75,0,0,0.75,103.5,6.0000001)"
         id="text5116"
         style="font-style:italic;font-variant:normal;font-weight:normal;font-stretch:normal;font-size:21.3333px;font-family:Arial;-inkscape-font-specification:'Arial Italic';text-align:center;text-anchor:middle;white-space:pre;shape-inside:url(#rect5118);display:inline;fill:#000000;fill-opacity:1;stroke:none;stroke-width:7.55906;stroke-linejoin:bevel;stroke-dasharray:none"><tspan
           sodipodi:role="line"
           id="tspan5120">v</tspan></text><path
         style="fill:#000000;fill-opacity:1;stroke:#000000;stroke-width:5.66929;stroke-linejoin:bevel;stroke-dasharray:none;marker-end:url(#Arrow1)"
         d="m 350.85784,399.76667 c 0,8.75474 0,17.50873 0,26.26197"
         id="path5206"
         inkscape:path-effect="#path-effect5216"
         inkscape:original-d="m 350.85784,399.76667 c 7.5e-4,8.75474 7.5e-4,17.50873 0,26.26197"
         sodipodi:nodetypes="cc" /><text
         xml:space="preserve"
         transform="matrix(0.75,0,0,0.75,9.0000001,183)"
         id="text5210"
         style="font-weight:bold;font-size:21.3333px;font-family:Arial;-inkscape-font-specification:'Arial Bold';text-align:center;text-anchor:middle;white-space:pre;shape-inside:url(#rect5212);display:inline;fill:#000000;fill-opacity:1;stroke:none;stroke-width:7.55906;stroke-linejoin:bevel;stroke-dasharray:none"><tspan
           sodipodi:role="line"
           id="tspan5208">sampling with
sliding window</tspan></text><g
         id="g8161"
         transform="translate(-13.5,379.5)"><path
           clip-path="url(#p40a57da567)"
           d="m 119.7038,186.2 v -48.93333 h 9.96999 V 186.2 Z"
           style="opacity:0.3;fill:#008000;stroke:#008000;stroke-linejoin:miter"
           id="path8159" /></g><g
         id="g8165"
         transform="translate(54,379.5)"
         style="fill:#ff0000;stroke:#ff0000"><path
           clip-path="url(#p40a57da567)"
           d="m 173.63839,186.2 v -48.93333 h 15.15263 V 186.2 Z"
           style="opacity:0.3;fill:#ff0000;stroke:#ff0000;stroke-linejoin:miter"
           id="path8163" /></g><rect
         style="fill:#ff5555;fill-opacity:1;stroke:none;stroke-width:1.41732;stroke-linejoin:bevel"
         id="rect8167"
         width="3.4578488"
         height="48.933334"
         x="510.31671"
         y="516.76666" /><text
         xml:space="preserve"
         transform="matrix(0.75,0,0,0.75,-46.5,309)"
         id="text8179"
         style="font-weight:bold;font-size:21.3333px;font-family:Arial;-inkscape-font-specification:'Arial Bold';text-align:center;text-anchor:middle;white-space:pre;shape-inside:url(#rect8181);display:inline;fill:#000000;fill-opacity:1;stroke:none;stroke-width:7.55906;stroke-linejoin:bevel;stroke-dasharray:none"><tspan
           sodipodi:role="line"
           id="tspan8177"
           style="font-style:normal;font-variant:normal;font-weight:normal;font-stretch:normal;font-family:Arial;-inkscape-font-specification:Arial">silent 
brake event</tspan></text><text
         xml:space="preserve"
         transform="matrix(0.75,0,0,0.75,87,309)"
         id="text8243"
         style="font-weight:bold;font-size:21.3333px;font-family:Arial;-inkscape-font-specification:'Arial Bold';text-align:center;text-anchor:middle;white-space:pre;shape-inside:url(#rect8245);display:inline;fill:#000000;fill-opacity:1;stroke:none;stroke-width:7.55906;stroke-linejoin:bevel;stroke-dasharray:none"><tspan
           sodipodi:role="line"
           id="tspan8241"
           style="font-style:normal;font-variant:normal;font-weight:normal;font-stretch:normal;font-family:Arial;-inkscape-font-specification:Arial">squealing brake event</tspan></text><rect
         style="fill:#5599ff;fill-opacity:1;stroke:none;stroke-width:1.41732;stroke-linejoin:bevel"
         id="rect8939"
         width="3.4578488"
         height="48.933334"
         x="406.81671"
         y="516.76666" /><text
         xml:space="preserve"
         transform="matrix(0.75,0,0,0.75,238.5,309)"
         id="text8945"
         style="font-weight:bold;font-size:21.3333px;font-family:Arial;-inkscape-font-specification:'Arial Bold';text-align:center;text-anchor:middle;white-space:pre;shape-inside:url(#rect8947);display:inline;fill:#000000;fill-opacity:1;stroke:none;stroke-width:7.55906;stroke-linejoin:bevel;stroke-dasharray:none"><tspan
           sodipodi:role="line"
           id="tspan8943"
           style="font-style:normal;font-variant:normal;font-weight:normal;font-stretch:normal;font-family:Arial;-inkscape-font-specification:Arial">silent
sample</tspan></text><text
         xml:space="preserve"
         transform="matrix(0.75,0,0,0.75,348,309)"
         id="text8957"
         style="font-weight:bold;font-size:21.3333px;font-family:Arial;-inkscape-font-specification:'Arial Bold';text-align:center;text-anchor:middle;white-space:pre;shape-inside:url(#rect8959);display:inline;fill:#000000;fill-opacity:1;stroke:none;stroke-width:7.55906;stroke-linejoin:bevel;stroke-dasharray:none"><tspan
           sodipodi:role="line"
           id="tspan8955"
           style="font-style:normal;font-variant:normal;font-weight:normal;font-stretch:normal;font-family:Arial;-inkscape-font-specification:Arial">squealing sample</tspan></text><path
         style="fill:none;fill-opacity:1;stroke:#000000;stroke-width:5.52756;stroke-linejoin:bevel;stroke-dasharray:5.52756, 5.52756;stroke-dashoffset:0"
         d="m 352.16798,160.15451 c 0,10.00076 0,20.00076 0,30"
         id="path3096"
         inkscape:path-effect="#path-effect3098"
         inkscape:original-d="m 352.16798,160.15451 c 7.4e-4,10.00076 7.4e-4,20.00076 0,30" /><path
         style="fill:none;fill-opacity:1;stroke:#000000;stroke-width:5.52756;stroke-linecap:butt;stroke-linejoin:bevel;stroke-dasharray:5.52756, 5.52756;stroke-dashoffset:0"
         d="m 351.43664,68.006421 c 0,10.00076 0,20.00076 0,29.999996"
         id="path3096-4"
         inkscape:path-effect="#path-effect3098-5"
         inkscape:original-d="m 351.43664,68.006421 c 7.4e-4,10.00076 7.4e-4,20.00076 0,29.999996" /><path
         style="fill:none;fill-opacity:1;stroke:#000000;stroke-width:5.52756;stroke-linejoin:bevel;stroke-dasharray:5.52756, 5.52756;stroke-dashoffset:0"
         d="m 667.16798,224.65451 c -10.00076,0 -20.00076,0 -30,0"
         id="path17079"
         inkscape:path-effect="#path-effect17083"
         inkscape:original-d="m 667.16798,224.65451 c -10.00076,7.4e-4 -20.00076,7.4e-4 -30,0" /><path
         style="fill:none;fill-opacity:1;stroke:#000000;stroke-width:5.52756;stroke-linejoin:bevel;stroke-dasharray:5.52756, 5.52756;stroke-dashoffset:0"
         d="m 667.16798,133.15451 c -10.00076,0 -20.00076,0 -30,0"
         id="path17091"
         inkscape:path-effect="#path-effect17095"
         inkscape:original-d="m 667.16798,133.15451 c -10.00076,7.4e-4 -20.00076,7.4e-4 -30,0" /><path
         style="fill:none;fill-opacity:1;stroke:#000000;stroke-width:5.52756;stroke-linejoin:bevel;stroke-dasharray:5.52756, 5.52756;stroke-dashoffset:0"
         d="m 667.16798,43.15451 c -10.00076,0 -20.00076,0 -30,0"
         id="path17103"
         inkscape:path-effect="#path-effect17107"
         inkscape:original-d="m 667.16798,43.15451 c -10.00076,7.4e-4 -20.00076,7.4e-4 -30,0" /><path
         style="fill:none;fill-opacity:1;stroke:#000000;stroke-width:5.52756;stroke-linejoin:bevel;stroke-dasharray:5.52756, 5.52756;stroke-dashoffset:0"
         d="m 52.16798,224.65451 c -10.00076,0 -20.00076,0 -30,0"
         id="path17115"
         inkscape:path-effect="#path-effect17123"
         inkscape:original-d="m 52.16798,224.65451 c -10.00076,7.4e-4 -20.00076,7.4e-4 -30,0" /><path
         style="fill:none;fill-opacity:1;stroke:#000000;stroke-width:5.52756;stroke-linejoin:bevel;stroke-dasharray:5.52756, 5.52756;stroke-dashoffset:0"
         d="m 52.16798,133.15451 c -10.00076,0 -20.00076,0 -30,0"
         id="path17117"
         inkscape:path-effect="#path-effect17127"
         inkscape:original-d="m 52.16798,133.15451 c -10.00076,7.4e-4 -20.00076,7.4e-4 -30,0" /><path
         style="fill:none;fill-opacity:1;stroke:#000000;stroke-width:5.52756;stroke-linejoin:bevel;stroke-dasharray:5.52756, 5.52756;stroke-dashoffset:0"
         d="m 52.16798,43.15451 c -10.00076,0 -20.00076,0 -30,0"
         id="path17119"
         inkscape:path-effect="#path-effect17131"
         inkscape:original-d="m 52.16798,43.15451 c -10.00076,7.4e-4 -20.00076,7.4e-4 -30,0" /><path
         style="fill:none;fill-opacity:1;stroke:#000000;stroke-width:5.52756;stroke-linejoin:bevel;stroke-dasharray:5.52756, 5.52756;stroke-dashoffset:0"
         d="m 667.16798,478.15451 c -10.00076,0 -20.00076,0 -30,0"
         id="path17141"
         inkscape:path-effect="#path-effect17151"
         inkscape:original-d="m 667.16798,478.15451 c -10.00076,7.4e-4 -20.00076,7.4e-4 -30,0" /><path
         style="fill:none;fill-opacity:1;stroke:#000000;stroke-width:5.52756;stroke-linejoin:bevel;stroke-dasharray:5.52756, 5.52756;stroke-dashoffset:0"
         d="m 667.16798,358.15451 c -10.00076,0 -20.00076,0 -30,0"
         id="path17143"
         inkscape:path-effect="#path-effect17155"
         inkscape:original-d="m 667.16798,358.15451 c -10.00076,7.4e-4 -20.00076,7.4e-4 -30,0" /><path
         style="fill:none;fill-opacity:1;stroke:#000000;stroke-width:5.52756;stroke-linejoin:bevel;stroke-dasharray:5.52756, 5.52756;stroke-dashoffset:0"
         d="m 52.16798,478.15451 c -10.00076,0 -20.00076,0 -30,0"
         id="path17163"
         inkscape:path-effect="#path-effect17169"
         inkscape:original-d="m 52.16798,478.15451 c -10.00076,7.4e-4 -20.00076,7.4e-4 -30,0" /><path
         style="fill:none;fill-opacity:1;stroke:#000000;stroke-width:5.52756;stroke-linejoin:bevel;stroke-dasharray:5.52756, 5.52756;stroke-dashoffset:0"
         d="m 52.16798,358.15451 c -10.00076,0 -20.00076,0 -30,0"
         id="path17165"
         inkscape:path-effect="#path-effect17173"
         inkscape:original-d="m 52.16798,358.15451 c -10.00076,7.4e-4 -20.00076,7.4e-4 -30,0" /><rect
         style="fill:none;fill-opacity:1;stroke:#000000;stroke-width:2.83465;stroke-linejoin:bevel;stroke-dasharray:2.83465, 2.83465;stroke-dashoffset:0"
         id="rect17181"
         width="664.05145"
         height="300.57831"
         x="13.164014"
         y="-29.253365"
         ry="35.104038" /><text
         xml:space="preserve"
         transform="matrix(0.75,0,0,0.75,87,-234)"
         id="text17185"
         style="font-weight:bold;font-size:21.3333px;font-family:Arial;-inkscape-font-specification:'Arial Bold';text-align:center;text-anchor:middle;white-space:pre;shape-inside:url(#rect17187);display:inline;fill:#000000;fill-opacity:1;stroke:none;stroke-width:7.55906;stroke-linejoin:bevel;stroke-dasharray:none"><tspan
           sodipodi:role="line"
           id="tspan17183">raw data</tspan></text></g></g></svg>
