<?xml version="1.0" encoding="UTF-8" standalone="no"?>
<!-- Created with Inkscape (http://www.inkscape.org/) -->

<svg
   width="170.61383mm"
   height="119.87061mm"
   viewBox="0 0 170.61383 119.87061"
   version="1.1"
   id="svg3194"
   sodipodi:docname="selected_channels.svg"
   inkscape:version="1.2.1 (9c6d41e410, 2022-07-14)"
   inkscape:export-filename="selected_channels.pdf"
   inkscape:export-xdpi="96"
   inkscape:export-ydpi="96"
   xmlns:inkscape="http://www.inkscape.org/namespaces/inkscape"
   xmlns:sodipodi="http://sodipodi.sourceforge.net/DTD/sodipodi-0.dtd"
   xmlns="http://www.w3.org/2000/svg"
   xmlns:svg="http://www.w3.org/2000/svg">
  <sodipodi:namedview
     id="namedview3196"
     pagecolor="#ffffff"
     bordercolor="#000000"
     borderopacity="0.25"
     inkscape:showpageshadow="2"
     inkscape:pageopacity="0.0"
     inkscape:pagecheckerboard="0"
     inkscape:deskcolor="#d1d1d1"
     inkscape:document-units="mm"
     showgrid="false"
     inkscape:zoom="0.98898724"
     inkscape:cx="243.68363"
     inkscape:cy="233.06671"
     inkscape:window-width="1920"
     inkscape:window-height="1001"
     inkscape:window-x="-9"
     inkscape:window-y="-9"
     inkscape:window-maximized="1"
     inkscape:current-layer="layer1" />
  <defs
     id="defs3191">
    <inkscape:path-effect
       effect="bspline"
       id="path-effect19103"
       is_visible="true"
       lpeversion="1"
       weight="33.333333"
       steps="2"
       helper_size="0"
       apply_no_weight="true"
       apply_with_weight="true"
       only_selected="false" />
    <inkscape:path-effect
       effect="bspline"
       id="path-effect19087"
       is_visible="true"
       lpeversion="1"
       weight="33.333333"
       steps="2"
       helper_size="0"
       apply_no_weight="true"
       apply_with_weight="true"
       only_selected="false" />
    <inkscape:path-effect
       effect="bspline"
       id="path-effect19071"
       is_visible="true"
       lpeversion="1"
       weight="33.333333"
       steps="2"
       helper_size="0"
       apply_no_weight="true"
       apply_with_weight="true"
       only_selected="false" />
    <rect
       x="64.357399"
       y="248.05844"
       width="115.58569"
       height="47.368202"
       id="rect18241" />
    <marker
       style="overflow:visible"
       id="Dot"
       refX="0"
       refY="0"
       orient="auto"
       inkscape:stockid="Dot"
       markerWidth="5.6666665"
       markerHeight="5.6666665"
       viewBox="0 0 5.6666667 5.6666667"
       inkscape:isstock="true"
       inkscape:collect="always"
       preserveAspectRatio="xMidYMid">
      <path
         transform="scale(0.5)"
         style="fill:context-stroke;fill-rule:evenodd;stroke:context-stroke;stroke-width:1pt"
         d="M 5,0 C 5,2.76 2.76,5 0,5 -2.76,5 -5,2.76 -5,0 c 0,-2.76 2.3,-5 5,-5 2.76,0 5,2.24 5,5 z"
         id="Dot1"
         sodipodi:nodetypes="sssss" />
    </marker>
    <rect
       x="360.49283"
       y="470.97916"
       width="104.64674"
       height="60.456951"
       id="rect5526" />
    <marker
       style="overflow:visible"
       id="TriangleStart"
       refX="0"
       refY="0"
       orient="auto-start-reverse"
       inkscape:stockid="TriangleStart"
       markerWidth="5.3244081"
       markerHeight="6.155385"
       viewBox="0 0 5.3244081 6.1553851"
       inkscape:isstock="true"
       inkscape:collect="always"
       preserveAspectRatio="xMidYMid">
      <path
         transform="scale(0.5)"
         style="fill:context-stroke;fill-rule:evenodd;stroke:context-stroke;stroke-width:1pt"
         d="M 5.77,0 -2.88,5 V -5 Z"
         id="path135" />
    </marker>
    <inkscape:path-effect
       effect="bspline"
       id="path-effect3985"
       is_visible="true"
       lpeversion="1"
       weight="33.333333"
       steps="2"
       helper_size="0"
       apply_no_weight="true"
       apply_with_weight="true"
       only_selected="false" />
    <rect
       x="323.95795"
       y="468.05383"
       width="175.34276"
       height="76.058746"
       id="rect3979" />
    <rect
       x="825.34277"
       y="151.94595"
       width="148.49263"
       height="88.635132"
       id="rect22028" />
    <inkscape:path-effect
       effect="bspline"
       id="path-effect22020"
       is_visible="true"
       lpeversion="1"
       weight="33.333333"
       steps="2"
       helper_size="0"
       apply_no_weight="true"
       apply_with_weight="true"
       only_selected="false" />
    <rect
       x="825.34277"
       y="151.94595"
       width="148.49263"
       height="88.635132"
       id="rect22014" />
    <inkscape:path-effect
       effect="bspline"
       id="path-effect21912"
       is_visible="true"
       lpeversion="1"
       weight="33.333333"
       steps="2"
       helper_size="0"
       apply_no_weight="true"
       apply_with_weight="true"
       only_selected="false" />
    <rect
       x="825.34277"
       y="151.94595"
       width="148.49263"
       height="88.635132"
       id="rect1999" />
    <rect
       x="825.34277"
       y="151.94595"
       width="148.49263"
       height="88.635132"
       id="rect1991" />
    <rect
       x="323.95795"
       y="468.05383"
       width="175.34276"
       height="76.058746"
       id="rect11029" />
    <rect
       x="360.49283"
       y="470.97916"
       width="104.64674"
       height="60.456951"
       id="rect11043" />
    <inkscape:path-effect
       effect="bspline"
       id="path-effect22020-2"
       is_visible="true"
       lpeversion="1"
       weight="33.333333"
       steps="2"
       helper_size="0"
       apply_no_weight="true"
       apply_with_weight="true"
       only_selected="false" />
    <rect
       x="360.49283"
       y="470.97916"
       width="104.64674"
       height="60.456951"
       id="rect13471" />
    <rect
       x="360.49283"
       y="470.97916"
       width="104.64674"
       height="60.456951"
       id="rect15109" />
    <rect
       x="360.49283"
       y="470.97916"
       width="104.64674"
       height="60.456951"
       id="rect16639" />
    <rect
       x="360.49283"
       y="470.97916"
       width="104.64674"
       height="60.456951"
       id="rect16721" />
    <rect
       x="360.49283"
       y="470.97916"
       width="104.64674"
       height="60.456951"
       id="rect19453" />
  </defs>
  <g
     inkscape:label="Ebene 1"
     inkscape:groupmode="layer"
     id="layer1"
     transform="translate(-30.78537,-41.067261)">
    <rect
       style="fill:#d7eef4;stroke:#000000;stroke-width:0.5;stroke-linejoin:bevel;stroke-dasharray:1.5, 1.5;stroke-dashoffset:0"
       id="rect16705"
       width="39.887669"
       height="58.689102"
       x="161.26154"
       y="49.956059"
       ry="5.3783259" />
    <g
       id="g1627"
       style="clip-rule:evenodd;fill-rule:evenodd;image-rendering:optimizeQuality;shape-rendering:geometricPrecision;text-rendering:geometricPrecision"
       transform="matrix(0.26458333,0,0,0.26458333,-52.162549,31.366378)">
      <path
         class="fil0 str0"
         d="M 460.768,395.78 C 393.0931,379.6458 345.324,319.0922 345.324,249.509 c 0,-69.5833 47.7779,-130.1 115.453,-146.234 l -10e-4,36.6818 c -47.6807,15.1871 -80.0761,59.4991 -80.0761,109.552 0,44.3542 25.5355,84.7992 65.5803,103.846 5.02989,-6.24059 12.6236,-9.87541 20.6412,-9.87541 14.6402,0 26.5128,11.8726 26.5128,26.5128 0,14.6402 -11.8726,26.5128 -26.5128,26.5128 -2.07162,0 -4.13999,-0.24584 -6.15315,-0.72502 z"
         id="path1615"
         style="fill:#84c225;stroke:#1f1a17;stroke-width:0.881412" />
      <path
         class="fil1 str0"
         d="m 420.487,379.728 c -46.5112,-26.8348 -75.1631,-76.5132 -75.1631,-130.22 0,-53.7062 28.6706,-103.375 75.1818,-130.21 l -4.42155,-7.65964 c -49.2474,28.4135 -79.6041,81.004 -79.6041,137.87 0,56.8658 30.3375,109.436 79.5849,137.87 l 4.42205,-7.6499 z"
         id="path1617"
         style="fill:#4d4948;stroke:#1f1a17;stroke-width:0.881412" />
      <path
         class="fil2 str0"
         d="m 435.863,377.76 c -49.822,-23.2351 -81.6948,-73.2644 -81.6948,-128.251 0,-54.9869 31.8727,-105.016 81.6948,-128.251"
         id="path1619"
         style="fill:none;stroke:#1f1a17;stroke-width:0.881412" />
      <line
         class="fil2 str0"
         x1="432.116"
         y1="385.79501"
         x2="435.86301"
         y2="377.76001"
         id="line1621"
         style="fill:none;stroke:#1f1a17;stroke-width:0.881412" />
      <line
         class="fil2 str0"
         x1="435.862"
         y1="121.257"
         x2="432.117"
         y2="113.221"
         id="line1623"
         style="fill:none;stroke:#1f1a17;stroke-width:0.881412" />
      <circle
         class="fil3 str0"
         cx="466.92099"
         cy="369.992"
         r="8.8376503"
         id="circle1625"
         style="fill:#c0a062;stroke:#1f1a17;stroke-width:0.881412" />
    </g>
    <g
       id="g1641"
       style="clip-rule:evenodd;fill-rule:evenodd;image-rendering:optimizeQuality;shape-rendering:geometricPrecision;text-rendering:geometricPrecision"
       transform="matrix(0.26458333,0,0,0.26458333,-52.162549,31.366378)">
      <path
         class="fil1 str0"
         d="m 570.842,379.734 c 46.5115,-26.8348 75.1729,-76.519 75.1729,-130.225 0,-53.7062 -28.6704,-103.375 -75.1818,-130.21 l 4.4213,-7.65939 c 49.2474,28.4135 79.6044,81.0037 79.6044,137.869 0,56.8658 -30.3567,109.456 -79.6041,137.87 l -4.41256,-7.64415 z"
         id="path1629"
         style="fill:#4d4948;stroke:#1f1a17;stroke-width:0.881412" />
      <path
         class="fil0 str0"
         d="m 530.562,395.742 c 67.6749,-16.1342 115.453,-76.6504 115.453,-146.234 0,-69.5833 -47.7779,-130.1 -115.453,-146.234 l 10e-4,36.6818 c 47.6807,15.1871 80.0761,59.4991 80.0761,109.552 0,44.3542 -25.5442,84.7617 -65.5892,103.809 -5.02989,-6.24059 -12.6236,-9.87541 -20.6412,-9.87541 -14.6402,0 -26.5128,11.8726 -26.5128,26.5128 0,14.6402 11.8726,26.5128 26.5128,26.5128 2.07162,0 4.13999,-0.24584 6.15315,-0.72502 z"
         id="path1631"
         style="fill:#84c225;stroke:#1f1a17;stroke-width:0.881412" />
      <path
         class="fil2 str0"
         d="m 555.476,121.257 c 49.8219,23.2351 81.6946,73.2642 81.6946,128.251 0,54.9871 -31.8727,105.016 -81.6946,128.251"
         id="path1633"
         style="fill:none;stroke:#1f1a17;stroke-width:0.881412" />
      <line
         class="fil2 str0"
         x1="559.22101"
         y1="385.79599"
         x2="555.47601"
         y2="377.76001"
         id="line1635"
         style="fill:none;stroke:#1f1a17;stroke-width:0.881412" />
      <line
         class="fil2 str0"
         x1="555.47601"
         y1="121.257"
         x2="559.22101"
         y2="113.221"
         id="line1637"
         style="fill:none;stroke:#1f1a17;stroke-width:0.881412" />
      <circle
         class="fil3 str0"
         cx="524.409"
         cy="369.95499"
         r="8.8376503"
         id="circle1639"
         style="fill:#c0a062;stroke:#1f1a17;stroke-width:0.881412" />
    </g>
    <circle
       class="fil2 str1"
       cx="78.983231"
       cy="97.382019"
       r="46.798706"
       id="circle1643"
       style="clip-rule:evenodd;fill:none;fill-rule:evenodd;stroke:#838281;stroke-width:2.79831;image-rendering:optimizeQuality;shape-rendering:geometricPrecision;text-rendering:geometricPrecision" />
    <g
       id="g1647"
       style="clip-rule:evenodd;fill-rule:evenodd;image-rendering:optimizeQuality;shape-rendering:geometricPrecision;text-rendering:geometricPrecision"
       transform="matrix(0.26458333,0,0,0.26458333,-52.162549,31.366378)">
      <path
         class="fil9"
         d="m 500.567,171.095 h -9.79596 l 4.89798,-8.90406 z m -5.83486,13.7518 V 170.323 h 1.87375 v 14.5238 z"
         id="path1645"
         style="fill:#1f1a17;fill-rule:nonzero" />
    </g>
    <g
       id="g1675"
       style="clip-rule:evenodd;fill-rule:evenodd;image-rendering:optimizeQuality;shape-rendering:geometricPrecision;text-rendering:geometricPrecision"
       transform="matrix(0.26458333,0,0,0.26458333,-52.162549,31.366378)">
      <polygon
         class="fil4"
         points="519.462,134.187 519.462,104.654 510.899,104.654 510.899,102.048 480.439,102.048 480.439,104.654 471.876,104.654 471.876,134.187 480.439,134.187 480.439,136.793 491.862,136.793 491.862,149.499 499.477,149.499 499.477,136.793 510.899,136.793 510.899,134.187 "
         id="polygon1649"
         style="fill:#fff974" />
      <path
         class="fil2 str0"
         d="m 480.439,134.187 h -8.56354 v -29.5338 h 8.56354 m 30.4597,0 h 8.56379 v 29.5338 h -8.56379"
         id="path1651"
         style="fill:none;stroke:#1f1a17;stroke-width:0.881412" />
      <rect
         class="fil5 str0"
         x="455.26099"
         y="116.022"
         width="16.6143"
         height="6.7967501"
         id="rect1653"
         style="fill:#ffffff;stroke:#1f1a17;stroke-width:0.881412" />
      <rect
         class="fil5 str0"
         x="519.46301"
         y="116.022"
         width="16.6143"
         height="6.7967501"
         id="rect1655"
         style="fill:#ffffff;stroke:#1f1a17;stroke-width:0.881412" />
      <line
         class="fil2 str0"
         x1="481.841"
         y1="110.56"
         x2="490.022"
         y2="110.56"
         id="line1657"
         style="fill:none;stroke:#1f1a17;stroke-width:0.881412" />
      <line
         class="fil2 str0"
         x1="488.18701"
         y1="116.906"
         x2="496.36801"
         y2="116.906"
         id="line1659"
         style="fill:none;stroke:#1f1a17;stroke-width:0.881412" />
      <line
         class="fil2 str0"
         x1="475.495"
         y1="123.251"
         x2="483.677"
         y2="123.251"
         id="line1661"
         style="fill:none;stroke:#1f1a17;stroke-width:0.881412" />
      <line
         class="fil2 str0"
         x1="481.841"
         y1="129.597"
         x2="490.022"
         y2="129.597"
         id="line1663"
         style="fill:none;stroke:#1f1a17;stroke-width:0.881412" />
      <line
         class="fil2 str0"
         x1="500.87799"
         y1="110.56"
         x2="509.06"
         y2="110.56"
         id="line1665"
         style="fill:none;stroke:#1f1a17;stroke-width:0.881412" />
      <line
         class="fil2 str0"
         x1="507.224"
         y1="116.906"
         x2="515.40601"
         y2="116.906"
         id="line1667"
         style="fill:none;stroke:#1f1a17;stroke-width:0.881412" />
      <line
         class="fil2 str0"
         x1="494.53299"
         y1="123.251"
         x2="502.71399"
         y2="123.251"
         id="line1669"
         style="fill:none;stroke:#1f1a17;stroke-width:0.881412" />
      <line
         class="fil2 str0"
         x1="500.87799"
         y1="129.597"
         x2="509.06"
         y2="129.597"
         id="line1671"
         style="fill:none;stroke:#1f1a17;stroke-width:0.881412" />
      <path
         class="fil2 str0"
         d="m 491.862,149.499 v -12.706 h -22.6299 v -9.75799 m 30.2448,22.464 v -12.706 h 22.6294 v -9.75799 m -52.8742,-15.2298 v -9.75799 h 52.8742 v 9.75799"
         id="path1673"
         style="fill:none;stroke:#1f1a17;stroke-width:0.881412" />
    </g>
    <g
       id="g1679"
       style="clip-rule:evenodd;fill-rule:evenodd;image-rendering:optimizeQuality;shape-rendering:geometricPrecision;text-rendering:geometricPrecision"
       transform="matrix(0.26458333,0,0,0.26458333,-52.162549,31.366378)">
      <path
         class="fil9"
         d="m 475.056,119.42 4.85676,-2.42838 v 4.85676 z m 13.1297,0.93688 h -8.33669 v -1.87375 h 8.33669 z"
         id="path1677"
         style="fill:#1f1a17;fill-rule:nonzero" />
    </g>
    <g
       id="g1683"
       style="clip-rule:evenodd;fill-rule:evenodd;image-rendering:optimizeQuality;shape-rendering:geometricPrecision;text-rendering:geometricPrecision"
       transform="matrix(0.26458333,0,0,0.26458333,-52.162549,31.366378)">
      <path
         class="fil9"
         d="m 516.282,119.42 -4.85676,2.42838 v -4.85676 z m -13.1297,-0.93687 h 8.33669 v 1.87375 h -8.33669 z"
         id="path1681"
         style="fill:#1f1a17;fill-rule:nonzero" />
    </g>
    <g
       id="g1701"
       style="clip-rule:evenodd;fill-rule:evenodd;image-rendering:optimizeQuality;shape-rendering:geometricPrecision;text-rendering:geometricPrecision"
       transform="matrix(0.26458333,0,0,0.26458333,-52.162549,31.366378)">
      <path
         class="fil10"
         d="m 549.905,441.078 0.95012,3.38774 -4.33823,1.17472 -4.36221,1.08365 -4.37071,0.97922 -4.3912,0.88141 -4.39657,0.78423 -4.41393,0.68667 -4.42267,0.58948 -4.4233,0.48555 -4.43567,0.39549 -4.43267,0.29168 -4.44204,0.19512 -4.44291,0.0984 -4.42805,0.002 -4.43941,-0.0943 -4.42855,-0.1905 -4.42942,-0.28643 -4.42217,-0.38937 -4.40631,-0.47831 -4.40256,-0.58073 -4.38345,-0.67643 -4.37646,-0.77186 -4.35397,-0.86704 -4.34385,-0.96224 -4.31824,-1.06417 -4.30463,-1.15211 -4.2759,-1.25379 -4.25229,-1.34173 -4.23368,-1.44291 -4.2002,-1.53735 -4.17159,-1.63154 -4.14836,-1.72585 -4.10976,-1.82666 1.45978,-3.19487 4.0408,1.78543 4.06591,1.69812 4.10264,1.60405 4.13124,1.50987 4.15123,1.41543 4.18333,1.32774 4.20694,1.22631 4.22218,1.13837 4.24929,1.03668 4.26116,0.94849 4.28527,0.85331 4.29376,0.75787 4.3145,0.66268 4.32012,0.567 4.33736,0.47831 4.33948,0.37562 4.34698,0.28643 4.35959,0.1905 4.35672,0.0943 4.37308,-0.002 4.36022,-0.0984 4.35934,-0.19512 4.36396,-0.29168 4.35297,-0.38174 4.35435,-0.48555 4.34023,-0.57575 4.33124,-0.67292 4.32761,-0.77024 4.30875,-0.86767 4.30176,-0.96548 4.27952,-1.05617 4.26953,-1.16098 z m 12.384,-1.68013 -20.8189,16.869 0.12754,-0.72177 0.1078,-0.71627 0.0879,-0.71053 0.0681,-0.7049 0.0484,-0.69941 0.0284,-0.69366 0.009,-0.68817 -0.0112,-0.68242 -0.031,-0.67692 -0.051,-0.6713 -0.0707,-0.66556 -0.0906,-0.66006 -0.11043,-0.65431 -0.13016,-0.64882 -0.15015,-0.64307 -0.16989,-0.63758 -0.18975,-0.63195 -0.20961,-0.62621 -0.22934,-0.62071 -0.24934,-0.61509 -0.26907,-0.60946 -0.28893,-0.60373 -0.30867,-0.59822 -0.32866,-0.59261 -0.34839,-0.58686 -0.36825,-0.58136 -0.38812,-0.57574 -0.40785,-0.57012 -0.42784,-0.5645 -0.44758,-0.55875 -0.46744,-0.55326 -0.4873,-0.54763 v 0 l 26.5734,3.44195 z"
         id="path1699"
         style="fill:#da251d;fill-rule:nonzero" />
    </g>
    <g
       id="g1745"
       style="clip-rule:evenodd;fill-rule:evenodd;image-rendering:optimizeQuality;shape-rendering:geometricPrecision;text-rendering:geometricPrecision"
       transform="matrix(0.26458333,0,0,0.26458333,-52.162549,31.366378)">
      <path
         class="fil9"
         d="m 421.996,138.565 2.98488,-4.52086 2.42276,4.19633 z m 11.8391,-5.75604 -7.22955,4.17397 -0.93688,-1.61767 7.22955,-4.17397 z"
         id="path1743"
         style="fill:#1f1a17;fill-rule:nonzero" />
    </g>
    <g
       id="g1749"
       style="clip-rule:evenodd;fill-rule:evenodd;image-rendering:optimizeQuality;shape-rendering:geometricPrecision;text-rendering:geometricPrecision"
       transform="matrix(0.26458333,0,0,0.26458333,-52.162549,31.366378)">
      <path
         class="fil9"
         d="m 566.621,138.565 -5.40764,-0.32453 2.42276,-4.19633 z m -10.9022,-7.37371 7.22955,4.17397 -0.93687,1.61767 -7.22956,-4.17397 z"
         id="path1747"
         style="fill:#1f1a17;fill-rule:nonzero" />
    </g>
    <path
       style="fill:#000000;stroke:#000000;stroke-width:1.5;stroke-linejoin:bevel;stroke-dasharray:none;marker-end:url(#TriangleStart)"
       d="m 78.983202,97.382035 c 20.322741,8.8e-5 40.645208,1.76e-4 60.967428,2.64e-4"
       id="path3983"
       inkscape:path-effect="#path-effect3985"
       inkscape:original-d="m 78.983202,97.382035 c 20.322741,2.64e-4 40.645208,5.29e-4 60.967428,2.64e-4" />
    <text
       xml:space="preserve"
       transform="matrix(0.26458333,0,0,0.26458333,-29.104167,26.987501)"
       id="text5524"
       style="font-weight:bold;font-size:32px;font-family:Arial;-inkscape-font-specification:'Arial Bold';text-align:center;white-space:pre;shape-inside:url(#rect5526);display:inline;fill:#000000;stroke:none;stroke-width:5.66929;stroke-linejoin:bevel;stroke-dasharray:none"><tspan
         x="391.39902"
         y="499.86914"
         id="tspan3472"><tspan
           style="font-style:italic;font-family:Cambria;-inkscape-font-specification:'Cambria Bold Italic'"
           id="tspan3468">τ</tspan><tspan
           style="font-size:65%;baseline-shift:sub"
           id="tspan3470">BL</tspan></tspan></text>
    <text
       xml:space="preserve"
       transform="matrix(0.26458333,0,0,0.26458333,32.808334,-43.391671)"
       id="text11041"
       style="font-weight:bold;font-size:32px;font-family:Arial;-inkscape-font-specification:'Arial Bold';text-align:center;white-space:pre;shape-inside:url(#rect11043);display:inline;fill:#000000;stroke:none;stroke-width:5.66929;stroke-linejoin:bevel;stroke-dasharray:none"><tspan
         x="389.19824"
         y="499.86914"
         id="tspan3476"><tspan
           style="font-style:italic;font-family:Cambria;-inkscape-font-specification:'Cambria Bold Italic'"
           id="tspan3474">v, a</tspan></tspan></text>
    <text
       xml:space="preserve"
       transform="matrix(0.26458333,0,0,0.26458333,-30.071761,-47.144223)"
       id="text13469"
       style="font-weight:bold;font-size:32px;font-family:Arial;-inkscape-font-specification:'Arial Bold';text-align:center;white-space:pre;shape-inside:url(#rect13471);display:inline;fill:#000000;stroke:none;stroke-width:5.66929;stroke-linejoin:bevel;stroke-dasharray:none"><tspan
         x="385.94707"
         y="499.86914"
         id="tspan3482"><tspan
           style="font-style:italic;font-family:Cambria;-inkscape-font-specification:'Cambria Bold Italic'"
           id="tspan3478">p</tspan><tspan
           style="font-size:65%;font-family:Cambria;-inkscape-font-specification:'Cambria Bold';baseline-shift:sub"
           id="tspan3480">ESP</tspan></tspan></text>
    <path
       style="clip-rule:evenodd;fill:#000000;fill-rule:evenodd;stroke:#000000;stroke-width:0.7;stroke-linejoin:bevel;marker-start:url(#Dot);image-rendering:optimizeQuality;shape-rendering:geometricPrecision;text-rendering:geometricPrecision"
       d="M 116.68911,69.398577 128.9978,60.7451"
       id="path1985"
       sodipodi:nodetypes="cc" />
    <text
       xml:space="preserve"
       transform="matrix(0.26458333,0,0,0.26458333,26.458333,-75.141675)"
       id="text15107"
       style="font-weight:bold;font-size:32px;font-family:Arial;-inkscape-font-specification:'Arial Bold';text-align:center;white-space:pre;shape-inside:url(#rect15109);display:inline;fill:#000000;stroke:none;stroke-width:5.66929;stroke-linejoin:bevel;stroke-dasharray:none"><tspan
         x="390.67246"
         y="499.86914"
         id="tspan3488"><tspan
           style="font-style:italic;font-family:Cambria;-inkscape-font-specification:'Cambria Bold Italic'"
           id="tspan3484">T</tspan><tspan
           style="font-size:65%;font-family:Cambria;-inkscape-font-specification:'Cambria Bold';baseline-shift:sub"
           id="tspan3486">BL</tspan></tspan></text>
    <text
       xml:space="preserve"
       transform="matrix(0.26458333,0,0,0.26458333,70.908332,-64.558341)"
       id="text16637"
       style="font-weight:bold;font-size:32px;font-family:Arial;-inkscape-font-specification:'Arial Bold';text-align:center;white-space:pre;shape-inside:url(#rect16639);display:inline;fill:#000000;stroke:none;stroke-width:5.66929;stroke-linejoin:bevel;stroke-dasharray:none"><tspan
         x="390.67246"
         y="499.86914"
         id="tspan3494"><tspan
           style="font-style:italic;font-family:Cambria;-inkscape-font-specification:'Cambria Bold Italic'"
           id="tspan3490">T</tspan><tspan
           style="font-size:65%;font-family:Cambria;-inkscape-font-specification:'Cambria Bold';baseline-shift:sub"
           id="tspan3492">BL</tspan></tspan></text>
    <text
       xml:space="preserve"
       transform="matrix(0.26458333,0,0,0.26458333,71.277715,-39.491293)"
       id="text16719"
       style="font-weight:bold;font-size:32px;font-family:Arial;-inkscape-font-specification:'Arial Bold';text-align:center;white-space:pre;shape-inside:url(#rect16721);display:inline;fill:#000000;stroke:none;stroke-width:5.66929;stroke-linejoin:bevel;stroke-dasharray:none"><tspan
         x="390.68262"
         y="499.86914"
         id="tspan3498"><tspan
           style="font-family:Cambria;-inkscape-font-specification:'Cambria Bold'"
           id="tspan3496">RH</tspan></tspan></text>
    <text
       xml:space="preserve"
       transform="matrix(0.26458333,0,0,0.26458333,148.16666,-26.458332)"
       id="text18239"
       style="font-style:normal;font-variant:normal;font-weight:bold;font-stretch:normal;font-size:32px;font-family:Cambria;-inkscape-font-specification:'Cambria Bold';text-align:center;white-space:pre;shape-inside:url(#rect18241);display:inline;fill:#000000;stroke:none;stroke-width:1.88976;stroke-linejoin:bevel;stroke-dasharray:none;stroke-dashoffset:0"><tspan
         x="101.17383"
         y="276.94922"
         id="tspan3500">air</tspan></text>
    <rect
       style="fill:#808080;stroke:#000000;stroke-width:0.499999;stroke-linejoin:bevel;stroke-dasharray:none;stroke-dashoffset:0"
       id="rect19117"
       width="18.066883"
       height="5.8843703"
       x="198.08955"
       y="-34.84861"
       ry="0"
       transform="rotate(52.980761)" />
    <ellipse
       style="fill:#000000;stroke:#000000;stroke-width:0.499999;stroke-linejoin:bevel;stroke-dasharray:none;stroke-dashoffset:0"
       id="path19067"
       cx="194.16745"
       cy="-31.521172"
       rx="6.8017459"
       ry="7.1148648"
       transform="rotate(52.980761)" />
    <path
       style="fill:none;stroke:#ff0000;stroke-width:0.499999;stroke-linejoin:bevel;stroke-dasharray:none;stroke-dashoffset:0"
       id="path19279"
       sodipodi:type="arc"
       sodipodi:cx="-92.547379"
       sodipodi:cy="-172.08803"
       sodipodi:rx="10"
       sodipodi:ry="10"
       sodipodi:start="0"
       sodipodi:end="2.3506207"
       sodipodi:arc-type="arc"
       d="m -82.547379,-172.08803 a 10,10 0 0 1 -6.147433,9.2281 10,10 0 0 1 -10.884112,-2.11773"
       sodipodi:open="true"
       transform="rotate(162.0393)" />
    <path
       style="fill:none;stroke:#ff0000;stroke-width:0.499999;stroke-linejoin:bevel;stroke-dasharray:none;stroke-dashoffset:0"
       id="path19445"
       sodipodi:type="arc"
       sodipodi:cx="-92.547379"
       sodipodi:cy="-172.08803"
       sodipodi:rx="13.884872"
       sodipodi:ry="14.868615"
       sodipodi:start="0"
       sodipodi:end="2.3506207"
       sodipodi:arc-type="arc"
       d="m -78.662506,-172.08803 a 13.884872,14.868615 0 0 1 -8.535632,13.7209 13.884872,14.868615 0 0 1 -15.112452,-3.14876"
       sodipodi:open="true"
       transform="rotate(162.0393)" />
    <path
       style="fill:none;stroke:#ff0000;stroke-width:0.499999;stroke-linejoin:bevel;stroke-dasharray:none;stroke-dashoffset:0"
       id="path19447"
       sodipodi:type="arc"
       sodipodi:cx="-92.547379"
       sodipodi:cy="-172.08803"
       sodipodi:rx="18.630896"
       sodipodi:ry="19.207125"
       sodipodi:start="0"
       sodipodi:end="2.3506207"
       sodipodi:arc-type="arc"
       d="m -73.916483,-172.08803 a 18.630896,19.207125 0 0 1 -11.453218,17.72452 18.630896,19.207125 0 0 1 -20.278079,-4.06754"
       sodipodi:open="true"
       transform="rotate(162.0393)" />
    <text
       xml:space="preserve"
       transform="matrix(0.26458333,0,0,0.26458333,61.223548,13.954542)"
       id="text19451"
       style="font-weight:bold;font-size:32px;font-family:Arial;-inkscape-font-specification:'Arial Bold';text-align:center;white-space:pre;shape-inside:url(#rect19453);display:inline;fill:#000000;stroke:none;stroke-width:5.66929;stroke-linejoin:bevel;stroke-dasharray:none"><tspan
         x="383.5084"
         y="499.86914"
         id="tspan3506"><tspan
           style="font-family:Cambria;-inkscape-font-specification:'Cambria Bold'"
           id="tspan3502">sq</tspan><tspan
           style="font-size:65%;baseline-shift:sub"
           id="tspan3504">BL</tspan></tspan></text>
  </g>
</svg>
